<svg width="1669" height="748" viewBox="0 0 1669 748" fill="none" xmlns="http://www.w3.org/2000/svg">
<path d="M372.5 747.66C578.226 747.66 745 580.291 745 373.83C745 167.369 578.226 0 372.5 0C166.774 0 0 167.369 0 373.83C0 580.291 166.774 747.66 372.5 747.66Z" fill="#5760A9"/>
<path d="M406.43 679.67C574.739 679.67 711.18 542.741 711.18 373.83C711.18 204.919 574.739 67.99 406.43 67.99C238.121 67.99 101.68 204.919 101.68 373.83C101.68 542.741 238.121 679.67 406.43 679.67Z" fill="#535BA5"/>
<path d="M456.01 619.63C591.281 619.63 700.94 509.582 700.94 373.83C700.94 238.078 591.281 128.03 456.01 128.03C320.739 128.03 211.08 238.078 211.08 373.83C211.08 509.582 320.739 619.63 456.01 619.63Z" fill="#4C56A3"/>
<path d="M497.77 566.94C604.041 566.94 690.19 480.482 690.19 373.83C690.19 267.178 604.041 180.72 497.77 180.72C391.499 180.72 305.35 267.178 305.35 373.83C305.35 480.482 391.499 566.94 497.77 566.94Z" fill="#4B53A0"/>
<path d="M538.22 511.34C613.894 511.34 675.24 449.775 675.24 373.83C675.24 297.885 613.894 236.32 538.22 236.32C462.546 236.32 401.2 297.885 401.2 373.83C401.2 449.775 462.546 511.34 538.22 511.34Z" fill="#434B9B"/>
<path fill-rule="evenodd" clip-rule="evenodd" d="M447.72 398.09C443.95 403.47 442.67 417.83 424.72 433.8L420.02 437.8C405.52 448.38 389.43 454.08 366.76 451.86C288.76 444.22 275.6 327.57 359.61 305.86C385.91 299.06 416.29 310.71 432.26 330.62C434.87 333.87 455.94 369.53 455.96 369.56C459.21 375.48 462.04 380.13 465.51 386.02C466.95 388.47 474.4 400.46 475.06 403.31C476.39 409 475.25 494.31 475.45 508.64L491.12 508.96L491.17 431.47C503.54 442.56 504.46 450.76 531.55 462.35C583.48 484.56 654.68 447.53 654.55 377.9C654.4 299.31 557.55 256.46 500.02 315.82C496.41 319.55 494.25 323.11 491.14 324.82V288.09L475.63 288.17C475.05 295.84 474.3 326.22 476.56 331.54C479.23 337.83 490.11 354 492.88 359.21C494.43 356.54 495.21 352.7 496.3 350.05C498.917 343.622 502.428 337.596 506.73 332.15C508.827 329.605 511.088 327.199 513.5 324.95C546.26 291.84 602.11 300 625.77 336.59C651.66 376.65 636.24 427.1 595.35 445.91C581.78 452.16 562.58 454.61 545.8 450.3C512.86 441.86 503.51 419.42 489.8 396.22C482.91 384.58 476.53 373.22 469.7 361.22C450.56 327.47 431.99 288.61 376.58 288.22C349.15 288 322.58 300.38 306.18 321.42L301.72 325.56L301.82 239.7L286.17 238.86C287.72 278.04 286.29 320.18 286.29 359.59C286.29 395.4 287.46 421.97 318.55 448.05C354.87 478.53 411.72 475.96 445.61 435.35C448.82 431.51 455.79 420.68 457.22 416.7C458.45 413.27 456 411.03 453.93 407.34L447.72 398.09Z" fill="white" stroke="white" stroke-width="0.22" stroke-miterlimit="2.61"/>
<path d="M1669 250H1208V511H1669V250Z" fill="#5760A9"/>
<path fill-rule="evenodd" clip-rule="evenodd" d="M897.941 380.406V448.095C897.604 451.491 898.188 454.905 899.652 458.092C900.399 458.974 901.426 459.671 902.621 460.107C903.816 460.543 905.133 460.701 906.43 460.566H917.484C921.605 460.781 925.715 460.02 929.325 458.373C932.935 456.725 935.894 454.26 937.851 451.271C941.968 445.023 944.08 434.982 944.186 421.15C944.186 406.605 941.704 396.191 936.742 389.908C931.769 383.556 923.534 380.406 912.004 380.406H897.941ZM865 472.958V460.618H873.045C874.336 460.752 875.647 460.578 876.821 460.116C877.995 459.654 878.982 458.925 879.665 458.014C881.049 454.775 881.609 451.337 881.312 447.913V307.926C881.609 304.553 881.048 301.166 879.665 297.981C878.988 297.066 878.001 296.332 876.826 295.87C875.651 295.408 874.337 295.236 873.045 295.377H865V283.011H923.692C928.778 282.881 933.808 283.914 938.221 285.997C942.634 288.079 946.256 291.129 948.683 294.805C954.416 302.615 957.235 314.226 957.235 329.352C957.659 339.003 955.417 348.607 950.679 357.443C946.706 364.482 939.762 370.097 931.136 373.246C936.252 374.294 941.037 376.23 945.167 378.924C949.298 381.619 952.678 385.009 955.081 388.867C960.339 396.938 962.979 407.985 963 422.009C963 438.167 959.41 450.707 952.231 459.628C949.038 463.855 944.546 467.315 939.207 469.66C933.869 472.005 927.873 473.151 921.824 472.984L865 472.958ZM897.941 306.494V368.82H910.357C921.158 368.82 928.697 366.009 932.91 360.463C937.122 354.918 939.244 345.337 939.244 331.695C939.244 318.609 937.397 309.202 933.701 303.474C932.022 300.73 929.395 298.454 926.15 296.931C922.905 295.407 919.186 294.704 915.457 294.909H905.67C904.504 294.77 903.315 294.901 902.235 295.288C901.155 295.674 900.227 296.3 899.556 297.096C898.196 300.059 897.644 303.232 897.941 306.39V306.494Z" fill="#535BA5"/>
<path fill-rule="evenodd" clip-rule="evenodd" d="M973.323 472.922V461.918L980.871 461.399C981.761 461.397 982.633 461.2 983.395 460.83C984.156 460.46 984.778 459.93 985.194 459.297C986.123 456.835 986.494 454.26 986.29 451.692V302.514C986.598 299.665 986.01 296.8 984.581 294.183C983.752 293.375 982.679 292.752 981.464 292.375C980.249 291.997 978.934 291.878 977.645 292.028L975.484 292.158C974.66 292.243 973.831 292.286 973 292.288V282.14L1000.68 279V451.77C1000.46 454.334 1000.81 456.908 1001.71 459.375C1002.13 460.014 1002.77 460.547 1003.54 460.918C1004.31 461.288 1005.2 461.482 1006.1 461.477L1013 461.996V473L973.323 472.922Z" fill="#535BA5"/>
<path fill-rule="evenodd" clip-rule="evenodd" d="M1105 473.501L1078.39 476.718V452.314C1075.95 459.315 1072.05 465.91 1066.84 471.801C1065.25 473.66 1063.16 475.188 1060.72 476.264C1058.29 477.34 1055.58 477.935 1052.82 478C1045.32 478 1039.51 474.312 1035.4 466.936C1031.29 459.585 1029.23 449.201 1029.23 435.678V371.777C1029.54 368.908 1028.97 366.022 1027.57 363.38C1026.75 362.564 1025.69 361.935 1024.49 361.555C1023.28 361.175 1021.98 361.056 1020.71 361.209L1018.45 361.34C1017.64 361.424 1016.82 361.468 1016 361.471V351.165L1043.28 348V436.698C1042.9 442.993 1044.17 449.281 1047 455.139C1049.51 459.455 1053.01 461.626 1057.59 461.626C1063.95 461.626 1069.04 458.016 1072.44 450.823C1075.84 443.63 1077.56 433.219 1077.56 419.565V371.777C1077.87 368.908 1077.3 366.022 1075.91 363.38C1075.06 362.557 1073.96 361.925 1072.73 361.546C1071.5 361.166 1070.18 361.05 1068.88 361.209L1066.62 361.34C1065.8 361.425 1064.97 361.468 1064.14 361.471V351.165L1091.74 348V452.863C1091.44 455.751 1092.01 458.656 1093.43 461.312C1094.25 462.12 1095.31 462.741 1096.5 463.116C1097.7 463.492 1098.99 463.609 1100.26 463.457C1101.02 463.451 1101.77 463.407 1102.52 463.326C1103.57 463.326 1104.4 463.195 1105 463.195V473.501Z" fill="#535BA5"/>
<path fill-rule="evenodd" clip-rule="evenodd" d="M1130.06 402.758H1159.08C1159.95 402.846 1160.83 402.725 1161.61 402.41C1162.39 402.096 1163.04 401.602 1163.48 400.992C1164.41 398.929 1164.79 396.73 1164.59 394.541C1165.04 385.444 1163.6 376.351 1160.32 367.635C1157.46 361.389 1153.38 358.291 1147.99 358.291C1142.61 358.291 1137.67 361.952 1134.74 369.274C1131.81 376.595 1130.22 387.757 1130.06 402.758V402.758ZM1129.83 413.894C1129.83 414.56 1129.83 415.482 1129.83 416.608C1129.83 417.734 1129.83 418.528 1129.83 419.168C1129.83 432.48 1131.75 443.002 1135.47 450.707C1139.2 458.413 1144.33 462.355 1150.7 462.355C1156.09 462.355 1160.83 460.026 1165.01 455.392C1170.07 448.98 1173.63 441.873 1175.49 434.426L1181 439.546C1177.58 451.663 1173.12 460.768 1167.62 466.861C1162.08 472.928 1155.54 476 1148.03 476C1138.02 476 1129.83 470.086 1123.56 458.336C1117.28 446.586 1114 431.123 1114 412.128C1114 393.133 1117.19 377.568 1123.56 365.741C1129.93 353.914 1138.02 348 1148.03 348C1158.03 348 1166.22 353.453 1172.14 364.41C1178.07 375.366 1181 390.317 1181 409.286V413.946L1129.83 413.894Z" fill="#535BA5"/>
<path fill-rule="evenodd" clip-rule="evenodd" d="M1232 472.974V460.623H1240.18C1241.49 460.756 1242.81 460.58 1243.99 460.118C1245.18 459.656 1246.17 458.927 1246.86 458.018C1248.26 454.776 1248.83 451.335 1248.53 447.908V307.988C1248.83 304.595 1248.27 301.187 1246.86 297.982C1246.18 297.068 1245.19 296.335 1244 295.873C1242.81 295.41 1241.49 295.238 1240.18 295.377H1232V283H1292.63C1303.86 283 1312.57 287.577 1318.76 296.731C1324.94 305.886 1328.02 318.766 1328 335.372C1328 353.282 1324.12 366.709 1316.35 375.655C1308.58 384.601 1296.95 389.074 1281.46 389.074C1278.92 389.074 1276.39 389.074 1273.79 388.891C1271.19 388.709 1268.49 388.553 1265.7 388.318V447.934C1265.41 451.359 1265.97 454.796 1267.34 458.044C1267.99 458.934 1268.94 459.653 1270.07 460.115C1271.21 460.578 1272.49 460.763 1273.76 460.65H1283.39V473L1232 472.974ZM1265.7 307.675V376.124C1267.11 376.402 1268.53 376.602 1269.97 376.723C1271.59 376.868 1273.22 376.929 1274.85 376.906C1288.09 376.906 1297.23 373.822 1302.26 367.656C1307.29 361.489 1309.78 350.711 1309.74 335.32C1309.74 321.007 1307.77 310.671 1303.83 304.314C1302.16 301.349 1299.43 298.857 1296 297.158C1292.57 295.459 1288.59 294.63 1284.57 294.777H1273.95C1272.68 294.664 1271.41 294.849 1270.27 295.311C1269.13 295.774 1268.18 296.493 1267.53 297.383C1266.04 300.671 1265.42 304.178 1265.7 307.675V307.675Z" fill="white"/>
<path fill-rule="evenodd" clip-rule="evenodd" d="M1365.19 451.821C1364.99 454.394 1365.32 456.976 1366.19 459.459C1366.59 460.084 1367.2 460.607 1367.95 460.968C1368.7 461.33 1369.56 461.516 1370.43 461.505L1380.09 462.022V473H1338.58V462.022L1345.98 461.505C1346.85 461.52 1347.71 461.336 1348.45 460.974C1349.2 460.611 1349.8 460.086 1350.19 459.459C1351.09 456.981 1351.44 454.396 1351.22 451.821V372.363C1351.55 369.549 1350.97 366.715 1349.55 364.13C1348.46 362.784 1345.85 362.11 1341.73 362.11H1337V351.91L1364.42 348.725V385.645C1365.99 375.972 1369.24 366.525 1374.07 357.58C1378 351.176 1382.5 347.983 1387.59 348C1391.77 348 1395.24 350.097 1397.92 354.317C1400.84 359.277 1402.23 364.73 1401.97 370.214C1402.14 374.217 1401.27 378.205 1399.4 381.917C1397.69 384.92 1395.47 386.448 1392.96 386.448C1391.46 386.388 1390.01 385.976 1388.8 385.263C1387.59 384.549 1386.66 383.566 1386.14 382.435C1384.31 378.996 1383.46 375.271 1383.66 371.535C1383.64 369.333 1383.92 367.136 1384.5 364.984C1384.93 363.327 1385.71 361.741 1386.81 360.298H1385.88C1380.37 360.298 1375.59 366.426 1371.56 378.68C1367.17 393.464 1365.14 408.637 1365.51 423.834L1365.19 451.821Z" fill="white"/>
<path fill-rule="evenodd" clip-rule="evenodd" d="M1407.31 473V461.969L1414.61 461.449C1415.49 461.448 1416.35 461.251 1417.1 460.881C1417.85 460.51 1418.47 459.978 1418.89 459.341C1419.79 456.874 1420.16 454.292 1419.96 451.718V371.821C1420.26 368.966 1419.68 366.094 1418.29 363.47C1417.48 362.66 1416.44 362.035 1415.25 361.657C1414.07 361.279 1412.79 361.159 1411.53 361.31C1411.09 361.31 1410.4 361.31 1409.42 361.44C1408.62 361.524 1407.81 361.568 1407 361.57V351.32L1433.99 348.172V451.718C1433.78 454.288 1434.12 456.869 1434.99 459.341C1435.41 459.986 1436.03 460.523 1436.79 460.895C1437.55 461.266 1438.42 461.458 1439.3 461.449L1446 461.969V473H1407.31ZM1426.56 283.078C1429.08 283.078 1431.22 284.613 1433.07 287.631C1434.89 291.101 1435.82 294.842 1435.82 298.623C1435.82 302.404 1434.89 306.145 1433.07 309.615C1431.28 312.607 1429.05 314.09 1426.53 314.09C1424.02 314.09 1421.91 312.555 1420.24 309.485C1418.48 306.036 1417.57 302.329 1417.57 298.584C1417.57 294.839 1418.48 291.132 1420.24 287.683C1421.98 284.561 1424.09 283 1426.56 283V283.078Z" fill="white"/>
<path fill-rule="evenodd" clip-rule="evenodd" d="M1453.29 473V461.969L1460.81 461.449C1461.71 461.448 1462.59 461.251 1463.36 460.881C1464.13 460.51 1464.76 459.978 1465.19 459.341C1466.11 456.871 1466.47 454.29 1466.26 451.718V371.821C1466.57 368.968 1466 366.097 1464.58 363.47C1463.75 362.657 1462.67 362.032 1461.45 361.654C1460.23 361.276 1458.91 361.157 1457.61 361.31L1455.45 361.44C1454.64 361.525 1453.82 361.569 1453 361.57V351.32L1480.68 348.172V451.718C1480.46 454.288 1480.81 456.869 1481.71 459.341C1482.14 459.986 1482.77 460.523 1483.55 460.895C1484.33 461.266 1485.22 461.458 1486.13 461.449L1493 461.969V473H1453.29ZM1473.06 283.078C1475.65 283.078 1477.84 284.613 1479.74 287.631C1481.58 291.105 1482.53 294.845 1482.53 298.623C1482.53 302.401 1481.58 306.141 1479.74 309.615C1477.9 312.607 1475.61 314.09 1473.03 314.09C1470.45 314.09 1468.29 312.555 1466.58 309.485C1464.77 306.036 1463.84 302.329 1463.84 298.584C1463.84 294.839 1464.77 291.132 1466.58 287.683C1468.37 284.561 1470.53 283 1473.06 283V283.078Z" fill="white"/>
<path fill-rule="evenodd" clip-rule="evenodd" d="M1501.44 472.818V461.788L1508.11 461.267C1508.98 461.286 1509.85 461.104 1510.6 460.74C1511.35 460.376 1511.96 459.847 1512.36 459.212C1513.19 456.715 1513.52 454.122 1513.32 451.538V371.751C1513.63 368.865 1513.06 365.959 1511.65 363.297C1510.83 362.484 1509.76 361.859 1508.55 361.481C1507.35 361.103 1506.04 360.984 1504.76 361.137C1504.28 361.137 1503.54 361.137 1502.49 361.267C1501.66 361.352 1500.83 361.395 1500 361.397V351.148L1526.82 348V373.26C1529.21 366.37 1533.08 359.879 1538.25 354.087C1539.87 352.252 1541.99 350.747 1544.45 349.691C1546.9 348.635 1549.62 348.056 1552.4 348C1559.93 348 1565.78 351.651 1569.93 358.952C1574.08 366.254 1576.13 376.659 1576.09 390.17V451.616C1575.9 454.184 1576.24 456.759 1577.08 459.238C1577.48 459.875 1578.09 460.408 1578.84 460.78C1579.59 461.152 1580.45 461.348 1581.33 461.346L1588 461.866V472.896H1550.1V461.866L1556.8 461.346C1557.69 461.348 1558.56 461.143 1559.3 460.756C1560.05 460.369 1560.65 459.815 1561.02 459.16C1561.85 456.707 1562.19 454.158 1562.01 451.616V389.181C1562.39 382.91 1561.1 376.646 1558.24 370.815C1555.75 366.574 1552.24 364.415 1547.64 364.415C1540.97 364.415 1535.99 368.109 1532.63 375.497C1529.28 382.886 1527.56 393.864 1527.56 408.302V451.668C1527.34 454.296 1527.68 456.935 1528.55 459.472C1528.98 460.077 1529.6 460.578 1530.34 460.925C1531.09 461.272 1531.93 461.453 1532.79 461.45L1539.18 461.97V473L1501.44 472.818Z" fill="white"/>
<path fill-rule="evenodd" clip-rule="evenodd" d="M1606.35 363.095H1594V352.503C1600.28 351.668 1605.23 346.615 1608.83 337.344C1612.43 328.073 1614.36 314.959 1614.61 298H1621.08V351.485H1643.26V363.095H1620.36V439.2C1620 445.132 1620.7 451.075 1622.43 456.837C1622.77 458.178 1623.65 459.384 1624.92 460.26C1626.2 461.135 1627.78 461.63 1629.43 461.664C1633.62 461.664 1636.76 458.759 1638.86 452.95C1641.34 444.057 1642.5 434.944 1642.31 425.816L1648 425.686V429.156C1648 445.045 1645.96 457.177 1641.72 465.473C1637.48 473.77 1631.63 477.997 1623.84 477.997C1620.84 478.057 1617.89 477.307 1615.44 475.858C1613 474.409 1611.18 472.34 1610.27 469.961C1607.63 464.743 1606.31 455.115 1606.31 441.549L1606.35 363.095Z" fill="white"/>
</svg>
