<svg width="1722" height="748" viewBox="0 0 1722 748" fill="none" xmlns="http://www.w3.org/2000/svg">
<path d="M372.5 747.66C578.226 747.66 745 580.291 745 373.83C745 167.369 578.226 0 372.5 0C166.774 0 0 167.369 0 373.83C0 580.291 166.774 747.66 372.5 747.66Z" fill="#5760A9"/>
<path d="M406.43 679.67C574.739 679.67 711.18 542.741 711.18 373.83C711.18 204.919 574.739 67.99 406.43 67.99C238.121 67.99 101.68 204.919 101.68 373.83C101.68 542.741 238.121 679.67 406.43 679.67Z" fill="#535BA5"/>
<path d="M456.01 619.63C591.281 619.63 700.94 509.582 700.94 373.83C700.94 238.078 591.281 128.03 456.01 128.03C320.739 128.03 211.08 238.078 211.08 373.83C211.08 509.582 320.739 619.63 456.01 619.63Z" fill="#4C56A3"/>
<path d="M497.77 566.94C604.041 566.94 690.19 480.482 690.19 373.83C690.19 267.178 604.041 180.72 497.77 180.72C391.499 180.72 305.35 267.178 305.35 373.83C305.35 480.482 391.499 566.94 497.77 566.94Z" fill="#4B53A0"/>
<path d="M538.22 511.34C613.894 511.34 675.24 449.775 675.24 373.83C675.24 297.885 613.894 236.32 538.22 236.32C462.546 236.32 401.2 297.885 401.2 373.83C401.2 449.775 462.546 511.34 538.22 511.34Z" fill="#434B9B"/>
<path fill-rule="evenodd" clip-rule="evenodd" d="M447.72 398.09C443.95 403.47 442.67 417.83 424.72 433.8L420.02 437.8C405.52 448.38 389.43 454.08 366.76 451.86C288.76 444.22 275.6 327.57 359.61 305.86C385.91 299.06 416.29 310.71 432.26 330.62C434.87 333.87 455.94 369.53 455.96 369.56C459.21 375.48 462.04 380.13 465.51 386.02C466.95 388.47 474.4 400.46 475.06 403.31C476.39 409 475.25 494.31 475.45 508.64L491.12 508.96L491.17 431.47C503.54 442.56 504.46 450.76 531.55 462.35C583.48 484.56 654.68 447.53 654.55 377.9C654.4 299.31 557.55 256.46 500.02 315.82C496.41 319.55 494.25 323.11 491.14 324.82V288.09L475.63 288.17C475.05 295.84 474.3 326.22 476.56 331.54C479.23 337.83 490.11 354 492.88 359.21C494.43 356.54 495.21 352.7 496.3 350.05C498.917 343.622 502.428 337.596 506.73 332.15C508.827 329.605 511.088 327.199 513.5 324.95C546.26 291.84 602.11 300 625.77 336.59C651.66 376.65 636.24 427.1 595.35 445.91C581.78 452.16 562.58 454.61 545.8 450.3C512.86 441.86 503.51 419.42 489.8 396.22C482.91 384.58 476.53 373.22 469.7 361.22C450.56 327.47 431.99 288.61 376.58 288.22C349.15 288 322.58 300.38 306.18 321.42L301.72 325.56L301.82 239.7L286.17 238.86C287.72 278.04 286.29 320.18 286.29 359.59C286.29 395.4 287.46 421.97 318.55 448.05C354.87 478.53 411.72 475.96 445.61 435.35C448.82 431.51 455.79 420.68 457.22 416.7C458.45 413.27 456 411.03 453.93 407.34L447.72 398.09Z" fill="white" stroke="white" stroke-width="0.22" stroke-miterlimit="2.61"/>
<path fill-rule="evenodd" clip-rule="evenodd" d="M842 508H861.702V512.765C859.902 512.638 858.109 513.064 856.687 513.956C855.885 514.79 855.494 515.832 855.587 516.882C855.583 517.927 855.724 518.969 856.008 519.989L866.651 558.961L876.357 521.258C876.511 520.601 876.587 519.933 876.583 519.264C876.752 517.763 876.216 516.265 875.079 515.063C873.943 513.862 872.287 513.042 870.436 512.765V508H887V512.765C886.17 512.9 885.385 513.173 884.694 513.565C884.003 513.957 883.422 514.461 882.989 515.043C881.841 516.564 881.051 518.241 880.659 519.989L865.94 576H863.61L847.888 518.436C847.581 516.879 846.876 515.389 845.817 514.059C845.34 513.631 844.75 513.293 844.09 513.069C843.43 512.845 842.716 512.741 842 512.765V508Z" fill="white" stroke="#E5E5E5" stroke-miterlimit="10"/>
<path d="M1671 192H1210V453H1671V192Z" fill="#5760A9"/>
<path fill-rule="evenodd" clip-rule="evenodd" d="M899.941 322.406V390.095C899.604 393.491 900.188 396.905 901.652 400.092C902.399 400.974 903.426 401.671 904.621 402.107C905.816 402.543 907.133 402.701 908.43 402.566H919.484C923.605 402.781 927.715 402.02 931.325 400.373C934.935 398.725 937.894 396.26 939.851 393.271C943.968 387.023 946.08 376.982 946.186 363.15C946.186 348.605 943.704 338.191 938.742 331.908C933.769 325.556 925.534 322.406 914.004 322.406H899.941ZM867 414.958V402.618H875.045C876.336 402.752 877.647 402.578 878.821 402.116C879.995 401.654 880.982 400.925 881.665 400.014C883.049 396.775 883.609 393.337 883.312 389.913V249.926C883.609 246.553 883.048 243.166 881.665 239.981C880.988 239.066 880.001 238.332 878.826 237.87C877.651 237.408 876.337 237.236 875.045 237.377H867V225.011H925.692C930.778 224.881 935.808 225.914 940.221 227.997C944.634 230.079 948.256 233.129 950.683 236.805C956.416 244.615 959.235 256.226 959.235 271.352C959.659 281.003 957.417 290.607 952.679 299.443C948.706 306.482 941.762 312.097 933.136 315.246C938.252 316.294 943.037 318.23 947.167 320.924C951.298 323.619 954.678 327.009 957.081 330.867C962.339 338.938 964.979 349.985 965 364.009C965 380.167 961.41 392.707 954.231 401.628C951.038 405.855 946.546 409.315 941.207 411.66C935.869 414.005 929.873 415.151 923.824 414.984L867 414.958ZM899.941 248.494V310.82H912.357C923.158 310.82 930.697 308.009 934.91 302.463C939.122 296.918 941.244 287.337 941.244 273.695C941.244 260.609 939.397 251.202 935.701 245.474C934.022 242.73 931.395 240.454 928.15 238.931C924.905 237.407 921.186 236.704 917.457 236.909H907.67C906.504 236.77 905.315 236.901 904.235 237.288C903.155 237.674 902.227 238.3 901.556 239.096C900.196 242.059 899.644 245.232 899.941 248.39V248.494Z" fill="#535BA5"/>
<path fill-rule="evenodd" clip-rule="evenodd" d="M975.323 414.922V403.918L982.871 403.399C983.761 403.397 984.633 403.2 985.395 402.83C986.156 402.46 986.778 401.93 987.194 401.297C988.123 398.835 988.494 396.26 988.29 393.692V244.514C988.598 241.665 988.01 238.8 986.581 236.183C985.752 235.375 984.679 234.752 983.464 234.375C982.249 233.997 980.934 233.878 979.645 234.028L977.484 234.158C976.66 234.243 975.831 234.286 975 234.288V224.14L1002.68 221V393.77C1002.46 396.334 1002.81 398.908 1003.71 401.375C1004.13 402.014 1004.77 402.547 1005.54 402.918C1006.31 403.288 1007.2 403.482 1008.1 403.477L1015 403.996V415L975.323 414.922Z" fill="#535BA5"/>
<path fill-rule="evenodd" clip-rule="evenodd" d="M1107 415.501L1080.39 418.718V394.314C1077.95 401.315 1074.05 407.91 1068.84 413.801C1067.25 415.66 1065.16 417.188 1062.72 418.264C1060.29 419.34 1057.58 419.935 1054.82 420C1047.32 420 1041.51 416.312 1037.4 408.936C1033.29 401.585 1031.23 391.201 1031.23 377.678V313.777C1031.54 310.908 1030.97 308.022 1029.57 305.38C1028.75 304.564 1027.69 303.935 1026.49 303.555C1025.28 303.175 1023.98 303.056 1022.71 303.209L1020.45 303.34C1019.64 303.424 1018.82 303.468 1018 303.471V293.165L1045.28 290V378.698C1044.9 384.993 1046.17 391.281 1049 397.139C1051.51 401.455 1055.01 403.626 1059.59 403.626C1065.95 403.626 1071.04 400.016 1074.44 392.823C1077.84 385.63 1079.56 375.219 1079.56 361.565V313.777C1079.87 310.908 1079.3 308.022 1077.91 305.38C1077.06 304.557 1075.96 303.925 1074.73 303.546C1073.5 303.166 1072.18 303.05 1070.88 303.209L1068.62 303.34C1067.8 303.425 1066.97 303.468 1066.14 303.471V293.165L1093.74 290V394.863C1093.44 397.751 1094.01 400.656 1095.43 403.312C1096.25 404.12 1097.31 404.741 1098.5 405.116C1099.7 405.492 1100.99 405.609 1102.26 405.457C1103.02 405.451 1103.77 405.407 1104.52 405.326C1105.57 405.326 1106.4 405.195 1107 405.195V415.501Z" fill="#535BA5"/>
<path fill-rule="evenodd" clip-rule="evenodd" d="M1132.06 344.758H1161.08C1161.95 344.846 1162.83 344.725 1163.61 344.41C1164.39 344.096 1165.04 343.602 1165.48 342.992C1166.41 340.929 1166.79 338.73 1166.59 336.541C1167.04 327.444 1165.6 318.351 1162.32 309.635C1159.46 303.389 1155.38 300.291 1149.99 300.291C1144.61 300.291 1139.67 303.952 1136.74 311.274C1133.81 318.595 1132.22 329.757 1132.06 344.758V344.758ZM1131.83 355.894C1131.83 356.56 1131.83 357.482 1131.83 358.608C1131.83 359.734 1131.83 360.528 1131.83 361.168C1131.83 374.48 1133.75 385.002 1137.47 392.707C1141.2 400.413 1146.33 404.355 1152.7 404.355C1158.09 404.355 1162.83 402.026 1167.01 397.392C1172.07 390.98 1175.63 383.873 1177.49 376.426L1183 381.546C1179.58 393.663 1175.12 402.768 1169.62 408.861C1164.08 414.928 1157.54 418 1150.03 418C1140.02 418 1131.83 412.086 1125.56 400.336C1119.28 388.586 1116 373.123 1116 354.128C1116 335.133 1119.19 319.568 1125.56 307.741C1131.93 295.914 1140.02 290 1150.03 290C1160.03 290 1168.22 295.453 1174.14 306.41C1180.07 317.366 1183 332.317 1183 351.286V355.946L1131.83 355.894Z" fill="#535BA5"/>
<path fill-rule="evenodd" clip-rule="evenodd" d="M1234 414.974V402.623H1242.18C1243.49 402.756 1244.81 402.58 1245.99 402.118C1247.18 401.656 1248.17 400.927 1248.86 400.018C1250.26 396.776 1250.83 393.335 1250.53 389.908V249.988C1250.83 246.595 1250.27 243.187 1248.86 239.982C1248.18 239.068 1247.19 238.335 1246 237.873C1244.81 237.41 1243.49 237.238 1242.18 237.377H1234V225H1294.63C1305.86 225 1314.57 229.577 1320.76 238.731C1326.94 247.886 1330.02 260.766 1330 277.372C1330 295.282 1326.12 308.709 1318.35 317.655C1310.58 326.601 1298.95 331.074 1283.46 331.074C1280.92 331.074 1278.39 331.074 1275.79 330.891C1273.19 330.709 1270.49 330.553 1267.7 330.318V389.934C1267.41 393.359 1267.97 396.796 1269.34 400.044C1269.99 400.934 1270.94 401.653 1272.07 402.115C1273.21 402.578 1274.49 402.763 1275.76 402.65H1285.39V415L1234 414.974ZM1267.7 249.675V318.124C1269.11 318.402 1270.53 318.602 1271.97 318.723C1273.59 318.868 1275.22 318.929 1276.85 318.906C1290.09 318.906 1299.23 315.822 1304.26 309.656C1309.29 303.489 1311.78 292.711 1311.74 277.32C1311.74 263.007 1309.77 252.671 1305.83 246.314C1304.16 243.349 1301.43 240.857 1298 239.158C1294.57 237.459 1290.59 236.63 1286.57 236.777H1275.95C1274.68 236.664 1273.41 236.849 1272.27 237.311C1271.13 237.774 1270.18 238.493 1269.53 239.383C1268.04 242.671 1267.42 246.178 1267.7 249.675V249.675Z" fill="white"/>
<path fill-rule="evenodd" clip-rule="evenodd" d="M1367.19 393.821C1366.99 396.394 1367.32 398.976 1368.19 401.459C1368.59 402.084 1369.2 402.607 1369.95 402.968C1370.7 403.33 1371.56 403.516 1372.43 403.505L1382.09 404.022V415H1340.58V404.022L1347.98 403.505C1348.85 403.52 1349.71 403.336 1350.45 402.974C1351.2 402.611 1351.8 402.086 1352.19 401.459C1353.09 398.981 1353.44 396.396 1353.22 393.821V314.363C1353.55 311.549 1352.97 308.715 1351.55 306.13C1350.46 304.784 1347.85 304.11 1343.73 304.11H1339V293.91L1366.42 290.725V327.645C1367.99 317.972 1371.24 308.525 1376.07 299.58C1380 293.176 1384.5 289.983 1389.59 290C1393.77 290 1397.24 292.097 1399.92 296.317C1402.84 301.277 1404.23 306.73 1403.97 312.214C1404.14 316.217 1403.27 320.205 1401.4 323.917C1399.69 326.92 1397.47 328.448 1394.96 328.448C1393.46 328.388 1392.01 327.976 1390.8 327.263C1389.59 326.549 1388.66 325.566 1388.14 324.435C1386.31 320.996 1385.46 317.271 1385.66 313.535C1385.64 311.333 1385.92 309.136 1386.5 306.984C1386.93 305.327 1387.71 303.741 1388.81 302.298H1387.88C1382.37 302.298 1377.59 308.426 1373.56 320.68C1369.17 335.464 1367.14 350.637 1367.51 365.834L1367.19 393.821Z" fill="white"/>
<path fill-rule="evenodd" clip-rule="evenodd" d="M1409.31 415V403.969L1416.61 403.449C1417.49 403.448 1418.35 403.251 1419.1 402.881C1419.85 402.51 1420.47 401.978 1420.89 401.341C1421.79 398.874 1422.16 396.292 1421.96 393.718V313.821C1422.26 310.966 1421.68 308.094 1420.29 305.47C1419.48 304.66 1418.44 304.035 1417.25 303.657C1416.07 303.279 1414.79 303.159 1413.53 303.31C1413.09 303.31 1412.4 303.31 1411.42 303.44C1410.62 303.524 1409.81 303.568 1409 303.57V293.32L1435.99 290.172V393.718C1435.78 396.288 1436.12 398.869 1436.99 401.341C1437.41 401.986 1438.03 402.523 1438.79 402.895C1439.55 403.266 1440.42 403.458 1441.3 403.449L1448 403.969V415H1409.31ZM1428.56 225.078C1431.08 225.078 1433.22 226.613 1435.07 229.631C1436.89 233.101 1437.82 236.842 1437.82 240.623C1437.82 244.404 1436.89 248.145 1435.07 251.615C1433.28 254.607 1431.05 256.09 1428.53 256.09C1426.02 256.09 1423.91 254.555 1422.24 251.485C1420.48 248.036 1419.57 244.329 1419.57 240.584C1419.57 236.839 1420.48 233.132 1422.24 229.683C1423.98 226.561 1426.09 225 1428.56 225V225.078Z" fill="white"/>
<path fill-rule="evenodd" clip-rule="evenodd" d="M1455.29 415V403.969L1462.81 403.449C1463.71 403.448 1464.59 403.251 1465.36 402.881C1466.13 402.51 1466.76 401.978 1467.19 401.341C1468.11 398.871 1468.47 396.29 1468.26 393.718V313.821C1468.57 310.968 1468 308.097 1466.58 305.47C1465.75 304.657 1464.67 304.032 1463.45 303.654C1462.23 303.276 1460.91 303.157 1459.61 303.31L1457.45 303.44C1456.64 303.525 1455.82 303.569 1455 303.57V293.32L1482.68 290.172V393.718C1482.46 396.288 1482.81 398.869 1483.71 401.341C1484.14 401.986 1484.77 402.523 1485.55 402.895C1486.33 403.266 1487.22 403.458 1488.13 403.449L1495 403.969V415H1455.29ZM1475.06 225.078C1477.65 225.078 1479.84 226.613 1481.74 229.631C1483.58 233.105 1484.53 236.845 1484.53 240.623C1484.53 244.401 1483.58 248.141 1481.74 251.615C1479.9 254.607 1477.61 256.09 1475.03 256.09C1472.45 256.09 1470.29 254.555 1468.58 251.485C1466.77 248.036 1465.84 244.329 1465.84 240.584C1465.84 236.839 1466.77 233.132 1468.58 229.683C1470.37 226.561 1472.53 225 1475.06 225V225.078Z" fill="white"/>
<path fill-rule="evenodd" clip-rule="evenodd" d="M1503.44 414.818V403.788L1510.11 403.267C1510.98 403.286 1511.85 403.104 1512.6 402.74C1513.35 402.376 1513.96 401.847 1514.36 401.212C1515.19 398.715 1515.52 396.122 1515.32 393.538V313.751C1515.63 310.865 1515.06 307.959 1513.65 305.297C1512.83 304.484 1511.76 303.859 1510.55 303.481C1509.35 303.103 1508.04 302.984 1506.76 303.137C1506.28 303.137 1505.54 303.137 1504.49 303.267C1503.66 303.352 1502.83 303.395 1502 303.397V293.148L1528.82 290V315.26C1531.21 308.37 1535.08 301.879 1540.25 296.087C1541.87 294.252 1543.99 292.747 1546.45 291.691C1548.9 290.635 1551.62 290.056 1554.4 290C1561.93 290 1567.78 293.651 1571.93 300.952C1576.08 308.254 1578.13 318.659 1578.09 332.17V393.616C1577.9 396.184 1578.24 398.759 1579.08 401.238C1579.48 401.875 1580.09 402.408 1580.84 402.78C1581.59 403.152 1582.45 403.348 1583.33 403.346L1590 403.866V414.896H1552.1V403.866L1558.8 403.346C1559.69 403.348 1560.56 403.143 1561.3 402.756C1562.05 402.369 1562.65 401.815 1563.02 401.16C1563.85 398.707 1564.19 396.158 1564.01 393.616V331.181C1564.39 324.91 1563.1 318.646 1560.24 312.815C1557.75 308.574 1554.24 306.415 1549.64 306.415C1542.97 306.415 1537.99 310.109 1534.63 317.497C1531.28 324.886 1529.56 335.864 1529.56 350.302V393.668C1529.34 396.296 1529.68 398.935 1530.55 401.472C1530.98 402.077 1531.6 402.578 1532.34 402.925C1533.09 403.272 1533.93 403.453 1534.79 403.45L1541.18 403.97V415L1503.44 414.818Z" fill="white"/>
<path fill-rule="evenodd" clip-rule="evenodd" d="M1608.35 305.095H1596V294.503C1602.28 293.668 1607.23 288.615 1610.83 279.344C1614.43 270.073 1616.36 256.959 1616.61 240H1623.08V293.485H1645.26V305.095H1622.36V381.2C1622 387.132 1622.7 393.075 1624.43 398.837C1624.77 400.178 1625.65 401.384 1626.92 402.26C1628.2 403.135 1629.78 403.63 1631.43 403.664C1635.62 403.664 1638.76 400.759 1640.86 394.95C1643.34 386.057 1644.5 376.944 1644.31 367.816L1650 367.686V371.156C1650 387.045 1647.96 399.177 1643.72 407.473C1639.48 415.77 1633.63 419.997 1625.84 419.997C1622.84 420.057 1619.89 419.307 1617.44 417.858C1615 416.409 1613.18 414.34 1612.27 411.961C1609.63 406.743 1608.31 397.115 1608.31 383.549L1608.35 305.095Z" fill="white"/>
<path d="M1720.31 521.03C1720.69 521.03 1721 520.721 1721 520.34C1721 519.959 1720.69 519.65 1720.31 519.65C1719.93 519.65 1719.62 519.959 1719.62 520.34C1719.62 520.721 1719.93 521.03 1720.31 521.03Z" fill="white" stroke="#E5E5E5" stroke-miterlimit="10"/>
<path fill-rule="evenodd" clip-rule="evenodd" d="M900.329 469C901.606 469 902.752 469.799 903.603 471.396C904.632 473.156 905.136 475.077 905.076 477.014C905.13 478.905 904.638 480.782 903.636 482.502C902.686 484.048 901.54 484.821 900.362 484.821C899.183 484.821 897.873 484.022 896.891 482.476C895.895 480.736 895.403 478.844 895.45 476.936C895.398 475.025 895.902 473.13 896.924 471.396C897.906 469.799 899.052 469 900.198 469H900.329ZM889 508.217L905.207 507.496V564.002C905.111 565.12 905.346 566.241 905.895 567.275C906.107 567.672 906.455 568.015 906.9 568.265C907.345 568.516 907.87 568.663 908.416 568.692H913V574H889.884V568.692H894.173C894.781 568.699 895.375 568.555 895.874 568.283C896.373 568.01 896.752 567.622 896.956 567.172C897.634 565.776 897.935 564.284 897.84 562.791V521.564C897.984 519.531 897.512 517.5 896.465 515.638C896.098 515.025 895.513 514.509 894.781 514.152C894.049 513.795 893.201 513.613 892.34 513.628H889.066L889 508.217Z" fill="white" stroke="#E5E5E5" stroke-miterlimit="10"/>
<path fill-rule="evenodd" clip-rule="evenodd" d="M920.754 548.891C921.653 554.764 923.71 560.482 926.846 565.828C927.575 567.17 928.753 568.321 930.248 569.15C931.742 569.979 933.493 570.454 935.304 570.521C936.769 570.558 938.218 570.26 939.485 569.662C940.751 569.064 941.784 568.189 942.465 567.139C945.109 562.865 945.676 557.944 944.053 553.348C943.612 552.083 942.748 550.94 941.557 550.045C938.924 548.694 936.094 547.611 933.133 546.82C929.736 545.886 926.638 544.355 924.059 542.337C922.141 540.461 920.778 538.255 920.074 535.888C919.103 532.964 918.624 529.948 918.648 526.921C918.568 522.362 919.569 517.832 921.597 513.577C924.124 508.508 927.678 505.983 932.258 506C935.757 506 938.965 507.783 941.979 511.427L944.83 506.419H946.58L947.682 530.251H944.798C944.161 525.198 942.439 520.274 939.71 515.7C939.016 514.442 937.909 513.362 936.509 512.576C935.11 511.79 933.471 511.33 931.771 511.244C930.41 511.237 929.076 511.548 927.927 512.138C926.778 512.728 925.863 513.574 925.291 514.573C923.672 517.048 922.879 519.823 922.99 522.622C922.877 525.055 923.618 527.464 925.129 529.569C927.126 531.803 930.046 533.384 933.359 534.026C936.61 534.803 939.724 535.913 942.627 537.33C945.207 539.06 947.1 541.367 948.071 543.963C949.44 547.48 950.086 551.156 949.982 554.843C950.179 560.055 948.741 565.224 945.802 569.865C943.059 573.955 939.527 576 935.206 576C931.253 576 927.559 573.85 924.157 569.551L920.916 575.554H918.875L918 548.944L920.754 548.891Z" fill="white" stroke="#E5E5E5" stroke-miterlimit="10"/>
<path fill-rule="evenodd" clip-rule="evenodd" d="M969.928 506V549.698C969.684 553.92 970.508 558.139 972.351 562.094C973.944 564.987 976.048 566.459 978.725 566.459C981.912 566.459 984.558 564.315 986.757 560.08C989.099 554.98 990.182 549.557 989.944 544.119V519.378C990.059 517.579 989.551 515.79 988.478 514.213C987.841 513.511 986.996 512.952 986.021 512.586C985.046 512.22 983.972 512.06 982.9 512.121V507.214L996.765 506.077V560.028C996.644 561.991 997.069 563.95 998.008 565.761C998.297 566.335 998.785 566.827 999.413 567.18C1000.04 567.533 1000.78 567.731 1001.55 567.75H1004V572.502L990.805 572.941L989.944 560.028C988.208 563.781 985.814 567.313 982.837 570.513C982.027 571.494 980.957 572.316 979.705 572.919C978.454 573.523 977.052 573.892 975.602 574C972.032 574 969.036 572.011 966.645 568.034C964.255 564.057 962.98 557.368 962.98 547.942V519.275C963.148 517.247 962.511 515.229 961.164 513.515C960.501 512.961 959.693 512.534 958.799 512.266C957.905 511.997 956.949 511.895 956 511.966V507.059L969.928 506Z" fill="white" stroke="#E5E5E5" stroke-miterlimit="10"/>
<path fill-rule="evenodd" clip-rule="evenodd" d="M1050.5 566.7L1052 570.646C1049.92 574.203 1047.61 575.968 1045.08 575.968C1044.06 575.927 1043.07 575.665 1042.21 575.209C1041.36 574.752 1040.67 574.118 1040.22 573.372C1038.45 570.482 1037.28 567.378 1036.76 564.182C1035.05 567.619 1032.68 570.811 1029.71 573.631C1028.55 574.534 1027.14 575.208 1025.61 575.602C1024.07 575.996 1022.45 576.099 1020.85 575.904C1019.26 575.708 1017.74 575.219 1016.42 574.474C1015.1 573.729 1014 572.748 1013.22 571.606C1010.94 568.165 1009.84 564.294 1010.02 560.391C1009.75 554.149 1012.31 548.043 1017.22 543.231C1022.23 538.582 1028.98 535.398 1036.44 534.17V524.201C1036.55 521.034 1035.65 517.897 1033.84 515.089C1033.33 514.031 1032.45 513.114 1031.32 512.443C1030.18 511.772 1028.84 511.375 1027.44 511.299C1026.2 511.301 1024.97 511.536 1023.86 511.986C1022.75 512.437 1021.78 513.09 1021.03 513.895C1019.88 514.923 1019.21 516.246 1019.15 517.633C1019.26 518.787 1019.61 519.918 1020.17 520.982C1020.91 522.587 1021.32 524.28 1021.39 525.993C1021.47 527.776 1021.05 529.55 1020.17 531.185C1019.34 532.535 1018.28 533.21 1016.97 533.21C1015.66 533.21 1014.37 532.405 1013.45 530.795C1012.43 528.852 1011.95 526.752 1012.04 524.643C1011.99 520.082 1013.63 515.615 1016.74 511.818C1017.99 510.048 1019.8 508.578 1021.97 507.557C1024.15 506.535 1026.62 505.999 1029.14 506.002C1031.35 505.962 1033.54 506.427 1035.45 507.345C1037.36 508.263 1038.91 509.597 1039.93 511.195C1042.52 515.013 1043.8 519.325 1043.64 523.682V559.82C1043.53 562.189 1043.84 564.559 1044.57 566.856C1045.21 568.413 1046.01 569.192 1046.97 569.192C1048.09 569.192 1049.25 568.413 1050.46 566.882L1050.5 566.7ZM1036.5 538.765C1030.4 539.846 1025.01 542.711 1021.35 546.813C1018.93 550.511 1017.83 554.681 1018.15 558.86C1017.99 561.764 1018.58 564.664 1019.88 567.375C1021.03 569.426 1022.54 570.464 1024.4 570.464C1027.6 570.464 1030.55 568.335 1032.98 564.13C1035.6 559.111 1036.85 553.689 1036.63 548.241L1036.5 538.765Z" fill="white" stroke="#E5E5E5" stroke-miterlimit="10"/>
<path fill-rule="evenodd" clip-rule="evenodd" d="M1071.56 469V564.272C1071.49 565.303 1071.75 566.331 1072.29 567.265C1072.51 567.663 1072.87 568.005 1073.31 568.255C1073.76 568.505 1074.28 568.653 1074.82 568.684H1079V574H1056.64V568.684H1060.57C1061.19 568.681 1061.79 568.533 1062.31 568.258C1062.82 567.983 1063.23 567.593 1063.48 567.136C1064.19 565.757 1064.5 564.266 1064.4 562.775V482.78C1064.56 481.011 1064.18 479.238 1063.28 477.619C1062.96 476.992 1062.43 476.45 1061.74 476.054C1061.06 475.657 1060.26 475.422 1059.42 475.374H1056V470.058L1071.56 469Z" fill="white" stroke="#E5E5E5" stroke-miterlimit="10"/>
<path fill-rule="evenodd" clip-rule="evenodd" d="M1109.86 507.15L1121.16 506C1121.79 510.941 1122.17 515.647 1122.36 520.144C1123.73 516.22 1125.87 512.51 1128.7 509.163C1129.49 508.233 1130.53 507.465 1131.74 506.917C1132.94 506.369 1134.29 506.055 1135.66 506C1137.07 506.036 1138.44 506.392 1139.62 507.029C1140.8 507.665 1141.74 508.558 1142.34 509.608C1144.57 513.289 1145.96 517.277 1146.43 521.373C1147.73 517.244 1149.87 513.327 1152.76 509.791C1153.55 508.71 1154.64 507.801 1155.94 507.141C1157.24 506.481 1158.71 506.09 1160.24 506C1163.78 506 1166.57 507.778 1168.25 511.412C1170.75 517.284 1171.91 523.49 1171.67 529.712V562.81C1171.53 564.202 1171.84 565.599 1172.55 566.863C1172.89 567.375 1173.4 567.799 1174.01 568.086C1174.63 568.373 1175.33 568.51 1176.04 568.484H1178V573.869H1158.21V568.484H1160.2C1160.89 568.536 1161.59 568.43 1162.21 568.176C1162.83 567.922 1163.35 567.531 1163.72 567.046C1164.49 565.72 1164.84 564.253 1164.73 562.784V529.66C1164.93 525.766 1164.21 521.878 1162.61 518.209C1161.19 515.595 1159.44 514.157 1157.04 514.157C1156.07 514.202 1155.13 514.443 1154.3 514.858C1153.48 515.273 1152.78 515.849 1152.29 516.536C1150.68 518.607 1149.6 520.93 1149.12 523.36C1148.03 526.874 1147.43 530.478 1147.32 534.105V562.863C1147.21 564.34 1147.52 565.818 1148.23 567.176C1148.51 567.602 1148.92 567.956 1149.42 568.201C1149.93 568.445 1150.5 568.57 1151.08 568.562H1153.74V573.948H1133.7V568.562H1135.98C1136.62 568.584 1137.25 568.462 1137.81 568.209C1138.36 567.955 1138.83 567.58 1139.15 567.124C1139.92 566.032 1140.29 564.779 1140.22 563.516V532.745C1140.51 527.962 1139.82 523.172 1138.2 518.575C1136.87 515.621 1135.03 514.157 1132.78 514.157C1129.84 514.157 1127.59 515.856 1126.04 519.386C1123.66 524.805 1122.51 530.539 1122.65 536.301V562.941C1122.52 564.359 1122.79 565.781 1123.44 567.098C1123.81 567.592 1124.34 567.993 1124.96 568.26C1125.58 568.527 1126.28 568.649 1126.99 568.614H1128.85V574H1109V568.614H1111.94C1112.5 568.608 1113.03 568.468 1113.49 568.213C1113.94 567.957 1114.3 567.597 1114.51 567.176C1115.17 566.053 1115.48 564.815 1115.43 563.569V519.778C1115.55 517.937 1115.17 516.096 1114.32 514.392C1113.87 513.757 1113.25 513.219 1112.5 512.823C1111.75 512.427 1110.9 512.186 1110.01 512.118L1109.86 507.15Z" fill="white" stroke="#E5E5E5" stroke-miterlimit="10"/>
<path fill-rule="evenodd" clip-rule="evenodd" d="M1221.71 541.402H1193.1C1193.23 551.49 1194.36 558.619 1196.49 562.789C1198.94 567.435 1202.04 569.771 1205.82 569.771C1211.38 569.771 1215.86 564.58 1219.22 553.99L1222 555.989C1217.83 569.304 1211.86 576 1204.01 576C1198.68 576 1194.32 572.782 1190.51 566.397C1186.54 558.626 1184.68 550.264 1185.06 541.87C1184.65 533.016 1186.47 524.188 1190.42 515.915C1194.03 509.288 1198.47 505.983 1203.72 506C1205.77 506.072 1207.77 506.563 1209.52 507.425C1211.27 508.288 1212.72 509.495 1213.73 510.931C1217.06 515.253 1219.26 520.075 1220.19 525.103C1221.3 530.498 1221.83 535.96 1221.77 541.428L1221.71 541.402ZM1193.1 536.341H1210.37C1211.41 536.341 1212.22 535.77 1212.76 534.602C1213.46 532.709 1213.75 530.733 1213.6 528.762C1213.75 524.255 1212.76 519.769 1210.7 515.577C1208.76 511.97 1206.47 510.153 1203.82 510.153C1201.17 510.153 1198.36 512.333 1196.29 516.693C1193.89 523.056 1192.81 529.695 1193.1 536.341V536.341Z" fill="white" stroke="#E5E5E5" stroke-miterlimit="10"/>
<path fill-rule="evenodd" clip-rule="evenodd" d="M1226.09 507.153L1240.02 506V532.954C1240.93 526.105 1242.72 519.359 1245.37 512.837C1247.46 508.279 1250.01 506 1253.1 506C1254.23 506.061 1255.32 506.409 1256.21 506.998C1257.11 507.587 1257.77 508.389 1258.11 509.3C1259.49 512.094 1260.13 515.106 1259.98 518.128C1260.09 520.504 1259.67 522.877 1258.73 525.122C1257.89 526.772 1256.83 527.61 1255.62 527.61C1254.4 527.61 1253.38 526.903 1252.5 525.462C1251.67 523.626 1251.29 521.665 1251.38 519.7C1251.36 518.216 1251.57 516.736 1252.01 515.299C1252.28 514.571 1252.49 513.826 1252.63 513.072C1252.63 512.365 1252.38 511.998 1251.85 511.998C1250.73 511.998 1249.45 513.151 1248.02 515.43C1245.71 519.573 1244.18 523.991 1243.47 528.527C1242.03 535.38 1241.21 542.315 1241.01 549.273V563.601C1240.92 564.892 1241.25 566.181 1241.98 567.32C1242.37 567.759 1242.88 568.108 1243.48 568.332C1244.07 568.557 1244.72 568.65 1245.37 568.604H1250.26V574H1226.25V568.604H1230.11C1230.69 568.625 1231.27 568.515 1231.79 568.284C1232.3 568.054 1232.73 567.712 1233.04 567.294C1233.71 566.326 1234.05 565.219 1234 564.099V521.612C1234.17 519.203 1233.77 516.791 1232.82 514.513C1232.6 513.886 1232.15 513.333 1231.53 512.929C1230.92 512.526 1230.17 512.292 1229.39 512.26H1226L1226.09 507.153Z" fill="white" stroke="#E5E5E5" stroke-miterlimit="10"/>
<path fill-rule="evenodd" clip-rule="evenodd" d="M1295.33 554.44L1298 555.763C1295.88 569.254 1291.08 576 1283.59 576C1278.16 576 1273.69 572.964 1270.23 566.893C1266.41 559.237 1264.65 551 1265.06 542.738C1265.06 531.063 1266.95 522.017 1270.74 515.6C1274.53 509.183 1279 505.983 1284.16 506C1286.21 506.076 1288.18 506.62 1289.87 507.57C1291.55 508.519 1292.87 509.836 1293.68 511.371C1296.23 515.008 1297.54 519.14 1297.46 523.331C1297.55 525.566 1297.07 527.791 1296.06 529.87C1295.11 531.582 1294 532.464 1292.7 532.464C1291.4 532.464 1290.38 531.738 1289.53 530.259C1288.62 528.631 1288.18 526.857 1288.23 525.07C1288.22 523.037 1288.71 521.025 1289.69 519.154C1290.07 518.486 1290.31 517.765 1290.38 517.027C1290.35 515.595 1289.78 514.207 1288.73 513.057C1288.26 512.453 1287.6 511.959 1286.82 511.623C1286.04 511.287 1285.17 511.12 1284.29 511.137C1280.89 511.137 1278.32 513.239 1276.55 517.39C1273.75 525.15 1272.47 533.224 1272.77 541.311C1272.39 548.551 1273.53 555.79 1276.13 562.716C1278.36 567.568 1281.21 570.007 1284.67 570.007C1289.47 569.955 1293.03 564.766 1295.33 554.44Z" fill="white" stroke="#E5E5E5" stroke-miterlimit="10"/>
<path fill-rule="evenodd" clip-rule="evenodd" d="M1301.16 470.161L1316.39 469V519.655C1317.92 516.01 1320.24 512.605 1323.25 509.591C1324.16 508.614 1325.32 507.808 1326.67 507.233C1328.01 506.657 1329.5 506.326 1331.03 506.262C1332.41 506.307 1333.75 506.602 1334.97 507.126C1336.18 507.649 1337.22 508.387 1338.02 509.281C1340.13 511.794 1341.54 514.636 1342.15 517.616C1343.35 522.251 1343.92 526.975 1343.84 531.706V562.93C1343.72 564.43 1344.05 565.932 1344.79 567.317C1345.07 567.74 1345.5 568.093 1346.02 568.335C1346.54 568.576 1347.14 568.697 1347.75 568.684H1351V574H1329.24V568.684H1331.68C1332.42 568.749 1333.17 568.647 1333.84 568.392C1334.51 568.137 1335.08 567.737 1335.48 567.239C1336.3 565.9 1336.67 564.416 1336.56 562.93V531.706C1336.81 527.32 1335.98 522.938 1334.12 518.803C1332.49 515.733 1330.41 514.21 1327.87 514.21C1326.76 514.265 1325.68 514.528 1324.72 514.976C1323.76 515.424 1322.94 516.046 1322.34 516.791C1320.25 519.169 1318.78 521.853 1318.01 524.687C1316.79 528.341 1316.19 532.107 1316.22 535.886V562.13C1316.09 563.822 1316.4 565.519 1317.14 567.11C1317.38 567.566 1317.8 567.951 1318.32 568.214C1318.85 568.477 1319.47 568.605 1320.1 568.581H1323.54V573.897H1302.14V568.581H1304.58C1305.3 568.628 1306.02 568.503 1306.65 568.222C1307.29 567.942 1307.8 567.519 1308.12 567.007C1308.96 565.47 1309.32 563.8 1309.2 562.13V483.812C1309.35 481.667 1308.88 479.522 1307.83 477.541C1307.51 476.93 1306.97 476.408 1306.27 476.04C1305.58 475.673 1304.76 475.477 1303.93 475.477H1301L1301.16 470.161Z" fill="white" stroke="#E5E5E5" stroke-miterlimit="10"/>
<path fill-rule="evenodd" clip-rule="evenodd" d="M1397.46 566.702L1399 570.648C1396.92 574.205 1394.61 575.97 1392.08 575.97C1391.06 575.93 1390.07 575.668 1389.21 575.211C1388.36 574.754 1387.67 574.12 1387.22 573.374C1385.45 570.482 1384.27 567.379 1383.73 564.184C1382.04 567.624 1379.67 570.817 1376.71 573.634C1375.75 574.396 1374.62 574.997 1373.37 575.402C1372.12 575.808 1370.79 576.01 1369.44 575.996C1367.55 576.042 1365.68 575.655 1364.05 574.879C1362.42 574.103 1361.09 572.969 1360.22 571.609C1357.94 568.167 1356.84 564.296 1357.02 560.393C1356.76 554.147 1359.33 548.041 1364.26 543.232C1369.26 538.585 1376.01 535.401 1383.47 534.171V524.202C1383.59 521.037 1382.71 517.9 1380.91 515.089C1380.38 514.037 1379.5 513.124 1378.37 512.455C1377.24 511.785 1375.9 511.385 1374.5 511.299C1373.26 511.309 1372.04 511.548 1370.93 511.997C1369.82 512.447 1368.85 513.096 1368.1 513.895C1366.96 514.93 1366.29 516.249 1366.21 517.634C1366.34 518.785 1366.69 519.914 1367.23 520.983C1368 522.582 1368.42 524.277 1368.48 525.993C1368.57 527.779 1368.14 529.558 1367.23 531.186C1366.44 532.536 1365.38 533.211 1364.03 533.211C1362.59 533.211 1361.44 532.406 1360.51 530.796C1359.46 528.86 1358.97 526.756 1359.07 524.643C1359.03 520.08 1360.68 515.613 1363.81 511.818C1365.05 510.051 1366.85 508.581 1369.02 507.56C1371.19 506.538 1373.66 506.001 1376.17 506.003C1378.39 505.96 1380.58 506.425 1382.5 507.343C1384.41 508.26 1385.97 509.595 1386.99 511.195C1389.58 515.014 1390.87 519.326 1390.71 523.683V559.822C1390.58 562.192 1390.89 564.564 1391.63 566.858C1392.23 568.415 1393.03 569.194 1394.04 569.194C1395.13 569.194 1396.28 568.415 1397.49 566.884L1397.46 566.702ZM1383.37 538.767C1377.29 539.855 1371.91 542.719 1368.26 546.815C1365.84 550.513 1364.73 554.683 1365.06 558.861C1364.9 561.766 1365.49 564.666 1366.79 567.377C1367.94 569.428 1369.44 570.466 1371.27 570.466C1374.47 570.466 1377.45 568.338 1379.88 564.132C1382.48 559.107 1383.71 553.688 1383.5 548.243L1383.37 538.767Z" fill="white" stroke="#E5E5E5" stroke-miterlimit="10"/>
<path fill-rule="evenodd" clip-rule="evenodd" d="M1404 507.173L1417.06 506C1417.6 510.172 1418.01 515.074 1418.26 520.653C1419.52 516.73 1421.67 513.039 1424.62 509.781C1425.53 508.697 1426.75 507.805 1428.16 507.176C1429.57 506.547 1431.14 506.198 1432.75 506.156C1434.01 506.154 1435.25 506.388 1436.39 506.84C1437.52 507.291 1438.52 507.949 1439.29 508.764C1441.42 511.204 1442.86 514 1443.52 516.951C1444.62 521.069 1445.15 525.276 1445.11 529.492V561.876C1444.95 563.65 1445.28 565.431 1446.06 567.09C1446.35 567.571 1446.81 567.971 1447.37 568.244C1447.93 568.517 1448.58 568.651 1449.24 568.629H1452V574H1431.32V568.629H1433.29C1434.03 568.694 1434.78 568.59 1435.45 568.327C1436.12 568.065 1436.69 567.655 1437.1 567.143C1437.95 565.754 1438.33 564.207 1438.21 562.658V534.133C1438.42 529.503 1437.86 524.871 1436.53 520.367C1434.97 516.117 1432.59 514.005 1429.41 514.005C1426.24 514.005 1423.63 516.143 1421.5 520.445C1419.18 525.839 1418.1 531.543 1418.33 537.262V561.85C1418.16 563.627 1418.5 565.411 1419.31 567.064C1419.6 567.545 1420.06 567.945 1420.62 568.218C1421.19 568.491 1421.83 568.624 1422.49 568.603H1425.22V573.974H1404.41V568.603H1407.11C1407.75 568.628 1408.39 568.507 1408.95 568.254C1409.51 568.001 1409.97 567.625 1410.29 567.169C1411.04 566.091 1411.41 564.864 1411.37 563.623V520.601C1411.51 518.389 1411.04 516.18 1410 514.135C1409.69 513.485 1409.15 512.926 1408.45 512.531C1407.75 512.136 1406.92 511.923 1406.06 511.919H1404.06L1404 507.173Z" fill="white" stroke="#E5E5E5" stroke-miterlimit="10"/>
<path fill-rule="evenodd" clip-rule="evenodd" d="M1478.33 470.15L1493.57 469V558.076C1493.4 560.594 1493.81 563.116 1494.77 565.514C1494.99 566.139 1495.45 566.69 1496.09 567.089C1496.72 567.489 1497.49 567.716 1498.29 567.738H1501V573.003H1487.71L1486.67 559.916C1485.61 563.674 1483.73 567.248 1481.13 570.473C1480.4 571.485 1479.36 572.336 1478.13 572.951C1476.89 573.566 1475.49 573.926 1474.05 574C1469.61 574 1465.83 570.907 1462.74 564.671C1459.28 556.781 1457.68 548.428 1458.05 540.056C1458.05 529.032 1460.05 520.222 1464.03 513.628C1467.18 508.516 1470.74 505.96 1474.8 505.96C1476.15 506.009 1477.46 506.32 1478.63 506.867C1479.8 507.414 1480.78 508.181 1481.51 509.103C1483.94 511.996 1485.69 515.228 1486.67 518.637V481.754C1486.78 480.139 1486.31 478.532 1485.32 477.128C1484.88 476.562 1484.25 476.104 1483.52 475.802C1482.78 475.5 1481.96 475.367 1481.13 475.416H1478.33V470.15V470.15ZM1475.97 511.736C1472.82 511.736 1470.62 513.806 1468.85 517.947C1466.73 524.776 1465.85 531.82 1466.24 538.855C1466.24 549.514 1467.12 557.003 1468.95 561.348C1470.77 565.693 1473.04 567.891 1475.84 567.891C1478.64 567.891 1481.42 565.463 1483.56 560.581C1486.02 553.669 1487.08 546.478 1486.71 539.29C1487.01 532.23 1485.85 525.179 1483.27 518.433C1481.35 513.985 1478.9 511.736 1475.97 511.736Z" fill="white" stroke="#E5E5E5" stroke-miterlimit="10"/>
<path fill-rule="evenodd" clip-rule="evenodd" d="M1515.78 469C1517 469 1518.09 469.799 1518.9 471.396C1519.88 473.156 1520.36 475.077 1520.3 477.014C1520.37 478.906 1519.9 480.786 1518.93 482.502C1518.03 484.048 1516.94 484.821 1515.81 484.821C1514.69 484.821 1513.45 484.022 1512.7 482.476C1511.77 480.729 1511.3 478.843 1511.3 476.936C1511.3 475.029 1511.77 473.143 1512.7 471.396C1513.63 469.799 1514.72 469 1515.81 469H1515.78ZM1505 508.217L1520.58 507.496V564.002C1520.49 565.12 1520.71 566.241 1521.24 567.275C1521.44 567.672 1521.77 568.015 1522.19 568.265C1522.62 568.516 1523.12 568.663 1523.64 568.692H1528V574H1506V568.692H1510.08C1510.66 568.699 1511.22 568.555 1511.7 568.283C1512.17 568.01 1512.53 567.622 1512.73 567.172C1513.37 565.776 1513.66 564.284 1513.57 562.791V521.564C1513.71 519.531 1513.26 517.5 1512.26 515.638C1511.92 515.023 1511.36 514.505 1510.66 514.148C1509.96 513.791 1509.16 513.61 1508.33 513.628H1505.22L1505 508.217Z" fill="white" stroke="#E5E5E5" stroke-miterlimit="10"/>
<path fill-rule="evenodd" clip-rule="evenodd" d="M1536.99 548.944C1537.88 554.816 1539.93 560.534 1543.04 565.88C1543.77 567.226 1544.94 568.38 1546.43 569.209C1547.92 570.039 1549.67 570.511 1551.47 570.573C1552.92 570.605 1554.35 570.305 1555.6 569.707C1556.85 569.11 1557.87 568.238 1558.55 567.191C1561.17 562.917 1561.74 557.996 1560.12 553.401C1559.68 552.11 1558.8 550.948 1557.58 550.045C1554.97 548.694 1552.16 547.611 1549.22 546.82C1545.85 545.886 1542.77 544.355 1540.21 542.337C1538.3 540.461 1536.95 538.255 1536.25 535.888C1535.29 532.964 1534.81 529.948 1534.84 526.921C1534.76 522.362 1535.75 517.832 1537.76 513.577C1540.27 508.508 1543.81 505.983 1548.38 506C1551.82 506 1555.01 507.783 1558.03 511.427L1560.86 506.42H1562.6L1563.7 530.251H1560.83C1560.2 525.198 1558.49 520.274 1555.78 515.7C1555.09 514.442 1553.99 513.362 1552.6 512.576C1551.21 511.79 1549.59 511.33 1547.9 511.244C1546.55 511.237 1545.22 511.548 1544.08 512.138C1542.94 512.728 1542.03 513.574 1541.46 514.573C1539.86 517.048 1539.07 519.823 1539.18 522.622C1539.07 525.055 1539.8 527.464 1541.3 529.569C1543.29 531.803 1546.18 533.384 1549.47 534.026C1552.7 534.803 1555.79 535.913 1558.68 537.33C1561.24 539.061 1563.12 541.367 1564.08 543.963C1565.46 547.477 1566.1 551.155 1565.98 554.843C1566.19 560.057 1564.76 565.228 1561.83 569.865C1559.09 573.955 1555.59 576 1551.34 576C1547.09 576 1543.72 573.85 1540.34 569.551L1537.12 575.554H1534.87L1534 548.944H1536.99Z" fill="white" stroke="#E5E5E5" stroke-miterlimit="10"/>
<path fill-rule="evenodd" clip-rule="evenodd" d="M1582.31 469C1583.51 469 1584.52 469.799 1585.3 471.396C1586.23 473.156 1586.69 475.077 1586.64 477.014C1586.7 478.903 1586.26 480.78 1585.35 482.502C1584.5 484.048 1583.51 484.821 1582.37 484.821C1581.18 484.821 1580.14 484.022 1579.39 482.476C1578.49 480.736 1578.04 478.844 1578.08 476.936C1578.03 475.025 1578.49 473.13 1579.42 471.396C1580.32 469.799 1581.33 469 1582.4 469H1582.31ZM1572 508.217L1586.91 507.496V564.002C1586.83 565.12 1587.05 566.237 1587.53 567.275C1587.73 567.67 1588.04 568.012 1588.45 568.262C1588.85 568.512 1589.33 568.66 1589.83 568.692H1594V574H1572.95V568.692H1576.86C1577.42 568.696 1577.96 568.553 1578.42 568.281C1578.88 568.009 1579.23 567.622 1579.42 567.172C1580.04 565.776 1580.31 564.284 1580.23 562.791V521.564C1580.37 519.528 1579.93 517.493 1578.95 515.638C1578.62 515.027 1578.09 514.512 1577.43 514.155C1576.77 513.798 1576 513.615 1575.22 513.628H1572.24L1572 508.217Z" fill="white" stroke="#E5E5E5" stroke-miterlimit="10"/>
<path fill-rule="evenodd" clip-rule="evenodd" d="M1599 507.173L1612.05 506C1612.59 510.172 1613 515.074 1613.25 520.653C1614.52 516.734 1616.67 513.046 1619.6 509.781C1620.52 508.702 1621.74 507.813 1623.15 507.184C1624.56 506.555 1626.13 506.204 1627.73 506.156C1628.99 506.148 1630.24 506.379 1631.37 506.832C1632.51 507.284 1633.5 507.945 1634.27 508.764C1636.41 511.198 1637.85 513.996 1638.49 516.951C1639.62 521.066 1640.16 525.274 1640.11 529.492V561.876C1639.94 563.651 1640.27 565.435 1641.06 567.09C1641.35 567.573 1641.81 567.975 1642.37 568.248C1642.94 568.522 1643.58 568.654 1644.24 568.629H1647V574H1626.3V568.629H1628.24C1628.98 568.693 1629.73 568.589 1630.41 568.327C1631.09 568.065 1631.67 567.655 1632.08 567.143C1632.91 565.751 1633.28 564.205 1633.16 562.658V534.133C1633.37 529.503 1632.8 524.871 1631.48 520.367C1629.92 516.117 1627.54 514.005 1624.37 514.005C1621.19 514.005 1618.59 516.143 1616.49 520.445C1614.17 525.839 1613.09 531.543 1613.32 537.262V561.85C1613.17 563.626 1613.51 565.408 1614.3 567.064C1614.6 567.543 1615.05 567.941 1615.62 568.214C1616.18 568.486 1616.82 568.621 1617.48 568.603H1620.17V573.974H1599.41V568.603H1602.11C1602.75 568.625 1603.38 568.503 1603.94 568.25C1604.5 567.997 1604.97 567.623 1605.29 567.169C1606.02 566.088 1606.39 564.861 1606.33 563.623V520.601C1606.49 518.389 1606.02 516.177 1604.97 514.135C1604.66 513.489 1604.12 512.933 1603.43 512.538C1602.73 512.143 1601.91 511.928 1601.06 511.919H1599V507.173Z" fill="white" stroke="#E5E5E5" stroke-miterlimit="10"/>
<path fill-rule="evenodd" clip-rule="evenodd" d="M1681.53 512.171C1684.3 507.39 1686.85 505 1689.18 505C1690.56 505 1691.73 505.753 1692.61 507.26C1693.59 508.989 1694.07 510.885 1693.99 512.794C1694.05 514.288 1693.73 515.776 1693.05 517.159C1692.45 518.329 1691.73 518.9 1690.88 518.9C1689.3 518.9 1688.26 517.237 1687.73 513.938C1687.51 512.509 1687.13 511.807 1686.59 511.807C1686.06 511.807 1684.64 512.872 1683.45 515.029C1684.5 517.377 1685.33 519.792 1685.9 522.252C1686.36 524.44 1686.58 526.657 1686.56 528.877C1686.63 532.541 1686.04 536.193 1684.8 539.712C1683.67 542.815 1681.69 545.66 1679.01 548.026C1678.08 549.034 1676.91 549.874 1675.57 550.496C1674.23 551.117 1672.76 551.505 1671.23 551.637H1666.7C1665.56 551.523 1664.41 551.614 1663.32 551.906C1662.23 552.198 1661.24 552.682 1660.4 553.326C1659.23 554.879 1658.68 556.697 1658.83 558.522C1658.72 560.01 1659.17 561.489 1660.12 562.757C1660.72 563.312 1661.49 563.739 1662.33 564.001C1663.18 564.263 1664.1 564.353 1665 564.264L1675.23 563.874C1677.4 563.722 1679.59 564.051 1681.56 564.827C1683.53 565.603 1685.21 566.799 1686.44 568.291C1688.97 571.991 1690.17 576.209 1689.9 580.451C1690.1 585.422 1688.74 590.352 1685.96 594.767C1684.5 597.288 1682.19 599.405 1679.3 600.862C1676.41 602.32 1673.07 603.054 1669.69 602.977C1667.07 603.111 1664.46 602.663 1662.12 601.681C1659.78 600.698 1657.81 599.217 1656.4 597.391C1654.14 594.459 1652.95 591.046 1653 587.57C1652.97 584.905 1653.73 582.275 1655.21 579.905C1656.8 577.485 1659.43 575.636 1662.57 574.709C1659.88 573.648 1657.67 571.899 1656.28 569.72C1654.8 567.179 1654.08 564.38 1654.2 561.562C1654.15 558.9 1654.71 556.255 1655.87 553.768C1657.11 551.43 1659.14 549.437 1661.72 548.026C1659.29 545.686 1657.47 542.951 1656.4 539.997C1655.14 536.5 1654.54 532.864 1654.61 529.215C1654.38 523.617 1655.93 518.067 1659.08 513.106C1660.07 511.235 1661.68 509.633 1663.72 508.484C1665.76 507.335 1668.16 506.685 1670.63 506.611C1672.64 506.619 1674.6 507.116 1676.27 508.04C1678.33 509.18 1680.1 510.635 1681.49 512.327L1681.53 512.171ZM1670.6 510.95C1668.11 510.95 1666.1 512.483 1664.3 515.575C1662.49 519.735 1661.67 524.148 1661.91 528.565C1661.67 533.247 1662.48 537.924 1664.3 542.362C1665.94 545.661 1667.99 547.298 1670.6 547.298C1673.21 547.298 1675.17 545.687 1676.9 542.518C1678.73 538.117 1679.54 533.473 1679.29 528.825C1679.49 524.407 1678.67 519.997 1676.87 515.834C1675.23 512.639 1673.21 511.054 1670.57 511.054L1670.6 510.95ZM1672.99 574.657C1670.96 574.487 1668.9 574.729 1667 575.363C1665.1 575.997 1663.42 577.003 1662.1 578.294C1659.92 580.83 1658.81 583.89 1658.95 586.998C1658.77 589.679 1659.63 592.337 1661.41 594.585C1662.45 595.786 1663.84 596.752 1665.45 597.397C1667.06 598.041 1668.84 598.343 1670.63 598.274C1672.69 598.381 1674.75 598.07 1676.62 597.368C1678.5 596.666 1680.14 595.594 1681.4 594.247C1683.76 591.646 1685.03 588.481 1685.02 585.231C1685.04 583.38 1684.66 581.54 1683.89 579.801C1683.22 578.237 1681.96 576.89 1680.3 575.956C1678.09 574.975 1675.59 574.525 1673.09 574.657H1672.99Z" fill="white" stroke="#E5E5E5" stroke-miterlimit="10"/>
</svg>
