<svg width="881" height="412" viewBox="0 0 881 412" fill="none" xmlns="http://www.w3.org/2000/svg">
<path fill-rule="evenodd" clip-rule="evenodd" d="M1 316H20.7018V320.765C18.902 320.638 17.1092 321.064 15.6872 321.956C14.8852 322.79 14.4939 323.832 14.5874 324.882C14.5832 325.927 14.7242 326.969 15.008 327.989L25.6514 366.961L35.3566 329.258C35.5108 328.601 35.5866 327.933 35.5831 327.264C35.7521 325.763 35.2159 324.265 34.0793 323.063C32.9427 321.862 31.2873 321.042 29.4364 320.765V316H46V320.765C45.17 320.9 44.3845 321.173 43.6937 321.565C43.0029 321.957 42.4221 322.461 41.9885 323.043C40.8408 324.564 40.0514 326.241 39.6594 327.989L24.9397 384H22.6104L6.88789 326.436C6.58072 324.879 5.87586 323.389 4.81738 322.059C4.34006 321.631 3.7501 321.293 3.09005 321.069C2.43 320.845 1.71627 320.741 1 320.765V316Z" fill="white" stroke="#E5E5E5" stroke-miterlimit="10"/>
<path d="M830 0H369V261H830V0Z" fill="#5760A9"/>
<path fill-rule="evenodd" clip-rule="evenodd" d="M58.9411 130.406V198.095C58.604 201.491 59.1883 204.905 60.6516 208.092C61.3989 208.974 62.4257 209.671 63.6207 210.107C64.8156 210.543 66.1328 210.701 67.4297 210.566H78.484C82.605 210.781 86.7148 210.02 90.3251 208.373C93.9353 206.725 96.8944 204.26 98.8507 201.271C102.968 195.023 105.08 184.982 105.186 171.15C105.186 156.605 102.704 146.191 97.742 139.908C92.7691 133.556 84.5338 130.406 73.0044 130.406H58.9411ZM26 222.958V210.618H34.0452C35.3362 210.752 36.6469 210.578 37.8208 210.116C38.9947 209.654 39.982 208.925 40.665 208.014C42.0488 204.775 42.6094 201.337 42.3121 197.913V57.9259C42.6086 54.5528 42.0477 51.1659 40.665 47.9807C39.9879 47.0656 39.0015 46.3322 37.826 45.87C36.6506 45.4077 35.3369 45.2365 34.0452 45.3773H26V33.011H84.6922C89.7782 32.8807 94.8081 33.9145 99.2209 35.9969C103.634 38.0794 107.256 41.1287 109.683 44.8045C115.416 52.6149 118.235 64.2263 118.235 79.3522C118.659 89.0028 116.417 98.6067 111.679 107.443C107.706 114.482 100.762 120.097 92.1356 123.246C97.2523 124.294 102.037 126.23 106.167 128.924C110.298 131.619 113.678 135.009 116.081 138.867C121.339 146.938 123.979 157.985 124 172.009C124 188.167 120.41 200.707 113.231 209.628C110.038 213.855 105.546 217.315 100.207 219.66C94.869 222.005 88.8729 223.151 82.8235 222.984L26 222.958ZM58.9411 56.494V118.82H71.3573C82.1582 118.82 89.6968 116.009 93.9095 110.463C98.1222 104.918 100.244 95.3374 100.244 81.6953C100.244 68.6087 98.3967 59.2016 94.7014 53.474C93.0218 50.7301 90.3951 48.454 87.1501 46.9306C83.9051 45.4071 80.1857 44.7038 76.457 44.9087H66.6696C65.504 44.7701 64.3146 44.9014 63.2348 45.2877C62.1549 45.674 61.2274 46.3 60.5565 47.0956C59.1958 50.0589 58.6443 53.2319 58.9411 56.3899V56.494Z" fill="#535BA5"/>
<path fill-rule="evenodd" clip-rule="evenodd" d="M134.323 222.922V211.918L141.871 211.399C142.761 211.397 143.633 211.2 144.395 210.83C145.156 210.46 145.778 209.93 146.194 209.297C147.123 206.835 147.494 204.26 147.29 201.692V52.5136C147.598 49.6652 147.01 46.8004 145.581 44.1826C144.752 43.3746 143.679 42.7518 142.464 42.3745C141.249 41.9972 139.934 41.8781 138.645 42.0285L136.484 42.1582C135.66 42.2429 134.831 42.2863 134 42.288V32.1403L161.677 29V201.77C161.463 204.334 161.813 206.908 162.71 209.375C163.133 210.014 163.766 210.547 164.539 210.918C165.312 211.288 166.197 211.482 167.097 211.477L174 211.996V223L134.323 222.922Z" fill="#535BA5"/>
<path fill-rule="evenodd" clip-rule="evenodd" d="M266 223.501L239.386 226.718V202.314C236.953 209.315 233.047 215.91 227.844 221.801C226.253 223.66 224.157 225.188 221.723 226.264C219.289 227.34 216.583 227.935 213.821 228C206.317 228 200.509 224.312 196.396 216.936C192.295 209.585 190.228 199.201 190.228 185.678V121.777C190.538 118.908 189.969 116.022 188.574 113.38C187.752 112.564 186.689 111.935 185.486 111.555C184.283 111.175 182.981 111.056 181.706 111.209L179.448 111.34C178.636 111.424 177.819 111.468 177 111.471V101.165L204.282 98V186.698C203.905 192.993 205.174 199.281 208.002 205.139C210.514 209.455 214.012 211.626 218.591 211.626C224.95 211.626 230.038 208.016 233.44 200.823C236.842 193.63 238.559 183.219 238.559 169.565V121.777C238.869 118.908 238.301 116.022 236.906 113.38C236.055 112.557 234.964 111.925 233.734 111.546C232.505 111.166 231.178 111.05 229.879 111.209L227.621 111.34C226.798 111.425 225.97 111.468 225.141 111.471V101.165L252.741 98V202.863C252.435 205.751 253.015 208.656 254.426 211.312C255.248 212.12 256.308 212.741 257.505 213.116C258.701 213.492 259.995 213.609 261.262 213.457C262.017 213.451 262.771 213.407 263.52 213.326C264.569 213.326 265.396 213.195 266 213.195V223.501Z" fill="#535BA5"/>
<path fill-rule="evenodd" clip-rule="evenodd" d="M291.057 152.758H320.081C320.949 152.846 321.83 152.725 322.612 152.41C323.395 152.096 324.044 151.602 324.477 150.992C325.413 148.929 325.793 146.73 325.592 144.541C326.04 135.444 324.597 126.351 321.323 117.635C318.456 111.389 314.378 108.291 308.994 108.291C303.61 108.291 298.671 111.952 295.74 119.274C292.809 126.595 291.216 137.757 291.057 152.758V152.758ZM290.834 163.894C290.834 164.56 290.834 165.482 290.834 166.608C290.834 167.734 290.834 168.528 290.834 169.168C290.834 182.48 292.746 193.002 296.473 200.707C300.201 208.413 305.33 212.355 311.702 212.355C317.086 212.355 321.833 210.026 326.007 205.392C331.075 198.98 334.628 191.873 336.488 184.426L342 189.546C338.58 201.663 334.12 210.768 328.619 216.861C323.076 222.928 316.545 226 309.026 226C299.022 226 290.834 220.086 284.558 208.336C278.282 196.586 275 181.123 275 162.128C275 143.133 278.186 127.568 284.558 115.741C290.93 103.914 299.022 98 309.026 98C319.03 98 327.217 103.453 333.143 114.41C339.069 125.366 342 140.317 342 159.286V163.946L290.834 163.894Z" fill="#535BA5"/>
<path fill-rule="evenodd" clip-rule="evenodd" d="M393 222.974V210.623H401.184C402.488 210.756 403.811 210.58 404.995 210.118C406.179 209.656 407.174 208.927 407.861 208.018C409.263 204.776 409.831 201.335 409.53 197.908V57.9877C409.834 54.5946 409.266 51.1872 407.861 47.9822C407.18 47.0684 406.186 46.3354 405 45.8727C403.815 45.41 402.489 45.2376 401.184 45.3766H393V33H453.63C464.863 33 473.572 37.5771 479.756 46.7315C485.94 55.8858 489.021 68.7662 489 85.3725C489 103.282 485.116 116.709 477.349 125.655C469.582 134.601 457.952 139.074 442.46 139.074C439.925 139.074 437.389 139.074 434.789 138.891C432.19 138.709 429.493 138.553 426.701 138.318V197.934C426.411 201.359 426.967 204.796 428.338 208.044C428.985 208.934 429.935 209.653 431.074 210.115C432.213 210.578 433.492 210.763 434.757 210.65H444.386V223L393 222.974ZM426.701 57.675V126.124C428.106 126.402 429.532 126.602 430.97 126.723C432.59 126.868 434.219 126.929 435.849 126.906C449.094 126.906 458.23 123.822 463.259 117.656C468.287 111.489 470.78 100.711 470.737 85.3203C470.737 71.0069 468.768 60.6714 464.831 54.3138C463.155 51.3487 460.427 48.8572 456.996 47.1583C453.566 45.4594 449.588 44.6303 445.574 44.7773H434.95C433.684 44.6638 432.406 44.8492 431.267 45.3115C430.128 45.7737 429.178 46.4929 428.531 47.3829C427.038 50.6715 426.415 54.1781 426.701 57.675V57.675Z" fill="white"/>
<path fill-rule="evenodd" clip-rule="evenodd" d="M526.189 201.821C525.988 204.394 526.325 206.976 527.187 209.459C527.588 210.084 528.198 210.607 528.949 210.968C529.699 211.33 530.56 211.516 531.434 211.505L541.088 212.022V223H499.577V212.022L506.978 211.505C507.849 211.52 508.708 211.336 509.454 210.974C510.201 210.611 510.804 210.086 511.194 209.459C512.088 206.981 512.437 204.396 512.223 201.821V122.363C512.546 119.549 511.97 116.715 510.55 114.13C509.456 112.784 506.849 112.11 502.73 112.11H498V101.91L525.417 98.725V135.645C526.986 125.972 530.236 116.525 535.071 107.58C538.997 101.176 543.502 97.9828 548.586 98.0001C552.769 98.0001 556.245 100.097 558.916 104.317C561.835 109.277 563.226 114.73 562.97 120.214C563.144 124.217 562.267 128.205 560.396 131.917C558.69 134.92 556.47 136.448 553.96 136.448C552.46 136.388 551.015 135.976 549.802 135.263C548.59 134.549 547.664 133.566 547.138 132.435C545.312 128.996 544.465 125.271 544.66 121.535C544.639 119.333 544.92 117.136 545.497 114.984C545.928 113.327 546.712 111.741 547.814 110.298H546.88C541.367 110.298 536.594 116.426 532.561 128.68C528.174 143.464 526.142 158.637 526.511 173.834L526.189 201.821Z" fill="white"/>
<path fill-rule="evenodd" clip-rule="evenodd" d="M568.314 223V211.969L575.611 211.449C576.487 211.448 577.347 211.251 578.1 210.881C578.852 210.51 579.47 209.978 579.889 209.341C580.794 206.874 581.157 204.292 580.958 201.718V121.821C581.257 118.966 580.685 116.094 579.291 113.47C578.483 112.66 577.436 112.035 576.252 111.657C575.068 111.279 573.785 111.159 572.529 111.31C572.089 111.31 571.397 111.31 570.422 111.44C569.618 111.524 568.81 111.568 568 111.57V101.32L594.986 98.1718V201.718C594.777 204.288 595.117 206.869 595.992 209.341C596.407 209.986 597.029 210.523 597.789 210.895C598.549 211.266 599.418 211.458 600.301 211.449L607 211.969V223H568.314ZM587.563 33.078C590.079 33.078 592.218 34.613 594.073 37.631C595.888 41.1011 596.825 44.842 596.825 48.623C596.825 52.404 595.888 56.1449 594.073 59.615C592.281 62.607 590.048 64.0899 587.532 64.0899C585.015 64.0899 582.908 62.555 581.241 59.485C579.477 56.0361 578.567 52.3291 578.567 48.584C578.567 44.8389 579.477 41.1319 581.241 37.683C582.982 34.561 585.089 33 587.563 33V33.078Z" fill="white"/>
<path fill-rule="evenodd" clip-rule="evenodd" d="M614.291 223V211.969L621.807 211.449C622.705 211.448 623.587 211.251 624.359 210.881C625.131 210.51 625.765 209.978 626.194 209.341C627.107 206.871 627.467 204.29 627.258 201.718V121.821C627.573 118.968 626.996 116.097 625.581 113.47C624.747 112.657 623.668 112.032 622.448 111.654C621.227 111.276 619.907 111.157 618.613 111.31L616.452 111.44C615.639 111.525 614.82 111.569 614 111.57V101.32L641.678 98.1718V201.718C641.463 204.288 641.813 206.869 642.71 209.341C643.136 209.986 643.773 210.523 644.553 210.895C645.332 211.266 646.224 211.458 647.129 211.449L654 211.969V223H614.291ZM634.065 33.078C636.645 33.078 638.839 34.613 640.742 37.631C642.583 41.1053 643.533 44.8445 643.533 48.623C643.533 52.4014 642.583 56.1407 640.742 59.615C638.903 62.607 636.613 64.0899 634.032 64.0899C631.452 64.0899 629.291 62.555 627.581 59.485C625.771 56.0361 624.838 52.3291 624.838 48.584C624.838 44.8389 625.771 41.1319 627.581 37.683C629.366 34.561 631.527 33 634.065 33V33.078Z" fill="white"/>
<path fill-rule="evenodd" clip-rule="evenodd" d="M662.437 222.818V211.788L669.11 211.267C669.984 211.286 670.846 211.104 671.598 210.74C672.35 210.376 672.959 209.847 673.357 209.212C674.195 206.715 674.519 204.122 674.315 201.538V121.751C674.629 118.865 674.058 115.959 672.655 113.297C671.829 112.484 670.761 111.859 669.553 111.481C668.345 111.103 667.038 110.984 665.758 111.137C665.279 111.137 664.544 111.137 663.491 111.267C662.664 111.352 661.833 111.395 661 111.397V101.148L687.822 98V123.26C690.213 116.37 694.083 109.879 699.253 104.087C700.874 102.252 702.994 100.747 705.448 99.6912C707.903 98.6351 710.623 98.0562 713.398 98C720.933 98 726.777 101.651 730.928 108.952C735.079 116.254 737.133 126.659 737.09 140.17V201.616C736.904 204.184 737.238 206.759 738.08 209.238C738.481 209.875 739.089 210.408 739.839 210.78C740.588 211.152 741.449 211.348 742.327 211.346L749 211.866V222.896H711.099V211.866L717.804 211.346C718.69 211.348 719.557 211.143 720.304 210.756C721.051 210.369 721.646 209.815 722.019 209.16C722.854 206.707 723.188 204.158 723.009 201.616V139.181C723.385 132.91 722.1 126.646 719.241 120.815C716.75 116.574 713.238 114.415 708.64 114.415C701.967 114.415 696.985 118.109 693.633 125.497C690.28 132.886 688.556 143.864 688.556 158.302V201.668C688.345 204.296 688.679 206.935 689.546 209.472C689.978 210.077 690.598 210.578 691.344 210.925C692.089 211.272 692.934 211.453 693.793 211.45L700.179 211.97V223L662.437 222.818Z" fill="white"/>
<path fill-rule="evenodd" clip-rule="evenodd" d="M767.345 113.095H755V102.503C761.283 101.668 766.225 96.6148 769.827 87.3441C773.429 78.0734 775.356 64.9587 775.607 48H782.079V101.485H804.256V113.095H781.356V189.2C780.999 195.132 781.697 201.075 783.429 206.837C783.774 208.178 784.654 209.384 785.924 210.26C787.195 211.135 788.784 211.63 790.434 211.664C794.623 211.664 797.764 208.759 799.859 202.95C802.341 194.057 803.501 184.944 803.314 175.816L809 175.686V179.156C809 195.045 806.958 207.177 802.717 215.473C798.476 223.77 792.634 227.997 784.843 227.997C781.839 228.057 778.891 227.307 776.444 225.858C773.997 224.409 772.182 222.34 771.272 219.961C768.633 214.743 767.314 205.115 767.314 191.549L767.345 113.095Z" fill="white"/>
<path d="M879.31 329.03C879.691 329.03 880 328.721 880 328.34C880 327.959 879.691 327.65 879.31 327.65C878.929 327.65 878.62 327.959 878.62 328.34C878.62 328.721 878.929 329.03 879.31 329.03Z" fill="white" stroke="#E5E5E5" stroke-miterlimit="10"/>
<path fill-rule="evenodd" clip-rule="evenodd" d="M59.3288 277C60.6058 277 61.7517 277.799 62.603 279.396C63.6319 281.156 64.1359 283.077 64.0765 285.014C64.1304 286.905 63.6378 288.782 62.6358 290.502C61.6863 292.048 60.5403 292.821 59.3616 292.821C58.1829 292.821 56.8732 292.022 55.891 290.476C54.8953 288.736 54.4033 286.844 54.4503 284.936C54.3978 283.025 54.9018 281.13 55.9237 279.396C56.906 277.799 58.052 277 59.1979 277H59.3288ZM48 316.217L64.2074 315.496V372.002C64.1105 373.12 64.346 374.241 64.895 375.275C65.1066 375.672 65.4545 376.015 65.8998 376.265C66.3451 376.516 66.87 376.663 67.416 376.692H72V382H48.8841V376.692H53.1733C53.7807 376.699 54.3754 376.555 54.8744 376.283C55.3733 376.01 55.7516 375.622 55.9563 375.172C56.6339 373.776 56.9351 372.284 56.8404 370.791V329.564C56.9836 327.531 56.5124 325.5 55.4653 323.638C55.0982 323.025 54.513 322.509 53.7808 322.152C53.0486 321.795 52.2007 321.613 51.3398 321.628H48.0655L48 316.217Z" fill="white" stroke="#E5E5E5" stroke-miterlimit="10"/>
<path fill-rule="evenodd" clip-rule="evenodd" d="M79.7544 356.891C80.6535 362.764 82.7102 368.482 85.8463 373.828C86.5753 375.17 87.7534 376.321 89.2478 377.15C90.7422 377.979 92.4933 378.454 94.3035 378.521C95.7693 378.558 97.2183 378.26 98.4847 377.662C99.7512 377.064 100.784 376.189 101.465 375.139C104.109 370.865 104.676 365.944 103.053 361.348C102.612 360.083 101.748 358.94 100.557 358.045C97.9237 356.694 95.0941 355.611 92.1326 354.82C88.7364 353.886 85.6378 352.355 83.0594 350.337C81.1414 348.461 79.7783 346.255 79.0739 343.888C78.1033 340.964 77.6237 337.948 77.6481 334.921C77.568 330.362 78.5691 325.832 80.5969 321.577C83.1244 316.508 86.6779 313.983 91.2576 314C94.7572 314 97.9651 315.783 100.979 319.427L103.83 314.419H105.58L106.682 338.251H103.798C103.161 333.198 101.439 328.274 98.7104 323.7C98.0158 322.442 96.9088 321.362 95.5094 320.576C94.11 319.79 92.4715 319.33 90.7715 319.244C89.4103 319.237 88.0758 319.548 86.9267 320.138C85.7777 320.728 84.8626 321.574 84.2908 322.573C82.6716 325.048 81.8787 327.823 81.9903 330.622C81.8768 333.055 82.6182 335.464 84.1288 337.569C86.1259 339.803 89.0456 341.384 92.3592 342.026C95.6099 342.803 98.7245 343.913 101.627 345.33C104.207 347.06 106.1 349.367 107.071 351.963C108.44 355.48 109.086 359.156 108.982 362.843C109.179 368.055 107.741 373.224 104.802 377.865C102.059 381.955 98.5267 384 94.2062 384C90.253 384 86.5591 381.85 83.1567 377.551L79.9164 383.554H77.875L77 356.944L79.7544 356.891Z" fill="white" stroke="#E5E5E5" stroke-miterlimit="10"/>
<path fill-rule="evenodd" clip-rule="evenodd" d="M128.928 314V357.698C128.684 361.92 129.508 366.139 131.351 370.094C132.944 372.987 135.048 374.459 137.725 374.459C140.912 374.459 143.558 372.315 145.757 368.08C148.099 362.98 149.182 357.557 148.944 352.119V327.378C149.059 325.579 148.551 323.79 147.478 322.213C146.841 321.511 145.996 320.952 145.021 320.586C144.046 320.22 142.972 320.06 141.9 320.121V315.214L155.765 314.077V368.028C155.644 369.991 156.069 371.95 157.008 373.761C157.297 374.335 157.785 374.827 158.413 375.18C159.041 375.533 159.782 375.731 160.546 375.75H163V380.502L149.805 380.941L148.944 368.028C147.208 371.781 144.814 375.313 141.837 378.513C141.027 379.494 139.957 380.316 138.705 380.919C137.454 381.523 136.052 381.892 134.602 382C131.032 382 128.036 380.011 125.645 376.034C123.255 372.057 121.98 365.368 121.98 355.942V327.275C122.148 325.247 121.511 323.229 120.164 321.515C119.501 320.961 118.693 320.534 117.799 320.266C116.905 319.997 115.949 319.895 115 319.966V315.059L128.928 314Z" fill="white" stroke="#E5E5E5" stroke-miterlimit="10"/>
<path fill-rule="evenodd" clip-rule="evenodd" d="M209.495 374.7L211 378.646C208.919 382.203 206.613 383.968 204.083 383.968C203.06 383.927 202.068 383.665 201.212 383.209C200.356 382.752 199.667 382.118 199.216 381.372C197.451 378.482 196.282 375.378 195.758 372.182C194.054 375.619 191.675 378.811 188.713 381.631C187.549 382.534 186.145 383.208 184.609 383.602C183.073 383.996 181.446 384.099 179.853 383.904C178.261 383.708 176.745 383.219 175.422 382.474C174.098 381.729 173.004 380.748 172.221 379.606C169.945 376.165 168.839 372.294 169.019 368.391C168.75 362.149 171.313 356.043 176.224 351.231C181.228 346.582 187.979 343.398 195.437 342.17V332.201C195.548 329.034 194.655 325.897 192.844 323.089C192.327 322.031 191.451 321.114 190.317 320.443C189.184 319.772 187.839 319.375 186.439 319.299C185.197 319.301 183.972 319.536 182.861 319.986C181.75 320.437 180.782 321.09 180.035 321.895C178.884 322.923 178.215 324.246 178.145 325.633C178.263 326.787 178.609 327.918 179.17 328.982C179.913 330.587 180.324 332.28 180.387 333.993C180.468 335.776 180.052 337.55 179.17 339.185C178.338 340.535 177.281 341.21 175.968 341.21C174.655 341.21 173.374 340.405 172.446 338.795C171.428 336.852 170.947 334.752 171.037 332.643C170.99 328.082 172.629 323.615 175.744 319.818C176.993 318.048 178.797 316.578 180.974 315.557C183.15 314.535 185.622 313.999 188.136 314.002C190.354 313.962 192.542 314.427 194.45 315.345C196.357 316.263 197.909 317.597 198.928 319.195C201.521 323.013 202.803 327.325 202.642 331.682V367.82C202.529 370.189 202.842 372.559 203.571 374.856C204.211 376.413 205.012 377.192 205.973 377.192C207.093 377.192 208.246 376.413 209.463 374.882L209.495 374.7ZM195.501 346.765C189.403 347.846 184.01 350.711 180.355 354.813C177.934 358.511 176.826 362.681 177.153 366.86C176.994 369.764 177.583 372.664 178.882 375.375C180.035 377.426 181.54 378.464 183.397 378.464C186.599 378.464 189.545 376.335 191.979 372.13C194.603 367.111 195.849 361.689 195.63 356.241L195.501 346.765Z" fill="white" stroke="#E5E5E5" stroke-miterlimit="10"/>
<path fill-rule="evenodd" clip-rule="evenodd" d="M230.557 277V372.272C230.493 373.303 230.745 374.331 231.292 375.265C231.515 375.663 231.867 376.005 232.311 376.255C232.756 376.505 233.275 376.653 233.815 376.684H238V382H215.639V376.684H219.568C220.186 376.681 220.79 376.533 221.306 376.258C221.822 375.983 222.228 375.593 222.475 375.136C223.188 373.757 223.505 372.266 223.401 370.775V290.78C223.565 289.011 223.181 287.238 222.283 285.619C221.96 284.992 221.427 284.45 220.744 284.054C220.062 283.657 219.257 283.422 218.418 283.374H215V278.058L230.557 277Z" fill="white" stroke="#E5E5E5" stroke-miterlimit="10"/>
<path fill-rule="evenodd" clip-rule="evenodd" d="M268.855 315.15L280.16 314C280.793 318.941 281.173 323.647 281.363 328.144C282.725 324.22 284.865 320.51 287.696 317.163C288.49 316.233 289.529 315.465 290.736 314.917C291.944 314.369 293.287 314.055 294.663 314C296.071 314.036 297.439 314.392 298.618 315.029C299.796 315.665 300.74 316.558 301.344 317.608C303.571 321.289 304.956 325.277 305.429 329.373C306.73 325.244 308.872 321.327 311.762 317.791C312.547 316.71 313.636 315.801 314.937 315.141C316.238 314.481 317.712 314.09 319.235 314C322.782 314 325.569 315.778 327.247 319.412C329.75 325.284 330.91 331.49 330.667 337.712V370.81C330.531 372.202 330.836 373.599 331.553 374.863C331.891 375.375 332.397 375.799 333.013 376.086C333.629 376.373 334.33 376.51 335.037 376.484H337V381.869H317.209V376.484H319.204C319.894 376.536 320.587 376.43 321.208 376.176C321.829 375.922 322.352 375.531 322.719 375.046C323.491 373.72 323.84 372.253 323.732 370.784V337.66C323.926 333.766 323.205 329.878 321.61 326.209C320.185 323.595 318.444 322.157 316.037 322.157C315.07 322.202 314.131 322.443 313.303 322.858C312.475 323.273 311.783 323.849 311.287 324.536C309.677 326.607 308.599 328.93 308.121 331.36C307.032 334.874 306.426 338.478 306.316 342.105V370.863C306.207 372.34 306.521 373.818 307.234 375.176C307.508 375.602 307.92 375.956 308.422 376.201C308.925 376.445 309.5 376.57 310.084 376.562H312.744V381.948H292.7V376.562H294.979C295.616 376.584 296.248 376.462 296.806 376.209C297.365 375.955 297.828 375.58 298.146 375.124C298.917 374.032 299.29 372.779 299.223 371.516V340.745C299.507 335.962 298.822 331.172 297.196 326.575C295.866 323.621 294.029 322.157 291.781 322.157C288.836 322.157 286.588 323.856 285.036 327.386C282.662 332.805 281.513 338.539 281.648 344.301V370.941C281.522 372.359 281.793 373.781 282.44 375.098C282.81 375.592 283.335 375.993 283.96 376.26C284.584 376.527 285.284 376.649 285.986 376.614H287.855V382H268V376.614H270.945C271.496 376.608 272.033 376.468 272.488 376.213C272.944 375.957 273.299 375.597 273.51 375.176C274.166 374.053 274.481 372.815 274.428 371.569V327.778C274.552 325.937 274.173 324.096 273.32 322.392C272.874 321.757 272.25 321.219 271.501 320.823C270.752 320.427 269.899 320.186 269.013 320.118L268.855 315.15Z" fill="white" stroke="#E5E5E5" stroke-miterlimit="10"/>
<path fill-rule="evenodd" clip-rule="evenodd" d="M380.709 349.402H352.097C352.226 359.49 353.357 366.619 355.488 370.789C357.942 375.435 361.043 377.771 364.821 377.771C370.375 377.771 374.864 372.58 378.223 361.99L381 363.989C376.834 377.304 370.86 384 363.012 384C357.684 384 353.324 380.782 349.514 374.397C345.544 366.626 343.683 358.264 344.056 349.87C343.648 341.016 345.471 332.188 349.417 323.915C353.034 317.288 357.469 313.983 362.722 314C364.774 314.072 366.769 314.563 368.521 315.425C370.272 316.288 371.721 317.495 372.733 318.931C376.062 323.253 378.259 328.075 379.192 333.103C380.298 338.498 380.827 343.96 380.774 349.428L380.709 349.402ZM352.097 344.341H369.374C370.408 344.341 371.215 343.77 371.764 342.602C372.461 340.709 372.745 338.733 372.604 336.762C372.753 332.255 371.764 327.769 369.697 323.577C367.76 319.97 365.467 318.153 362.819 318.153C360.171 318.153 357.361 320.333 355.294 324.693C352.886 331.056 351.806 337.695 352.097 344.341V344.341Z" fill="white" stroke="#E5E5E5" stroke-miterlimit="10"/>
<path fill-rule="evenodd" clip-rule="evenodd" d="M385.094 315.153L399.015 314V340.954C399.928 334.105 401.725 327.359 404.372 320.837C406.459 316.279 409.013 314 412.096 314C413.23 314.061 414.316 314.409 415.211 314.998C416.105 315.587 416.768 316.389 417.111 317.3C418.489 320.094 419.127 323.106 418.979 326.128C419.088 328.504 418.666 330.877 417.733 333.122C416.893 334.772 415.834 335.61 414.619 335.61C413.404 335.61 412.377 334.903 411.504 333.462C410.668 331.626 410.286 329.665 410.383 327.7C410.36 326.216 410.57 324.736 411.006 323.299C411.278 322.571 411.486 321.826 411.629 321.072C411.629 320.365 411.38 319.998 410.85 319.998C409.729 319.998 408.452 321.151 407.02 323.43C404.713 327.573 403.179 331.991 402.472 336.527C401.03 343.38 400.208 350.315 400.012 357.273V371.601C399.915 372.892 400.25 374.181 400.977 375.32C401.367 375.759 401.883 376.108 402.477 376.332C403.071 376.557 403.723 376.65 404.372 376.604H409.262V382H385.249V376.604H389.111C389.694 376.625 390.272 376.515 390.787 376.284C391.302 376.054 391.734 375.712 392.039 375.294C392.711 374.326 393.045 373.219 393.004 372.099V329.612C393.169 327.203 392.767 324.791 391.821 322.513C391.596 321.886 391.147 321.333 390.533 320.929C389.92 320.526 389.173 320.292 388.395 320.26H385L385.094 315.153Z" fill="white" stroke="#E5E5E5" stroke-miterlimit="10"/>
<path fill-rule="evenodd" clip-rule="evenodd" d="M454.334 362.44L457 363.763C454.884 377.254 450.082 384 442.592 384C437.165 384 432.69 380.964 429.231 374.893C425.413 367.237 423.649 359 424.058 350.738C424.058 339.063 425.951 330.017 429.739 323.6C433.526 317.183 438.001 313.983 443.163 314C445.206 314.076 447.182 314.62 448.865 315.57C450.548 316.519 451.872 317.836 452.684 319.371C455.233 323.008 456.538 327.14 456.461 331.331C456.548 333.566 456.073 335.791 455.064 337.87C454.112 339.582 453.001 340.464 451.7 340.464C450.399 340.464 449.383 339.738 448.526 338.259C447.622 336.631 447.177 334.857 447.225 333.07C447.216 331.037 447.712 329.025 448.685 327.154C449.075 326.486 449.311 325.765 449.383 325.027C449.354 323.595 448.777 322.207 447.733 321.057C447.255 320.453 446.596 319.959 445.818 319.623C445.04 319.287 444.17 319.12 443.29 319.137C439.894 319.137 437.323 321.239 435.546 325.39C432.746 333.15 431.471 341.224 431.77 349.311C431.389 356.551 432.526 363.79 435.134 370.716C437.355 375.568 440.211 378.007 443.671 378.007C448.473 377.955 452.028 372.766 454.334 362.44Z" fill="white" stroke="#E5E5E5" stroke-miterlimit="10"/>
<path fill-rule="evenodd" clip-rule="evenodd" d="M460.163 278.161L475.387 277V327.655C476.922 324.01 479.245 320.605 482.251 317.591C483.155 316.614 484.322 315.808 485.666 315.233C487.011 314.657 488.5 314.326 490.026 314.262C491.405 314.307 492.754 314.602 493.966 315.126C495.179 315.649 496.224 316.387 497.02 317.281C499.13 319.794 500.539 322.636 501.151 325.616C502.351 330.251 502.918 334.975 502.843 339.706V370.93C502.725 372.43 503.048 373.932 503.786 375.317C504.071 375.74 504.499 376.093 505.021 376.335C505.544 376.576 506.142 376.697 506.747 376.684H510V382H488.237V376.684H490.677C491.418 376.749 492.167 376.647 492.839 376.392C493.512 376.137 494.081 375.737 494.483 375.239C495.302 373.9 495.672 372.416 495.556 370.93V339.706C495.805 335.32 494.977 330.938 493.116 326.803C491.49 323.733 489.408 322.21 486.871 322.21C485.758 322.265 484.677 322.528 483.716 322.976C482.755 323.424 481.942 324.046 481.34 324.791C479.252 327.169 477.782 329.853 477.014 332.687C475.795 336.341 475.193 340.107 475.224 343.886V370.13C475.087 371.822 475.397 373.519 476.135 375.11C476.38 375.566 476.795 375.951 477.325 376.214C477.854 376.477 478.472 376.605 479.096 376.581H482.544V381.897H461.139V376.581H463.578C464.3 376.628 465.022 376.503 465.654 376.222C466.285 375.942 466.797 375.519 467.124 375.007C467.957 373.47 468.325 371.8 468.198 370.13V291.812C468.351 289.667 467.884 287.522 466.831 285.541C466.51 284.93 465.968 284.408 465.274 284.04C464.579 283.673 463.763 283.477 462.928 283.477H460L460.163 278.161Z" fill="white" stroke="#E5E5E5" stroke-miterlimit="10"/>
<path fill-rule="evenodd" clip-rule="evenodd" d="M556.463 374.702L558 378.648C555.919 382.205 553.613 383.97 551.083 383.97C550.06 383.93 549.068 383.668 548.212 383.211C547.356 382.754 546.667 382.12 546.216 381.374C544.452 378.482 543.273 375.379 542.725 372.184C541.043 375.624 538.673 378.817 535.712 381.634C534.752 382.396 533.616 382.997 532.368 383.402C531.121 383.808 529.787 384.01 528.444 383.996C526.553 384.042 524.685 383.655 523.053 382.879C521.422 382.103 520.094 380.969 519.221 379.609C516.944 376.167 515.839 372.296 516.019 368.393C515.758 362.147 518.333 356.041 523.256 351.232C528.261 346.585 535.012 343.401 542.469 342.171V332.202C542.589 329.037 541.707 325.9 539.907 323.089C539.381 322.037 538.503 321.124 537.371 320.455C536.24 319.785 534.9 319.385 533.503 319.299C532.262 319.309 531.041 319.548 529.931 319.997C528.821 320.447 527.853 321.096 527.098 321.895C525.961 322.93 525.295 324.249 525.209 325.634C525.344 326.785 525.689 327.914 526.234 328.983C527.003 330.582 527.425 332.277 527.483 333.993C527.571 335.779 527.143 337.558 526.234 339.186C525.444 340.536 524.377 341.211 523.032 341.211C521.591 341.211 520.438 340.406 519.509 338.796C518.464 336.86 517.971 334.756 518.068 332.643C518.031 328.08 519.682 323.613 522.808 319.818C524.051 318.051 525.85 316.581 528.021 315.56C530.192 314.538 532.658 314.001 535.168 314.003C537.391 313.96 539.584 314.425 541.497 315.343C543.41 316.26 544.968 317.595 545.992 319.195C548.585 323.014 549.867 327.326 549.706 331.683V367.822C549.576 370.192 549.89 372.564 550.635 374.858C551.233 376.415 552.033 377.194 553.037 377.194C554.125 377.194 555.278 376.415 556.495 374.884L556.463 374.702ZM542.373 346.767C536.288 347.855 530.908 350.719 527.259 354.815C524.838 358.513 523.73 362.683 524.057 366.861C523.898 369.766 524.487 372.666 525.786 375.377C526.938 377.428 528.443 378.466 530.269 378.466C533.471 378.466 536.449 376.338 538.883 372.132C541.479 367.107 542.713 361.688 542.501 356.243L542.373 346.767Z" fill="white" stroke="#E5E5E5" stroke-miterlimit="10"/>
<path fill-rule="evenodd" clip-rule="evenodd" d="M563 315.173L576.056 314C576.596 318.172 577.009 323.074 577.263 328.653C578.517 324.73 580.674 321.039 583.617 317.781C584.534 316.697 585.747 315.805 587.159 315.176C588.571 314.547 590.143 314.198 591.749 314.156C593.009 314.154 594.254 314.388 595.388 314.84C596.522 315.291 597.516 315.949 598.293 316.764C600.42 319.204 601.863 322 602.518 324.951C603.621 329.069 604.154 333.276 604.106 337.492V369.876C603.953 371.65 604.279 373.431 605.06 375.09C605.353 375.571 605.808 375.971 606.371 376.244C606.935 376.517 607.583 376.651 608.236 376.629H611V382H590.32V376.629H592.289C593.03 376.694 593.778 376.59 594.451 376.327C595.123 376.065 595.695 375.655 596.101 375.143C596.946 373.754 597.33 372.207 597.213 370.658V342.133C597.422 337.503 596.856 332.871 595.529 328.367C593.973 324.117 591.59 322.005 588.414 322.005C585.237 322.005 582.632 324.143 580.504 328.445C578.178 333.839 577.101 339.543 577.327 345.262V369.85C577.163 371.627 577.5 373.411 578.312 375.064C578.605 375.545 579.06 375.945 579.624 376.218C580.187 376.491 580.835 376.624 581.488 376.603H584.22V381.974H563.413V376.603H566.113C566.752 376.628 567.388 376.507 567.948 376.254C568.509 376.001 568.973 375.625 569.29 375.169C570.04 374.091 570.414 372.864 570.37 371.623V328.601C570.505 326.389 570.038 324.18 569.004 322.135C568.693 321.485 568.151 320.926 567.449 320.531C566.746 320.136 565.916 319.923 565.065 319.919H563.063L563 315.173Z" fill="white" stroke="#E5E5E5" stroke-miterlimit="10"/>
<path fill-rule="evenodd" clip-rule="evenodd" d="M637.33 278.15L652.569 277V366.076C652.4 368.594 652.805 371.116 653.766 373.514C653.99 374.139 654.452 374.69 655.086 375.089C655.719 375.489 656.491 375.716 657.292 375.738H660V381.003H646.713L645.674 367.916C644.61 371.674 642.734 375.248 640.132 378.473C639.395 379.485 638.364 380.336 637.129 380.951C635.895 381.566 634.493 381.926 633.047 382C628.608 382 624.829 378.907 621.743 372.671C618.276 364.781 616.684 356.428 617.052 348.056C617.052 337.032 619.046 328.222 623.034 321.628C626.183 316.516 629.741 313.96 633.803 313.96C635.15 314.009 636.462 314.32 637.629 314.867C638.796 315.414 639.784 316.181 640.51 317.103C642.94 319.996 644.69 323.228 645.674 326.637V289.754C645.782 288.139 645.311 286.532 644.32 285.128C643.878 284.562 643.255 284.104 642.517 283.802C641.78 283.5 640.956 283.367 640.132 283.416H637.33V278.15V278.15ZM634.968 319.736C631.819 319.736 629.615 321.806 627.852 325.947C625.731 332.776 624.851 339.82 625.239 346.855C625.239 357.514 626.12 365.003 627.947 369.348C629.773 373.693 632.04 375.891 634.842 375.891C637.644 375.891 640.415 373.463 642.557 368.581C645.019 361.669 646.082 354.478 645.705 347.29C646.011 340.23 644.851 333.179 642.273 326.433C640.352 321.985 637.896 319.736 634.968 319.736Z" fill="white" stroke="#E5E5E5" stroke-miterlimit="10"/>
<path fill-rule="evenodd" clip-rule="evenodd" d="M674.783 277C675.999 277 677.089 277.799 677.9 279.396C678.879 281.156 679.359 283.077 679.302 285.014C679.369 286.906 678.9 288.786 677.931 290.502C677.027 292.048 675.936 292.821 674.814 292.821C673.692 292.821 672.446 292.022 671.698 290.476C670.773 288.729 670.295 286.843 670.295 284.936C670.295 283.029 670.773 281.143 671.698 279.396C672.633 277.799 673.723 277 674.814 277H674.783ZM664 316.217L679.583 315.496V372.002C679.49 373.12 679.714 374.241 680.237 375.275C680.438 375.672 680.77 376.015 681.193 376.265C681.617 376.516 682.117 376.663 682.637 376.692H687V382H664.998V376.692H669.08C669.658 376.699 670.224 376.555 670.699 376.283C671.174 376.01 671.534 375.622 671.729 375.172C672.374 373.776 672.661 372.284 672.57 370.791V329.564C672.707 327.531 672.258 325.5 671.261 323.638C670.915 323.023 670.359 322.505 669.662 322.148C668.964 321.791 668.155 321.61 667.335 321.628H664.218L664 316.217Z" fill="white" stroke="#E5E5E5" stroke-miterlimit="10"/>
<path fill-rule="evenodd" clip-rule="evenodd" d="M695.992 356.944C696.885 362.816 698.927 368.534 702.04 373.88C702.767 375.226 703.941 376.38 705.431 377.209C706.921 378.039 708.667 378.511 710.47 378.573C711.92 378.605 713.352 378.305 714.603 377.707C715.854 377.11 716.874 376.238 717.548 375.191C720.174 370.917 720.736 365.996 719.124 361.401C718.679 360.11 717.799 358.948 716.583 358.045C713.968 356.694 711.158 355.611 708.218 354.82C704.846 353.886 701.769 352.355 699.209 350.337C697.305 348.461 695.951 346.255 695.252 343.888C694.288 340.964 693.812 337.948 693.837 334.921C693.757 330.362 694.751 325.832 696.764 321.577C699.273 316.508 702.813 313.983 707.381 314C710.824 314 714.009 315.783 717.033 319.427L719.864 314.42H721.602L722.695 338.251H719.832C719.2 333.198 717.491 328.274 714.781 323.7C714.091 322.442 712.992 321.362 711.603 320.576C710.213 319.79 708.586 319.33 706.898 319.244C705.547 319.237 704.222 319.548 703.081 320.138C701.94 320.728 701.032 321.574 700.464 322.573C698.856 325.048 698.069 327.823 698.18 330.622C698.067 333.055 698.803 335.464 700.303 337.569C702.286 339.803 705.185 341.384 708.475 342.026C711.702 342.803 714.795 343.913 717.676 345.33C720.238 347.061 722.118 349.367 723.082 351.963C724.457 355.477 725.099 359.155 724.98 362.843C725.19 368.057 723.762 373.228 720.83 377.865C718.095 381.955 714.588 384 710.341 384C706.094 384 702.716 381.85 699.338 377.551L696.121 383.554H693.869L693 356.944H695.992Z" fill="white" stroke="#E5E5E5" stroke-miterlimit="10"/>
<path fill-rule="evenodd" clip-rule="evenodd" d="M741.314 277C742.507 277 743.52 277.799 744.295 279.396C745.232 281.156 745.691 283.077 745.637 285.014C745.695 286.903 745.257 288.78 744.355 290.502C743.5 292.048 742.507 292.821 741.374 292.821C740.182 292.821 739.138 292.022 738.393 290.476C737.486 288.736 737.038 286.844 737.081 284.936C737.033 283.025 737.492 281.13 738.423 279.396C739.317 277.799 740.331 277 741.404 277H741.314ZM731 316.217L745.905 315.496V372.002C745.832 373.12 746.045 374.237 746.531 375.275C746.727 375.67 747.044 376.012 747.449 376.262C747.854 376.512 748.33 376.66 748.826 376.692H753V382H731.954V376.692H735.859C736.415 376.696 736.959 376.553 737.418 376.281C737.876 376.009 738.227 375.622 738.423 375.172C739.04 373.776 739.314 372.284 739.228 370.791V329.564C739.366 327.528 738.926 325.493 737.946 323.638C737.617 323.027 737.089 322.512 736.428 322.155C735.766 321.798 734.999 321.615 734.219 321.628H731.238L731 316.217Z" fill="white" stroke="#E5E5E5" stroke-miterlimit="10"/>
<path fill-rule="evenodd" clip-rule="evenodd" d="M758 315.173L771.048 314C771.587 318.172 772 323.074 772.254 328.653C773.521 324.734 775.675 321.046 778.603 317.781C779.525 316.702 780.738 315.813 782.148 315.184C783.558 314.555 785.127 314.204 786.73 314.156C787.991 314.148 789.237 314.379 790.372 314.832C791.506 315.284 792.498 315.945 793.27 316.764C795.408 319.198 796.851 321.996 797.492 324.951C798.621 329.066 799.165 333.274 799.111 337.492V369.876C798.94 371.651 799.266 373.435 800.064 375.09C800.353 375.573 800.808 375.975 801.371 376.248C801.935 376.522 802.584 376.654 803.238 376.629H806V382H785.302V376.629H787.238C787.982 376.693 788.734 376.589 789.412 376.327C790.089 376.065 790.666 375.655 791.08 375.143C791.912 373.751 792.284 372.205 792.159 370.658V342.133C792.368 337.503 791.802 332.871 790.476 328.367C788.921 324.117 786.54 322.005 783.365 322.005C780.19 322.005 777.587 324.143 775.492 328.445C773.166 333.839 772.09 339.543 772.317 345.262V369.85C772.171 371.626 772.507 373.408 773.301 375.064C773.597 375.543 774.054 375.941 774.616 376.214C775.178 376.486 775.823 376.621 776.476 376.603H779.175V381.974H758.413V376.603H761.111C761.749 376.625 762.383 376.503 762.942 376.25C763.502 375.997 763.967 375.623 764.286 375.169C765.024 374.088 765.387 372.861 765.334 371.623V328.601C765.485 326.389 765.018 324.177 763.968 322.135C763.659 321.489 763.123 320.933 762.427 320.538C761.732 320.143 760.909 319.928 760.064 319.919H758V315.173Z" fill="white" stroke="#E5E5E5" stroke-miterlimit="10"/>
<path fill-rule="evenodd" clip-rule="evenodd" d="M840.525 320.171C843.296 315.39 845.846 313 848.176 313C849.561 313 850.726 313.753 851.607 315.26C852.593 316.989 853.067 318.885 852.992 320.794C853.055 322.288 852.733 323.776 852.048 325.159C851.45 326.329 850.726 326.9 849.876 326.9C848.301 326.9 847.262 325.237 846.727 321.938C846.507 320.509 846.129 319.807 845.594 319.807C845.059 319.807 843.642 320.872 842.446 323.029C843.504 325.377 844.326 327.792 844.901 330.252C845.356 332.44 845.577 334.657 845.562 336.877C845.631 340.541 845.037 344.193 843.8 347.712C842.672 350.815 840.689 353.66 838.006 356.026C837.078 357.034 835.909 357.874 834.571 358.496C833.234 359.117 831.756 359.505 830.23 359.637H825.697C824.561 359.523 823.409 359.614 822.322 359.906C821.234 360.198 820.237 360.682 819.4 361.326C818.229 362.879 817.678 364.697 817.826 366.522C817.716 368.01 818.167 369.489 819.117 370.757C819.725 371.312 820.485 371.739 821.334 372.001C822.184 372.263 823.096 372.353 823.997 372.264L834.229 371.874C836.404 371.722 838.589 372.051 840.559 372.827C842.529 373.603 844.213 374.799 845.437 376.291C847.965 379.991 849.166 384.209 848.9 388.451C849.096 393.422 847.741 398.352 844.964 402.767C843.504 405.288 841.189 407.405 838.3 408.862C835.411 410.32 832.072 411.054 828.687 410.977C826.07 411.111 823.457 410.663 821.121 409.681C818.784 408.698 816.809 407.217 815.402 405.391C813.137 402.459 811.955 399.046 812.001 395.57C811.971 392.905 812.728 390.275 814.205 387.905C815.805 385.485 818.427 383.636 821.572 382.709C818.878 381.648 816.67 379.899 815.276 377.72C813.796 375.179 813.083 372.38 813.198 369.562C813.148 366.9 813.715 364.255 814.866 361.768C816.112 359.43 818.144 357.437 820.722 356.026C818.287 353.686 816.475 350.951 815.402 347.997C814.142 344.5 813.536 340.864 813.607 337.215C813.385 331.617 814.925 326.067 818.078 321.106C819.067 319.235 820.676 317.633 822.72 316.484C824.764 315.335 827.16 314.685 829.632 314.611C831.64 314.619 833.6 315.116 835.267 316.04C837.326 317.18 839.1 318.635 840.494 320.327L840.525 320.171ZM829.601 318.95C827.113 318.95 825.099 320.483 823.304 323.575C821.488 327.735 820.675 332.148 820.911 336.565C820.67 341.247 821.482 345.924 823.304 350.362C824.941 353.661 826.988 355.298 829.601 355.298C832.214 355.298 834.166 353.687 835.897 350.518C837.726 346.117 838.538 341.473 838.29 336.825C838.493 332.407 837.67 327.997 835.866 323.834C834.229 320.639 832.214 319.054 829.569 319.054L829.601 318.95ZM831.993 382.657C829.956 382.487 827.899 382.729 826.001 383.363C824.103 383.997 822.421 385.003 821.1 386.294C818.917 388.83 817.81 391.89 817.952 394.998C817.768 397.679 818.629 400.337 820.407 402.585C821.45 403.786 822.84 404.752 824.452 405.397C826.063 406.041 827.844 406.343 829.632 406.274C831.689 406.381 833.746 406.07 835.624 405.368C837.501 404.666 839.141 403.594 840.399 402.247C842.76 399.646 844.031 396.481 844.02 393.231C844.041 391.38 843.657 389.54 842.886 387.801C842.216 386.237 840.959 384.89 839.297 383.956C837.089 382.975 834.591 382.525 832.088 382.657H831.993Z" fill="white" stroke="#E5E5E5" stroke-miterlimit="10"/>
</svg>
