<svg width="804" height="261" viewBox="0 0 804 261" fill="none" xmlns="http://www.w3.org/2000/svg">
<path d="M804 0H343V261H804V0Z" fill="#5760A9"/>
<path fill-rule="evenodd" clip-rule="evenodd" d="M32.9411 130.406V198.095C32.604 201.491 33.1883 204.905 34.6516 208.092C35.3989 208.974 36.4257 209.671 37.6207 210.107C38.8156 210.543 40.1328 210.701 41.4297 210.566H52.484C56.605 210.781 60.7148 210.02 64.3251 208.373C67.9353 206.725 70.8944 204.26 72.8507 201.271C76.9683 195.023 79.0799 184.982 79.1855 171.15C79.1855 156.605 76.7043 146.191 71.742 139.908C66.7691 133.556 58.5338 130.406 47.0044 130.406H32.9411ZM0 222.958V210.618H8.04518C9.33623 210.752 10.6469 210.578 11.8208 210.116C12.9947 209.654 13.982 208.925 14.665 208.014C16.0488 204.775 16.6094 201.337 16.3121 197.913V57.9259C16.6086 54.5528 16.0477 51.1659 14.665 47.9807C13.9879 47.0656 13.0015 46.3322 11.826 45.87C10.6506 45.4077 9.33695 45.2365 8.04518 45.3773H0V33.011H58.6922C63.7782 32.8807 68.8081 33.9145 73.2209 35.9969C77.6337 38.0794 81.2559 41.1287 83.6832 44.8045C89.4162 52.6149 92.2353 64.2263 92.2353 79.3522C92.6586 89.0028 90.417 98.6067 85.6787 107.443C81.7064 114.482 74.7624 120.097 66.1356 123.246C71.2523 124.294 76.0368 126.23 80.1672 128.924C84.2976 131.619 87.6782 135.009 90.0815 138.867C95.3394 146.938 97.9789 157.985 98 172.009C98 188.167 94.4102 200.707 87.2307 209.628C84.0379 213.855 79.5458 217.315 74.2074 219.66C68.869 222.005 62.8729 223.151 56.8235 222.984L0 222.958ZM32.9411 56.494V118.82H45.3573C56.1582 118.82 63.6968 116.009 67.9095 110.463C72.1222 104.918 74.2443 95.3374 74.2443 81.6953C74.2443 68.6087 72.3967 59.2016 68.7014 53.474C67.0218 50.7301 64.3951 48.454 61.1501 46.9306C57.9051 45.4071 54.1857 44.7038 50.457 44.9087H40.6696C39.504 44.7701 38.3146 44.9014 37.2348 45.2877C36.1549 45.674 35.2274 46.3 34.5565 47.0956C33.1958 50.0589 32.6443 53.2319 32.9411 56.3899V56.494Z" fill="#535BA5"/>
<path fill-rule="evenodd" clip-rule="evenodd" d="M108.323 222.922V211.918L115.871 211.399C116.761 211.397 117.633 211.2 118.395 210.83C119.156 210.46 119.778 209.93 120.194 209.297C121.123 206.835 121.494 204.26 121.29 201.692V52.5136C121.598 49.6652 121.01 46.8004 119.581 44.1826C118.752 43.3746 117.679 42.7518 116.464 42.3745C115.249 41.9972 113.934 41.8781 112.645 42.0285L110.484 42.1582C109.66 42.2429 108.831 42.2863 108 42.288V32.1403L135.677 29V201.77C135.463 204.334 135.813 206.908 136.71 209.375C137.133 210.014 137.766 210.547 138.539 210.918C139.312 211.288 140.197 211.482 141.097 211.477L148 211.996V223L108.323 222.922Z" fill="#535BA5"/>
<path fill-rule="evenodd" clip-rule="evenodd" d="M240 223.501L213.386 226.718V202.314C210.953 209.315 207.047 215.91 201.844 221.801C200.253 223.66 198.157 225.188 195.723 226.264C193.289 227.34 190.583 227.935 187.821 228C180.317 228 174.509 224.312 170.396 216.936C166.295 209.585 164.228 199.201 164.228 185.678V121.777C164.538 118.908 163.969 116.022 162.574 113.38C161.752 112.564 160.689 111.935 159.486 111.555C158.283 111.175 156.981 111.056 155.706 111.209L153.448 111.34C152.636 111.424 151.819 111.468 151 111.471V101.165L178.282 98V186.698C177.905 192.993 179.174 199.281 182.002 205.139C184.514 209.455 188.012 211.626 192.591 211.626C198.95 211.626 204.038 208.016 207.44 200.823C210.842 193.63 212.559 183.219 212.559 169.565V121.777C212.869 118.908 212.301 116.022 210.906 113.38C210.055 112.557 208.964 111.925 207.734 111.546C206.505 111.166 205.178 111.05 203.879 111.209L201.621 111.34C200.798 111.425 199.97 111.468 199.141 111.471V101.165L226.741 98V202.863C226.435 205.751 227.015 208.656 228.426 211.312C229.248 212.12 230.308 212.741 231.505 213.116C232.701 213.492 233.995 213.609 235.262 213.457C236.017 213.451 236.771 213.407 237.52 213.326C238.569 213.326 239.396 213.195 240 213.195V223.501Z" fill="#535BA5"/>
<path fill-rule="evenodd" clip-rule="evenodd" d="M265.057 152.758H294.081C294.949 152.846 295.83 152.725 296.612 152.41C297.395 152.096 298.044 151.602 298.477 150.992C299.413 148.929 299.793 146.73 299.592 144.541C300.04 135.444 298.597 126.351 295.323 117.635C292.456 111.389 288.378 108.291 282.994 108.291C277.61 108.291 272.671 111.952 269.74 119.274C266.809 126.595 265.216 137.757 265.057 152.758V152.758ZM264.834 163.894C264.834 164.56 264.834 165.482 264.834 166.608C264.834 167.734 264.834 168.528 264.834 169.168C264.834 182.48 266.746 193.002 270.473 200.707C274.201 208.413 279.33 212.355 285.702 212.355C291.086 212.355 295.833 210.026 300.007 205.392C305.075 198.98 308.628 191.873 310.488 184.426L316 189.546C312.58 201.663 308.12 210.768 302.619 216.861C297.076 222.928 290.545 226 283.026 226C273.022 226 264.834 220.086 258.558 208.336C252.282 196.586 249 181.123 249 162.128C249 143.133 252.186 127.568 258.558 115.741C264.93 103.914 273.022 98 283.026 98C293.03 98 301.217 103.453 307.143 114.41C313.069 125.366 316 140.317 316 159.286V163.946L264.834 163.894Z" fill="#535BA5"/>
<path fill-rule="evenodd" clip-rule="evenodd" d="M367 222.974V210.623H375.184C376.488 210.756 377.811 210.58 378.995 210.118C380.179 209.656 381.174 208.927 381.861 208.018C383.263 204.776 383.831 201.335 383.53 197.908V57.9877C383.834 54.5946 383.266 51.1872 381.861 47.9822C381.18 47.0684 380.186 46.3354 379 45.8727C377.815 45.41 376.489 45.2376 375.184 45.3766H367V33H427.63C438.863 33 447.572 37.5771 453.756 46.7315C459.94 55.8858 463.021 68.7662 463 85.3725C463 103.282 459.116 116.709 451.349 125.655C443.582 134.601 431.952 139.074 416.46 139.074C413.925 139.074 411.389 139.074 408.789 138.891C406.19 138.709 403.493 138.553 400.701 138.318V197.934C400.411 201.359 400.967 204.796 402.338 208.044C402.985 208.934 403.935 209.653 405.074 210.115C406.213 210.578 407.492 210.763 408.757 210.65H418.386V223L367 222.974ZM400.701 57.675V126.124C402.106 126.402 403.532 126.602 404.97 126.723C406.59 126.868 408.219 126.929 409.849 126.906C423.094 126.906 432.23 123.822 437.259 117.656C442.287 111.489 444.78 100.711 444.737 85.3203C444.737 71.0069 442.768 60.6714 438.831 54.3138C437.155 51.3487 434.427 48.8572 430.996 47.1583C427.566 45.4594 423.588 44.6303 419.574 44.7773H408.95C407.684 44.6638 406.406 44.8492 405.267 45.3115C404.128 45.7737 403.178 46.4929 402.531 47.3829C401.038 50.6715 400.415 54.1781 400.701 57.675V57.675Z" fill="white"/>
<path fill-rule="evenodd" clip-rule="evenodd" d="M500.189 201.821C499.988 204.394 500.325 206.976 501.187 209.459C501.588 210.084 502.198 210.607 502.949 210.968C503.699 211.33 504.56 211.516 505.434 211.505L515.088 212.022V223H473.577V212.022L480.978 211.505C481.849 211.52 482.708 211.336 483.454 210.974C484.201 210.611 484.804 210.086 485.194 209.459C486.088 206.981 486.437 204.396 486.223 201.821V122.363C486.546 119.549 485.97 116.715 484.55 114.13C483.456 112.784 480.849 112.11 476.73 112.11H472V101.91L499.417 98.725V135.645C500.986 125.972 504.236 116.525 509.071 107.58C512.997 101.176 517.502 97.9828 522.586 98.0001C526.769 98.0001 530.245 100.097 532.916 104.317C535.835 109.277 537.226 114.73 536.97 120.214C537.144 124.217 536.267 128.205 534.396 131.917C532.69 134.92 530.47 136.448 527.96 136.448C526.46 136.388 525.015 135.976 523.802 135.263C522.59 134.549 521.664 133.566 521.138 132.435C519.312 128.996 518.465 125.271 518.66 121.535C518.639 119.333 518.92 117.136 519.497 114.984C519.928 113.327 520.712 111.741 521.814 110.298H520.88C515.367 110.298 510.594 116.426 506.561 128.68C502.174 143.464 500.142 158.637 500.511 173.834L500.189 201.821Z" fill="white"/>
<path fill-rule="evenodd" clip-rule="evenodd" d="M542.314 223V211.969L549.611 211.449C550.487 211.448 551.347 211.251 552.1 210.881C552.852 210.51 553.47 209.978 553.889 209.341C554.794 206.874 555.157 204.292 554.958 201.718V121.821C555.257 118.966 554.685 116.094 553.291 113.47C552.483 112.66 551.436 112.035 550.252 111.657C549.068 111.279 547.785 111.159 546.529 111.31C546.089 111.31 545.397 111.31 544.422 111.44C543.618 111.524 542.81 111.568 542 111.57V101.32L568.986 98.1718V201.718C568.777 204.288 569.117 206.869 569.992 209.341C570.407 209.986 571.029 210.523 571.789 210.895C572.549 211.266 573.418 211.458 574.301 211.449L581 211.969V223H542.314ZM561.563 33.078C564.079 33.078 566.218 34.613 568.073 37.631C569.888 41.1011 570.825 44.842 570.825 48.623C570.825 52.404 569.888 56.1449 568.073 59.615C566.281 62.607 564.048 64.0899 561.532 64.0899C559.015 64.0899 556.908 62.555 555.241 59.485C553.477 56.0361 552.567 52.3291 552.567 48.584C552.567 44.8389 553.477 41.1319 555.241 37.683C556.982 34.561 559.089 33 561.563 33V33.078Z" fill="white"/>
<path fill-rule="evenodd" clip-rule="evenodd" d="M588.291 223V211.969L595.807 211.449C596.705 211.448 597.587 211.251 598.359 210.881C599.131 210.51 599.765 209.978 600.194 209.341C601.107 206.871 601.467 204.29 601.258 201.718V121.821C601.573 118.968 600.996 116.097 599.581 113.47C598.747 112.657 597.668 112.032 596.448 111.654C595.227 111.276 593.907 111.157 592.613 111.31L590.452 111.44C589.639 111.525 588.82 111.569 588 111.57V101.32L615.678 98.1718V201.718C615.463 204.288 615.813 206.869 616.71 209.341C617.136 209.986 617.773 210.523 618.553 210.895C619.332 211.266 620.224 211.458 621.129 211.449L628 211.969V223H588.291ZM608.065 33.078C610.645 33.078 612.839 34.613 614.742 37.631C616.583 41.1053 617.533 44.8445 617.533 48.623C617.533 52.4014 616.583 56.1407 614.742 59.615C612.903 62.607 610.613 64.0899 608.032 64.0899C605.452 64.0899 603.291 62.555 601.581 59.485C599.771 56.0361 598.838 52.3291 598.838 48.584C598.838 44.8389 599.771 41.1319 601.581 37.683C603.366 34.561 605.527 33 608.065 33V33.078Z" fill="white"/>
<path fill-rule="evenodd" clip-rule="evenodd" d="M636.437 222.818V211.788L643.11 211.267C643.984 211.286 644.846 211.104 645.598 210.74C646.35 210.376 646.959 209.847 647.357 209.212C648.195 206.715 648.519 204.122 648.315 201.538V121.751C648.629 118.865 648.058 115.959 646.655 113.297C645.829 112.484 644.761 111.859 643.553 111.481C642.345 111.103 641.038 110.984 639.758 111.137C639.279 111.137 638.544 111.137 637.491 111.267C636.664 111.352 635.833 111.395 635 111.397V101.148L661.822 98V123.26C664.213 116.37 668.083 109.879 673.253 104.087C674.874 102.252 676.994 100.747 679.448 99.6912C681.903 98.6351 684.623 98.0562 687.398 98C694.933 98 700.777 101.651 704.928 108.952C709.079 116.254 711.133 126.659 711.09 140.17V201.616C710.904 204.184 711.238 206.759 712.08 209.238C712.481 209.875 713.089 210.408 713.839 210.78C714.588 211.152 715.449 211.348 716.327 211.346L723 211.866V222.896H685.099V211.866L691.804 211.346C692.69 211.348 693.557 211.143 694.304 210.756C695.051 210.369 695.646 209.815 696.019 209.16C696.854 206.707 697.188 204.158 697.009 201.616V139.181C697.385 132.91 696.1 126.646 693.241 120.815C690.75 116.574 687.238 114.415 682.64 114.415C675.967 114.415 670.985 118.109 667.633 125.497C664.28 132.886 662.556 143.864 662.556 158.302V201.668C662.345 204.296 662.679 206.935 663.546 209.472C663.978 210.077 664.598 210.578 665.344 210.925C666.089 211.272 666.934 211.453 667.793 211.45L674.179 211.97V223L636.437 222.818Z" fill="white"/>
<path fill-rule="evenodd" clip-rule="evenodd" d="M741.345 113.095H729V102.503C735.283 101.668 740.225 96.6148 743.827 87.3441C747.429 78.0734 749.356 64.9587 749.607 48H756.079V101.485H778.256V113.095H755.356V189.2C754.999 195.132 755.697 201.075 757.429 206.837C757.774 208.178 758.654 209.384 759.924 210.26C761.195 211.135 762.784 211.63 764.434 211.664C768.623 211.664 771.764 208.759 773.859 202.95C776.341 194.057 777.501 184.944 777.314 175.816L783 175.686V179.156C783 195.045 780.958 207.177 776.717 215.473C772.476 223.77 766.634 227.997 758.843 227.997C755.839 228.057 752.891 227.307 750.444 225.858C747.997 224.409 746.182 222.34 745.272 219.961C742.633 214.743 741.314 205.115 741.314 191.549L741.345 113.095Z" fill="white"/>
</svg>
