<svg width="745" height="748" viewBox="0 0 745 748" fill="none" xmlns="http://www.w3.org/2000/svg">
<path d="M372.5 747.66C578.226 747.66 745 580.291 745 373.83C745 167.369 578.226 0 372.5 0C166.774 0 0 167.369 0 373.83C0 580.291 166.774 747.66 372.5 747.66Z" fill="#5760A9"/>
<path d="M406.43 679.67C574.739 679.67 711.18 542.741 711.18 373.83C711.18 204.919 574.739 67.99 406.43 67.99C238.121 67.99 101.68 204.919 101.68 373.83C101.68 542.741 238.121 679.67 406.43 679.67Z" fill="#535BA5"/>
<path d="M456.01 619.63C591.281 619.63 700.94 509.582 700.94 373.83C700.94 238.078 591.281 128.03 456.01 128.03C320.739 128.03 211.08 238.078 211.08 373.83C211.08 509.582 320.739 619.63 456.01 619.63Z" fill="#4C56A3"/>
<path d="M497.77 566.94C604.041 566.94 690.19 480.482 690.19 373.83C690.19 267.178 604.041 180.72 497.77 180.72C391.499 180.72 305.35 267.178 305.35 373.83C305.35 480.482 391.499 566.94 497.77 566.94Z" fill="#4B53A0"/>
<path d="M538.22 511.34C613.894 511.34 675.24 449.775 675.24 373.83C675.24 297.885 613.894 236.32 538.22 236.32C462.546 236.32 401.2 297.885 401.2 373.83C401.2 449.775 462.546 511.34 538.22 511.34Z" fill="#434B9B"/>
<path fill-rule="evenodd" clip-rule="evenodd" d="M447.72 398.09C443.95 403.47 442.67 417.83 424.72 433.8L420.02 437.8C405.52 448.38 389.43 454.08 366.76 451.86C288.76 444.22 275.6 327.57 359.61 305.86C385.91 299.06 416.29 310.71 432.26 330.62C434.87 333.87 455.94 369.53 455.96 369.56C459.21 375.48 462.04 380.13 465.51 386.02C466.95 388.47 474.4 400.46 475.06 403.31C476.39 409 475.25 494.31 475.45 508.64L491.12 508.96L491.17 431.47C503.54 442.56 504.46 450.76 531.55 462.35C583.48 484.56 654.68 447.53 654.55 377.9C654.4 299.31 557.55 256.46 500.02 315.82C496.41 319.55 494.25 323.11 491.14 324.82V288.09L475.63 288.17C475.05 295.84 474.3 326.22 476.56 331.54C479.23 337.83 490.11 354 492.88 359.21C494.43 356.54 495.21 352.7 496.3 350.05C498.917 343.622 502.428 337.596 506.73 332.15C508.827 329.605 511.088 327.199 513.5 324.95C546.26 291.84 602.11 300 625.77 336.59C651.66 376.65 636.24 427.1 595.35 445.91C581.78 452.16 562.58 454.61 545.8 450.3C512.86 441.86 503.51 419.42 489.8 396.22C482.91 384.58 476.53 373.22 469.7 361.22C450.56 327.47 431.99 288.61 376.58 288.22C349.15 288 322.58 300.38 306.18 321.42L301.72 325.56L301.82 239.7L286.17 238.86C287.72 278.04 286.29 320.18 286.29 359.59C286.29 395.4 287.46 421.97 318.55 448.05C354.87 478.53 411.72 475.96 445.61 435.35C448.82 431.51 455.79 420.68 457.22 416.7C458.45 413.27 456 411.03 453.93 407.34L447.72 398.09Z" fill="white" stroke="white" stroke-width="0.22" stroke-miterlimit="2.61"/>
</svg>
