<svg id="Layer_1" data-name="Layer 1" xmlns="http://www.w3.org/2000/svg" viewBox="0 0 434.89 365.42"><defs><style>.cls-1,.cls-12{fill:#010101;}.cls-1{opacity:0.5;}.cls-2{fill:#54545a;}.cls-3{fill:#f2f2f2;}.cls-4{fill:#d2d3d4;}.cls-5{fill:#bdbec0;}.cls-6{fill:#3777ab;}.cls-7{fill:#e21f27;}.cls-8{fill:#fff;}.cls-9{fill:#e6e7e7;}.cls-10{fill:#313133;}.cls-11{fill:#4dc1b8;}.cls-12{opacity:0.3;}.cls-13{fill:#141416;}.cls-14{fill:#a8aaad;}.cls-15{fill:#818285;}.cls-16{fill:#ef4f76;}.cls-17{fill:#ee3059;}.cls-18{fill:#f99c2c;}.cls-19{fill:#ac1e3c;}</style></defs><polygon class="cls-1" points="108.14 346.52 0 288.66 291.6 132.62 399.74 190.49 108.14 346.52"/><polygon class="cls-2" points="335.5 224.86 250.54 179.4 250.54 100.55 350.92 134.12 335.5 224.86"/><polygon class="cls-3" points="328.24 19.61 36.65 175.65 0 156.03 291.6 0 328.24 19.61"/><polygon class="cls-4" points="73.81 188.08 41.22 170.64 36.65 175.65 0 156.03 0 288.66 108.14 346.52 108.14 233.39 73.81 188.08"/><polygon class="cls-5" points="108.14 233.39 108.14 346.52 172.38 312.14 172.38 228.19 335.5 140.91 335.5 224.86 399.74 190.49 399.74 77.36 108.14 233.39"/><polygon class="cls-6" points="386.44 102.57 121.43 244.38 121.43 254.57 386.44 112.77 386.44 102.57"/><polygon class="cls-7" points="145.23 239.18 125.74 249.61 125.74 244.94 145.23 234.51 145.23 239.18"/><polygon class="cls-8" points="365.4 32.05 73.81 188.08 41.22 170.64 332.82 14.61 365.4 32.05"/><polygon class="cls-9" points="399.74 77.36 108.14 233.39 73.81 188.08 365.4 32.05 399.74 77.36"/><polygon class="cls-2" points="130.07 209.33 107.69 179.79 107.69 179.79 85.17 191.85 107.54 221.38 130.07 209.32 130.07 209.33"/><polygon class="cls-10" points="100.73 205.78 102.71 208.4 106.66 206.29 104.67 203.67 100.73 205.78"/><polygon class="cls-10" points="106.56 202.66 108.55 205.28 112.5 203.17 110.51 200.54 106.56 202.66"/><polygon class="cls-10" points="116.34 197.42 112.4 199.53 114.38 202.16 118.33 200.04 116.34 197.42"/><polygon class="cls-10" points="104.51 210.76 106.5 213.38 110.44 211.27 108.46 208.65 104.51 210.76"/><polygon class="cls-10" points="110.34 207.64 112.33 210.26 116.28 208.15 114.29 205.52 110.34 207.64"/><polygon class="cls-10" points="120.12 202.4 116.18 204.51 118.17 207.14 122.11 205.02 120.12 202.4"/><polygon class="cls-10" points="108.08 215.5 110.06 218.12 114.01 216 112.02 213.38 108.08 215.5"/><polygon class="cls-10" points="113.91 212.38 115.9 215 119.85 212.88 117.86 210.26 113.91 212.38"/><polygon class="cls-7" points="123.69 207.14 119.74 209.25 121.73 211.88 125.68 209.76 123.69 207.14"/><polygon class="cls-11" points="107.45 182.02 97.72 187.23 87.7 192.59 97.65 205.73 117.4 195.15 107.45 182.02"/><polygon class="cls-2" points="330.85 50.54 291.23 91.68 189.44 149.73 108.36 169.59 75.77 152.15 298.26 33.1 330.85 50.54"/><polygon class="cls-10" points="365.18 95.84 142.69 214.9 108.36 169.59 330.85 50.54 365.18 95.84"/><polygon class="cls-12" points="271.77 365.42 172.67 312.39 335.8 225.1 434.89 278.13 271.77 365.42"/><path class="cls-13" d="M334.88,458.22l-2.72,1.46,4.31,6.92,2.72-1.46h0a1.91,1.91,0,0,0,.9-1.83,6.18,6.18,0,0,0-3-4.89A2.31,2.31,0,0,0,334.88,458.22Z" transform="translate(-72.27 -106.28)"/><path class="cls-10" d="M334.32,459.87a6.21,6.21,0,0,1,3.05,4.9c0,1.8-1.36,2.53-3.05,1.63a6.15,6.15,0,0,1-3.05-4.9C331.27,459.71,332.64,459,334.32,459.87Z" transform="translate(-72.27 -106.28)"/><path class="cls-5" d="M334.32,461.64a2.86,2.86,0,0,1,1.4,2.25c0,.82-.63,1.16-1.4.75a2.84,2.84,0,0,1-1.4-2.25C332.92,461.56,333.55,461.22,334.32,461.64Z" transform="translate(-72.27 -106.28)"/><path class="cls-13" d="M294.5,436.62l-2.72,1.45,4.31,6.92,2.72-1.45h0a1.94,1.94,0,0,0,.9-1.84,6.13,6.13,0,0,0-3-4.89A2.31,2.31,0,0,0,294.5,436.62Z" transform="translate(-72.27 -106.28)"/><path class="cls-10" d="M293.94,438.27a6.15,6.15,0,0,1,3.05,4.89c0,1.8-1.36,2.53-3.05,1.64a6.19,6.19,0,0,1-3.05-4.9C290.89,438.1,292.26,437.37,293.94,438.27Z" transform="translate(-72.27 -106.28)"/><path class="cls-5" d="M293.94,440a2.84,2.84,0,0,1,1.4,2.25c0,.83-.62,1.16-1.4.75a2.84,2.84,0,0,1-1.4-2.25C292.54,440,293.17,439.62,293.94,440Z" transform="translate(-72.27 -106.28)"/><path class="cls-13" d="M254.13,415l-2.73,1.45,4.32,6.93,2.72-1.46h0a1.94,1.94,0,0,0,.89-1.83,6.14,6.14,0,0,0-3.05-4.89A2.27,2.27,0,0,0,254.13,415Z" transform="translate(-72.27 -106.28)"/><path class="cls-10" d="M253.56,416.66a6.19,6.19,0,0,1,3.05,4.89c0,1.81-1.36,2.54-3.05,1.64a6.19,6.19,0,0,1-3.05-4.9C250.51,416.49,251.88,415.76,253.56,416.66Z" transform="translate(-72.27 -106.28)"/><path class="cls-5" d="M253.56,418.43a2.84,2.84,0,0,1,1.4,2.24c0,.83-.63,1.17-1.4.75a2.84,2.84,0,0,1-1.4-2.24C252.16,418.35,252.79,418,253.56,418.43Z" transform="translate(-72.27 -106.28)"/><polygon class="cls-5" points="434.89 271.51 271.77 358.79 271.77 331.98 434.89 244.69 434.89 271.51"/><polygon class="cls-4" points="172.67 305.77 271.77 358.79 271.77 331.98 172.67 278.95 172.67 305.77"/><polygon class="cls-14" points="271.77 331.98 172.67 278.95 335.8 191.66 434.89 244.69 271.77 331.98"/><polygon class="cls-10" points="348.58 194.26 347.14 195.03 335.87 177.36 337.3 176.59 341.23 178.69 348.58 189.88 348.58 194.26"/><polygon class="cls-2" points="347.14 195.03 335.87 189 335.87 177.36 339.79 179.46 347.14 190.65 347.14 195.03"/><polygon class="cls-5" points="434.89 242.06 271.77 329.35 271.77 325.49 434.89 238.21 434.89 242.06"/><polygon class="cls-4" points="172.67 276.32 271.77 329.35 271.77 325.49 172.67 272.47 172.67 276.32"/><polygon class="cls-9" points="271.77 325.49 172.67 272.47 335.8 185.18 434.89 238.21 271.77 325.49"/><polygon class="cls-12" points="216.48 249.03 292 208.61 391.1 261.65 315.57 302.05 216.48 249.03"/><polygon class="cls-9" points="335.8 144.93 172.67 232.22 173.97 232.91 337.1 145.62 335.8 144.93"/><polygon class="cls-4" points="172.67 272.47 172.67 232.22 173.97 232.91 173.97 273.16 172.67 272.47"/><polygon class="cls-5" points="217.77 221.96 293.3 181.54 293.3 209.31 337.1 185.88 337.1 145.62 173.97 232.91 173.97 273.16 217.77 249.73 217.77 221.96"/><polygon class="cls-10" points="183.95 282.36 182.52 283.12 171.24 265.45 172.67 264.69 176.6 266.79 183.95 277.97 183.95 282.36"/><polygon class="cls-2" points="182.52 283.12 171.24 277.09 171.24 265.45 175.16 267.55 182.52 278.74 182.52 283.12"/><polygon class="cls-10" points="314.11 301.27 315.57 302.05 391.1 235.45 389.63 234.66 314.11 275.08 314.11 301.27"/><polygon class="cls-13" points="315.57 302.05 391.1 261.65 391.1 235.45 315.57 275.86 315.57 302.05"/><polygon class="cls-13" points="217.77 223.53 217.77 221.96 391.1 233.88 391.1 235.45 315.57 275.86 217.77 223.53"/><polygon class="cls-15" points="217.77 221.96 293.3 181.54 391.1 233.88 315.57 274.29 217.77 221.96"/><polygon class="cls-10" points="315.57 302.05 314.11 301.27 314.11 275.08 217.77 223.53 217.77 221.96 315.57 274.29 315.57 302.05"/><path class="cls-16" d="M294.86,326.1,362,290.18l97.4,52.12-22.3,11.92s-3.79-5.62-19.72,1.51c-12.66,7.75-2.83,10.56-2.83,10.56l-22.29,11.93Z" transform="translate(-72.27 -106.28)"/><path class="cls-17" d="M413.93,366.5a44.61,44.61,0,0,1,10-7.22,73.78,73.78,0,0,1,13.5-5.38l-4-1.31c-5,0-6.76-.69-16.08,3.17-4.93,2.64-7.67,6.2-6.15,9.31Z" transform="translate(-72.27 -106.28)"/><path class="cls-18" d="M395.44,344c11.54-6.16,11.53-16.16,0-22.33s-30.22-6.17-41.75,0-11.54,16.18,0,22.35S383.9,350.19,395.44,344Zm-14.58-14.53c1.4-.75,5.18.07,8.45,1.81s4.78,3.77,3.38,4.52-5.16-.07-8.43-1.82S379.48,330.21,380.86,329.47Zm-21-4.22a6.52,6.52,0,0,1,5.48.23c1.64.87,1.83,2.19.43,2.93a6.54,6.54,0,0,1-5.47-.24C358.68,327.3,358.49,326,359.88,325.25ZM369,335.8c1.4-.75,5.18.07,8.44,1.81s4.79,3.77,3.38,4.52-5.15-.07-8.42-1.82S367.65,336.54,369,335.8Z" transform="translate(-72.27 -106.28)"/><polygon class="cls-19" points="222.58 219.82 289.71 183.9 292.08 185.17 224.95 221.09 222.58 219.82"/><polygon class="cls-19" points="311.08 271.89 300.34 283.83 282.89 266.52 282.89 256.8 299.28 262.86 311.08 271.89"/><polygon class="cls-17" points="282.89 256.8 282.89 252.63 283.88 252.62 319.97 271.93 311.08 271.89 282.89 256.8"/><polygon class="cls-17" points="351.01 216.17 351.01 216.7 387.1 236.01 387.02 231.7 358.01 216.17 351.01 216.17"/><path class="cls-19" d="M438.45,353.07c-4.95-2.65-14.36-1.76-21.43,2a15.25,15.25,0,0,0-5.85,5c-1.73,2.77-1.1,5.48,1.62,7.17l1.74-.93-.41-.2c-2.27-1.22-2.79-3.07-1.45-5.23a13.68,13.68,0,0,1,5.22-4.37c6.24-3.34,14.66-4.3,19.19-2.27l1.76-.93Z" transform="translate(-72.27 -106.28)"/></svg>