<svg id="Layer_1" data-name="Layer 1" xmlns="http://www.w3.org/2000/svg" viewBox="0 0 486.3 399.3"><defs><style>.cls-1{fill:#313133;}.cls-2{fill:#54545a;}.cls-3{fill:#e6e7e7;}.cls-4{fill:#141416;}.cls-5{fill:#a8aaad;}.cls-17,.cls-21,.cls-6,.cls-9{fill:#010101;}.cls-7{fill:#bdbec0;}.cls-8{fill:#939598;}.cls-26,.cls-9{opacity:0.2;}.cls-10{fill:#f2f2f2;}.cls-11{fill:#d2d3d4;}.cls-12{fill:#0d8175;}.cls-13{fill:#589ed6;}.cls-14{fill:#15a89f;}.cls-15{fill:#4dc1b8;}.cls-16{fill:#ef4f76;}.cls-17,.cls-27{opacity:0.4;}.cls-18{fill:#f99c2c;}.cls-19{fill:#d93b95;}.cls-20,.cls-26{fill:#fff;}.cls-20{opacity:0.1;}.cls-21{opacity:0.3;}.cls-22{fill:#f17cb1;}.cls-23{fill:#8a52a1;}.cls-24{fill:#ee3059;}.cls-25{fill:#b32847;}.cls-28{fill:#f6851f;}.cls-29{fill:#ba6328;}.cls-30{fill:#e21f27;}.cls-31{fill:#ef444e;}.cls-32{fill:#9c2821;}.cls-33{fill:#2b4f69;}</style></defs><polygon class="cls-1" points="347.43 84.22 313.06 64.38 313.06 77.86 347.43 94.13 347.43 84.22"/><polygon class="cls-2" points="313.06 64.38 347.43 84.22 388.89 60.28 354.51 40.44 313.06 64.38"/><polygon class="cls-3" points="378.42 57.08 360.92 67.18 340.66 55.48 358.16 45.38 378.42 57.08"/><polygon class="cls-4" points="388.89 70.19 388.89 60.28 347.43 84.22 347.43 94.13 388.89 70.19"/><polygon class="cls-2" points="346.89 24.42 317.38 7.3 330 0 359.52 17.12 346.89 24.42"/><polygon class="cls-1" points="317.38 7.3 346.89 24.42 346.89 82.05 317.38 65.01 317.38 7.3"/><polygon class="cls-4" points="359.52 74.76 346.89 82.05 346.89 24.42 359.52 17.12 359.52 74.76"/><polygon class="cls-1" points="214.71 303.14 35.98 199.95 35.97 296.11 214.69 399.3 214.71 303.14"/><polygon class="cls-4" points="214.69 314.84 35.98 211.66 35.98 234.88 214.69 338.06 214.69 314.84"/><polygon class="cls-5" points="48.22 226.9 48.22 233.77 202.47 322.82 202.47 315.96 48.22 226.9"/><polygon class="cls-2" points="35.98 199.95 214.71 303.14 486.3 146.33 307.57 43.14 35.98 199.95"/><polygon class="cls-5" points="72.88 218.88 214.27 300.52 481.33 146.33 339.94 64.7 72.88 218.88"/><polygon class="cls-4" points="486.29 242.5 486.3 146.33 214.71 303.14 214.69 399.3 486.29 242.5"/><polygon class="cls-1" points="309.48 255.74 309.48 337.25 478.33 239.76 478.34 158.25 309.48 255.74"/><polygon class="cls-6" points="379.44 215.35 378.49 215.9 378.49 297.41 379.44 296.86 379.44 215.35"/><polygon class="cls-7" points="374.06 254.13 376.74 252.58 374.91 251.52 372.22 253.08 374.06 254.13"/><polygon class="cls-8" points="374.06 267.33 376.74 265.78 376.74 252.58 374.06 254.13 374.06 267.33"/><polygon class="cls-5" points="372.22 266.27 374.06 267.33 374.06 254.13 372.22 253.08 372.22 266.27"/><polygon class="cls-1" points="34.37 264.95 0 245.1 0 258.59 34.37 274.86 34.37 264.95"/><polygon class="cls-2" points="0 245.1 34.37 264.95 75.83 241.01 41.46 221.17 0 245.1"/><polygon class="cls-3" points="48.02 247.84 30.52 257.94 10.27 246.24 27.76 236.14 48.02 247.84"/><polygon class="cls-4" points="75.83 250.92 75.83 241.01 34.37 264.95 34.37 274.86 75.83 250.92"/><polygon class="cls-9" points="342.69 66.21 73.5 221.62 62.1 215.03 330.93 59.42 330.93 38.11 342.69 44.9 342.69 66.21"/><polygon class="cls-2" points="66.5 181.4 50.35 172.07 326.54 12.61 342.68 21.92 66.5 181.4"/><polygon class="cls-1" points="50.35 172.07 66.5 181.4 66.51 215.03 50.37 205.88 50.35 172.07"/><polygon class="cls-4" points="342.69 55.56 66.51 215.03 66.5 181.4 342.68 21.92 342.69 55.56"/><polygon class="cls-10" points="66.5 181.4 57.43 176.16 333.61 16.69 342.68 21.92 287.65 64.7 134.84 150.82 66.5 181.4"/><polygon class="cls-11" points="342.69 44.68 66.51 204.15 66.5 181.4 342.68 21.92 342.69 44.68"/><polygon class="cls-3" points="342.69 38.17 66.51 197.64 66.5 187.9 342.68 28.43 342.69 38.17"/><polygon class="cls-2" points="58.12 191.14 28.61 174.1 41.23 166.81 70.75 183.84 58.12 191.14"/><polygon class="cls-1" points="28.61 174.1 58.12 191.14 58.12 248.77 28.61 231.74 28.61 174.1"/><polygon class="cls-4" points="70.75 241.47 58.12 248.77 58.12 191.14 70.75 183.84 70.75 241.47"/><polygon class="cls-12" points="86.5 217.76 220.11 294.9 472.47 149.2 472.47 147.46 86.5 216.02 86.5 217.76"/><polygon class="cls-13" points="86.5 216.02 220.11 293.16 472.47 147.46 338.85 70.32 86.5 216.02"/><path class="cls-12" d="M257.79,298.44c23.11-24.76,59.5-29.19,91.61-33.1,11.79-1.44,22.92-2.79,32.33-5.07l2,2.71c-9.86,2.39-21.23,3.78-33.26,5.24-31,3.78-66.18,8.06-88.17,31.62Z" transform="translate(-49.19 -77.71)"/><path class="cls-14" d="M257,299.86c2.24-18.59,14.22-26.52,25.8-34.2,8.66-5.72,17.61-11.65,22.91-22.26l4.88.81c-5.6,11.24-14.93,17.42-23.94,23.39-11.55,7.63-22.45,14.85-24.57,32.46Z" transform="translate(-49.19 -77.71)"/><path class="cls-14" d="M256.67,300.05c23.61-17.41,55.37-31.12,83.41-43.23,38.34-16.55,66-28.51,51.72-40.23l4.16-1.7c17.18,14.06-13.71,27.4-52.84,44.29-27.77,12-59.25,25.58-82.44,42.69Z" transform="translate(-49.19 -77.71)"/><path class="cls-14" d="M267.09,241.94s-33.26,30.81-1.12,30.13S267.09,241.94,267.09,241.94Z" transform="translate(-49.19 -77.71)"/><path class="cls-12" d="M265.37,270.43c3.09-.13,1.33-25.34,1.33-25.34S262.29,270.56,265.37,270.43Z" transform="translate(-49.19 -77.71)"/><path class="cls-14" d="M345.89,292.19s-62.6-14.56-55.38,4.94S345.89,292.19,345.89,292.19Z" transform="translate(-49.19 -77.71)"/><path class="cls-12" d="M293.4,296.46c.8,1.86,46.66-3.92,46.66-3.92S292.6,294.6,293.4,296.46Z" transform="translate(-49.19 -77.71)"/><path class="cls-12" d="M257.39,300.79c-2.5-2.12-1.21-6.41.75-12.88,3.77-12.53,11.23-32.3-8.27-45.7h0c21,14.44,17.23,33.14,13.29,46.2-1.42,4.71-2.89,9.59-1.55,10.72Z" transform="translate(-49.19 -77.71)"/><path class="cls-14" d="M205.41,261.24s52.23,31.37,57.34,16.24S205.41,261.24,205.41,261.24Z" transform="translate(-49.19 -77.71)"/><path class="cls-12" d="M259.49,276.9c.38-1.48-48.14-13.83-48.14-13.83S259.13,278.38,259.49,276.9Z" transform="translate(-49.19 -77.71)"/><path class="cls-12" d="M261.83,300.64l-2.7-2.49c.33-.12,32.46-10.9,70.75,9.18h0C294.43,288.72,262.14,300.53,261.83,300.64Z" transform="translate(-49.19 -77.71)"/><path class="cls-15" d="M327.68,328.6s-12.3-40.79-37.61-31.63S327.68,328.6,327.68,328.6Z" transform="translate(-49.19 -77.71)"/><path class="cls-14" d="M292.64,298.52c-2.34.94,31.34,26.7,31.34,26.7S295,297.57,292.64,298.52Z" transform="translate(-49.19 -77.71)"/><path class="cls-12" d="M254.37,302.34c14.66-4.95-14-14.38-14-14.38S239.72,307.28,254.37,302.34Z" transform="translate(-49.19 -77.71)"/><path class="cls-15" d="M254.55,303.21c16.89-.91-2.15-16.44-2.15-16.44S237.65,304.12,254.55,303.21Z" transform="translate(-49.19 -77.71)"/><path class="cls-12" d="M255.86,303.46c1.67,9.76,28.48-1.33,28.48-1.33S254.2,293.71,255.86,303.46Z" transform="translate(-49.19 -77.71)"/><path class="cls-14" d="M252.34,303.86c6.69,9,26.44-6.24,26.44-6.24S245.64,294.85,252.34,303.86Z" transform="translate(-49.19 -77.71)"/><path class="cls-16" d="M305.7,221.47s-.36,5.21.89,6.81c.82,1.07,9.53,1,10.46,2.1,6.76-2.14,8.15-5.56,8.22-6.2-3.55-1.14-6.26-2.35-9.86-2.22A20.54,20.54,0,0,0,305.7,221.47Z" transform="translate(-49.19 -77.71)"/><path class="cls-17" d="M306.09,225c.31,1.28,0,2.63.5,3.3.82,1.07,9.53,1,10.46,2.1a16.37,16.37,0,0,0,5-2.69c2.1-1.51-3.06-1.61-6.82-1.87-.38,0,.35-2.78,0-2.81s-1.66,2.64-1.93,2.6C308.11,224.77,305.8,223.74,306.09,225Z" transform="translate(-49.19 -77.71)"/><path class="cls-18" d="M309.61,230.06c2.49-5.74-2.28-11.24-2.46-11.5h0c.05.07,4.71,7.17.3,13.26l1,.24A11.11,11.11,0,0,0,309.61,230.06Z" transform="translate(-49.19 -77.71)"/><path class="cls-18" d="M306.63,218.57a.83.83,0,0,0,.85-.29c.09-.22-.13-.43-.51-.49s-.74.08-.83.3S306.27,218.52,306.63,218.57Z" transform="translate(-49.19 -77.71)"/><path class="cls-18" d="M311.62,229.12c1.9-4.36,1.68-11.35,1.72-11.69h0c0,.1-1.2,9.67-3.76,13.38l1,.23A12.72,12.72,0,0,0,311.62,229.12Z" transform="translate(-49.19 -77.71)"/><path class="cls-18" d="M313.06,217.77a.91.91,0,0,0,.92-.3c.11-.23-.15-.46-.56-.53s-.83.08-.93.31S312.65,217.71,313.06,217.77Z" transform="translate(-49.19 -77.71)"/><path class="cls-18" d="M321.94,219.63h0c-8.44,4.83-9.63,12-9.64,12.3h1.09C313.39,231.87,313.82,224.28,321.94,219.63Z" transform="translate(-49.19 -77.71)"/><path class="cls-18" d="M321.76,220a.9.9,0,0,0,.93-.31c.09-.22-.16-.45-.57-.52a.9.9,0,0,0-.93.31C321.09,219.75,321.34,220,321.76,220Z" transform="translate(-49.19 -77.71)"/><path class="cls-18" d="M326.56,222.16h0c-7.87,2-13.16,9.46-13.36,9.8l1,.21C314.27,232.09,319.13,224,326.56,222.16Z" transform="translate(-49.19 -77.71)"/><path class="cls-18" d="M326.38,222.57a.93.93,0,0,0,.93-.3c.09-.23-.16-.47-.57-.53a.94.94,0,0,0-.93.31C325.71,222.28,326,222.51,326.38,222.57Z" transform="translate(-49.19 -77.71)"/><path class="cls-19" d="M292.49,224c6.24,8.65,1,14.34,3.12,17.11s7.58,3.92,7.58,3.92l3.59-18S293.85,222.06,292.49,224Z" transform="translate(-49.19 -77.71)"/><path class="cls-20" d="M294,224.26c4.88,5.39,1.71,13,1.88,14.78a3.07,3.07,0,0,0,1.14,2.38c-1.08-3.22,4.85-13.56,2.64-16.67C299.06,224.2,294.66,223.61,294,224.26Z" transform="translate(-49.19 -77.71)"/><path class="cls-9" d="M299.47,243.57a21,21,0,0,0,3.8,1.25L306.78,227s-2.46-.95-5.34-1.85C304,236.44,296.2,241.49,299.47,243.57Z" transform="translate(-49.19 -77.71)"/><path class="cls-16" d="M292.53,219.32s-4.12,1.45-5.29,4.89c8.46.25,20.66,3.69,21.47,3.11C303.22,220.65,292.53,219.32,292.53,219.32Z" transform="translate(-49.19 -77.71)"/><path class="cls-19" d="M335.23,230.23c-12.56,5.93-12.58,12.38-16.74,14.24s-9.9,1.39-9.9,1.39L320.19,229S335.67,228.12,335.23,230.23Z" transform="translate(-49.19 -77.71)"/><path class="cls-9" d="M315.19,245.18a43,43,0,0,1-6.6.68L320.19,229s7.7.84,11.58.9C320.63,235.66,321.69,243.91,315.19,245.18Z" transform="translate(-49.19 -77.71)"/><path class="cls-16" d="M337.76,225.88a4.88,4.88,0,0,1,.68,5.75c-7.67-2.08-21.24-2.38-21.48-3.11A41.7,41.7,0,0,1,337.76,225.88Z" transform="translate(-49.19 -77.71)"/><path class="cls-19" d="M302.4,226.86c3.21,11-7,17.9,3.92,19.48,11.53,2,7.7-7.18,19.47-16.25C324.31,229.6,300.85,226.64,302.4,226.86Z" transform="translate(-49.19 -77.71)"/><path class="cls-9" d="M306.34,245.78c11.53,2,6.79-7.56,19.45-15.69-.62-.2-5.15-.85-10.07-1.51C309,227.68,320.53,237.67,306.34,245.78Z" transform="translate(-49.19 -77.71)"/><path class="cls-20" d="M304.37,245.24c-5.66-4.67,2.44-9.3-1.45-18.46.72,0-.82-.23,4.05.53C313.47,232.35,306.79,235.3,304.37,245.24Z" transform="translate(-49.19 -77.71)"/><path class="cls-21" d="M302.4,226.86s4,4.54,6.75,7.85c7.88-2.5,16.64-4.62,16.64-4.62-4.14-1.32-7.77-2.31-12-2.16A30.37,30.37,0,0,0,302.4,226.86Z" transform="translate(-49.19 -77.71)"/><path class="cls-16" d="M302.4,226.86s3,4.09,5.85,7.49c8.09-2.56,17.45-3.48,17.54-4.26-4.25-1.36-7.49-2.8-11.79-2.65A24.67,24.67,0,0,0,302.4,226.86Z" transform="translate(-49.19 -77.71)"/><path class="cls-22" d="M413.75,249.09s-7.31,2.54-8.86,3.94c-1,.94,3.64,4.85,2.58,5.87a24.23,24.23,0,0,0,12.77.52c-.29-2.22-.06-4.08-2.11-5.65C417.37,250.44,413.75,249.09,413.75,249.09Z" transform="translate(-49.19 -77.71)"/><path class="cls-17" d="M409.14,251.09c-1.58.8-3.6,1.36-4.25,1.94-1,.94,3.64,4.85,2.58,5.87a26.54,26.54,0,0,0,6.26.86c3.17.17.62-2.23-1-4.08-.16-.18,4-1.29,3.85-1.47s-4.47.63-4.56.48C410.49,251.89,410.69,250.31,409.14,251.09Z" transform="translate(-49.19 -77.71)"/><path class="cls-18" d="M404,255.34a30.15,30.15,0,0,0,14.46-7.12h0a37.73,37.73,0,0,1-18,7.06l.19.58C401.85,255.73,403,255.55,404,255.34Z" transform="translate(-49.19 -77.71)"/><path class="cls-18" d="M418.19,248a.84.84,0,0,0,.84.23c.35-.06.53-.28.41-.48a.84.84,0,0,0-.84-.23C418.26,247.59,418.07,247.8,418.19,248Z" transform="translate(-49.19 -77.71)"/><path class="cls-18" d="M406.37,255.77c7-1.41,16.39-5.15,16.88-5.31h0c-.14,0-13.85,4.49-20.25,5.25l.21.58C404.14,256.18,405.21,256,406.37,255.77Z" transform="translate(-49.19 -77.71)"/><path class="cls-18" d="M422.64,250.51a.91.91,0,0,0,.9.27c.36-.08.55-.32.41-.54a.92.92,0,0,0-.9-.26C422.69,250.05,422.5,250.29,422.64,250.51Z" transform="translate(-49.19 -77.71)"/><path class="cls-18" d="M424.72,255.52h0a57.69,57.69,0,0,0-21.84,2l.55.5C403.54,258,414.13,254.25,424.72,255.52Z" transform="translate(-49.19 -77.71)"/><path class="cls-18" d="M424.06,255.66a.92.92,0,0,0,.9.27c.37-.08.56-.32.42-.54a.89.89,0,0,0-.89-.26C424.12,255.2,423.93,255.44,424.06,255.66Z" transform="translate(-49.19 -77.71)"/><path class="cls-18" d="M423.67,259h0c-6.8-2.56-19.8-1.07-20.37-1l.26.57C403.69,258.52,417.25,256.53,423.67,259Z" transform="translate(-49.19 -77.71)"/><path class="cls-18" d="M423,259.09a.94.94,0,0,0,.91.26c.36-.07.54-.31.41-.54a.94.94,0,0,0-.9-.26C423.06,258.63,422.88,258.86,423,259.09Z" transform="translate(-49.19 -77.71)"/><path class="cls-23" d="M403.36,244.4c-8.59,7.35-19.12,7.91-21.78,10.33a5,5,0,0,0-1.42,5.5l26.53-7.76S406.77,244,403.36,244.4Z" transform="translate(-49.19 -77.71)"/><path class="cls-20" d="M403.84,245.2c-4.83,5-16.86,7.55-19.23,8.57s-2.65,1.75-2.65,1.75c3.83-2.16,21.06-4.86,24.17-7.48C406.56,247.48,405.06,245.17,403.84,245.2Z" transform="translate(-49.19 -77.71)"/><path class="cls-9" d="M380.27,257.76a5.21,5.21,0,0,0,.27,2.38l26.15-7.67a23.51,23.51,0,0,0-.25-3.39C392.39,256.11,381.42,255.18,380.27,257.76Z" transform="translate(-49.19 -77.71)"/><path class="cls-22" d="M409.82,242a20.91,20.91,0,0,0-9.43.14c4.05,4,5.71,11.34,6.93,11.4C413.56,247.53,409.82,242,409.82,242Z" transform="translate(-49.19 -77.71)"/><path class="cls-23" d="M417.14,267.11c-14.64-2.64-23.48.71-28.19-.22a12.74,12.74,0,0,1-7-3.78L411,259.6S420.26,266.21,417.14,267.11Z" transform="translate(-49.19 -77.71)"/><path class="cls-9" d="M386.27,265.76a20.37,20.37,0,0,1-4.36-2.65L411,259.6a51.92,51.92,0,0,0,4.8,5.75C402.12,263.29,391.38,268.06,386.27,265.76Z" transform="translate(-49.19 -77.71)"/><path class="cls-22" d="M424.42,266s-2,2.36-7.51,3.3c-1.15-4.58-7.81-10.92-6.93-11.41C421.31,260.3,424.42,266,424.42,266Z" transform="translate(-49.19 -77.71)"/><path class="cls-23" d="M404.66,250.38c-13.33,7.19-28.12,6.14-24.6,11.94,3.26,6.3,13.82-.22,32.36.41C412.31,261.8,404.14,249.56,404.66,250.38Z" transform="translate(-49.19 -77.71)"/><path class="cls-9" d="M380.83,262c3.27,6.3,13.88-.84,31.59.69a44,44,0,0,0-3.18-5.37C407,253.81,399.32,264.28,380.83,262Z" transform="translate(-49.19 -77.71)"/><path class="cls-20" d="M380.54,260.86c3.43-5,14-3.74,24.5-10.28.39.32-.12-.48,1.38,2.13C402.9,258.29,395.41,256.78,380.54,260.86Z" transform="translate(-49.19 -77.71)"/><path class="cls-21" d="M404.66,250.38s-4.12,4.19-7.22,7.17c7.51,2.3,15,5.18,15,5.18-.34-2.58-.89-4.75-3.28-6.58A9.6,9.6,0,0,0,404.66,250.38Z" transform="translate(-49.19 -77.71)"/><path class="cls-22" d="M404.66,250.38s-4,3.52-7.2,6.57c7.72,2.35,13.85,6.15,15,5.78-.36-2.64-.07-4.87-2.53-6.75C409,252,404.66,250.38,404.66,250.38Z" transform="translate(-49.19 -77.71)"/><path class="cls-16" d="M380.76,190.07s3.59,5.76,3.18,7.81c-.27,1.36-10.08,3-10.44,4.5-8.89-1-12.53-4.57-13-5.28,3.29-2,5.59-3.91,9.7-4.5A21.63,21.63,0,0,1,380.76,190.07Z" transform="translate(-49.19 -77.71)"/><path class="cls-17" d="M382.47,194.08c.44,1.5,1.65,2.94,1.47,3.8-.27,1.36-10.08,3-10.44,4.5a27.32,27.32,0,0,1-7.2-2c-3.29-1.27,2.44-2.43,6.49-3.48.41-.1-2.09-3-1.73-3.15s3.48,2.62,3.76,2.52C380.09,194.26,382.05,192.64,382.47,194.08Z" transform="translate(-49.19 -77.71)"/><path class="cls-18" d="M381.65,200.49a14,14,0,0,1-4.29-13.39h0A17,17,0,0,0,385.14,202l-1,.47A19.49,19.49,0,0,1,381.65,200.49Z" transform="translate(-49.19 -77.71)"/><path class="cls-18" d="M378,187a1.25,1.25,0,0,1-1.13-.16c-.24-.22-.12-.51.26-.65a1.19,1.19,0,0,1,1.13.16C378.44,186.59,378.33,186.88,378,187Z" transform="translate(-49.19 -77.71)"/><path class="cls-18" d="M378.82,199.85c-4.8-4.51-8.83-12.37-9.09-12.74h0c.07.1,7.27,10.58,12.4,14.21l-1,.47A22.28,22.28,0,0,1,378.82,199.85Z" transform="translate(-49.19 -77.71)"/><path class="cls-18" d="M370.26,187.43a1.35,1.35,0,0,1-1.23-.15c-.25-.24-.11-.55.32-.71a1.33,1.33,0,0,1,1.23.16C370.83,187,370.68,187.27,370.26,187.43Z" transform="translate(-49.19 -77.71)"/><path class="cls-18" d="M361.44,191.32h0c12.41,3.69,18.12,11.47,18.33,11.82l-1.21.24C378.51,203.29,373.39,194.88,361.44,191.32Z" transform="translate(-49.19 -77.71)"/><path class="cls-18" d="M361.89,191.74a1.31,1.31,0,0,1-1.22-.14c-.25-.24-.11-.55.31-.71a1.32,1.32,0,0,1,1.23.16C362.46,191.28,362.32,191.6,361.89,191.74Z" transform="translate(-49.19 -77.71)"/><path class="cls-18" d="M357.81,195.1h0c10,.61,20.54,7.92,21,8.26l-1,.43C377.66,203.71,367.28,195.67,357.81,195.1Z" transform="translate(-49.19 -77.71)"/><path class="cls-18" d="M358.26,195.52a1.28,1.28,0,0,1-1.22-.15c-.25-.23-.11-.55.32-.69a1.31,1.31,0,0,1,1.22.14C358.84,195.06,358.69,195.37,358.26,195.52Z" transform="translate(-49.19 -77.71)"/><path class="cls-24" d="M397.14,190.26c-1.69,11,7.7,16.27,7,19.8S398,216,398,216L383,196.53S394.41,188.31,397.14,190.26Z" transform="translate(-49.19 -77.71)"/><path class="cls-20" d="M395.58,190.81c-2.17,7,6,14.9,6.94,17s.17,2.88.17,2.88c-.75-3.82-13.73-14.21-13.16-18.14C389.87,191.78,394.45,190.22,395.58,190.81Z" transform="translate(-49.19 -77.71)"/><path class="cls-9" d="M401.27,213.57a16.8,16.8,0,0,1-3.48,2.17L383,196.53s2.16-1.56,4.84-3.16C391.82,206.51,403.67,210.57,401.27,213.57Z" transform="translate(-49.19 -77.71)"/><path class="cls-16" d="M394.21,185s5.5.79,8.92,4.4c-9.33,2-20.9,8.35-22.16,7.87C383,188.65,394.21,185,394.21,185Z" transform="translate(-49.19 -77.71)"/><path class="cls-24" d="M353,205.92c17.72,4.07,21.68,11.3,27.49,12.54a28.73,28.73,0,0,0,11.93-.47l-23.33-16.54S351.26,203.64,353,205.92Z" transform="translate(-49.19 -77.71)"/><path class="cls-25" d="M384.64,218.57a49.13,49.13,0,0,0,7.81-.58l-23.33-16.54S361,204,356.7,204.82C372.72,209,376.59,218.48,384.64,218.57Z" transform="translate(-49.19 -77.71)"/><path class="cls-16" d="M347.53,201.56s-1.27,3.19,2.77,6.57c7.32-3.89,22.33-7,22.16-7.86A49.17,49.17,0,0,0,347.53,201.56Z" transform="translate(-49.19 -77.71)"/><path class="cls-24" d="M387.77,195.44c3.11,12.95,18.78,18.63,7.52,22.63-11.69,4.6-13-6.47-31.76-14.23C364.89,203,389.38,194.88,387.77,195.44Z" transform="translate(-49.19 -77.71)"/><path class="cls-9" d="M394.93,217.45c-11.69,4.6-12.24-7.09-31.4-13.61.57-.37,5.26-2,10.36-3.76C380.9,197.69,374.06,211.26,394.93,217.45Z" transform="translate(-49.19 -77.71)"/><path class="cls-20" d="M396.81,216.44c3.49-6.38-8.43-9.93-9.68-21-.82.13.78-.42-4.21,1.43C378.72,203.85,388,205.79,396.81,216.44Z" transform="translate(-49.19 -77.71)"/><path class="cls-21" d="M387.77,195.44s-1.73,5.9-2.77,10.17c-10.36-1.19-21.47-1.77-21.47-1.77,3.83-2.33,7.3-4.18,12.08-4.87A30.31,30.31,0,0,1,387.77,195.44Z" transform="translate(-49.19 -77.71)"/><path class="cls-16" d="M387.77,195.44s-.9,5.19-2,9.58c-10.62-1.22-21.68-.33-22.26-1.18,3.93-2.4,6.68-4.68,11.59-5.38A25.86,25.86,0,0,1,387.77,195.44Z" transform="translate(-49.19 -77.71)"/><polygon class="cls-26" points="352.53 216.7 87.69 216.7 86.5 216.02 135.04 187.99 402.27 187.99 352.53 216.7"/><polygon class="cls-26" points="238.47 282.56 201.74 282.56 168.19 263.18 272.03 263.18 238.47 282.56"/><polygon class="cls-26" points="438.54 127.87 239.17 127.87 261.55 114.95 416.16 114.95 438.54 127.87"/><g class="cls-27"><polygon class="cls-7" points="141.16 246.51 110.15 228.6 110.15 229.67 141.16 247.58 141.16 246.51"/><polygon class="cls-3" points="193.61 216.22 162.6 198.32 110.15 228.6 141.16 246.51 193.61 216.22"/><polygon class="cls-5" points="193.61 253.42 193.61 216.22 141.16 246.51 141.16 247.58 172.45 265.64 193.61 253.42"/><polygon class="cls-2" points="173.34 254.84 173.34 249.94 171.74 250.87 171.74 253.91 161.93 259.57 163.54 260.5 173.34 254.84"/><polygon class="cls-4" points="171.74 253.91 171.74 250.87 159.3 258.05 161.93 259.57 171.74 253.91"/><polygon class="cls-2" points="186.09 242.58 186.09 247.47 179.13 251.5 179.13 249.64 184.48 246.54 184.48 243.51 186.09 242.58"/><polygon class="cls-4" points="184.48 243.51 184.48 246.54 179.13 249.64 179.13 246.61 184.48 243.51"/><polygon class="cls-1" points="137.84 237.12 97.2 213.66 97.19 222.19 137.84 245.66 137.84 237.12"/><polygon class="cls-2" points="206.56 197.44 165.93 173.98 97.2 213.66 137.84 237.12 206.56 197.44"/><polygon class="cls-4" points="206.56 217.53 206.56 197.44 137.84 237.12 137.84 245.66 147.84 251.43 206.56 217.53"/></g><polygon class="cls-21" points="206.56 191.84 165.93 168.38 97.2 208.06 137.84 231.52 206.56 191.84"/><polygon class="cls-1" points="137.84 206.39 97.2 182.93 97.19 203.01 137.84 226.47 137.84 206.39"/><polygon class="cls-2" points="206.56 166.71 165.93 143.25 97.2 182.93 137.84 206.39 206.56 166.71"/><polygon class="cls-4" points="206.56 186.8 206.56 166.71 137.84 206.39 137.84 226.47 206.56 186.8"/><polygon class="cls-7" points="126.51 145.3 102.01 131.16 102 145.15 126.51 159.29 126.51 145.3"/><polygon class="cls-3" points="146.24 133.92 121.73 119.77 102.01 131.16 126.51 145.3 146.24 133.92"/><polygon class="cls-5" points="146.24 147.9 146.24 133.92 126.51 145.3 126.51 159.29 146.24 147.9"/><polygon class="cls-7" points="141.16 161.72 110.15 143.81 110.14 181.01 141.16 198.91 141.16 161.72"/><polygon class="cls-3" points="193.61 131.44 162.6 113.53 110.15 143.81 141.16 161.72 193.61 131.44"/><polygon class="cls-5" points="193.61 168.63 193.61 131.44 141.16 161.72 141.16 198.91 193.61 168.63"/><polygon class="cls-2" points="173.34 155.58 173.34 160.47 147.56 175.36 147.56 173.5 171.74 159.54 171.74 156.51 173.34 155.58"/><polygon class="cls-4" points="171.74 156.51 171.74 159.54 147.56 173.5 147.56 170.47 171.74 156.51"/><polygon class="cls-2" points="186.09 148.22 186.09 153.11 179.13 157.13 179.13 155.27 184.48 152.18 184.48 149.15 186.09 148.22"/><polygon class="cls-4" points="184.48 149.15 184.48 152.18 179.13 155.27 179.13 152.24 184.48 149.15"/><polygon class="cls-1" points="245.72 320.97 214.71 303.14 214.71 314.84 245.72 328.33 245.72 320.97"/><polygon class="cls-2" points="333.33 270.41 302.32 252.58 214.71 303.14 245.72 320.97 333.33 270.41"/><polygon class="cls-4" points="333.33 277.76 333.33 270.41 245.72 320.97 245.72 328.33 333.33 277.76"/><path class="cls-1" d="M355.25,351.77a3.16,3.16,0,0,1,0-5.9,9.57,9.57,0,0,1,8.51,0,3.17,3.17,0,0,1,0,5.9,9.3,9.3,0,0,1-8.51,0Z" transform="translate(-49.19 -77.71)"/><path class="cls-28" d="M354.08,348.82v-1.67h10.84v1.66h0a2.69,2.69,0,0,1-1.59,2.21,8.47,8.47,0,0,1-7.66,0A2.69,2.69,0,0,1,354.08,348.82Z" transform="translate(-49.19 -77.71)"/><path class="cls-18" d="M355.67,349.36a8.47,8.47,0,0,0,7.66,0c2.12-1.22,2.12-3.2,0-4.42a8.41,8.41,0,0,0-7.66,0C353.55,346.16,353.55,348.14,355.67,349.36Z" transform="translate(-49.19 -77.71)"/><path class="cls-29" d="M358,348a1.12,1.12,0,0,1,0-2.09,3.39,3.39,0,0,1,3,0,1.12,1.12,0,0,1,0,2.09,3.15,3.15,0,0,1-1.51.36A3.08,3.08,0,0,1,358,348Z" transform="translate(-49.19 -77.71)"/><path class="cls-4" d="M357.59,347v-7.09h3.83V347h0a1,1,0,0,1-.57.79,3,3,0,0,1-2.7,0A1,1,0,0,1,357.59,347Z" transform="translate(-49.19 -77.71)"/><path class="cls-1" d="M358.15,340.67a3,3,0,0,0,2.7,0,.83.83,0,0,0,0-1.57,3,3,0,0,0-2.7,0A.83.83,0,0,0,358.15,340.67Z" transform="translate(-49.19 -77.71)"/><path class="cls-1" d="M341.79,344a3.16,3.16,0,0,1,0-5.9,9.6,9.6,0,0,1,8.52,0,3.17,3.17,0,0,1,0,5.9,9.32,9.32,0,0,1-8.52,0Z" transform="translate(-49.19 -77.71)"/><path class="cls-30" d="M340.62,341.08v-1.67h10.85v1.67h0a2.69,2.69,0,0,1-1.59,2.21,8.43,8.43,0,0,1-7.67,0A2.69,2.69,0,0,1,340.62,341.08Z" transform="translate(-49.19 -77.71)"/><path class="cls-31" d="M342.21,341.62a8.43,8.43,0,0,0,7.67,0c2.12-1.22,2.12-3.2,0-4.42a8.43,8.43,0,0,0-7.67,0C340.1,338.42,340.1,340.4,342.21,341.62Z" transform="translate(-49.19 -77.71)"/><path class="cls-32" d="M344.54,340.28a1.12,1.12,0,0,1,0-2.09,3.39,3.39,0,0,1,3,0,1.12,1.12,0,0,1,0,2.09,3.33,3.33,0,0,1-3,0Z" transform="translate(-49.19 -77.71)"/><path class="cls-4" d="M344.13,339.23v-7.09H348v7.09h0a1,1,0,0,1-.56.79,3,3,0,0,1-2.71,0A1,1,0,0,1,344.13,339.23Z" transform="translate(-49.19 -77.71)"/><path class="cls-1" d="M344.69,332.92a3,3,0,0,0,2.71,0,.82.82,0,0,0,0-1.56,3,3,0,0,0-2.71,0A.83.83,0,0,0,344.69,332.92Z" transform="translate(-49.19 -77.71)"/><path class="cls-1" d="M353.2,357a1,1,0,0,1-.59-.85,1,1,0,0,1,.59-.87,2.8,2.8,0,0,1,2.49,0,1.05,1.05,0,0,1,.59.87,1,1,0,0,1-.59.85,2.49,2.49,0,0,1-1.25.31A2.45,2.45,0,0,1,353.2,357Z" transform="translate(-49.19 -77.71)"/><path class="cls-4" d="M352.86,356.17V355H356v1.16h0a.81.81,0,0,1-.47.64,2.44,2.44,0,0,1-2.23,0A.81.81,0,0,1,352.86,356.17Z" transform="translate(-49.19 -77.71)"/><path class="cls-1" d="M353.33,355.66a2.5,2.5,0,0,0,2.23,0,.69.69,0,0,0,0-1.3,2.44,2.44,0,0,0-2.23,0A.69.69,0,0,0,353.33,355.66Z" transform="translate(-49.19 -77.71)"/><path class="cls-1" d="M347.47,361.35a2.45,2.45,0,0,0,1.24-.3,1,1,0,0,0,.59-.86,1,1,0,0,0-.59-.86,2.77,2.77,0,0,0-2.48,0,1,1,0,0,0-.59.86,1,1,0,0,0,.59.86A2.42,2.42,0,0,0,347.47,361.35Z" transform="translate(-49.19 -77.71)"/><path class="cls-4" d="M345.89,360.19V359h3.16v1.15h0a.79.79,0,0,1-.46.65,2.52,2.52,0,0,1-2.24,0A.79.79,0,0,1,345.89,360.19Z" transform="translate(-49.19 -77.71)"/><path class="cls-1" d="M346.35,359.68a2.46,2.46,0,0,0,2.24,0,.68.68,0,0,0,0-1.29,2.46,2.46,0,0,0-2.24,0C345.73,358.75,345.73,359.33,346.35,359.68Z" transform="translate(-49.19 -77.71)"/><path class="cls-1" d="M340.49,365.38a2.53,2.53,0,0,0,1.24-.3,1,1,0,0,0,.6-.87,1,1,0,0,0-.6-.86,2.84,2.84,0,0,0-2.48,0,1,1,0,0,0-.58.86,1,1,0,0,0,.58.87A2.58,2.58,0,0,0,340.49,365.38Z" transform="translate(-49.19 -77.71)"/><path class="cls-4" d="M338.91,364.21v-1.15h3.17v1.15h0a.78.78,0,0,1-.46.65,2.46,2.46,0,0,1-2.24,0A.79.79,0,0,1,338.91,364.21Z" transform="translate(-49.19 -77.71)"/><path class="cls-1" d="M339.38,363.71a2.49,2.49,0,0,0,2.24,0,.68.68,0,0,0,0-1.29,2.46,2.46,0,0,0-2.24,0C338.76,362.77,338.76,363.35,339.38,363.71Z" transform="translate(-49.19 -77.71)"/><path class="cls-1" d="M333.52,369.41a2.52,2.52,0,0,0,1.25-.31,1,1,0,0,0,.58-.86,1,1,0,0,0-.58-.86,2.86,2.86,0,0,0-2.49,0,1,1,0,0,0-.59.86,1,1,0,0,0,.59.86A2.43,2.43,0,0,0,333.52,369.41Z" transform="translate(-49.19 -77.71)"/><path class="cls-4" d="M331.94,368.24v-1.15h3.17v1.15h0a.79.79,0,0,1-.47.65,2.46,2.46,0,0,1-2.24,0A.78.78,0,0,1,331.94,368.24Z" transform="translate(-49.19 -77.71)"/><path class="cls-1" d="M332.4,367.74a2.52,2.52,0,0,0,2.24,0,.69.69,0,0,0,0-1.3,2.52,2.52,0,0,0-2.24,0A.69.69,0,0,0,332.4,367.74Z" transform="translate(-49.19 -77.71)"/><path class="cls-1" d="M326.54,373.43a2.49,2.49,0,0,0,1.25-.3.92.92,0,0,0,0-1.72,2.8,2.8,0,0,0-2.49,0,.92.92,0,0,0,0,1.72A2.47,2.47,0,0,0,326.54,373.43Z" transform="translate(-49.19 -77.71)"/><path class="cls-4" d="M325,372.27v-1.15h3.17v1.15h0a.81.81,0,0,1-.46.65,2.52,2.52,0,0,1-2.24,0A.81.81,0,0,1,325,372.27Z" transform="translate(-49.19 -77.71)"/><path class="cls-1" d="M325.43,371.76a2.46,2.46,0,0,0,2.24,0,.68.68,0,0,0,0-1.29,2.46,2.46,0,0,0-2.24,0C324.81,370.83,324.81,371.41,325.43,371.76Z" transform="translate(-49.19 -77.71)"/><path class="cls-1" d="M319.57,377.46a2.53,2.53,0,0,0,1.24-.3.93.93,0,0,0,0-1.73,2.8,2.8,0,0,0-2.49,0,.94.94,0,0,0,0,1.73A2.62,2.62,0,0,0,319.57,377.46Z" transform="translate(-49.19 -77.71)"/><path class="cls-4" d="M318,376.3v-1.16h3.17v1.16h0a.78.78,0,0,1-.46.64,2.46,2.46,0,0,1-2.24,0A.79.79,0,0,1,318,376.3Z" transform="translate(-49.19 -77.71)"/><path class="cls-1" d="M318.45,375.79a2.46,2.46,0,0,0,2.24,0c.62-.36.62-.94,0-1.29a2.46,2.46,0,0,0-2.24,0C317.83,374.85,317.83,375.43,318.45,375.79Z" transform="translate(-49.19 -77.71)"/><path class="cls-1" d="M311.35,381.19a1,1,0,0,1-.58-.87,1,1,0,0,1,.58-.86,2.8,2.8,0,0,1,2.49,0,1,1,0,0,1,.59.86,1,1,0,0,1-.59.87,2.82,2.82,0,0,1-2.49,0Z" transform="translate(-49.19 -77.71)"/><path class="cls-4" d="M311,380.32v-1.15h3.17v1.15h0a.79.79,0,0,1-.47.65,2.44,2.44,0,0,1-2.23,0A.79.79,0,0,1,311,380.32Z" transform="translate(-49.19 -77.71)"/><path class="cls-1" d="M311.48,379.82a2.44,2.44,0,0,0,2.23,0,.68.68,0,0,0,0-1.3,2.5,2.5,0,0,0-2.23,0A.69.69,0,0,0,311.48,379.82Z" transform="translate(-49.19 -77.71)"/><path class="cls-1" d="M346.52,353.17a1,1,0,0,1-.59-.87,1,1,0,0,1,.59-.86,2.77,2.77,0,0,1,2.48,0,1,1,0,0,1,.59.86,1,1,0,0,1-.59.87,2.53,2.53,0,0,1-1.24.29A2.55,2.55,0,0,1,346.52,353.17Z" transform="translate(-49.19 -77.71)"/><path class="cls-4" d="M346.18,352.3v-1.15h3.16v1.15h0a.78.78,0,0,1-.46.65,2.52,2.52,0,0,1-2.24,0A.78.78,0,0,1,346.18,352.3Z" transform="translate(-49.19 -77.71)"/><path class="cls-1" d="M346.64,351.79a2.4,2.4,0,0,0,2.24,0,.67.67,0,0,0,0-1.28,2.46,2.46,0,0,0-2.24,0A.68.68,0,0,0,346.64,351.79Z" transform="translate(-49.19 -77.71)"/><path class="cls-1" d="M340.79,357.49a2.56,2.56,0,0,0,1.24-.3,1,1,0,0,0,.59-.86,1,1,0,0,0-.59-.87,2.86,2.86,0,0,0-2.49,0,1.05,1.05,0,0,0-.58.87,1,1,0,0,0,.58.86A2.6,2.6,0,0,0,340.79,357.49Z" transform="translate(-49.19 -77.71)"/><path class="cls-4" d="M339.2,356.33v-1.15h3.17v1.15h0a.77.77,0,0,1-.47.64,2.38,2.38,0,0,1-2.23,0A.79.79,0,0,1,339.2,356.33Z" transform="translate(-49.19 -77.71)"/><path class="cls-1" d="M339.67,355.83a2.5,2.5,0,0,0,2.23,0c.62-.37.62-.94,0-1.3a2.5,2.5,0,0,0-2.23,0C339.05,354.89,339.05,355.46,339.67,355.83Z" transform="translate(-49.19 -77.71)"/><path class="cls-1" d="M333.81,361.52a2.6,2.6,0,0,0,1.25-.3,1,1,0,0,0,.58-.87,1,1,0,0,0-.58-.85,2.8,2.8,0,0,0-2.49,0,1,1,0,0,0-.59.85,1,1,0,0,0,.59.87A2.56,2.56,0,0,0,333.81,361.52Z" transform="translate(-49.19 -77.71)"/><path class="cls-4" d="M332.23,360.35V359.2h3.17v1.15h0a.81.81,0,0,1-.47.66,2.52,2.52,0,0,1-2.24,0A.79.79,0,0,1,332.23,360.35Z" transform="translate(-49.19 -77.71)"/><path class="cls-1" d="M332.69,359.85a2.46,2.46,0,0,0,2.24,0,.69.69,0,0,0,0-1.3,2.52,2.52,0,0,0-2.24,0A.69.69,0,0,0,332.69,359.85Z" transform="translate(-49.19 -77.71)"/><path class="cls-1" d="M326.84,365.54a2.45,2.45,0,0,0,1.24-.3,1,1,0,0,0,.59-.86,1,1,0,0,0-.59-.86,2.77,2.77,0,0,0-2.48,0,1,1,0,0,0-.59.86,1,1,0,0,0,.59.86A2.42,2.42,0,0,0,326.84,365.54Z" transform="translate(-49.19 -77.71)"/><path class="cls-4" d="M325.26,364.38v-1.15h3.16v1.15h0a.79.79,0,0,1-.46.65,2.49,2.49,0,0,1-2.24,0A.79.79,0,0,1,325.26,364.38Z" transform="translate(-49.19 -77.71)"/><path class="cls-1" d="M325.72,363.88a2.52,2.52,0,0,0,2.24,0c.62-.36.62-.94,0-1.29a2.4,2.4,0,0,0-2.24,0C325.1,362.94,325.1,363.52,325.72,363.88Z" transform="translate(-49.19 -77.71)"/><path class="cls-1" d="M319.86,369.57a2.6,2.6,0,0,0,1.25-.3,1,1,0,0,0,.59-.86,1,1,0,0,0-.59-.86,2.8,2.8,0,0,0-2.49,0,1,1,0,0,0-.59.86,1,1,0,0,0,.59.86A2.56,2.56,0,0,0,319.86,369.57Z" transform="translate(-49.19 -77.71)"/><path class="cls-4" d="M318.28,368.41v-1.15h3.17v1.15h0a.79.79,0,0,1-.47.64,2.41,2.41,0,0,1-2.23,0A.78.78,0,0,1,318.28,368.41Z" transform="translate(-49.19 -77.71)"/><path class="cls-1" d="M318.75,367.9a2.44,2.44,0,0,0,2.23,0,.68.68,0,0,0,0-1.29,2.5,2.5,0,0,0-2.23,0C318.12,367,318.12,367.54,318.75,367.9Z" transform="translate(-49.19 -77.71)"/><path class="cls-1" d="M312.89,373.6a2.53,2.53,0,0,0,1.24-.3.93.93,0,0,0,0-1.73,2.86,2.86,0,0,0-2.49,0,.94.94,0,0,0,0,1.73A2.6,2.6,0,0,0,312.89,373.6Z" transform="translate(-49.19 -77.71)"/><path class="cls-4" d="M311.3,372.44v-1.16h3.17v1.16h0a.8.8,0,0,1-.46.64,2.46,2.46,0,0,1-2.24,0A.79.79,0,0,1,311.3,372.44Z" transform="translate(-49.19 -77.71)"/><path class="cls-1" d="M311.77,371.93a2.46,2.46,0,0,0,2.24,0,.68.68,0,0,0,0-1.29,2.46,2.46,0,0,0-2.24,0A.68.68,0,0,0,311.77,371.93Z" transform="translate(-49.19 -77.71)"/><path class="cls-1" d="M304.67,377.33a1,1,0,0,1-.58-.87,1,1,0,0,1,.58-.86,2.8,2.8,0,0,1,2.49,0,1,1,0,0,1,.58.86,1,1,0,0,1-.58.87,2.73,2.73,0,0,1-2.49,0Z" transform="translate(-49.19 -77.71)"/><path class="cls-4" d="M304.34,376.46v-1.15h3.15v1.15h0a.77.77,0,0,1-.45.65,2.48,2.48,0,0,1-2.25,0A.79.79,0,0,1,304.34,376.46Z" transform="translate(-49.19 -77.71)"/><path class="cls-1" d="M304.79,376a2.54,2.54,0,0,0,2.25,0,.69.69,0,0,0,0-1.3,2.48,2.48,0,0,0-2.25,0A.69.69,0,0,0,304.79,376Z" transform="translate(-49.19 -77.71)"/><polygon class="cls-15" points="279.11 271.88 288.87 266.25 286.1 264.65 276.33 270.28 279.11 271.88"/><polygon class="cls-16" points="284.59 275.05 294.35 269.41 291.57 267.81 281.81 273.44 284.59 275.05"/><polygon class="cls-18" points="262.77 281.32 272.53 275.69 269.75 274.08 259.99 279.72 262.77 281.32"/><polygon class="cls-33" points="268.25 284.49 278.01 278.85 275.23 277.24 265.46 282.88 268.25 284.49"/><polygon class="cls-7" points="245.85 291.09 255.61 285.45 252.84 283.85 243.07 289.49 245.85 291.09"/><polygon class="cls-15" points="226.25 299.68 251.26 314.11 261.09 308.44 236.08 294 226.25 299.68"/><polygon class="cls-12" points="231.36 300.58 237.5 297.03 235.75 296.03 229.62 299.57 231.36 300.58"/><polygon class="cls-12" points="234.75 302.53 240.88 298.99 239.13 297.98 233 301.52 234.75 302.53"/><polygon class="cls-12" points="238.13 304.48 244.26 300.94 242.52 299.93 236.38 303.48 238.13 304.48"/><polygon class="cls-12" points="241.51 306.43 247.65 302.89 245.9 301.88 239.76 305.42 241.51 306.43"/><polygon class="cls-12" points="244.89 308.38 251.02 304.84 249.28 303.84 243.15 307.38 244.89 308.38"/><polygon class="cls-12" points="248.27 310.34 254.41 306.8 252.66 305.78 246.53 309.33 248.27 310.34"/><polygon class="cls-12" points="251.66 312.29 257.79 308.75 256.04 307.74 249.91 311.28 251.66 312.29"/><polygon class="cls-4" points="251.33 294.25 261.09 288.61 258.32 287.01 248.55 292.65 251.33 294.25"/></svg>