<svg id="Layer_1" data-name="Layer 1" xmlns="http://www.w3.org/2000/svg" viewBox="0 0 519.53 445.02"><defs><style>.cls-1,.cls-23{fill:#010101;}.cls-1{opacity:0.3;}.cls-2{fill:#bdbec0;}.cls-3{fill:#e6e7e7;}.cls-4{fill:#d2d3d4;}.cls-5{fill:#818285;}.cls-6{fill:#54545a;}.cls-7{fill:#313133;}.cls-8{fill:#6e6f72;}.cls-9{fill:#2b4f69;}.cls-10{fill:#102034;}.cls-11{fill:#ef4f76;}.cls-12{fill:#4dc1b8;}.cls-13{fill:#0d8175;}.cls-14{fill:#f99c2c;}.cls-15{fill:#ba6328;}.cls-16{fill:#ac1e3c;}.cls-17{fill:#e21f27;}.cls-18{fill:#2c5f86;}.cls-19{fill:#141416;}.cls-20{fill:#f6851f;}.cls-21{fill:#ef444e;}.cls-22{fill:#9c2821;}.cls-24{fill:#fff;}.cls-25{fill:#3777ab;}.cls-26{fill:#1d384e;}.cls-27{fill:#a8aaad;}</style></defs><polygon class="cls-1" points="450.41 248.24 338.55 183.22 391.96 152.17 503.82 217.19 450.41 248.24"/><polygon class="cls-2" points="391.96 152.17 338.55 183.22 338.55 28.99 379.45 5.22 391.96 63.1 391.96 152.17"/><polygon class="cls-3" points="338.55 28.99 329.58 23.78 370.48 0 379.45 5.22 338.55 28.99"/><polygon class="cls-4" points="338.55 183.22 329.58 178 329.58 23.78 338.55 28.99 338.55 183.22"/><polygon class="cls-1" points="374.25 292.51 262.39 227.49 315.8 196.44 427.66 261.46 374.25 292.51"/><polygon class="cls-2" points="315.8 196.44 262.39 227.49 262.39 73.27 303.3 49.49 315.8 107.37 315.8 196.44"/><polygon class="cls-3" points="262.39 73.27 253.41 68.04 294.32 44.27 303.3 49.49 262.39 73.27"/><polygon class="cls-4" points="262.39 227.49 253.41 222.28 253.41 68.05 262.39 73.27 262.39 227.49"/><polygon class="cls-1" points="298.09 336.78 186.23 271.75 239.65 240.71 351.5 305.73 298.09 336.78"/><polygon class="cls-2" points="239.65 240.71 186.23 271.75 186.23 117.54 227.13 93.76 239.65 151.64 239.65 240.71"/><polygon class="cls-3" points="186.23 117.54 177.25 112.31 218.16 88.54 227.13 93.76 186.23 117.54"/><polygon class="cls-4" points="186.23 271.75 177.25 266.54 177.25 112.31 186.23 117.54 186.23 271.75"/><polygon class="cls-1" points="222.01 381 110.16 315.98 163.57 284.93 275.43 349.95 222.01 381"/><polygon class="cls-2" points="163.57 284.93 110.16 315.98 110.16 161.75 151.06 137.98 163.57 195.85 163.57 284.93"/><polygon class="cls-3" points="110.16 161.75 101.18 156.53 142.09 132.76 151.06 137.98 110.16 161.75"/><polygon class="cls-4" points="110.16 315.98 101.18 310.76 101.18 156.53 110.16 161.75 110.16 315.98"/><polygon class="cls-5" points="167.39 372.06 58.67 308.87 410.81 104.15 519.53 167.35 167.39 372.06"/><polygon class="cls-6" points="58.67 308.87 167.39 372.06 167.39 410.92 58.67 347.73 58.67 308.87"/><polygon class="cls-7" points="519.53 206.2 167.39 410.92 167.39 372.06 519.53 167.35 519.53 206.2"/><polygon class="cls-6" points="345.26 44.01 456.33 108.57 456.33 189.84 345.26 125.27 345.26 44.01"/><polygon class="cls-8" points="432.34 101.01 369.32 64.38 369.32 132.88 432.34 169.51 432.34 101.01"/><polygon class="cls-7" points="382.28 93.69 372.06 87.76 372.06 68.74 382.28 74.68 382.28 93.69"/><polygon class="cls-7" points="398.03 102.84 387.81 96.91 387.81 77.9 398.03 83.83 398.03 102.84"/><polygon class="cls-7" points="413.77 112 403.56 106.06 403.56 87.05 413.77 92.98 413.77 112"/><polygon class="cls-7" points="429.52 121.15 419.3 115.22 419.3 96.2 429.52 102.14 429.52 121.15"/><polygon class="cls-7" points="382.28 115.59 372.06 109.65 372.06 90.64 382.28 96.57 382.28 115.59"/><polygon class="cls-7" points="398.03 124.74 387.81 118.8 387.81 99.79 398.03 105.73 398.03 124.74"/><polygon class="cls-7" points="413.77 133.9 403.56 127.96 403.56 108.94 413.77 114.88 413.77 133.9"/><polygon class="cls-7" points="429.52 143.05 419.3 137.11 419.3 118.1 429.52 124.03 429.52 143.05"/><polygon class="cls-7" points="382.28 137.64 372.06 131.7 372.06 112.69 382.28 118.63 382.28 137.64"/><polygon class="cls-7" points="398.03 146.79 387.81 140.86 387.81 121.84 398.03 127.78 398.03 146.79"/><polygon class="cls-7" points="413.77 155.95 403.56 150.01 403.56 131 413.77 136.93 413.77 155.95"/><polygon class="cls-7" points="429.52 165.1 419.3 159.16 419.3 140.15 429.52 146.09 429.52 165.1"/><polygon class="cls-5" points="368.48 30.51 345.26 44.01 456.33 108.57 479.55 95.08 368.48 30.51"/><polygon class="cls-7" points="479.55 176.34 456.33 189.84 456.33 108.57 479.55 95.08 479.55 176.34"/><polygon class="cls-7" points="380.05 31.45 356.64 45.05 356.64 54.38 380.05 40.77 380.05 31.45"/><polygon class="cls-6" points="369.18 47.09 451.03 94.67 451.03 85.34 369.18 37.76 369.18 47.09"/><polygon class="cls-6" points="342.02 36.55 356.64 45.05 356.64 54.38 342.02 45.88 342.02 36.55"/><polygon class="cls-6" points="438.48 92.63 453.1 101.12 453.1 110.45 438.48 101.96 438.48 92.63"/><polygon class="cls-5" points="375.95 16.84 342.02 36.55 356.64 45.05 369.18 37.76 451.03 85.34 438.49 92.63 453.1 101.12 487.02 81.4 375.95 16.84"/><polygon class="cls-7" points="487.02 90.73 453.1 110.45 453.1 101.12 487.02 81.4 487.02 90.73"/><polygon class="cls-2" points="512.8 222.41 459.38 253.46 459.38 99.23 500.29 75.46 512.8 133.34 512.8 222.41"/><polygon class="cls-8" points="485.68 218.99 465.01 231.01 465.01 224.51 485.68 212.49 485.68 218.99"/><polygon class="cls-3" points="459.38 99.23 450.41 94.01 491.31 70.24 500.29 75.46 459.38 99.23"/><polygon class="cls-4" points="459.38 253.46 450.41 248.24 450.41 94.01 459.38 99.23 459.38 253.46"/><path class="cls-9" d="M480.81,189.89v-9.33h0l9.92-5.77-81.57-47.41c-1.26-.73-3-.62-4.91.49a15.48,15.48,0,0,0-6.94,12.1c0,2.23.78,3.79,2,4.52l82.23,47.79.84-1.46Z" transform="translate(-42.33 -87.93)"/><path class="cls-10" d="M486.42,175.61a13.7,13.7,0,0,0-4.24,4.15l8.47-4.92A5.33,5.33,0,0,0,486.42,175.61Z" transform="translate(-42.33 -87.93)"/><polygon class="cls-11" points="448.94 98.7 448.94 98.7 448.88 98.67 448.94 98.7"/><path class="cls-10" d="M480.81,189.89v-7.68a13.52,13.52,0,0,0-1.33,5.5c0,3.92,2.41,5.79,5.6,4.66Z" transform="translate(-42.33 -87.93)"/><polygon class="cls-6" points="269.1 88.28 380.17 152.84 380.17 234.11 269.1 169.54 269.1 88.28"/><polygon class="cls-8" points="356.19 145.28 293.16 108.64 293.16 177.15 356.19 213.78 356.19 145.28"/><polygon class="cls-7" points="306.12 137.96 295.9 132.02 295.9 113.01 306.12 118.95 306.12 137.96"/><polygon class="cls-7" points="321.87 147.12 311.65 141.18 311.65 122.16 321.87 128.1 321.87 147.12"/><polygon class="cls-7" points="337.62 156.27 327.4 150.34 327.4 131.31 337.62 137.25 337.62 156.27"/><polygon class="cls-7" points="353.36 165.42 343.15 159.49 343.15 140.47 353.36 146.41 353.36 165.42"/><polygon class="cls-7" points="306.12 159.86 295.9 153.92 295.9 134.91 306.12 140.84 306.12 159.86"/><polygon class="cls-7" points="321.87 169.01 311.65 163.07 311.65 144.06 321.87 150 321.87 169.01"/><polygon class="cls-7" points="337.62 178.16 327.4 172.23 327.4 153.21 337.62 159.15 337.62 178.16"/><polygon class="cls-7" points="353.36 187.32 343.15 181.38 343.15 162.37 353.36 168.31 353.36 187.32"/><polygon class="cls-7" points="306.12 181.91 295.9 175.97 295.9 156.96 306.12 162.9 306.12 181.91"/><polygon class="cls-7" points="321.87 191.07 311.65 185.13 311.65 166.11 321.87 172.05 321.87 191.07"/><polygon class="cls-7" points="337.62 200.22 327.4 194.28 327.4 175.26 337.62 181.2 337.62 200.22"/><polygon class="cls-7" points="353.36 209.37 343.15 203.43 343.15 184.42 353.36 190.36 353.36 209.37"/><polygon class="cls-5" points="292.31 74.78 269.1 88.28 380.17 152.84 403.39 139.34 292.31 74.78"/><polygon class="cls-7" points="403.39 220.61 380.17 234.11 380.17 152.84 403.39 139.34 403.39 220.61"/><polygon class="cls-7" points="303.89 75.71 280.48 89.32 280.48 98.65 303.89 85.04 303.89 75.71"/><polygon class="cls-6" points="293.02 91.36 374.87 138.94 374.87 129.61 293.02 82.03 293.02 91.36"/><polygon class="cls-6" points="265.86 80.83 280.48 89.32 280.48 98.65 265.86 90.16 265.86 80.83"/><polygon class="cls-6" points="362.33 136.89 376.94 145.39 376.94 154.72 362.33 146.22 362.33 136.89"/><polygon class="cls-5" points="299.79 61.11 265.86 80.83 280.48 89.32 293.02 82.03 374.87 129.61 362.33 136.9 376.94 145.39 410.87 125.67 299.79 61.11"/><polygon class="cls-7" points="410.87 135 376.94 154.72 376.94 145.39 410.87 125.67 410.87 135"/><polygon class="cls-2" points="436.64 266.68 383.22 297.73 383.22 143.5 424.13 119.72 436.64 177.61 436.64 266.68"/><polygon class="cls-8" points="409.52 263.26 388.85 275.28 388.85 268.78 409.52 256.76 409.52 263.26"/><polygon class="cls-3" points="383.22 143.5 374.25 138.28 415.15 114.51 424.13 119.72 383.22 143.5"/><polygon class="cls-4" points="383.22 297.73 374.25 292.51 374.25 138.28 383.22 143.5 383.22 297.73"/><path class="cls-12" d="M404.65,234.15v-9.33h0l9.93-5.77L333,171.65c-1.25-.73-3-.62-4.9.49a15.48,15.48,0,0,0-6.94,12.1c0,2.23.78,3.79,2,4.52l82.22,47.78.84-1.45Z" transform="translate(-42.33 -87.93)"/><path class="cls-13" d="M410.26,219.88A13.59,13.59,0,0,0,406,224l8.47-4.92A5.33,5.33,0,0,0,410.26,219.88Z" transform="translate(-42.33 -87.93)"/><polygon class="cls-11" points="372.77 142.97 372.77 142.97 372.73 142.94 372.77 142.97"/><path class="cls-13" d="M404.65,234.15v-7.67a13.52,13.52,0,0,0-1.33,5.5c0,3.92,2.41,5.79,5.6,4.66Z" transform="translate(-42.33 -87.93)"/><polygon class="cls-6" points="192.93 132.55 304.01 197.12 304.01 278.38 192.93 213.81 192.93 132.55"/><polygon class="cls-8" points="280.03 189.55 217 152.91 217 221.42 280.03 258.05 280.03 189.55"/><polygon class="cls-7" points="229.96 182.23 219.74 176.29 219.74 157.28 229.96 163.22 229.96 182.23"/><polygon class="cls-7" points="245.71 191.39 235.49 185.45 235.49 166.43 245.71 172.37 245.71 191.39"/><polygon class="cls-7" points="261.45 200.54 251.24 194.6 251.24 175.59 261.45 181.53 261.45 200.54"/><polygon class="cls-7" points="277.2 209.69 266.99 203.75 266.99 184.74 277.2 190.68 277.2 209.69"/><polygon class="cls-7" points="229.96 204.13 219.74 198.19 219.74 179.18 229.96 185.11 229.96 204.13"/><polygon class="cls-7" points="245.71 213.28 235.49 207.34 235.49 188.33 245.71 194.27 245.71 213.28"/><polygon class="cls-7" points="261.45 222.43 251.24 216.5 251.24 197.48 261.45 203.42 261.45 222.43"/><polygon class="cls-7" points="277.2 231.59 266.99 225.65 266.99 206.63 277.2 212.57 277.2 231.59"/><polygon class="cls-7" points="229.96 226.18 219.74 220.25 219.74 201.23 229.96 207.16 229.96 226.18"/><polygon class="cls-7" points="245.71 235.33 235.49 229.4 235.49 210.38 245.71 216.32 245.71 235.33"/><polygon class="cls-7" points="261.45 244.49 251.24 238.55 251.24 219.54 261.45 225.47 261.45 244.49"/><polygon class="cls-7" points="277.2 253.64 266.99 247.7 266.99 228.69 277.2 234.63 277.2 253.64"/><polygon class="cls-5" points="216.16 119.05 192.93 132.55 304.01 197.12 327.23 183.62 216.16 119.05"/><polygon class="cls-7" points="327.23 264.88 304.01 278.38 304.01 197.12 327.23 183.62 327.23 264.88"/><polygon class="cls-7" points="227.73 119.98 204.32 133.59 204.32 142.92 227.73 129.31 227.73 119.98"/><polygon class="cls-6" points="216.86 135.63 298.71 183.2 298.71 173.88 216.86 126.3 216.86 135.63"/><polygon class="cls-6" points="189.7 125.09 204.32 133.59 204.32 142.92 189.7 134.43 189.7 125.09"/><polygon class="cls-6" points="286.17 181.16 300.78 189.66 300.78 198.99 286.17 190.5 286.17 181.16"/><polygon class="cls-5" points="223.63 105.37 189.7 125.09 204.32 133.59 216.86 126.3 298.71 173.88 286.17 181.16 300.78 189.66 334.7 169.94 223.63 105.37"/><polygon class="cls-7" points="334.7 179.27 300.78 198.99 300.78 189.66 334.7 169.94 334.7 179.27"/><polygon class="cls-2" points="360.48 310.94 307.07 342 307.07 187.77 347.97 163.99 360.48 221.87 360.48 310.94"/><polygon class="cls-8" points="333.37 307.54 312.69 319.55 312.69 313.04 333.37 301.03 333.37 307.54"/><polygon class="cls-3" points="307.07 187.77 298.09 182.55 338.99 158.78 347.97 163.99 307.07 187.77"/><polygon class="cls-4" points="307.07 342 298.09 336.78 298.09 182.55 307.07 187.77 307.07 342"/><path class="cls-14" d="M328.49,278.42v-9.33h0l9.92-5.77-81.58-47.4c-1.25-.73-3-.62-4.9.49a15.47,15.47,0,0,0-6.94,12.1c0,2.22.78,3.79,2,4.52l82.22,47.78.84-1.45Z" transform="translate(-42.33 -87.93)"/><path class="cls-15" d="M334.1,264.15a13.81,13.81,0,0,0-4.24,4.15l8.47-4.92A5.33,5.33,0,0,0,334.1,264.15Z" transform="translate(-42.33 -87.93)"/><polygon class="cls-11" points="296.61 187.24 296.61 187.24 296.57 187.21 296.61 187.24"/><path class="cls-15" d="M328.49,278.42v-7.67a13.52,13.52,0,0,0-1.33,5.5c0,3.92,2.41,5.79,5.6,4.66Z" transform="translate(-42.33 -87.93)"/><polygon class="cls-6" points="116.86 176.77 227.94 241.33 227.94 322.59 116.86 258.03 116.86 176.77"/><polygon class="cls-8" points="203.95 233.77 140.92 197.13 140.92 265.63 203.95 302.27 203.95 233.77"/><polygon class="cls-7" points="153.89 226.45 143.67 220.52 143.67 201.5 153.89 207.43 153.89 226.45"/><polygon class="cls-7" points="169.63 235.61 159.42 229.67 159.42 210.65 169.63 216.59 169.63 235.61"/><polygon class="cls-7" points="185.38 244.76 175.16 238.82 175.16 219.81 185.38 225.74 185.38 244.76"/><polygon class="cls-7" points="201.13 253.91 190.91 247.97 190.91 228.96 201.13 234.9 201.13 253.91"/><polygon class="cls-7" points="153.89 248.35 143.67 242.41 143.67 223.39 153.89 229.33 153.89 248.35"/><polygon class="cls-7" points="169.63 257.5 159.42 251.57 159.42 232.55 169.63 238.49 169.63 257.5"/><polygon class="cls-7" points="185.38 266.65 175.16 260.72 175.16 241.7 185.38 247.64 185.38 266.65"/><polygon class="cls-7" points="201.13 275.8 190.91 269.87 190.91 250.86 201.13 256.79 201.13 275.8"/><polygon class="cls-7" points="153.89 270.4 143.67 264.46 143.67 245.44 153.89 251.38 153.89 270.4"/><polygon class="cls-7" points="169.63 279.55 159.42 273.62 159.42 254.6 169.63 260.54 169.63 279.55"/><polygon class="cls-7" points="185.38 288.71 175.16 282.77 175.16 263.75 185.38 269.69 185.38 288.71"/><polygon class="cls-7" points="201.13 297.86 190.91 291.92 190.91 272.91 201.13 278.85 201.13 297.86"/><polygon class="cls-5" points="140.09 163.26 116.86 176.77 227.94 241.33 251.16 227.83 140.09 163.26"/><polygon class="cls-7" points="251.16 309.09 227.94 322.59 227.94 241.33 251.16 227.83 251.16 309.09"/><polygon class="cls-7" points="151.66 164.21 128.25 177.81 128.25 187.14 151.66 173.53 151.66 164.21"/><polygon class="cls-6" points="140.79 179.85 222.63 227.43 222.63 218.1 140.79 170.52 140.79 179.85"/><polygon class="cls-6" points="113.63 169.32 128.25 177.81 128.25 187.14 113.63 178.65 113.63 169.32"/><polygon class="cls-6" points="210.09 225.39 224.71 233.88 224.71 243.21 210.09 234.72 210.09 225.39"/><polygon class="cls-5" points="147.56 149.6 113.63 169.32 128.25 177.81 140.79 170.52 222.63 218.1 210.09 225.39 224.71 233.88 258.63 214.16 147.56 149.6"/><polygon class="cls-7" points="258.63 223.49 224.71 243.21 224.71 233.88 258.63 214.16 258.63 223.49"/><polygon class="cls-2" points="284.4 355.17 230.99 386.22 230.99 231.99 271.89 208.21 284.4 266.09 284.4 355.17"/><polygon class="cls-8" points="257.29 351.76 236.62 363.77 236.62 357.27 257.29 345.25 257.29 351.76"/><polygon class="cls-3" points="230.99 231.99 222.01 226.77 262.92 203 271.89 208.21 230.99 231.99"/><polygon class="cls-4" points="230.99 386.22 222.01 381 222.01 226.78 230.99 231.99 230.99 386.22"/><path class="cls-11" d="M252.42,322.65v-9.34h0l9.93-5.77-81.58-47.4c-1.25-.73-3-.62-4.9.49a15.44,15.44,0,0,0-6.94,12.1c0,2.22.78,3.79,2,4.52L253.19,325l.83-1.45Z" transform="translate(-42.33 -87.93)"/><path class="cls-16" d="M258,308.37a13.68,13.68,0,0,0-4.23,4.15l8.47-4.92A5.31,5.31,0,0,0,258,308.37Z" transform="translate(-42.33 -87.93)"/><polygon class="cls-11" points="220.54 231.46 220.54 231.46 220.5 231.43 220.54 231.46"/><path class="cls-16" d="M252.42,322.65V315a13.54,13.54,0,0,0-1.34,5.5c0,3.92,2.42,5.78,5.61,4.65Z" transform="translate(-42.33 -87.93)"/><polygon class="cls-2" points="11.81 281.95 73.33 246.19 73.34 340.67 11.82 376.43 11.81 281.95"/><polygon class="cls-3" points="73.33 246.19 11.81 281.95 0 275.08 61.52 239.32 73.33 246.19"/><polygon class="cls-4" points="0.01 369.57 0 275.08 11.81 281.95 11.82 376.43 0.01 369.57"/><polygon class="cls-6" points="9.91 310.24 1.91 305.59 1.91 287.31 9.91 291.96 9.91 310.24"/><polygon class="cls-14" points="8.59 301.35 5.91 301.43 3.24 298.24 3.24 296.13 8.59 299.24 8.59 301.35"/><polygon class="cls-17" points="8.59 298.09 3.24 294.99 3.24 290.58 8.59 293.69 8.59 298.09"/><polygon class="cls-6" points="15.58 309.95 121.77 371.68 121.77 435.98 15.58 374.25 15.58 309.95"/><polygon class="cls-18" points="15.58 324.68 121.77 386.41 121.77 423.91 15.58 362.18 15.58 324.68"/><polygon class="cls-7" points="67.25 279.92 15.58 309.95 121.77 371.68 173.44 341.64 67.25 279.92"/><polygon class="cls-7" points="173.44 405.94 121.77 435.98 121.77 371.68 173.44 341.64 173.44 405.94"/><polygon class="cls-6" points="15.58 284.85 121.77 346.57 121.77 368.46 15.58 306.73 15.58 284.85"/><polygon class="cls-7" points="53.9 326.65 20.65 307.33 20.65 291.07 53.9 310.39 53.9 326.65"/><polygon class="cls-17" points="50.24 312.13 48.27 310.98 48.27 308.81 50.24 309.96 50.24 312.13"/><polygon class="cls-19" points="52.79 313.6 50.81 312.45 50.81 310.28 52.79 311.43 52.79 313.6"/><polygon class="cls-19" points="39.25 309.78 37.27 308.64 37.27 306.47 39.25 307.62 39.25 309.78"/><polygon class="cls-19" points="42.01 311.38 40.04 310.24 40.04 308.07 42.01 309.22 42.01 311.38"/><polygon class="cls-19" points="44.78 312.99 42.8 311.84 42.8 309.67 44.78 310.82 44.78 312.99"/><polygon class="cls-19" points="47.55 314.59 45.57 313.44 45.57 311.28 47.55 312.43 47.55 314.59"/><polygon class="cls-19" points="39.25 313.18 37.27 312.03 37.27 309.86 39.25 311.01 39.25 313.18"/><polygon class="cls-19" points="42.01 314.78 40.04 313.63 40.04 311.46 42.01 312.61 42.01 314.78"/><polygon class="cls-19" points="44.78 316.38 42.8 315.23 42.8 313.07 44.78 314.22 44.78 316.38"/><polygon class="cls-19" points="47.55 317.99 45.57 316.84 45.57 314.67 47.55 315.81 47.55 317.99"/><polygon class="cls-19" points="39.25 316.57 37.27 315.42 37.27 313.25 39.25 314.4 39.25 316.57"/><polygon class="cls-19" points="42.01 318.17 40.04 317.03 40.04 314.86 42.01 316.01 42.01 318.17"/><polygon class="cls-19" points="44.78 319.78 42.8 318.62 42.8 316.46 44.78 317.61 44.78 319.78"/><polygon class="cls-19" points="47.55 321.38 45.57 320.23 45.57 318.06 47.55 319.21 47.55 321.38"/><polygon class="cls-19" points="52.79 324.43 48.27 321.81 48.27 312.85 52.79 315.47 52.79 324.43"/><polygon class="cls-19" points="47.55 310.54 37.27 304.56 37.27 302.4 47.55 308.37 47.55 310.54"/><polygon class="cls-12" points="36.12 314.79 22.11 306.65 22.11 293.6 36.12 301.74 36.12 314.79"/><polygon class="cls-7" points="67.25 254.81 15.58 284.85 121.77 346.57 173.44 316.54 67.25 254.81"/><polygon class="cls-7" points="173.44 338.43 121.77 368.46 121.77 346.57 173.44 316.54 173.44 338.43"/><polygon class="cls-5" points="63.98 217.09 51.79 224.18 81.59 241.5 93.78 234.4 63.98 217.09"/><polygon class="cls-8" points="51.79 224.18 15.58 278.04 45.37 295.36 81.59 241.5 51.79 224.18"/><polygon class="cls-7" points="57.13 232.33 26.44 277.98 40.03 285.89 70.72 240.24 57.13 232.33"/><polygon class="cls-3" points="57.65 234.2 28.68 277.29 39.67 283.67 68.63 240.59 57.65 234.2"/><polygon class="cls-6" points="45.37 300.23 15.58 282.91 15.58 278.04 45.37 295.36 45.37 300.23"/><polygon class="cls-19" points="93.78 272.1 45.37 300.23 45.37 295.36 81.59 241.5 93.78 234.4 93.78 272.1"/><path class="cls-7" d="M125.63,351.54a3.32,3.32,0,0,1,3.34.12l5.2-3a3.57,3.57,0,0,1,3.27-.08l68.31,39.66a3.71,3.71,0,0,1,3.52,0v16.87h0a1.17,1.17,0,0,1-.81,1.07l-7.73,4.49a3.72,3.72,0,0,1-3.3.16l-71.29-41.41a.82.82,0,0,1-.51-.79Z" transform="translate(-42.33 -87.93)"/><path class="cls-6" d="M126.14,352.44l71.29,41.41a3.65,3.65,0,0,0,3.3-.16l7.73-4.49c1-.5,1.1-1.38.23-1.89l-71.25-41.43a3.78,3.78,0,0,0-3.27.18l-7.78,4.43C125.41,351,125.32,351.93,126.14,352.44Z" transform="translate(-42.33 -87.93)"/><path class="cls-19" d="M90.26,385a3.33,3.33,0,0,1,3.34.11l26.51-15.51a3.52,3.52,0,0,1,3.26-.09l68.32,39.66a3.69,3.69,0,0,1,3.51,0v4h0a1.18,1.18,0,0,1-.8,1.08l-29,17a3.75,3.75,0,0,1-3.3.17L90.77,390a.84.84,0,0,1-.51-.79Z" transform="translate(-42.33 -87.93)"/><path class="cls-6" d="M90.77,385.9l71.29,41.41a3.62,3.62,0,0,0,3.3-.16l29-17c1-.5,1.1-1.38.22-1.89l-71.25-41.43a3.76,3.76,0,0,0-3.26.18L91,384C90,384.48,90,385.39,90.77,385.9Z" transform="translate(-42.33 -87.93)"/><path class="cls-7" d="M105.27,388a7.93,7.93,0,0,1-3.9-1,2.92,2.92,0,0,1,0-5.43,8.75,8.75,0,0,1,7.79,0,2.92,2.92,0,0,1,0,5.43A7.86,7.86,0,0,1,105.27,388Z" transform="translate(-42.33 -87.93)"/><path class="cls-20" d="M110.22,384.32v-1.54h-9.91v1.54h0a2.49,2.49,0,0,0,1.45,2,7.73,7.73,0,0,0,7,0A2.47,2.47,0,0,0,110.22,384.32Z" transform="translate(-42.33 -87.93)"/><path class="cls-14" d="M108.77,384.82a7.73,7.73,0,0,1-7,0c-1.93-1.13-1.93-2.95,0-4.08a7.73,7.73,0,0,1,7,0C110.7,381.87,110.7,383.69,108.77,384.82Z" transform="translate(-42.33 -87.93)"/><path class="cls-15" d="M105.27,383.91a2.84,2.84,0,0,1-1.38-.33,1.15,1.15,0,0,1-.65-1,1.13,1.13,0,0,1,.65-1,3,3,0,0,1,2.75,0,1.13,1.13,0,0,1,.65,1,1.15,1.15,0,0,1-.65,1A2.8,2.8,0,0,1,105.27,383.91Z" transform="translate(-42.33 -87.93)"/><path class="cls-19" d="M107,382.62v-6.53h-3.5v6.53h0a.89.89,0,0,0,.51.72,2.77,2.77,0,0,0,2.48,0A.89.89,0,0,0,107,382.62Z" transform="translate(-42.33 -87.93)"/><path class="cls-7" d="M106.51,376.81a2.71,2.71,0,0,1-2.48,0,.76.76,0,0,1,0-1.44,2.71,2.71,0,0,1,2.48,0A.76.76,0,0,1,106.51,376.81Z" transform="translate(-42.33 -87.93)"/><path class="cls-7" d="M121,378.88a7.93,7.93,0,0,1-3.9-.95,2.93,2.93,0,0,1,0-5.43,8.75,8.75,0,0,1,7.79,0,2.92,2.92,0,0,1,0,5.43A7.86,7.86,0,0,1,121,378.88Z" transform="translate(-42.33 -87.93)"/><path class="cls-17" d="M125.92,375.22v-1.54H116v1.53h0a2.49,2.49,0,0,0,1.45,2,7.67,7.67,0,0,0,7,0A2.47,2.47,0,0,0,125.92,375.22Z" transform="translate(-42.33 -87.93)"/><path class="cls-21" d="M124.47,375.72a7.73,7.73,0,0,1-7,0c-1.93-1.13-1.93-3,0-4.08a7.73,7.73,0,0,1,7,0C126.4,372.77,126.4,374.59,124.47,375.72Z" transform="translate(-42.33 -87.93)"/><path class="cls-22" d="M121,374.81a2.74,2.74,0,0,1-1.38-.33,1.15,1.15,0,0,1-.65-1,1.14,1.14,0,0,1,.65-1,3.09,3.09,0,0,1,2.75,0,1.14,1.14,0,0,1,.65,1,1.15,1.15,0,0,1-.65,1A2.72,2.72,0,0,1,121,374.81Z" transform="translate(-42.33 -87.93)"/><path class="cls-19" d="M122.72,373.52V367h-3.5v6.53h0a.88.88,0,0,0,.51.72,2.71,2.71,0,0,0,2.48,0A.88.88,0,0,0,122.72,373.52Z" transform="translate(-42.33 -87.93)"/><path class="cls-7" d="M122.21,367.71a2.71,2.71,0,0,1-2.48,0,.76.76,0,0,1,0-1.44,2.71,2.71,0,0,1,2.48,0A.76.76,0,0,1,122.21,367.71Z" transform="translate(-42.33 -87.93)"/><path class="cls-7" d="M109.89,392.14a2.29,2.29,0,0,1-1.14-.27,1,1,0,0,1-.53-.8.94.94,0,0,1,.53-.79,2.54,2.54,0,0,1,2.28,0,1,1,0,0,1,.54.79,1,1,0,0,1-.54.8A2.29,2.29,0,0,1,109.89,392.14Z" transform="translate(-42.33 -87.93)"/><path class="cls-19" d="M111.34,391.07V390h-2.9v1.06h0a.73.73,0,0,0,.43.6,2.29,2.29,0,0,0,2,0A.75.75,0,0,0,111.34,391.07Z" transform="translate(-42.33 -87.93)"/><path class="cls-7" d="M110.91,390.61a2.23,2.23,0,0,1-2,0,.63.63,0,0,1,0-1.19,2.23,2.23,0,0,1,2,0A.63.63,0,0,1,110.91,390.61Z" transform="translate(-42.33 -87.93)"/><path class="cls-7" d="M116.26,395.85a2.28,2.28,0,0,1-1.13-.28.85.85,0,0,1,0-1.58,2.52,2.52,0,0,1,2.27,0,.85.85,0,0,1,0,1.58A2.29,2.29,0,0,1,116.26,395.85Z" transform="translate(-42.33 -87.93)"/><path class="cls-19" d="M117.71,394.78v-1.06h-2.89v1.06h0a.72.72,0,0,0,.42.59,2.25,2.25,0,0,0,2.05,0A.72.72,0,0,0,117.71,394.78Z" transform="translate(-42.33 -87.93)"/><path class="cls-7" d="M117.29,394.31a2.25,2.25,0,0,1-2.05,0,.63.63,0,0,1,0-1.19,2.31,2.31,0,0,1,2.05,0A.63.63,0,0,1,117.29,394.31Z" transform="translate(-42.33 -87.93)"/><path class="cls-7" d="M122.64,399.55a2.13,2.13,0,0,1-1.13-.28.91.91,0,0,1-.54-.79.94.94,0,0,1,.54-.79,2.52,2.52,0,0,1,2.27,0,1,1,0,0,1,.53.79.91.91,0,0,1-.53.79A2.19,2.19,0,0,1,122.64,399.55Z" transform="translate(-42.33 -87.93)"/><path class="cls-19" d="M124.09,398.48v-1.06H121.2v1.06h0a.7.7,0,0,0,.42.6,2.23,2.23,0,0,0,2,0A.71.71,0,0,0,124.09,398.48Z" transform="translate(-42.33 -87.93)"/><path class="cls-7" d="M123.66,398a2.23,2.23,0,0,1-2,0,.63.63,0,0,1,0-1.19,2.23,2.23,0,0,1,2,0A.63.63,0,0,1,123.66,398Z" transform="translate(-42.33 -87.93)"/><path class="cls-7" d="M129,403.26a2.4,2.4,0,0,1-1.14-.27.86.86,0,0,1,0-1.6,2.59,2.59,0,0,1,2.27,0,.86.86,0,0,1,0,1.6A2.36,2.36,0,0,1,129,403.26Z" transform="translate(-42.33 -87.93)"/><path class="cls-19" d="M130.46,402.19v-1.06h-2.89v1.06h0a.71.71,0,0,0,.42.59,2.19,2.19,0,0,0,2,0A.71.71,0,0,0,130.46,402.19Z" transform="translate(-42.33 -87.93)"/><path class="cls-7" d="M130,401.73a2.31,2.31,0,0,1-2,0,.64.64,0,0,1,0-1.2,2.25,2.25,0,0,1,2,0C130.61,400.86,130.61,401.39,130,401.73Z" transform="translate(-42.33 -87.93)"/><path class="cls-7" d="M135.39,407a2.22,2.22,0,0,1-1.13-.27.85.85,0,0,1,0-1.59,2.52,2.52,0,0,1,2.27,0,.86.86,0,0,1,0,1.59A2.29,2.29,0,0,1,135.39,407Z" transform="translate(-42.33 -87.93)"/><path class="cls-19" d="M136.84,405.89v-1.06H134v1.06h0a.73.73,0,0,0,.42.6,2.25,2.25,0,0,0,2,0A.73.73,0,0,0,136.84,405.89Z" transform="translate(-42.33 -87.93)"/><path class="cls-7" d="M136.42,405.43a2.25,2.25,0,0,1-2,0,.63.63,0,0,1,0-1.19,2.25,2.25,0,0,1,2,0A.63.63,0,0,1,136.42,405.43Z" transform="translate(-42.33 -87.93)"/><path class="cls-7" d="M141.77,410.67a2.29,2.29,0,0,1-1.14-.28.85.85,0,0,1,0-1.58,2.52,2.52,0,0,1,2.27,0,.85.85,0,0,1,0,1.58A2.25,2.25,0,0,1,141.77,410.67Z" transform="translate(-42.33 -87.93)"/><path class="cls-19" d="M143.21,409.6v-1.06h-2.89v1.06h0a.75.75,0,0,0,.42.6,2.28,2.28,0,0,0,2,0A.72.72,0,0,0,143.21,409.6Z" transform="translate(-42.33 -87.93)"/><path class="cls-7" d="M142.79,409.13a2.25,2.25,0,0,1-2,0,.62.62,0,0,1,0-1.18,2.25,2.25,0,0,1,2,0A.62.62,0,0,1,142.79,409.13Z" transform="translate(-42.33 -87.93)"/><path class="cls-7" d="M148.14,414.38a2.32,2.32,0,0,1-1.14-.28.94.94,0,0,1-.53-.79,1,1,0,0,1,.53-.8,2.61,2.61,0,0,1,2.28,0,1,1,0,0,1,.54.8,1,1,0,0,1-.54.79A2.29,2.29,0,0,1,148.14,414.38Z" transform="translate(-42.33 -87.93)"/><path class="cls-19" d="M149.59,413.31v-1.07H146.7v1.07h0a.72.72,0,0,0,.42.59,2.23,2.23,0,0,0,2,0A.73.73,0,0,0,149.59,413.31Z" transform="translate(-42.33 -87.93)"/><path class="cls-7" d="M149.16,412.84a2.23,2.23,0,0,1-2,0,.63.63,0,0,1,0-1.19,2.23,2.23,0,0,1,2,0A.63.63,0,0,1,149.16,412.84Z" transform="translate(-42.33 -87.93)"/><path class="cls-7" d="M116,388.59a2.29,2.29,0,0,1-1.14-.28.85.85,0,0,1,0-1.58,2.54,2.54,0,0,1,2.28,0,.85.85,0,0,1,0,1.58A2.32,2.32,0,0,1,116,388.59Z" transform="translate(-42.33 -87.93)"/><path class="cls-19" d="M117.45,387.52v-1.06h-2.9v1.06h0a.73.73,0,0,0,.43.6,2.23,2.23,0,0,0,2,0A.75.75,0,0,0,117.45,387.52Z" transform="translate(-42.33 -87.93)"/><path class="cls-7" d="M117,387.06a2.29,2.29,0,0,1-2,0c-.57-.33-.57-.86,0-1.2a2.29,2.29,0,0,1,2,0A.64.64,0,0,1,117,387.06Z" transform="translate(-42.33 -87.93)"/><path class="cls-7" d="M122.37,392.3a2.25,2.25,0,0,1-1.13-.28.93.93,0,0,1-.54-.79,1,1,0,0,1,.54-.8,2.59,2.59,0,0,1,2.27,0,1,1,0,0,1,.54.8.93.93,0,0,1-.54.79A2.26,2.26,0,0,1,122.37,392.3Z" transform="translate(-42.33 -87.93)"/><path class="cls-19" d="M123.82,391.23v-1.06h-2.89v1.06h0a.72.72,0,0,0,.42.59,2.23,2.23,0,0,0,2,0A.71.71,0,0,0,123.82,391.23Z" transform="translate(-42.33 -87.93)"/><path class="cls-7" d="M123.39,390.76a2.23,2.23,0,0,1-2,0,.63.63,0,0,1,0-1.19,2.23,2.23,0,0,1,2,0A.63.63,0,0,1,123.39,390.76Z" transform="translate(-42.33 -87.93)"/><path class="cls-7" d="M128.75,396a2.4,2.4,0,0,1-1.14-.27.93.93,0,0,1-.53-.8.92.92,0,0,1,.53-.79,2.54,2.54,0,0,1,2.28,0,1,1,0,0,1,.54.79,1,1,0,0,1-.54.8A2.43,2.43,0,0,1,128.75,396Z" transform="translate(-42.33 -87.93)"/><path class="cls-19" d="M130.19,394.93v-1.06H127.3v1.06h0a.73.73,0,0,0,.43.6,2.23,2.23,0,0,0,2,0A.73.73,0,0,0,130.19,394.93Z" transform="translate(-42.33 -87.93)"/><path class="cls-7" d="M129.77,394.47a2.29,2.29,0,0,1-2,0,.63.63,0,0,1,0-1.19,2.23,2.23,0,0,1,2,0A.63.63,0,0,1,129.77,394.47Z" transform="translate(-42.33 -87.93)"/><path class="cls-7" d="M135.12,399.7a2.25,2.25,0,0,1-1.13-.27.93.93,0,0,1-.54-.79.92.92,0,0,1,.54-.79,2.52,2.52,0,0,1,2.27,0,.91.91,0,0,1,.53.79.92.92,0,0,1-.53.79A2.29,2.29,0,0,1,135.12,399.7Z" transform="translate(-42.33 -87.93)"/><path class="cls-19" d="M136.57,398.64v-1.06h-2.89v1.06h0a.72.72,0,0,0,.42.59,2.25,2.25,0,0,0,2.05,0A.72.72,0,0,0,136.57,398.64Z" transform="translate(-42.33 -87.93)"/><path class="cls-7" d="M136.15,398.17a2.25,2.25,0,0,1-2.05,0,.63.63,0,0,1,0-1.19,2.25,2.25,0,0,1,2.05,0A.63.63,0,0,1,136.15,398.17Z" transform="translate(-42.33 -87.93)"/><path class="cls-7" d="M141.5,403.42a2.29,2.29,0,0,1-1.14-.28,1,1,0,0,1-.53-.8.94.94,0,0,1,.53-.79,2.52,2.52,0,0,1,2.27,0,.93.93,0,0,1,.54.79.94.94,0,0,1-.54.8A2.25,2.25,0,0,1,141.5,403.42Z" transform="translate(-42.33 -87.93)"/><path class="cls-19" d="M142.94,402.34v-1.06h-2.89v1.06h0a.72.72,0,0,0,.42.6,2.25,2.25,0,0,0,2.05,0A.7.7,0,0,0,142.94,402.34Z" transform="translate(-42.33 -87.93)"/><path class="cls-7" d="M142.52,401.88a2.25,2.25,0,0,1-2.05,0,.63.63,0,0,1,0-1.19,2.25,2.25,0,0,1,2.05,0A.63.63,0,0,1,142.52,401.88Z" transform="translate(-42.33 -87.93)"/><path class="cls-7" d="M147.87,407.12a2.25,2.25,0,0,1-1.13-.28.85.85,0,0,1,0-1.58,2.52,2.52,0,0,1,2.27,0,.85.85,0,0,1,0,1.58A2.26,2.26,0,0,1,147.87,407.12Z" transform="translate(-42.33 -87.93)"/><path class="cls-19" d="M149.32,406.05V405h-2.89v1.06h0a.75.75,0,0,0,.42.6,2.31,2.31,0,0,0,2.05,0A.75.75,0,0,0,149.32,406.05Z" transform="translate(-42.33 -87.93)"/><path class="cls-7" d="M148.9,405.58a2.22,2.22,0,0,1-2.05,0,.63.63,0,0,1,0-1.19,2.31,2.31,0,0,1,2.05,0A.63.63,0,0,1,148.9,405.58Z" transform="translate(-42.33 -87.93)"/><path class="cls-7" d="M154.25,410.82a2.22,2.22,0,0,1-1.13-.27.94.94,0,0,1-.55-.8,1,1,0,0,1,.55-.79,2.58,2.58,0,0,1,2.27,0,1,1,0,0,1,.53.79.94.94,0,0,1-.53.8A2.29,2.29,0,0,1,154.25,410.82Z" transform="translate(-42.33 -87.93)"/><path class="cls-19" d="M155.7,409.75v-1.06h-2.9v1.06h0a.71.71,0,0,0,.43.6,2.25,2.25,0,0,0,2.05,0A.72.72,0,0,0,155.7,409.75Z" transform="translate(-42.33 -87.93)"/><path class="cls-7" d="M155.28,409.29a2.25,2.25,0,0,1-2.05,0,.63.63,0,0,1,0-1.19,2.25,2.25,0,0,1,2.05,0A.63.63,0,0,1,155.28,409.29Z" transform="translate(-42.33 -87.93)"/><polygon class="cls-12" points="94.86 295.12 85.94 289.94 88.48 288.46 97.4 293.65 94.86 295.12"/><polygon class="cls-11" points="89.86 298.03 80.93 292.85 83.47 291.37 92.4 296.56 89.86 298.03"/><polygon class="cls-14" points="109.8 303.81 100.88 298.62 103.42 297.14 112.34 302.33 109.8 303.81"/><polygon class="cls-9" points="104.79 306.72 95.87 301.53 98.41 300.05 107.33 305.24 104.79 306.72"/><polygon class="cls-2" points="125.26 312.79 116.34 307.61 118.88 306.13 127.8 311.32 125.26 312.79"/><polygon class="cls-12" points="143.18 320.7 120.31 333.99 111.33 328.76 134.19 315.48 143.18 320.7"/><polygon class="cls-13" points="138.5 321.53 132.89 318.27 134.49 317.34 140.1 320.6 138.5 321.53"/><polygon class="cls-13" points="135.41 323.32 129.8 320.06 131.4 319.14 137.01 322.39 135.41 323.32"/><polygon class="cls-13" points="132.32 325.12 126.71 321.86 128.31 320.93 133.92 324.19 132.32 325.12"/><polygon class="cls-13" points="129.23 326.92 123.62 323.65 125.22 322.73 130.83 325.99 129.23 326.92"/><polygon class="cls-13" points="126.14 328.71 120.53 325.45 122.13 324.53 127.74 327.78 126.14 328.71"/><polygon class="cls-13" points="123.05 330.51 117.44 327.25 119.04 326.32 124.65 329.58 123.05 330.51"/><polygon class="cls-13" points="119.96 332.31 114.35 329.05 115.94 328.12 121.56 331.38 119.96 332.31"/><polygon class="cls-19" points="120.26 315.7 111.33 310.52 113.87 309.04 122.79 314.23 120.26 315.7"/><path class="cls-19" d="M97.72,310.75a1.4,1.4,0,0,1,1.41.05l7.2-4.23a1.51,1.51,0,0,1,1.37,0L130.92,320a1.54,1.54,0,0,1,1.47,0v1.66h0a.49.49,0,0,1-.33.45L123.79,327a1.59,1.59,0,0,1-1.39.07l-24.46-14.2a.34.34,0,0,1-.22-.33Z" transform="translate(-42.33 -87.93)"/><path class="cls-6" d="M97.94,311.13l24.46,14.19a1.59,1.59,0,0,0,1.39-.07l8.27-4.84c.41-.21.46-.58.09-.79l-24.45-14.2a1.58,1.58,0,0,0-1.37.07L98,310.3C97.63,310.53,97.59,310.91,97.94,311.13Z" transform="translate(-42.33 -87.93)"/><polygon class="cls-23" points="83.38 217.34 83.37 232.5 85.95 231.05 85.95 212.34 84.98 212.8 83.38 217.34"/><polygon class="cls-19" points="64.42 206.33 64.42 221.48 83.37 232.5 83.38 217.34 64.42 206.33"/><polygon class="cls-7" points="66.02 201.8 64.43 206.3 83.38 217.34 84.98 212.8 66.02 201.8"/><polygon class="cls-6" points="66.99 201.33 66.03 201.79 84.98 212.8 85.95 212.34 66.99 201.33"/><path class="cls-19" d="M145.13,320.35v-35.7a2.09,2.09,0,0,0-1-1.67L91.1,252.13a.7.7,0,0,0-.71,0v0l-1.52.92,1.07,1.53.29-1.77v39.34c0,2.1.43,2.85,1,3.17l48,28,4.45-2Z" transform="translate(-42.33 -87.93)"/><path class="cls-19" d="M143,325.38l.36,1.71,1.49-.9h0a.67.67,0,0,0,.29-.63v-5.21l-1.51.88Z" transform="translate(-42.33 -87.93)"/><path class="cls-6" d="M139.6,322.76,89.76,292.63c-.54-.33-1.11-2.72-1.11-3.34V253.58c0-.62.42-.88,1-.57l53.05,30.85a2.18,2.18,0,0,1,1,1.67v35.7C143.62,321.87,140.11,323.05,139.6,322.76Z" transform="translate(-42.33 -87.93)"/><path class="cls-7" d="M142.66,327l-53-30.83a2.19,2.19,0,0,1-1-1.69v-5.21l55,31.94v5.22C143.62,327.09,143.17,327.31,142.66,327Z" transform="translate(-42.33 -87.93)"/><polygon class="cls-19" points="100.03 230.42 100.03 230.87 47.44 200.29 47.44 166.78 47.83 167.02 47.83 200.07 100.03 230.42"/><polygon class="cls-12" points="100.03 197.37 100.03 230.42 47.83 200.07 47.83 167.02 100.03 197.37"/><polygon class="cls-24" points="98.12 226.65 86.62 219.97 86.62 192.49 98.12 199.17 98.12 226.65"/><polygon class="cls-11" points="91.56 201.58 87.76 199.37 87.76 194.96 91.56 197.17 91.56 201.58"/><polygon class="cls-14" points="91.56 208 87.76 205.79 87.76 201.38 91.56 203.59 91.56 208"/><polygon class="cls-12" points="91.56 214.42 87.76 212.21 87.76 207.8 91.56 210 91.56 214.42"/><polygon class="cls-25" points="91.56 220.83 87.76 218.63 87.76 214.22 91.56 216.42 91.56 220.83"/><polygon class="cls-17" points="96.84 204.66 93.06 202.45 93.06 198.04 96.84 200.24 96.84 204.66"/><polygon class="cls-20" points="96.84 211.07 93.06 208.86 93.06 204.45 96.84 206.66 96.84 211.07"/><polygon class="cls-18" points="96.84 217.49 93.06 215.28 93.06 210.87 96.84 213.08 96.84 217.49"/><polygon class="cls-26" points="96.84 223.91 93.06 221.7 93.06 217.29 96.84 219.49 96.84 223.91"/><polygon class="cls-24" points="63.84 207.13 49.63 198.87 49.63 189.81 63.84 198.07 63.84 207.13"/><polygon class="cls-25" points="62.63 204.29 50.83 197.43 50.83 195.84 62.63 202.7 62.63 204.29"/><polygon class="cls-6" points="62.63 201.38 50.83 194.52 50.83 192.93 62.63 199.79 62.63 201.38"/><polygon class="cls-24" points="62.88 193.24 49.63 185.55 49.63 170.52 62.88 178.21 62.88 193.24"/><polygon class="cls-25" points="61.97 183.29 50.53 176.64 50.53 172.83 61.97 179.47 61.97 183.29"/><path class="cls-6" d="M98.25,272.37c0,1.73-1.2,2.43-2.69,1.57a6,6,0,0,1-2.69-4.7c0-1.73,1.2-2.43,2.69-1.56A6,6,0,0,1,98.25,272.37Z" transform="translate(-42.33 -87.93)"/><polygon class="cls-25" points="58.77 189.21 56.75 188.04 56.75 185.52 58.77 186.69 58.77 189.21"/><polygon class="cls-25" points="58.77 185.57 56.75 184.4 56.75 181.88 58.77 183.05 58.77 185.57"/><polygon class="cls-6" points="61.97 191.09 59.96 189.91 59.95 187.39 61.97 188.56 61.97 191.09"/><polygon class="cls-6" points="61.97 187.44 59.96 186.27 59.95 183.75 61.97 184.92 61.97 187.44"/><polygon class="cls-2" points="129.81 350.54 191.33 314.78 191.34 409.26 129.82 445.02 129.81 350.54"/><polygon class="cls-3" points="191.33 314.78 129.81 350.54 118 343.68 179.53 307.92 191.33 314.78"/><polygon class="cls-4" points="118.02 438.16 118 343.68 129.81 350.54 129.82 445.02 118.02 438.16"/><polygon class="cls-4" points="142.57 322.8 142.57 332.42 151.78 337.77 151.78 387.8 168.21 397.36 168.21 337.7 142.57 322.8"/><polygon class="cls-8" points="160.3 347.89 154.58 344.57 154.58 341.39 160.3 344.72 160.3 347.89"/><polygon class="cls-8" points="160.3 356.38 154.58 353.05 154.58 349.88 160.3 353.2 160.3 356.38"/><polygon class="cls-8" points="160.3 364.86 154.58 361.53 154.58 358.36 160.3 361.68 160.3 364.86"/><polygon class="cls-8" points="160.3 373.34 154.58 370.02 154.58 366.84 160.3 370.16 160.3 373.34"/><polygon class="cls-3" points="168.21 337.7 142.57 322.8 167.8 308.12 193.44 323.03 168.21 337.7"/><polygon class="cls-8" points="177.44 322.65 161.88 313.61 167.38 310.42 182.94 319.47 177.44 322.65"/><polygon class="cls-14" points="172.1 317.1 165.06 313.01 167.55 311.57 174.59 315.66 172.1 317.1"/><polygon class="cls-27" points="168.21 397.36 168.21 337.7 193.44 323.03 193.44 382.69 168.21 397.36"/><path class="cls-7" d="M194.93,412.66a4.28,4.28,0,0,1-2.11-.51,1.77,1.77,0,0,1-1-1.47,1.74,1.74,0,0,1,1-1.47,4.74,4.74,0,0,1,4.22,0,1.75,1.75,0,0,1,1,1.47,1.77,1.77,0,0,1-1,1.47A4.28,4.28,0,0,1,194.93,412.66Zm0-3.11a3.41,3.41,0,0,0-1.69.4c-.37.21-.57.47-.57.73s.2.52.57.73a3.9,3.9,0,0,0,3.37,0c.37-.21.57-.47.57-.73s-.2-.52-.57-.73A3.39,3.39,0,0,0,194.93,409.55Z" transform="translate(-42.33 -87.93)"/><path class="cls-20" d="M197.61,410.68v-2.39h-5.37v2.39h0a1.37,1.37,0,0,0,.79,1.1,4.15,4.15,0,0,0,3.79,0A1.35,1.35,0,0,0,197.61,410.68Z" transform="translate(-42.33 -87.93)"/><path class="cls-14" d="M196.82,409.39a4.15,4.15,0,0,1-3.79,0,1.17,1.17,0,0,1,0-2.2,4.15,4.15,0,0,1,3.79,0A1.16,1.16,0,0,1,196.82,409.39Z" transform="translate(-42.33 -87.93)"/><path class="cls-7" d="M202.45,417a4.28,4.28,0,0,1-2.11-.52,1.73,1.73,0,0,1-1-1.47,1.75,1.75,0,0,1,1-1.47,4.74,4.74,0,0,1,4.22,0,1.75,1.75,0,0,1,1,1.47,1.73,1.73,0,0,1-1,1.47A4.28,4.28,0,0,1,202.45,417Zm0-3.12a3.37,3.37,0,0,0-1.68.4c-.37.21-.58.48-.58.73s.21.52.58.73a3.81,3.81,0,0,0,3.36,0c.37-.21.58-.47.58-.73s-.21-.52-.58-.73A3.37,3.37,0,0,0,202.45,413.92Z" transform="translate(-42.33 -87.93)"/><path class="cls-22" d="M205.13,415.05v-2.39h-5.36v2.39h0a1.33,1.33,0,0,0,.78,1.1,4.17,4.17,0,0,0,3.8,0A1.33,1.33,0,0,0,205.13,415.05Z" transform="translate(-42.33 -87.93)"/><path class="cls-21" d="M204.35,413.76a4.17,4.17,0,0,1-3.8,0,1.17,1.17,0,0,1,0-2.2,4.17,4.17,0,0,1,3.8,0A1.16,1.16,0,0,1,204.35,413.76Z" transform="translate(-42.33 -87.93)"/><path class="cls-7" d="M210.07,421.46A4.24,4.24,0,0,1,208,421a1.72,1.72,0,0,1-1-1.47,1.75,1.75,0,0,1,1-1.47,4.72,4.72,0,0,1,4.21,0,1.75,1.75,0,0,1,1,1.47,1.73,1.73,0,0,1-1,1.47A4.28,4.28,0,0,1,210.07,421.46Zm0-3.11a3.37,3.37,0,0,0-1.68.4c-.37.21-.58.48-.58.73s.21.52.58.74a4,4,0,0,0,3.37,0c.36-.22.57-.48.57-.74a1,1,0,0,0-.57-.73A3.43,3.43,0,0,0,210.07,418.35Z" transform="translate(-42.33 -87.93)"/><path class="cls-18" d="M212.75,419.48v-2.39h-5.36v2.39h0a1.33,1.33,0,0,0,.79,1.1,4.15,4.15,0,0,0,3.79,0A1.33,1.33,0,0,0,212.75,419.48Z" transform="translate(-42.33 -87.93)"/><path class="cls-25" d="M212,418.19a4.15,4.15,0,0,1-3.79,0,1.16,1.16,0,0,1,0-2.2,4.15,4.15,0,0,1,3.79,0A1.17,1.17,0,0,1,212,418.19Z" transform="translate(-42.33 -87.93)"/></svg>