<svg id="Layer_1" data-name="Layer 1" xmlns="http://www.w3.org/2000/svg" viewBox="0 0 465.03 410.49"><defs><style>.cls-1,.cls-5{fill:#010101;}.cls-1{opacity:0.3;}.cls-2{fill:#54545a;}.cls-3{fill:#141416;}.cls-4{fill:#313133;}.cls-6{fill:#bdbec0;}.cls-7{fill:#939598;}.cls-8{fill:#3777ab;}.cls-9{fill:#f99c2c;}.cls-10{fill:#ef4f76;}.cls-11{fill:#e21f27;}.cls-12{fill:#4dc1b8;}.cls-13{fill:#1d384e;}.cls-14{fill:#102034;}.cls-15{fill:#fff;}.cls-16{fill:#f6851f;}.cls-17{fill:#2c5f86;}</style></defs><polygon class="cls-1" points="75.43 410.49 0 376.35 383.47 203.32 459.01 237.4 75.43 410.49"/><polygon class="cls-2" points="404.11 271.18 429.08 259.91 322.29 211.72 297.32 222.98 404.11 271.18"/><polygon class="cls-3" points="429.08 259.91 404.11 271.18 404.11 277.28 429.08 266.02 429.08 259.91"/><polygon class="cls-4" points="297.32 229.09 404.11 277.28 404.11 271.18 297.32 222.98 297.32 229.09"/><polygon class="cls-4" points="375.83 124.23 349.75 112.44 349.74 240.44 375.82 252.24 375.83 124.23"/><polygon class="cls-2" points="349.75 112.44 375.83 124.23 386.78 119.29 360.69 107.5 349.75 112.44"/><polygon class="cls-3" points="386.78 247.29 386.78 119.29 375.83 124.23 375.82 252.24 386.78 247.29"/><polygon class="cls-3" points="107.13 288.93 107.13 306.65 366.06 189.81 366.06 172.09 107.13 288.93"/><polygon class="cls-4" points="107.13 306.65 107.13 288.93 101.81 286.52 101.81 304.25 107.13 306.65"/><polygon class="cls-2" points="360.74 169.69 101.81 286.52 107.13 288.93 366.06 172.09 360.74 169.69"/><polygon class="cls-3" points="107.13 314.85 107.13 318.95 366.06 202.11 366.06 198.01 107.13 314.85"/><polygon class="cls-4" points="107.13 318.95 107.13 314.85 101.81 312.45 101.81 316.55 107.13 318.95"/><polygon class="cls-2" points="360.74 195.62 101.81 312.45 107.13 314.85 366.06 198.01 360.74 195.62"/><polygon class="cls-3" points="126.53 362.66 126.53 365.75 364.89 258.19 364.89 255.11 126.53 362.66"/><polygon class="cls-4" points="126.53 365.75 126.53 362.66 112.05 356.1 112.05 359.19 126.53 365.75"/><polygon class="cls-2" points="350.41 248.54 112.05 356.1 126.53 362.66 364.89 255.11 350.41 248.54"/><polygon class="cls-2" points="140.32 390.21 165.28 378.95 58.5 330.75 33.53 342.02 140.32 390.21"/><polygon class="cls-3" points="165.28 378.95 140.32 390.21 140.32 396.31 165.28 385.05 165.28 378.95"/><polygon class="cls-4" points="33.53 348.12 140.32 396.31 140.32 390.21 33.53 342.02 33.53 348.12"/><polygon class="cls-4" points="112.38 243.11 86.3 231.32 86.29 359.32 112.38 371.11 112.38 243.11"/><polygon class="cls-2" points="86.3 231.32 112.38 243.11 123.33 238.17 97.24 226.38 86.3 231.32"/><polygon class="cls-3" points="123.33 366.17 123.33 238.17 112.38 243.11 112.38 371.11 123.33 366.17"/><polygon class="cls-4" points="410.89 98.08 335.46 63.94 335.44 107.83 410.88 141.97 410.89 98.08"/><polygon class="cls-2" points="335.46 63.94 410.89 98.08 459.03 76.35 383.6 42.22 335.46 63.94"/><polygon class="cls-3" points="459.01 120.25 459.03 76.35 410.89 98.08 410.88 141.97 459.01 120.25"/><polygon class="cls-4" points="95.7 215.1 48.15 193.58 48.14 237.48 95.69 259.01 95.7 215.1"/><polygon class="cls-2" points="48.15 193.58 95.7 215.1 383.01 85.46 335.46 63.94 48.15 193.58"/><polygon class="cls-3" points="383 129.36 383.01 85.46 95.7 215.1 95.69 259.01 383 129.36"/><polygon class="cls-4" points="123.58 255.34 95.7 242.72 95.69 259.01 123.57 271.62 123.58 255.34"/><polygon class="cls-5" points="95.7 242.72 123.58 255.34 410.89 125.69 383.01 113.08 95.7 242.72"/><polygon class="cls-3" points="410.88 141.97 410.89 125.69 123.58 255.34 123.57 271.62 410.88 141.97"/><polygon class="cls-4" points="123.58 237.72 95.7 225.1 95.69 235.76 123.57 248.37 123.58 237.72"/><polygon class="cls-6" points="95.7 225.1 123.58 237.72 410.89 108.07 383.01 95.45 95.7 225.1"/><polygon class="cls-7" points="410.88 118.73 410.89 108.07 123.58 237.72 123.57 248.37 410.88 118.73"/><polygon class="cls-4" points="75.44 249.44 0.01 215.3 0 259.2 75.43 293.34 75.44 249.44"/><polygon class="cls-3" points="9.54 256.66 65.91 282.09 65.91 259.58 9.54 234.14 9.54 256.66"/><polygon class="cls-2" points="0.01 215.3 75.44 249.44 123.58 227.72 48.15 193.58 0.01 215.3"/><polygon class="cls-3" points="123.57 271.62 123.58 227.72 75.44 249.44 75.43 293.34 123.57 271.62"/><polygon class="cls-3" points="381.08 34.4 398.25 30.91 407.08 56.09 264.03 120.64 255.22 95.45 267.24 85.55 381.08 34.4"/><polygon class="cls-2" points="398.25 30.91 385.78 25.28 242.74 89.83 255.22 95.45 398.25 30.91"/><polygon class="cls-3" points="242.74 89.83 255.22 95.45 264.03 120.64 240.4 109.97 242.74 89.83"/><polygon class="cls-3" points="238.06 98.94 255.22 95.45 264.04 120.63 29.89 226.29 21.08 201.11 33.11 191.21 238.06 98.94"/><polygon class="cls-7" points="251.75 99.97 258.52 119.3 33.07 221.02 26.3 201.69 251.75 99.97"/><polygon class="cls-2" points="255.22 95.45 242.75 89.83 8.61 195.48 21.08 201.11 255.22 95.45"/><polygon class="cls-4" points="8.61 195.48 21.08 201.11 29.89 226.29 6.26 215.63 8.61 195.48"/><polygon class="cls-8" points="34.6 230.99 47.53 236.84 431.11 63.76 418.18 57.91 34.6 230.99"/><polygon class="cls-4" points="67.73 235.34 56.66 230.34 56.65 239.27 67.73 244.28 67.73 235.34"/><polygon class="cls-2" points="56.66 230.34 67.73 235.34 111.54 215.55 100.47 210.54 56.66 230.34"/><polygon class="cls-3" points="111.53 224.48 111.54 215.55 67.73 235.34 67.73 244.28 111.53 224.48"/><polygon class="cls-4" points="73.3 234.82 73.3 239.75 69.91 241.28 69.91 240.42 72.38 239.31 72.38 235.24 73.3 234.82"/><polygon class="cls-9" points="72.38 235.24 72.38 239.31 69.91 240.42 69.91 236.35 72.38 235.24"/><polygon class="cls-4" points="79.36 232.09 79.36 237.02 75.96 238.54 75.96 237.69 78.44 236.58 78.44 232.5 79.36 232.09"/><polygon class="cls-10" points="78.44 232.5 78.44 236.58 75.96 237.69 75.96 233.61 78.44 232.5"/><polygon class="cls-4" points="85.42 229.36 85.42 234.29 82.02 235.81 82.02 234.96 84.5 233.85 84.5 229.77 85.42 229.36"/><polygon class="cls-11" points="84.5 229.77 84.5 233.85 82.02 234.96 82.02 230.88 84.5 229.77"/><polygon class="cls-4" points="91.47 226.62 91.47 231.55 88.08 233.08 88.08 232.22 90.55 231.11 90.55 227.04 91.47 226.62"/><polygon class="cls-12" points="90.55 227.04 90.55 231.11 88.08 232.22 88.08 228.15 90.55 227.04"/><polygon class="cls-4" points="97.53 223.89 97.53 228.82 94.13 230.34 94.13 229.49 96.61 228.38 96.61 224.31 97.53 223.89"/><polygon class="cls-8" points="96.61 224.31 96.61 228.38 94.13 229.49 94.13 225.42 96.61 224.31"/><polygon class="cls-4" points="103.58 221.16 103.58 226.09 100.19 227.61 100.19 226.76 102.66 225.65 102.66 221.58 103.58 221.16"/><polygon class="cls-13" points="102.66 221.58 102.66 225.65 100.19 226.76 100.19 222.69 102.66 221.58"/><polygon class="cls-4" points="109.64 218.43 109.64 223.36 106.25 224.88 106.25 224.03 108.72 222.91 108.72 218.84 109.64 218.43"/><polygon class="cls-14" points="108.72 218.84 108.72 222.91 106.25 224.03 106.25 219.95 108.72 218.84"/><polygon class="cls-4" points="413.25 80.45 392.2 70.88 392.19 84.12 413.24 93.69 413.25 80.45"/><polygon class="cls-2" points="392.2 70.88 413.25 80.45 449.71 63.99 428.67 54.42 392.2 70.88"/><polygon class="cls-3" points="449.7 77.23 449.71 63.99 413.25 80.45 413.24 93.69 449.7 77.23"/><path class="cls-3" d="M505.36,142.42a2.36,2.36,0,0,0-1.88.05l-9.68-4.4a2.47,2.47,0,0,0-1.83,0l-31.17,14a2.59,2.59,0,0,0-2,0v1.73h0c0,.18.13.36.45.47l11.1,5.05a2.61,2.61,0,0,0,1.86.06l32.85-14.79c.19-.08.28-.19.28-.34Z" transform="translate(-61.01 -81.2)"/><path class="cls-2" d="M505.08,142.81,472.23,157.6a2.56,2.56,0,0,1-1.86-.07l-11.1-5c-.56-.22-.62-.6-.13-.82L492,136.86a2.69,2.69,0,0,1,1.83.08l11.14,5C505.49,142.19,505.54,142.59,505.08,142.81Z" transform="translate(-61.01 -81.2)"/><polygon class="cls-5" points="406.78 55.5 406.8 71.3 403.33 69.79 403.32 50.29 404.63 50.78 406.78 55.5"/><polygon class="cls-3" points="432.24 44.03 432.24 59.82 406.8 71.3 406.78 55.5 432.24 44.03"/><polygon class="cls-4" points="430.08 39.31 432.22 44 406.78 55.5 404.63 50.78 430.08 39.31"/><polygon class="cls-2" points="428.78 38.82 430.08 39.3 404.63 50.78 403.32 50.29 428.78 38.82"/><path class="cls-3" d="M441.72,152.43v-37.2a2.16,2.16,0,0,1,1.31-1.75l71.22-32.15a1.21,1.21,0,0,1,1,0v0l2,1-1.44,1.6L515.42,82v41c0,2.18-.58,3-1.29,3.29l-64.41,29.2-6-2.12Z" transform="translate(-61.01 -81.2)"/><path class="cls-3" d="M444.59,157.68l-.49,1.77-2-.94h0a.66.66,0,0,1-.38-.65v-5.43l2,.92Z" transform="translate(-61.01 -81.2)"/><path class="cls-2" d="M449.14,154.94l66.9-31.4c.73-.34,1.51-2.84,1.51-3.48V82.84c0-.64-.57-.91-1.3-.59L445,114.4a2.23,2.23,0,0,0-1.28,1.73v37.22C443.75,154,448.45,155.25,449.14,154.94Z" transform="translate(-61.01 -81.2)"/><path class="cls-4" d="M445,159.38l71.22-32.14a2.21,2.21,0,0,0,1.3-1.75v-5.43l-73.8,33.29v5.44C443.75,159.45,444.35,159.68,445,159.38Z" transform="translate(-61.01 -81.2)"/><polygon class="cls-3" points="384.42 69.14 384.42 69.6 455.03 37.74 455.03 2.82 454.51 3.06 454.51 37.51 384.42 69.14"/><polygon class="cls-12" points="384.42 34.7 384.42 69.14 454.51 37.51 454.51 3.06 384.42 34.7"/><polygon class="cls-15" points="431.84 38.87 404.41 51.25 404.41 28.84 431.84 16.46 431.84 38.87"/><polygon class="cls-13" points="430.08 38.38 428.01 39.31 428.01 19.59 430.08 18.66 430.08 38.38"/><polygon class="cls-10" points="426.44 40.03 424.38 40.96 424.38 21.25 426.44 20.32 426.44 40.03"/><polygon class="cls-4" points="422.8 41.69 420.74 42.62 420.74 22.9 422.8 21.97 422.8 41.69"/><polygon class="cls-2" points="419.17 43.34 417.1 44.27 417.1 24.56 419.17 23.62 419.17 43.34"/><polygon class="cls-8" points="415.53 44.99 413.46 45.93 413.46 26.2 415.53 25.27 415.53 44.99"/><polygon class="cls-9" points="411.9 46.65 409.83 47.58 409.83 27.86 411.9 26.93 411.9 46.65"/><polygon class="cls-11" points="408.26 48.3 406.19 49.23 406.19 29.51 408.26 28.58 408.26 48.3"/><polygon class="cls-15" points="386.98 65.2 402.42 58.24 402.42 29.61 386.98 36.58 386.98 65.2"/><polygon class="cls-10" points="395.8 39.08 400.89 36.79 400.89 32.19 395.8 34.49 395.8 39.08"/><polygon class="cls-9" points="395.8 45.78 400.89 43.47 400.89 38.88 395.8 41.17 395.8 45.78"/><polygon class="cls-12" points="395.8 52.46 400.89 50.17 400.89 45.56 395.8 47.86 395.8 52.46"/><polygon class="cls-8" points="395.8 59.14 400.89 56.85 400.89 52.25 395.8 54.55 395.8 59.14"/><polygon class="cls-11" points="388.7 42.28 393.79 39.99 393.79 35.39 388.7 37.69 388.7 42.28"/><polygon class="cls-16" points="388.7 48.98 393.79 46.67 393.79 42.07 388.7 44.38 388.7 48.98"/><polygon class="cls-17" points="388.7 55.67 393.79 53.37 393.79 48.77 388.7 51.07 388.7 55.67"/><polygon class="cls-13" points="388.7 62.35 393.79 60.05 393.79 55.46 388.7 57.76 388.7 62.35"/><polygon class="cls-15" points="434.71 43.51 451.88 35.76 451.88 27.27 434.71 35.02 434.71 43.51"/><polygon class="cls-8" points="436.16 40.85 450.43 34.41 450.43 32.92 436.16 39.36 436.16 40.85"/><polygon class="cls-2" points="436.16 38.12 450.43 31.68 450.43 30.19 436.16 36.63 436.16 38.12"/><polygon class="cls-15" points="434.3 30.39 452.09 22.38 452.09 6.7 434.3 14.73 434.3 30.39"/><polygon class="cls-8" points="435.52 20.02 450.88 13.09 450.88 9.11 435.52 16.04 435.52 20.02"/><path class="cls-2" d="M504.65,102.42c0,1.8,1.62,2.54,3.62,1.64s3.61-3.1,3.61-4.9-1.62-2.53-3.61-1.63S504.65,100.62,504.65,102.42Z" transform="translate(-61.01 -81.2)"/><polygon class="cls-8" points="439.83 26.19 442.53 24.97 442.53 22.34 439.83 23.57 439.83 26.19"/><polygon class="cls-8" points="439.83 22.4 442.53 21.18 442.53 18.55 439.83 19.77 439.83 22.4"/><polygon class="cls-2" points="435.52 28.15 438.23 26.92 438.23 24.3 435.52 25.52 435.52 28.15"/><polygon class="cls-2" points="435.52 24.35 438.23 23.13 438.23 20.5 435.52 21.73 435.52 24.35"/><path class="cls-15" d="M498.31,222a125.88,125.88,0,0,0-27.2-21.68L184.59,329.57V331l285-128.59c6.59,3.84,53,32.67,53.42,83.41L237.23,414.72c-.69-28.25-15.36-49.48-27.72-62.43A129.61,129.61,0,0,0,184.59,332v3.1a129.67,129.67,0,0,1,22.54,18.74c12.34,12.95,27.05,34.4,27.05,63v2.08L525.28,287.5l.77-.35v-.69C526.05,257.18,511,235.23,498.31,222Z" transform="translate(-61.01 -81.2)"/><path class="cls-9" d="M209.73,318.23l-25.14,11.34v3.94c12.37,7.84,51.13,36.17,51.13,83.27l28.88-13C264.6,347.71,209.73,318.23,209.73,318.23Z" transform="translate(-61.01 -81.2)"/><path class="cls-10" d="M209.73,318.23s54.87,29.48,54.87,85.52l28.87-13c0-56.05-54.86-85.52-54.86-85.52Z" transform="translate(-61.01 -81.2)"/><path class="cls-11" d="M238.61,305.2s54.86,29.47,54.86,85.52l28.88-13c0-56.05-54.86-85.52-54.86-85.52Z" transform="translate(-61.01 -81.2)"/><path class="cls-12" d="M267.49,292.17s54.86,29.47,54.86,85.52l28.88-13c0-56-54.86-85.52-54.86-85.52Z" transform="translate(-61.01 -81.2)"/><path class="cls-8" d="M296.37,279.13s54.86,29.48,54.86,85.52l28.89-13c0-56-54.87-85.51-54.87-85.51Z" transform="translate(-61.01 -81.2)"/><path class="cls-13" d="M325.24,266.11s54.88,29.47,54.88,85.51l28.88-13c0-56-54.87-85.52-54.87-85.52Z" transform="translate(-61.01 -81.2)"/><path class="cls-14" d="M354.12,253.07S409,282.55,409,338.59l28.87-13c0-56-54.86-85.52-54.86-85.52Z" transform="translate(-61.01 -81.2)"/><path class="cls-7" d="M383,240s54.86,29.48,54.86,85.52l28.88-13c0-56-54.86-85.52-54.86-85.52Z" transform="translate(-61.01 -81.2)"/><path class="cls-4" d="M411.89,227s54.86,29.47,54.86,85.52l28.89-13c0-56.05-54.87-85.52-54.87-85.52Z" transform="translate(-61.01 -81.2)"/><path class="cls-3" d="M440.77,214s54.87,29.47,54.87,85.52l28.87-13c0-56-54.86-85.52-54.86-85.52Z" transform="translate(-61.01 -81.2)"/></svg>