<svg id="OBJECTS" xmlns="http://www.w3.org/2000/svg" viewBox="0 0 516.1 282.27"><defs><style>.cls-1{fill:#fec372;}.cls-2{fill:#333;}.cls-3{fill:#c1845b;}.cls-4{fill:#dd9666;}.cls-5{fill:#a6714d;}.cls-6{opacity:0.18;}.cls-7{fill:#553e89;}.cls-8{fill:#7765a1;}.cls-9{fill:#201834;}.cls-10{fill:#30234d;}.cls-11{fill:#fd84c2;}.cls-12{fill:#feb5da;}.cls-13{fill:#7f4261;}.cls-14{fill:#402131;}.cls-15{fill:#201018;}.cls-16{fill:#fedbaa;}.cls-17{fill:#bf9256;}.cls-18{fill:#483721;}.cls-19{fill:#8f6e41;}.cls-20{fill:#d331b5;}.cls-21{fill:#e583d3;}.cls-22{fill:#9e2588;}.cls-23{fill:#350d2e;}.cls-24{fill:#6a195b;}.cls-25{fill:#dc5ac4;}.cls-26{fill:#c7a1c9;}.cls-27{fill:#efd5ef;}.cls-28{fill:#ffeafe;}.cls-29{fill:#9fabee;}.cls-30{fill:#c5cdf5;}.cls-31{fill:#6165a0;}.cls-32{fill:#dce1f9;}.cls-33{fill:#fff;}.cls-34{fill:#8186d5;}.cls-35{fill:#eaedfb;}</style></defs><path class="cls-1" d="M348.43,185.33s2,2.56,6.59-.36,4.75-10.34,3.37-13.87-1.69-3.71-1.69-3.71Z" transform="translate(-69.22 -113.73)"/><path class="cls-2" d="M318.62,185.33s-4.45,1.59-4.76-6,2.15-13.08-.61-20.33-3.68-22.44,3.53-25.63,14.4,1.95,15,6.37,2.91,19.19,2.91,19.19Z" transform="translate(-69.22 -113.73)"/><path class="cls-3" d="M323.52,156.25s1.69,4.86,1.69,5.48,2.6.44,2.6.44l2.91-3.09-1.38-6Z" transform="translate(-69.22 -113.73)"/><path class="cls-4" d="M318.62,152.1s-3.84,1.5-4.37-1.06,3.83-1.95,3.83-1.95l-2.53-6.54,7-6.18,7.9,5.12-.08,2.3S333.1,155,327.81,157,318.62,152.1,318.62,152.1Z" transform="translate(-69.22 -113.73)"/><path class="cls-2" d="M323.21,139.55s-.38,6.36-4.82,9.54l-3.15-1.41-1.84-5.92,7.21-5.83,1.61-.53A12.74,12.74,0,0,1,323.21,139.55Z" transform="translate(-69.22 -113.73)"/><path class="cls-2" d="M330.34,143.79s-5.9-.79-7.13-4.24-.76-5.13-.76-5.13l6.82,3.45,1.91,2.83Z" transform="translate(-69.22 -113.73)"/><path class="cls-5" d="M325.44,147.77l.84,3.36a1.06,1.06,0,0,0,1.3-.71l-1.38-3S325.44,147.06,325.44,147.77Z" transform="translate(-69.22 -113.73)"/><path class="cls-1" d="M325.13,161.07a8,8,0,0,0,5.59-2l4.41,2.39,10.81,12.59s3.33,18.16.92,24.92c-2.92,8.15-28.17,1.46-28.17,1.46S316.05,190,317,183.6s-2.65-9.81,1.38-15.51S325.13,161.07,325.13,161.07Z" transform="translate(-69.22 -113.73)"/><path class="cls-6" d="M325.74,167.48s-3.75.79-4.14,6.09-.84,14.32.08,17.41,1.61,8.4,5.52,9.1,14.25,1.59,16.32-.44,2.61-8.66,2.68-10.16-7.2-19.71-7.2-19.71S334.86,164.82,325.74,167.48Z" transform="translate(-69.22 -113.73)"/><polygon class="cls-7" points="281.52 4.86 270.4 81.4 261.28 80.52 264.82 20.36 265.84 3.11 281.52 4.86"/><path class="cls-8" d="M343.22,113.82c4.34.49,7.69,2.73,7.5,5s-3.86,3.74-8.19,3.26-7.69-2.72-7.5-5S338.89,113.34,343.22,113.82Z" transform="translate(-69.22 -113.73)"/><path class="cls-7" d="M343.17,114.51c3.61.4,6.41,2.27,6.25,4.18s-3.22,3.12-6.83,2.71-6.41-2.27-6.25-4.17S339.56,114.11,343.17,114.51Z" transform="translate(-69.22 -113.73)"/><path class="cls-9" d="M343,116.36c1.68.19,3,1,2.9,1.94s-1.49,1.44-3.17,1.26-3-1.06-2.89-1.94S341.34,116.17,343,116.36Z" transform="translate(-69.22 -113.73)"/><path class="cls-10" d="M345.65,121.35l.26-3,0-.25h-.05a.69.69,0,0,1,0,.25c-.08.88-1.49,1.44-3.17,1.26s-3-1.06-2.89-1.94l-.26,3A11.94,11.94,0,0,0,345.65,121.35Z" transform="translate(-69.22 -113.73)"/><polygon class="cls-11" points="304.2 27.21 288.15 56.78 285.07 62.46 282.42 67.35 271.78 86.97 260.57 80.25 283.04 31.45 289.49 17.46 304.2 27.21"/><path class="cls-6" d="M361.76,162.35l-7.47,13.85-2.65,4.88a24.32,24.32,0,0,0-.91-5.12c-.69-2-2-2.65-2.07-4.33s-.45-3.72.38-4.42c3.22-2.74.12-2.65,2.49-3.18.86-.19,2.9,2,4.56,1.77.26-.05,2.27-1.55,2.53-1.59C361.31,163.78,361.76,162.35,361.76,162.35Z" transform="translate(-69.22 -113.73)"/><path class="cls-12" d="M367.61,133c4.06,2.69,6.62,6.35,5.71,8.17s-4.94,1.12-9-1.57-6.62-6.35-5.71-8.18S363.54,130.27,367.61,133Z" transform="translate(-69.22 -113.73)"/><path class="cls-13" d="M367.33,133.51c3.39,2.24,5.52,5.29,4.77,6.81s-4.12.93-7.51-1.31-5.52-5.3-4.76-6.82S364,131.26,367.33,133.51Z" transform="translate(-69.22 -113.73)"/><path class="cls-13" d="M363.12,134.37c-.35.71.64,2.12,2.21,3.16s3.13,1.32,3.48.61" transform="translate(-69.22 -113.73)"/><path class="cls-14" d="M367.59,140.58l1.22-2.44h0l-5.69-3.77-1.21,2.44A16.18,16.18,0,0,0,367.59,140.58Z" transform="translate(-69.22 -113.73)"/><path class="cls-4" d="M334,170.21s-.31-6.09.31-8,.53-3.09,1.07-3,.54.71.38,1.5-.61,2.3,0,2.3,1-6.36,1.76-7.6,1.69-1.06,2.61-.62.77,5.13.23,7.33-2.61,9.64-2.61,9.64l-1.91.26Z" transform="translate(-69.22 -113.73)"/><path class="cls-1" d="M333.56,169.68a71.15,71.15,0,0,0-4.68,8.58s-2.22-6.37-4.75-7.78-4.21-2.92-6.66-1.24-3.45,9.63-1.23,14.58,8.81,10.87,11.34,12.11,8.28,1.41,9.35-3.27,2.68-18.56,2.15-20.41-.92-1.33-.92-1.33S333.87,171.27,333.56,169.68Z" transform="translate(-69.22 -113.73)"/><path class="cls-4" d="M354.63,174.63a10.3,10.3,0,0,1-2.22-2.21c-1.45-1.76-3.68-4-3.91-5.12a3.23,3.23,0,0,1,1.15-2.92c.54-.17,2.69.27,4.45,2s1.91,2.3,2.3,2,.07-1.77.69-2.48,1-.35.84.44a22.19,22.19,0,0,0-.23,2.92c0,.53.92,2,0,3.71S355.55,175.25,354.63,174.63Z" transform="translate(-69.22 -113.73)"/><path class="cls-15" d="M366.6,135c1.57,1,2.56,2.46,2.21,3.16s-1.91.43-3.48-.61-2.56-2.45-2.21-3.16S365,133.94,366.6,135Z" transform="translate(-69.22 -113.73)"/><polygon class="cls-1" points="511.19 224.43 413.87 224.43 413.87 201.32 489.51 198.85 511.19 198.14 511.19 224.43"/><path class="cls-16" d="M585.31,325c0,7.26-2.33,13.14-5.21,13.14s-5.21-5.88-5.21-13.14,2.33-13.15,5.21-13.15S585.31,317.76,585.31,325Z" transform="translate(-69.22 -113.73)"/><path class="cls-17" d="M584.45,325c0,6.05-2,11-4.35,11s-4.34-4.91-4.34-11,1.94-11,4.34-11S584.45,319,584.45,325Z" transform="translate(-69.22 -113.73)"/><path class="cls-18" d="M582.12,325c0,2.8-.9,5.08-2,5.08s-2-2.28-2-5.08.9-5.08,2-5.08S582.12,322.21,582.12,325Z" transform="translate(-69.22 -113.73)"/><path class="cls-19" d="M576.26,319.94h3.84c-1.11,0-2,2.27-2,5.08s.9,5.08,2,5.08a.84.84,0,0,0,.31-.08v.08h-4.15A28.74,28.74,0,0,1,576.26,319.94Z" transform="translate(-69.22 -113.73)"/><path class="cls-6" d="M580.41,311.87s-8.74,2.19-7.8,16.18l-87.82,2.05v-12l75.64-2.47,20-3.74" transform="translate(-69.22 -113.73)"/><path class="cls-16" d="M580.1,311.87s-8,2.19-9.19,13.15l-87.82,2.05v-12l75.64-2.47,21.68-.71" transform="translate(-69.22 -113.73)"/><polygon class="cls-20" points="502.64 194.61 398.74 210.68 395.87 186 476.31 170.88 499.37 166.54 502.64 194.61"/><path class="cls-21" d="M575.46,293.5c.9,7.75-.86,14.42-3.93,14.89s-6.3-5.42-7.2-13.17.86-14.42,3.93-14.9S574.56,285.74,575.46,293.5Z" transform="translate(-69.22 -113.73)"/><path class="cls-22" d="M574.53,293.64c.75,6.46-.71,12-3.27,12.42s-5.25-4.52-6-11,.71-12,3.27-12.41S573.78,287.18,574.53,293.64Z" transform="translate(-69.22 -113.73)"/><path class="cls-23" d="M572,294c.35,3-.33,5.58-1.51,5.76s-2.44-2.1-2.78-5.09.33-5.57,1.51-5.76S571.7,291,572,294Z" transform="translate(-69.22 -113.73)"/><path class="cls-24" d="M566.42,300.41l4.11-.63.32,0v-.08a1.2,1.2,0,0,1-.31.13c-1.19.18-2.44-2.1-2.78-5.09s.33-5.57,1.51-5.76l-4.1.64S564.76,296.42,566.42,300.41Z" transform="translate(-69.22 -113.73)"/><path class="cls-6" d="M568.59,280.27s-9.06,3.78-6.31,18.56l-93.5,16.69-1.5-12.83,80.45-15.13,20.86-7.29" transform="translate(-69.22 -113.73)"/><path class="cls-25" d="M568.26,280.32s-8.32,3.66-8.18,15.55l-93.5,16.69-1.49-12.82,80.44-15.13,23.06-4.34" transform="translate(-69.22 -113.73)"/><rect class="cls-26" x="304.58" y="57.81" width="171.82" height="110.82"/><polygon class="cls-27" points="476.45 185.08 304.58 185.08 304.58 76.54 344.13 74.42 304.58 72.65 304.58 64.17 364.97 62.72 304.58 60.72 304.58 55.16 476.45 55.16 476.45 76.89 384.48 79.37 476.45 81.4 476.45 157.31 436.9 159.61 476.45 162.26 476.45 185.08"/><polygon class="cls-26" points="476.45 55.16 304.58 55.16 322.97 37.66 458.06 37.66 476.45 55.16"/><polygon class="cls-26" points="218.01 222.2 27.75 222.2 27.75 93.69 47.69 74.77 218.01 74.77 218.01 222.2"/><polygon class="cls-27" points="199.62 232.8 27.75 232.8 27.75 113.66 67.29 111.54 27.75 109.77 27.75 92.27 199.62 92.27 199.62 194.43 160.07 196.73 199.62 199.38 199.62 232.8"/><polygon class="cls-28" points="199.62 92.27 27.75 92.27 46.14 74.78 218.01 74.78 199.62 92.27"/><polygon class="cls-28" points="215.22 43.66 136.28 43.66 127.08 55.16 208.78 55.16 215.22 43.66"/><polygon class="cls-26" points="215.22 43.66 208.78 55.16 179.96 64.7 208.78 79.37 215.22 75.13 215.22 43.66"/><polygon class="cls-27" points="208.78 79.37 127.08 79.37 127.08 55.16 208.78 55.16 208.78 64.57 181.19 65.63 208.78 66.2 208.78 79.37"/><polygon class="cls-11" points="94.17 123.58 117.91 233.12 98.35 238.75 77.8 154.22 71.91 129.99 94.17 123.58"/><path class="cls-12" d="M151.06,235c6.15-1.77,11.7-.58,12.4,2.66s-3.71,7.3-9.86,9.07-11.69.58-12.4-2.66S144.92,236.77,151.06,235Z" transform="translate(-69.22 -113.73)"/><path class="cls-13" d="M151.27,236c5.13-1.47,9.75-.48,10.34,2.22s-3.09,6.09-8.22,7.56-9.75.49-10.33-2.21S146.15,237.45,151.27,236Z" transform="translate(-69.22 -113.73)"/><path class="cls-15" d="M151.84,238.6c2.38-.69,4.52-.23,4.79,1s-1.43,2.82-3.81,3.51-4.52.22-4.79-1S149.47,239.28,151.84,238.6Z" transform="translate(-69.22 -113.73)"/><path class="cls-14" d="M157.57,244l-.94-4.33-.07-.34-.07,0a1,1,0,0,1,.14.32c.27,1.25-1.43,2.82-3.81,3.51s-4.52.22-4.79-1l.94,4.33A17.58,17.58,0,0,0,157.57,244Z" transform="translate(-69.22 -113.73)"/><path class="cls-6" d="M141.13,243.72s4,9.3,15.59,4.83l23.16,98.34-10.17,2.94-20.54-84.54-8-21.57" transform="translate(-69.22 -113.73)"/><path class="cls-12" d="M141.2,244.07s3.82,8.52,13.38,7.14l23.15,98.34-10.17,2.94L147,268l-5.89-24.23" transform="translate(-69.22 -113.73)"/><polygon class="cls-20" points="18.42 140.89 131.82 201.34 117.03 238.21 27.32 195.17 1.61 182.83 18.42 140.89"/><ellipse class="cls-21" cx="79.59" cy="275.78" rx="22.61" ry="6.84" transform="translate(-275.52 136.42) rotate(-68.78)"/><path class="cls-22" d="M74.53,273.09c3.87-9.66,9.27-16.28,12.07-14.79s1.92,10.53-1.95,20.18-9.28,16.28-12.07,14.79S70.66,282.74,74.53,273.09Z" transform="translate(-69.22 -113.73)"/><path class="cls-23" d="M77.24,274.53c1.8-4.47,4.3-7.54,5.6-6.85s.89,4.88-.9,9.35-4.3,7.55-5.6,6.86S75.45,279,77.24,274.53Z" transform="translate(-69.22 -113.73)"/><path class="cls-24" d="M87.32,270.07l-4.48-2.39-.36-.19,0,.12a1.1,1.1,0,0,1,.41.07c1.29.69.89,4.88-.9,9.35s-4.3,7.55-5.6,6.86l4.48,2.39A61.91,61.91,0,0,0,87.32,270.07Z" transform="translate(-69.22 -113.73)"/><path class="cls-6" d="M70.82,296.56s11.58,1.94,19.43-20.95l103.63,51.27-7.68,19.17L96.49,303l-25.67-6.45" transform="translate(-69.22 -113.73)"/><path class="cls-25" d="M71.18,296.75S82,298.26,90.3,281.5l103.64,51.27-7.69,19.17-89.71-43L70.82,296.56" transform="translate(-69.22 -113.73)"/><path class="cls-2" d="M149.71,336.26a142.34,142.34,0,0,0-4.6,14.14c-1.23,5.3,1.07,8.48,4.14,11.49s13.33,12.37,13.79,12.9,7.36-3.18,7.36-3.18-4.29-6.89-5.06-9-4.91-8.13-4.75-9.72a7.93,7.93,0,0,1,1.53-3.36s.92,1.94,3.37,6.54,3.07,7.77,4.75,9.54,8.89,9.19,9.35,9.37,5.68-.71,5.37-2.65-5.37-9.37-5.37-13.08a71.35,71.35,0,0,0-3.37-18.91c-2.14-6-6-8.31-6-8.31Z" transform="translate(-69.22 -113.73)"/><path class="cls-1" d="M145.72,328.84a10.41,10.41,0,0,1,2.15,2.83c1.07,1.94.92,4.59,1.53,5.48s15.48-.89,18.85-2.66,2-2.47,2-2.47a13.69,13.69,0,0,0,.16-3.36c-.16-1.77-2.61-5.83-3.53-8.13s-2.45-8.3-2.45-8.3,2.76-.36,4.75-.54,5.37,4.25,6.59,6,2.91-.35,2.91-.35a4.75,4.75,0,0,0,1.84-4.42c-.3-3-7.35-12-9.5-12.72S160.13,299,156.76,300s-4.3,3.53-4.76,3.89c-.25.2-3.6,1.65-6.68,3.12-2.44,1.17-4.71,2.34-5.12,2.89-.92,1.23-3.68,8.83-3.06,21.74s2.76,16.79,4.29,19.44,7.36,11.49,10.57,11.66,4.6-5.12,4.6-5.12-6.13-12.9-8.27-15.73S145.72,328.84,145.72,328.84Z" transform="translate(-69.22 -113.73)"/><path class="cls-6" d="M156.76,300c-3.38,1.06-4.3,3.53-4.76,3.89-.25.2-3.6,1.65-6.68,3.12,0,0-3.89,4.68,1.11,4.28s6.49-1.59,7.93-3.31,2.13-2,2.42-3.85A17.53,17.53,0,0,0,156.76,300Z" transform="translate(-69.22 -113.73)"/><path class="cls-6" d="M166.87,320.53c.92,2.3,3.37,6.36,3.53,8.13a13.69,13.69,0,0,1-.16,3.36s1.38.71-2,2.47S150,338,149.4,337.15s-.46-3.54-1.53-5.48a10.41,10.41,0,0,0-2.15-2.83s.2-3.08.13-4.07,0-2.51,0-2.51,1,5.44,1.9,6.69,3.22,4.57,4.48,4.7,15.41-.53,15.29-3.84S166.87,320.53,166.87,320.53Z" transform="translate(-69.22 -113.73)"/><path class="cls-3" d="M150.62,299.26s3.4,3.64,4.14,4.17-4.88,5.17-4.88,5.17l-2.82-2.85-1.21-.06Z" transform="translate(-69.22 -113.73)"/><path class="cls-4" d="M148.4,289.6s.5-2.47,1.88-1.41-.52,4.7-.92,5.3S148,293,148,293l-.75-1.92.29-1.79Z" transform="translate(-69.22 -113.73)"/><path class="cls-4" d="M135.45,298.53s2,2.65,3.07,4a7.61,7.61,0,0,0,3.67,2.48c.92.18,3.53-.8,3.53-.8l2-4.41.16-4.34s.46-1.06.3-1.5a27.51,27.51,0,0,0-2.76-2.91l-2.83-2.92-3.14,3.18Z" transform="translate(-69.22 -113.73)"/><path class="cls-2" d="M138.21,303a5.87,5.87,0,0,0,3,4.5c2.83,1.59,5,1.42,5.82,1.15a6.69,6.69,0,0,0,3.68-2.91c.84-1.68.69-4,.54-6.19a14.61,14.61,0,0,0-.84-4.42c-.31-.62-1.92-2-2.23-2.91s-.46-2.3.23-2.57c0,0-2.6-4.24-4.75-5s-6.44-.09-7.66,1.06a11.61,11.61,0,0,0-3.53,5.56c-.46,2.3.39,7.16,2.53,8s6.29-1.85,7.43-3.8a10.25,10.25,0,0,0,.92-5,6.42,6.42,0,0,0,1.69,1.68,2.11,2.11,0,0,0,1.46.26,1.39,1.39,0,0,1,.76.71,13.53,13.53,0,0,1,.16,5.12c-.39,1.51-.46,3.19-2.23,4.6a4.18,4.18,0,0,1-4.82.62,8.58,8.58,0,0,1-2.23-1.5l-.38-.27A5.45,5.45,0,0,1,138.21,303Z" transform="translate(-69.22 -113.73)"/><path class="cls-5" d="M141.9,299.78l1.3,2.52s1.3.16,1.37-.94l-1.78-2.53S141.56,298.51,141.9,299.78Z" transform="translate(-69.22 -113.73)"/><path class="cls-2" d="M170.51,375.85s.71,4.58.35,5.57c-.31.84-.5.88-.5.88l-2.44.06a.35.35,0,0,1-.32-.31c-.07-.38-.22-1-.54-.9A21.94,21.94,0,0,1,161,383.8c-3.45.8-7,1.6-7.24.54s-2.07-.93,1.61-2.66,8.28-4.5,9.54-6.09S170.51,375.85,170.51,375.85Z" transform="translate(-69.22 -113.73)"/><path class="cls-2" d="M180.05,372.41s-.23,3.18.23,4,2.3,4.24,2.88,4.91,2.18.92,2.41.13a14.19,14.19,0,0,0-.23-4.77c-.34-2.12-.8-5.17-.8-5.17S181,370.42,180.05,372.41Z" transform="translate(-69.22 -113.73)"/><rect class="cls-29" x="110.22" y="162.08" width="320.81" height="88.24"/><rect class="cls-30" x="117.89" y="169.15" width="305.33" height="11.31"/><rect class="cls-31" x="121.87" y="171.98" width="298.21" height="4.24"/><polygon class="cls-30" points="431.04 162.08 110.22 162.08 151.61 85.4 431.18 85.4 431.04 162.08"/><polygon class="cls-29" points="285.84 150.71 139.04 150.71 165.84 92.53 292.92 92.53 285.84 150.71"/><polygon class="cls-32" points="281.3 145.84 146.34 145.84 169.64 97.4 287.46 97.4 281.3 145.84"/><rect class="cls-33" x="164.93" y="106.13" width="121.28" height="2.12"/><rect class="cls-33" x="160.8" y="114.71" width="124.32" height="2.12"/><rect class="cls-31" x="139.04" y="150.71" width="146.79" height="4.47"/><polygon class="cls-34" points="285.83 150.71 292.92 92.53 292.92 105.53 285.83 155.17 285.83 150.71"/><polygon class="cls-29" points="305.8 92.53 304.58 108.36 321.9 108.36 322.82 92.53 305.8 92.53"/><rect class="cls-31" x="304.58" y="108.35" width="17.32" height="3.89"/><polygon class="cls-29" points="396.86 92.53 395.63 108.36 412.95 108.36 413.87 92.53 396.86 92.53"/><rect class="cls-31" x="395.63" y="108.35" width="17.32" height="3.89"/><polygon class="cls-29" points="329.03 92.53 327.57 108.36 335.23 108.36 335.23 92.53 329.03 92.53"/><rect class="cls-31" x="327.57" y="108.35" width="7.66" height="3.89"/><polygon class="cls-29" points="340.07 92.53 338.61 108.36 346.27 108.36 346.27 92.53 340.07 92.53"/><rect class="cls-31" x="338.61" y="108.35" width="7.66" height="3.89"/><polygon class="cls-35" points="302.79 135.46 301.32 151.28 322.05 151.28 322.05 135.46 302.79 135.46"/><rect class="cls-31" x="301.32" y="151.28" width="20.73" height="3.89"/><polygon class="cls-29" points="327.01 135.73 326.96 151.28 346.27 151.3 346.27 135.73 327.01 135.73"/><rect class="cls-31" x="326.96" y="151.29" width="19.31" height="3.89"/><polygon class="cls-29" points="304.38 120.11 303.05 129.68 321.9 129.68 321.9 120.11 304.38 120.11"/><rect class="cls-31" x="303.05" y="129.68" width="18.85" height="2.35"/><polygon class="cls-29" points="327.47 120.11 326.96 129.68 346.27 129.68 346.27 120.11 327.47 120.11"/><rect class="cls-31" x="326.96" y="129.68" width="19.31" height="2.35"/><polygon class="cls-29" points="395.06 135.73 395.02 151.28 414.33 151.3 414.33 135.73 395.06 135.73"/><rect class="cls-31" x="395.02" y="151.29" width="19.31" height="3.89"/><polygon class="cls-35" points="395.53 120.11 395.02 129.68 414.33 129.68 414.33 120.11 395.53 120.11"/><rect class="cls-31" x="395.02" y="129.68" width="19.31" height="2.35"/><polygon class="cls-31" points="431.04 250.33 431.04 162.08 431.18 85.4 440.38 215.81 431.04 250.33"/><polygon class="cls-35" points="369.19 108.36 355.46 108.36 356.38 92.53 370.11 92.53 369.19 108.36"/><rect class="cls-31" x="355.47" y="108.35" width="13.72" height="3.89"/><path class="cls-29" d="M433.65,217.78l-4.75-3.14a.56.56,0,0,1-.23-.47.56.56,0,0,1,.23-.46l4.76-3,.44.92-4,2.59,4.05,2.68Z" transform="translate(-69.22 -113.73)"/><polygon class="cls-35" points="372.94 108.36 386.66 108.36 387.58 92.53 373.86 92.53 372.94 108.36"/><rect class="cls-31" x="442.16" y="222.09" width="13.72" height="3.89" transform="translate(828.82 334.33) rotate(180)"/><path class="cls-29" d="M446.91,217.78l-.46-.92,4.05-2.68-4-2.59.45-.92,4.75,3a.56.56,0,0,1,.23.46.53.53,0,0,1-.23.47Z" transform="translate(-69.22 -113.73)"/><polygon class="cls-35" points="369.19 132.75 355.46 132.75 356.38 116.92 370.11 116.92 369.19 132.75"/><rect class="cls-31" x="355.47" y="132.75" width="13.72" height="3.89"/><path class="cls-29" d="M429.22,241.62l-.8-.53,2.72-5.48a.48.48,0,0,1,.4-.27h0a.47.47,0,0,1,.39.28l2.65,5.48-.81.51L431.54,237Z" transform="translate(-69.22 -113.73)"/><polygon class="cls-35" points="372.94 132.75 386.66 132.75 387.58 116.92 373.86 116.92 372.94 132.75"/><rect class="cls-31" x="442.16" y="246.48" width="13.72" height="3.89" transform="translate(828.82 383.11) rotate(180)"/><path class="cls-29" d="M449.1,241.88a.45.45,0,0,1-.4-.26L446,236.14l.8-.53,2.31,4.67,2.25-4.66.8.51-2.64,5.48a.44.44,0,0,1-.4.27Z" transform="translate(-69.22 -113.73)"/><rect class="cls-29" x="355.47" y="143.52" width="13.72" height="7.19"/><rect class="cls-31" x="355.47" y="150.71" width="13.72" height="4.47"/><rect class="cls-29" x="372.94" y="143.52" width="13.72" height="7.19"/><rect class="cls-31" x="372.94" y="150.71" width="13.72" height="4.47"/><polygon class="cls-33" points="187.25 146.34 184.63 145.34 198.43 96.9 201.05 97.89 187.25 146.34"/><path class="cls-33" d="M485.86,287.66s-21.17,7.24-23.46,39.41-24.82,50.2-24.82,50.2h-287s22.54-18,24.83-50.2,23.46-39.41,23.46-39.41Z" transform="translate(-69.22 -113.73)"/><path class="cls-4" d="M179.13,309.75a5.46,5.46,0,0,0-3.06,5.13c.15,3.71.46,3.71.46,3.71s.73-4.66,1.34-5,5,1.26,5.58.2-.22-.86-1.44-1.39-1.34-3.16-2.88-2.63" transform="translate(-69.22 -113.73)"/><path class="cls-4" d="M153.5,362.22s3.16,6.36,4.88,7.56,2.53,2.18,3.28,1.79,1.9-.93,1.55-2-1.84-3.52-1.84-4.11-.86-1.79-.57-2.19,1.67.4,1.67.4l.86-1.26S161,360.3,159.65,360s-4.08-1.33-4.08-1.33Z" transform="translate(-69.22 -113.73)"/><path class="cls-3" d="M487.34,227.35a31.17,31.17,0,0,1,2.87,4.1c.23.8,3.57-.39,3.8-1.59s-3.68-4.77-3.68-4.77Z" transform="translate(-69.22 -113.73)"/><path class="cls-4" d="M481,217.54s.46,5.83,2.07,8.75,6.33,1.45,7.25.79,1-5.57,1-5.57l1.27-6.49-6.21-3.32S480.78,212.37,481,217.54Z" transform="translate(-69.22 -113.73)"/><path class="cls-4" d="M505.16,330.43s.1,2.23.33,5.61c.34,4.91,1,12.22,2,18.6,1.69,10.78,5.37,24.22,5.37,24.22l3.37-1.06.15-1.06s.31-26-.61-33.76c-.53-4.5-1.16-7.64-1.6-9.86a20.43,20.43,0,0,1-.54-3.57C513.59,327.6,505.16,330.43,505.16,330.43Z" transform="translate(-69.22 -113.73)"/><path class="cls-6" d="M514.13,333.12a20.43,20.43,0,0,1-.54-3.57c0-1.95-8.43.88-8.43.88s.1,2.23.33,5.61c0,0,5.07.13,8.06-2.39Z" transform="translate(-69.22 -113.73)"/><path class="cls-4" d="M515.12,328.66s.42,1.36,1.2,3.64c2.49,7.24,8.61,23.81,16.43,35.77H535l.77-3s-4.75-10.78-5.36-16.44-3.68-16.61-7.36-21.56-2.91-5.12-2.91-5.12l-4.91,4.94Z" transform="translate(-69.22 -113.73)"/><path class="cls-6" d="M523.09,327.07c-3.68-4.95-2.91-5.12-2.91-5.12l-4.91,4.94-.15,1.77s.42,1.36,1.2,3.64a13.18,13.18,0,0,0,6.46-4.7Z" transform="translate(-69.22 -113.73)"/><path class="cls-2" d="M512.05,377.62s-.15,11-1.68,12.9-3.68,2.3-4.45,3-.92,2.47,0,2.47,5.06-.18,7.21-1.59,2.3-4.6,2.6-6.19,3.37-1.06,4-2.29,1.07-1.42.15-3.54L517,375.67S513.74,378.15,512.05,377.62Z" transform="translate(-69.22 -113.73)"/><path class="cls-2" d="M532.29,366.66a41.46,41.46,0,0,1-1.08,9.19c-1.07,3.89-2.6,4.07-2.6,5.13s-.92,2.65,1.22,2.29,4.29-.7,6-2.12,1.53-6,1.69-7.07.15-.17,1.22-.88a3.56,3.56,0,0,0,1.69-3.71c-.31-1.77-4.91-5.66-4.91-5.66S534.43,366.31,532.29,366.66Z" transform="translate(-69.22 -113.73)"/><path class="cls-35" d="M495.73,270.16s0,19.09,2.3,32.61,5.75,27.84,6.21,29.16,12.87-1.85,16.78-6.36,4.6-5.3,4.14-6.36a20.8,20.8,0,0,1-2.53-9c-.23-5-1.38-22.53-5.06-30.22a86.48,86.48,0,0,0-6.1-10.47,15.33,15.33,0,0,1-2.18-3.85C509.06,264.06,495.73,270.16,495.73,270.16Z" transform="translate(-69.22 -113.73)"/><path class="cls-6" d="M498,302.77c-2.3-13.52-2.3-32.61-2.3-32.61s13.33-6.1,13.56-4.51a15.33,15.33,0,0,0,2.18,3.85s-3.9,1.85-7.35,3.58-6.32,3.58-6.44,10.2S498,302.77,498,302.77Z" transform="translate(-69.22 -113.73)"/><path class="cls-4" d="M467,245.51s-4.48-3.85-5.75-4.64-4.83-3.58-5.52-3.72-1.26.8-.8,1.2a28,28,0,0,0,3.1,2.52,14.9,14.9,0,0,1,1.27.79,4,4,0,0,0-2.19,2.39c-.34,1.59-.69,2.25-.11,3.18s1.15,1.85,1.95,1.72a61.79,61.79,0,0,1,7-.53C466.88,248.55,467,245.51,467,245.51Z" transform="translate(-69.22 -113.73)"/><path class="cls-7" d="M467.75,244.05a1.51,1.51,0,0,0-1.15.55,6.18,6.18,0,0,0-1.56,2.76c-.12,1.33-.12,2.39.23,2.79s5.17,7,10.69,9.67,9.88,3.05,12.07-2.12c0,0,1,8.62,3,10.61s3.56,3.71,7.47,2.65,10.46-3.58,12.87-6a8.78,8.78,0,0,0,3.11-7.16,41,41,0,0,0-2.3-10.6c-.69-1.59-15.75-18.16-15.75-18.16a9.46,9.46,0,0,0-3.68.93c-1.95.92-5.06,1.19-8.28,5.7s-2.87,10.6-4.13,11.13S472.83,244.19,467.75,244.05Z" transform="translate(-69.22 -113.73)"/><path class="cls-6" d="M488,257.7s1,8.62,3,10.61,3.56,3.71,7.47,2.65c0,0-4.14-2.65-5.29-7s-2.64-16.57-2.64-16.57S490.1,253.59,488,257.7Z" transform="translate(-69.22 -113.73)"/><path class="cls-2" d="M484.66,205.51c-1.52,1-3.73,2.71-4.1,5.4-.56,4,0,5.17-.35,6.1s1.15,1.59,3.33.53,3.34-1.73,3.45-.8l.12.93s1.15-2,2.53-.66-.69,3.18-1.38,3.58-1.73,4.63,1.95,7.82,5.63,4.24,6.67,7.82,8.05,16.43,16.67,13.65,3.56-16.83-.58-21.87-6.89-3.58-8.5-8.49-7-13.77-12.88-14.84C487.91,204,485.59,204.92,484.66,205.51Z" transform="translate(-69.22 -113.73)"/><path class="cls-5" d="M481.32,220.23s0,4.07.3,4,1.08,0,1.08-.35-.92-3.72-.92-3.72S481.32,220,481.32,220.23Z" transform="translate(-69.22 -113.73)"/><rect class="cls-26" x="304.58" y="57.81" width="171.82" height="110.82"/><polygon class="cls-27" points="476.45 185.08 304.58 185.08 304.58 76.54 344.13 74.42 304.58 72.65 304.58 64.17 364.97 62.72 304.58 60.72 304.58 55.16 476.45 55.16 476.45 76.89 384.48 79.37 476.45 81.4 476.45 157.31 436.9 159.61 476.45 162.26 476.45 185.08"/><polygon class="cls-26" points="476.45 55.16 304.58 55.16 322.97 37.66 458.06 37.66 476.45 55.16"/><polygon class="cls-26" points="218.01 222.2 27.75 222.2 27.75 93.69 47.69 74.77 218.01 74.77 218.01 222.2"/><polygon class="cls-27" points="199.62 232.8 27.75 232.8 27.75 113.66 67.29 111.54 27.75 109.77 27.75 92.27 199.62 92.27 199.62 194.43 160.07 196.73 199.62 199.38 199.62 232.8"/><polygon class="cls-28" points="199.62 92.27 27.75 92.27 46.14 74.78 218.01 74.78 199.62 92.27"/><polygon class="cls-28" points="215.22 43.66 136.28 43.66 127.08 55.16 208.78 55.16 215.22 43.66"/><polygon class="cls-26" points="215.22 43.66 208.78 55.16 179.96 64.7 208.78 79.37 215.22 75.13 215.22 43.66"/><polygon class="cls-27" points="208.78 79.37 127.08 79.37 127.08 55.16 208.78 55.16 208.78 64.57 181.19 65.63 208.78 66.2 208.78 79.37"/><path class="cls-1" d="M348.43,185.33s2,2.56,6.59-.36,4.75-10.34,3.37-13.87-1.69-3.71-1.69-3.71Z" transform="translate(-69.22 -113.73)"/><path class="cls-2" d="M318.62,185.33s-4.45,1.59-4.76-6,2.15-13.08-.61-20.33-3.68-22.44,3.53-25.63,14.4,1.95,15,6.37,2.91,19.19,2.91,19.19Z" transform="translate(-69.22 -113.73)"/><path class="cls-3" d="M323.52,156.25s1.69,4.86,1.69,5.48,2.6.44,2.6.44l2.91-3.09-1.38-6Z" transform="translate(-69.22 -113.73)"/><path class="cls-4" d="M318.62,152.1s-3.84,1.5-4.37-1.06,3.83-1.95,3.83-1.95l-2.53-6.54,7-6.18,7.9,5.12-.08,2.3S333.1,155,327.81,157,318.62,152.1,318.62,152.1Z" transform="translate(-69.22 -113.73)"/><path class="cls-2" d="M323.21,139.55s-.38,6.36-4.82,9.54l-3.15-1.41-1.84-5.92,7.21-5.83,1.61-.53A12.74,12.74,0,0,1,323.21,139.55Z" transform="translate(-69.22 -113.73)"/><path class="cls-2" d="M330.34,143.79s-5.9-.79-7.13-4.24-.76-5.13-.76-5.13l6.82,3.45,1.91,2.83Z" transform="translate(-69.22 -113.73)"/><path class="cls-5" d="M325.44,147.77l.84,3.36a1.06,1.06,0,0,0,1.3-.71l-1.38-3S325.44,147.06,325.44,147.77Z" transform="translate(-69.22 -113.73)"/><path class="cls-1" d="M325.13,161.07a8,8,0,0,0,5.59-2l4.41,2.39,10.81,12.59s3.33,18.16.92,24.92c-2.92,8.15-28.17,1.46-28.17,1.46S316.05,190,317,183.6s-2.65-9.81,1.38-15.51S325.13,161.07,325.13,161.07Z" transform="translate(-69.22 -113.73)"/><path class="cls-6" d="M325.74,167.48s-3.75.79-4.14,6.09-.84,14.32.08,17.41,1.61,8.4,5.52,9.1,14.25,1.59,16.32-.44,2.61-8.66,2.68-10.16-7.2-19.71-7.2-19.71S334.86,164.82,325.74,167.48Z" transform="translate(-69.22 -113.73)"/><polygon class="cls-7" points="281.52 4.86 270.4 81.4 261.28 80.52 264.82 20.36 265.84 3.11 281.52 4.86"/><path class="cls-8" d="M343.22,113.82c4.34.49,7.69,2.73,7.5,5s-3.86,3.74-8.19,3.26-7.69-2.72-7.5-5S338.89,113.34,343.22,113.82Z" transform="translate(-69.22 -113.73)"/><path class="cls-7" d="M343.17,114.51c3.61.4,6.41,2.27,6.25,4.18s-3.22,3.12-6.83,2.71-6.41-2.27-6.25-4.17S339.56,114.11,343.17,114.51Z" transform="translate(-69.22 -113.73)"/><path class="cls-9" d="M343,116.36c1.68.19,3,1,2.9,1.94s-1.49,1.44-3.17,1.26-3-1.06-2.89-1.94S341.34,116.17,343,116.36Z" transform="translate(-69.22 -113.73)"/><path class="cls-10" d="M345.65,121.35l.26-3,0-.25h-.05a.69.69,0,0,1,0,.25c-.08.88-1.49,1.44-3.17,1.26s-3-1.06-2.89-1.94l-.26,3A11.94,11.94,0,0,0,345.65,121.35Z" transform="translate(-69.22 -113.73)"/><polygon class="cls-11" points="304.2 27.21 288.15 56.78 285.07 62.46 282.42 67.35 271.78 86.97 260.57 80.25 283.04 31.45 289.49 17.46 304.2 27.21"/><path class="cls-6" d="M361.76,162.35l-7.47,13.85-2.65,4.88a24.32,24.32,0,0,0-.91-5.12c-.69-2-2-2.65-2.07-4.33s-.45-3.72.38-4.42c3.22-2.74.12-2.65,2.49-3.18.86-.19,2.9,2,4.56,1.77.26-.05,2.27-1.55,2.53-1.59C361.31,163.78,361.76,162.35,361.76,162.35Z" transform="translate(-69.22 -113.73)"/><path class="cls-12" d="M367.61,133c4.06,2.69,6.62,6.35,5.71,8.17s-4.94,1.12-9-1.57-6.62-6.35-5.71-8.18S363.54,130.27,367.61,133Z" transform="translate(-69.22 -113.73)"/><path class="cls-13" d="M367.33,133.51c3.39,2.24,5.52,5.29,4.77,6.81s-4.12.93-7.51-1.31-5.52-5.3-4.76-6.82S364,131.26,367.33,133.51Z" transform="translate(-69.22 -113.73)"/><path class="cls-13" d="M363.12,134.37c-.35.71.64,2.12,2.21,3.16s3.13,1.32,3.48.61" transform="translate(-69.22 -113.73)"/><path class="cls-14" d="M367.59,140.58l1.22-2.44h0l-5.69-3.77-1.21,2.44A16.18,16.18,0,0,0,367.59,140.58Z" transform="translate(-69.22 -113.73)"/><path class="cls-4" d="M334,170.21s-.31-6.09.31-8,.53-3.09,1.07-3,.54.71.38,1.5-.61,2.3,0,2.3,1-6.36,1.76-7.6,1.69-1.06,2.61-.62.77,5.13.23,7.33-2.61,9.64-2.61,9.64l-1.91.26Z" transform="translate(-69.22 -113.73)"/><path class="cls-1" d="M333.56,169.68a71.15,71.15,0,0,0-4.68,8.58s-2.22-6.37-4.75-7.78-4.21-2.92-6.66-1.24-3.45,9.63-1.23,14.58,8.81,10.87,11.34,12.11,8.28,1.41,9.35-3.27,2.68-18.56,2.15-20.41-.92-1.33-.92-1.33S333.87,171.27,333.56,169.68Z" transform="translate(-69.22 -113.73)"/><path class="cls-4" d="M354.63,174.63a10.3,10.3,0,0,1-2.22-2.21c-1.45-1.76-3.68-4-3.91-5.12a3.23,3.23,0,0,1,1.15-2.92c.54-.17,2.69.27,4.45,2s1.91,2.3,2.3,2,.07-1.77.69-2.48,1-.35.84.44a22.19,22.19,0,0,0-.23,2.92c0,.53.92,2,0,3.71S355.55,175.25,354.63,174.63Z" transform="translate(-69.22 -113.73)"/><path class="cls-15" d="M366.6,135c1.57,1,2.56,2.46,2.21,3.16s-1.91.43-3.48-.61-2.56-2.45-2.21-3.16S365,133.94,366.6,135Z" transform="translate(-69.22 -113.73)"/><polygon class="cls-1" points="511.19 224.43 413.87 224.43 413.87 201.32 489.51 198.85 511.19 198.14 511.19 224.43"/><path class="cls-16" d="M585.31,325c0,7.26-2.33,13.14-5.21,13.14s-5.21-5.88-5.21-13.14,2.33-13.15,5.21-13.15S585.31,317.76,585.31,325Z" transform="translate(-69.22 -113.73)"/><path class="cls-17" d="M584.45,325c0,6.05-2,11-4.35,11s-4.34-4.91-4.34-11,1.94-11,4.34-11S584.45,319,584.45,325Z" transform="translate(-69.22 -113.73)"/><path class="cls-18" d="M582.12,325c0,2.8-.9,5.08-2,5.08s-2-2.28-2-5.08.9-5.08,2-5.08S582.12,322.21,582.12,325Z" transform="translate(-69.22 -113.73)"/><path class="cls-19" d="M576.26,319.94h3.84c-1.11,0-2,2.27-2,5.08s.9,5.08,2,5.08a.84.84,0,0,0,.31-.08v.08h-4.15A28.74,28.74,0,0,1,576.26,319.94Z" transform="translate(-69.22 -113.73)"/><path class="cls-6" d="M580.41,311.87s-8.74,2.19-7.8,16.18l-87.82,2.05v-12l75.64-2.47,20-3.74" transform="translate(-69.22 -113.73)"/><path class="cls-16" d="M580.1,311.87s-8,2.19-9.19,13.15l-87.82,2.05v-12l75.64-2.47,21.68-.71" transform="translate(-69.22 -113.73)"/><polygon class="cls-20" points="502.64 194.61 398.74 210.68 395.87 186 476.31 170.88 499.37 166.54 502.64 194.61"/><path class="cls-21" d="M575.46,293.5c.9,7.75-.86,14.42-3.93,14.89s-6.3-5.42-7.2-13.17.86-14.42,3.93-14.9S574.56,285.74,575.46,293.5Z" transform="translate(-69.22 -113.73)"/><path class="cls-22" d="M574.53,293.64c.75,6.46-.71,12-3.27,12.42s-5.25-4.52-6-11,.71-12,3.27-12.41S573.78,287.18,574.53,293.64Z" transform="translate(-69.22 -113.73)"/><path class="cls-23" d="M572,294c.35,3-.33,5.58-1.51,5.76s-2.44-2.1-2.78-5.09.33-5.57,1.51-5.76S571.7,291,572,294Z" transform="translate(-69.22 -113.73)"/><path class="cls-24" d="M566.42,300.41l4.11-.63.32,0v-.08a1.2,1.2,0,0,1-.31.13c-1.19.18-2.44-2.1-2.78-5.09s.33-5.57,1.51-5.76l-4.1.64S564.76,296.42,566.42,300.41Z" transform="translate(-69.22 -113.73)"/><path class="cls-6" d="M568.59,280.27s-9.06,3.78-6.31,18.56l-93.5,16.69-1.5-12.83,80.45-15.13,20.86-7.29" transform="translate(-69.22 -113.73)"/><path class="cls-25" d="M568.26,280.32s-8.32,3.66-8.18,15.55l-93.5,16.69-1.49-12.82,80.44-15.13,23.06-4.34" transform="translate(-69.22 -113.73)"/><polygon class="cls-11" points="94.17 123.58 117.91 233.12 98.35 238.75 77.8 154.22 71.91 129.99 94.17 123.58"/><path class="cls-12" d="M151.06,235c6.15-1.77,11.7-.58,12.4,2.66s-3.71,7.3-9.86,9.07-11.69.58-12.4-2.66S144.92,236.77,151.06,235Z" transform="translate(-69.22 -113.73)"/><path class="cls-13" d="M151.27,236c5.13-1.47,9.75-.48,10.34,2.22s-3.09,6.09-8.22,7.56-9.75.49-10.33-2.21S146.15,237.45,151.27,236Z" transform="translate(-69.22 -113.73)"/><path class="cls-15" d="M151.84,238.6c2.38-.69,4.52-.23,4.79,1s-1.43,2.82-3.81,3.51-4.52.22-4.79-1S149.47,239.28,151.84,238.6Z" transform="translate(-69.22 -113.73)"/><path class="cls-14" d="M157.57,244l-.94-4.33-.07-.34-.07,0a1,1,0,0,1,.14.32c.27,1.25-1.43,2.82-3.81,3.51s-4.52.22-4.79-1l.94,4.33A17.58,17.58,0,0,0,157.57,244Z" transform="translate(-69.22 -113.73)"/><path class="cls-6" d="M141.13,243.72s4,9.3,15.59,4.83l23.16,98.34-10.17,2.94-20.54-84.54-8-21.57" transform="translate(-69.22 -113.73)"/><path class="cls-12" d="M141.2,244.07s3.82,8.52,13.38,7.14l23.15,98.34-10.17,2.94L147,268l-5.89-24.23" transform="translate(-69.22 -113.73)"/><polygon class="cls-20" points="18.42 140.89 131.82 201.34 117.03 238.21 27.32 195.17 1.61 182.83 18.42 140.89"/><ellipse class="cls-21" cx="79.59" cy="275.78" rx="22.61" ry="6.84" transform="translate(-275.52 136.42) rotate(-68.78)"/><path class="cls-22" d="M74.53,273.09c3.87-9.66,9.27-16.28,12.07-14.79s1.92,10.53-1.95,20.18-9.28,16.28-12.07,14.79S70.66,282.74,74.53,273.09Z" transform="translate(-69.22 -113.73)"/><path class="cls-23" d="M77.24,274.53c1.8-4.47,4.3-7.54,5.6-6.85s.89,4.88-.9,9.35-4.3,7.55-5.6,6.86S75.45,279,77.24,274.53Z" transform="translate(-69.22 -113.73)"/><path class="cls-24" d="M87.32,270.07l-4.48-2.39-.36-.19,0,.12a1.1,1.1,0,0,1,.41.07c1.29.69.89,4.88-.9,9.35s-4.3,7.55-5.6,6.86l4.48,2.39A61.91,61.91,0,0,0,87.32,270.07Z" transform="translate(-69.22 -113.73)"/><path class="cls-6" d="M70.82,296.56s11.58,1.94,19.43-20.95l103.63,51.27-7.68,19.17L96.49,303l-25.67-6.45" transform="translate(-69.22 -113.73)"/><path class="cls-25" d="M71.18,296.75S82,298.26,90.3,281.5l103.64,51.27-7.69,19.17-89.71-43L70.82,296.56" transform="translate(-69.22 -113.73)"/><path class="cls-2" d="M149.71,336.26a142.34,142.34,0,0,0-4.6,14.14c-1.23,5.3,1.07,8.48,4.14,11.49s13.33,12.37,13.79,12.9,7.36-3.18,7.36-3.18-4.29-6.89-5.06-9-4.91-8.13-4.75-9.72a7.93,7.93,0,0,1,1.53-3.36s.92,1.94,3.37,6.54,3.07,7.77,4.75,9.54,8.89,9.19,9.35,9.37,5.68-.71,5.37-2.65-5.37-9.37-5.37-13.08a71.35,71.35,0,0,0-3.37-18.91c-2.14-6-6-8.31-6-8.31Z" transform="translate(-69.22 -113.73)"/><path class="cls-1" d="M145.72,328.84a10.41,10.41,0,0,1,2.15,2.83c1.07,1.94.92,4.59,1.53,5.48s15.48-.89,18.85-2.66,2-2.47,2-2.47a13.69,13.69,0,0,0,.16-3.36c-.16-1.77-2.61-5.83-3.53-8.13s-2.45-8.3-2.45-8.3,2.76-.36,4.75-.54,5.37,4.25,6.59,6,2.91-.35,2.91-.35a4.75,4.75,0,0,0,1.84-4.42c-.3-3-7.35-12-9.5-12.72S160.13,299,156.76,300s-4.3,3.53-4.76,3.89c-.25.2-3.6,1.65-6.68,3.12-2.44,1.17-4.71,2.34-5.12,2.89-.92,1.23-3.68,8.83-3.06,21.74s2.76,16.79,4.29,19.44,7.36,11.49,10.57,11.66,4.6-5.12,4.6-5.12-6.13-12.9-8.27-15.73S145.72,328.84,145.72,328.84Z" transform="translate(-69.22 -113.73)"/><path class="cls-6" d="M156.76,300c-3.38,1.06-4.3,3.53-4.76,3.89-.25.2-3.6,1.65-6.68,3.12,0,0-3.89,4.68,1.11,4.28s6.49-1.59,7.93-3.31,2.13-2,2.42-3.85A17.53,17.53,0,0,0,156.76,300Z" transform="translate(-69.22 -113.73)"/><path class="cls-6" d="M166.87,320.53c.92,2.3,3.37,6.36,3.53,8.13a13.69,13.69,0,0,1-.16,3.36s1.38.71-2,2.47S150,338,149.4,337.15s-.46-3.54-1.53-5.48a10.41,10.41,0,0,0-2.15-2.83s.2-3.08.13-4.07,0-2.51,0-2.51,1,5.44,1.9,6.69,3.22,4.57,4.48,4.7,15.41-.53,15.29-3.84S166.87,320.53,166.87,320.53Z" transform="translate(-69.22 -113.73)"/><path class="cls-3" d="M150.62,299.26s3.4,3.64,4.14,4.17-4.88,5.17-4.88,5.17l-2.82-2.85-1.21-.06Z" transform="translate(-69.22 -113.73)"/><path class="cls-4" d="M148.4,289.6s.5-2.47,1.88-1.41-.52,4.7-.92,5.3S148,293,148,293l-.75-1.92.29-1.79Z" transform="translate(-69.22 -113.73)"/><path class="cls-4" d="M135.45,298.53s2,2.65,3.07,4a7.61,7.61,0,0,0,3.67,2.48c.92.18,3.53-.8,3.53-.8l2-4.41.16-4.34s.46-1.06.3-1.5a27.51,27.51,0,0,0-2.76-2.91l-2.83-2.92-3.14,3.18Z" transform="translate(-69.22 -113.73)"/><path class="cls-2" d="M138.21,303a5.87,5.87,0,0,0,3,4.5c2.83,1.59,5,1.42,5.82,1.15a6.69,6.69,0,0,0,3.68-2.91c.84-1.68.69-4,.54-6.19a14.61,14.61,0,0,0-.84-4.42c-.31-.62-1.92-2-2.23-2.91s-.46-2.3.23-2.57c0,0-2.6-4.24-4.75-5s-6.44-.09-7.66,1.06a11.61,11.61,0,0,0-3.53,5.56c-.46,2.3.39,7.16,2.53,8s6.29-1.85,7.43-3.8a10.25,10.25,0,0,0,.92-5,6.42,6.42,0,0,0,1.69,1.68,2.11,2.11,0,0,0,1.46.26,1.39,1.39,0,0,1,.76.71,13.53,13.53,0,0,1,.16,5.12c-.39,1.51-.46,3.19-2.23,4.6a4.18,4.18,0,0,1-4.82.62,8.58,8.58,0,0,1-2.23-1.5l-.38-.27A5.45,5.45,0,0,1,138.21,303Z" transform="translate(-69.22 -113.73)"/><path class="cls-5" d="M141.9,299.78l1.3,2.52s1.3.16,1.37-.94l-1.78-2.53S141.56,298.51,141.9,299.78Z" transform="translate(-69.22 -113.73)"/><path class="cls-2" d="M170.51,375.85s.71,4.58.35,5.57c-.31.84-.5.88-.5.88l-2.44.06a.35.35,0,0,1-.32-.31c-.07-.38-.22-1-.54-.9A21.94,21.94,0,0,1,161,383.8c-3.45.8-7,1.6-7.24.54s-2.07-.93,1.61-2.66,8.28-4.5,9.54-6.09S170.51,375.85,170.51,375.85Z" transform="translate(-69.22 -113.73)"/><path class="cls-2" d="M180.05,372.41s-.23,3.18.23,4,2.3,4.24,2.88,4.91,2.18.92,2.41.13a14.19,14.19,0,0,0-.23-4.77c-.34-2.12-.8-5.17-.8-5.17S181,370.42,180.05,372.41Z" transform="translate(-69.22 -113.73)"/><rect class="cls-29" x="110.22" y="162.08" width="320.81" height="88.24"/><rect class="cls-30" x="117.89" y="169.15" width="305.33" height="11.31"/><rect class="cls-31" x="121.87" y="171.98" width="298.21" height="4.24"/><polygon class="cls-30" points="431.04 162.08 110.22 162.08 151.61 85.4 431.18 85.4 431.04 162.08"/><polygon class="cls-29" points="285.84 150.71 139.04 150.71 165.84 92.53 292.92 92.53 285.84 150.71"/><polygon class="cls-32" points="281.3 145.84 146.34 145.84 169.64 97.4 287.46 97.4 281.3 145.84"/><rect class="cls-33" x="164.93" y="106.13" width="121.28" height="2.12"/><rect class="cls-33" x="160.8" y="114.71" width="124.32" height="2.12"/><rect class="cls-31" x="139.04" y="150.71" width="146.79" height="4.47"/><polygon class="cls-34" points="285.83 150.71 292.92 92.53 292.92 105.53 285.83 155.17 285.83 150.71"/><polygon class="cls-29" points="305.8 92.53 304.58 108.36 321.9 108.36 322.82 92.53 305.8 92.53"/><rect class="cls-31" x="304.58" y="108.35" width="17.32" height="3.89"/><polygon class="cls-29" points="396.86 92.53 395.63 108.36 412.95 108.36 413.87 92.53 396.86 92.53"/><rect class="cls-31" x="395.63" y="108.35" width="17.32" height="3.89"/><polygon class="cls-29" points="329.03 92.53 327.57 108.36 335.23 108.36 335.23 92.53 329.03 92.53"/><rect class="cls-31" x="327.57" y="108.35" width="7.66" height="3.89"/><polygon class="cls-29" points="340.07 92.53 338.61 108.36 346.27 108.36 346.27 92.53 340.07 92.53"/><rect class="cls-31" x="338.61" y="108.35" width="7.66" height="3.89"/><polygon class="cls-35" points="302.79 135.46 301.32 151.28 322.05 151.28 322.05 135.46 302.79 135.46"/><rect class="cls-31" x="301.32" y="151.28" width="20.73" height="3.89"/><polygon class="cls-29" points="327.01 135.73 326.96 151.28 346.27 151.3 346.27 135.73 327.01 135.73"/><rect class="cls-31" x="326.96" y="151.29" width="19.31" height="3.89"/><polygon class="cls-29" points="304.38 120.11 303.05 129.68 321.9 129.68 321.9 120.11 304.38 120.11"/><rect class="cls-31" x="303.05" y="129.68" width="18.85" height="2.35"/><polygon class="cls-29" points="327.47 120.11 326.96 129.68 346.27 129.68 346.27 120.11 327.47 120.11"/><rect class="cls-31" x="326.96" y="129.68" width="19.31" height="2.35"/><polygon class="cls-29" points="395.06 135.73 395.02 151.28 414.33 151.3 414.33 135.73 395.06 135.73"/><rect class="cls-31" x="395.02" y="151.29" width="19.31" height="3.89"/><polygon class="cls-35" points="395.53 120.11 395.02 129.68 414.33 129.68 414.33 120.11 395.53 120.11"/><rect class="cls-31" x="395.02" y="129.68" width="19.31" height="2.35"/><polygon class="cls-31" points="431.04 250.33 431.04 162.08 431.18 85.4 440.38 215.81 431.04 250.33"/><polygon class="cls-35" points="369.19 108.36 355.46 108.36 356.38 92.53 370.11 92.53 369.19 108.36"/><rect class="cls-31" x="355.47" y="108.35" width="13.72" height="3.89"/><path class="cls-29" d="M433.65,217.78l-4.75-3.14a.56.56,0,0,1-.23-.47.56.56,0,0,1,.23-.46l4.76-3,.44.92-4,2.59,4.05,2.68Z" transform="translate(-69.22 -113.73)"/><polygon class="cls-35" points="372.94 108.36 386.66 108.36 387.58 92.53 373.86 92.53 372.94 108.36"/><rect class="cls-31" x="442.16" y="222.09" width="13.72" height="3.89" transform="translate(828.82 334.33) rotate(180)"/><path class="cls-29" d="M446.91,217.78l-.46-.92,4.05-2.68-4-2.59.45-.92,4.75,3a.56.56,0,0,1,.23.46.53.53,0,0,1-.23.47Z" transform="translate(-69.22 -113.73)"/><polygon class="cls-35" points="369.19 132.75 355.46 132.75 356.38 116.92 370.11 116.92 369.19 132.75"/><rect class="cls-31" x="355.47" y="132.75" width="13.72" height="3.89"/><path class="cls-29" d="M429.22,241.62l-.8-.53,2.72-5.48a.48.48,0,0,1,.4-.27h0a.47.47,0,0,1,.39.28l2.65,5.48-.81.51L431.54,237Z" transform="translate(-69.22 -113.73)"/><polygon class="cls-35" points="372.94 132.75 386.66 132.75 387.58 116.92 373.86 116.92 372.94 132.75"/><rect class="cls-31" x="442.16" y="246.48" width="13.72" height="3.89" transform="translate(828.82 383.11) rotate(180)"/><path class="cls-29" d="M449.1,241.88a.45.45,0,0,1-.4-.26L446,236.14l.8-.53,2.31,4.67,2.25-4.66.8.51-2.64,5.48a.44.44,0,0,1-.4.27Z" transform="translate(-69.22 -113.73)"/><rect class="cls-29" x="355.47" y="143.52" width="13.72" height="7.19"/><rect class="cls-31" x="355.47" y="150.71" width="13.72" height="4.47"/><rect class="cls-29" x="372.94" y="143.52" width="13.72" height="7.19"/><rect class="cls-31" x="372.94" y="150.71" width="13.72" height="4.47"/><polygon class="cls-33" points="187.25 146.34 184.63 145.34 198.43 96.9 201.05 97.89 187.25 146.34"/><path class="cls-33" d="M485.86,287.66s-21.17,7.24-23.46,39.41-24.82,50.2-24.82,50.2h-287s22.54-18,24.83-50.2,23.46-39.41,23.46-39.41Z" transform="translate(-69.22 -113.73)"/><path class="cls-4" d="M179.13,309.75a5.46,5.46,0,0,0-3.06,5.13c.15,3.71.46,3.71.46,3.71s.73-4.66,1.34-5,5,1.26,5.58.2-.22-.86-1.44-1.39-1.34-3.16-2.88-2.63" transform="translate(-69.22 -113.73)"/><path class="cls-4" d="M153.5,362.22s3.16,6.36,4.88,7.56,2.53,2.18,3.28,1.79,1.9-.93,1.55-2-1.84-3.52-1.84-4.11-.86-1.79-.57-2.19,1.67.4,1.67.4l.86-1.26S161,360.3,159.65,360s-4.08-1.33-4.08-1.33Z" transform="translate(-69.22 -113.73)"/><path class="cls-3" d="M487.34,227.35a31.17,31.17,0,0,1,2.87,4.1c.23.8,3.57-.39,3.8-1.59s-3.68-4.77-3.68-4.77Z" transform="translate(-69.22 -113.73)"/><path class="cls-4" d="M481,217.54s.46,5.83,2.07,8.75,6.33,1.45,7.25.79,1-5.57,1-5.57l1.27-6.49-6.21-3.32S480.78,212.37,481,217.54Z" transform="translate(-69.22 -113.73)"/><path class="cls-4" d="M505.16,330.43s.1,2.23.33,5.61c.34,4.91,1,12.22,2,18.6,1.69,10.78,5.37,24.22,5.37,24.22l3.37-1.06.15-1.06s.31-26-.61-33.76c-.53-4.5-1.16-7.64-1.6-9.86a20.43,20.43,0,0,1-.54-3.57C513.59,327.6,505.16,330.43,505.16,330.43Z" transform="translate(-69.22 -113.73)"/><path class="cls-6" d="M514.13,333.12a20.43,20.43,0,0,1-.54-3.57c0-1.95-8.43.88-8.43.88s.1,2.23.33,5.61c0,0,5.07.13,8.06-2.39Z" transform="translate(-69.22 -113.73)"/><path class="cls-4" d="M515.12,328.66s.42,1.36,1.2,3.64c2.49,7.24,8.61,23.81,16.43,35.77H535l.77-3s-4.75-10.78-5.36-16.44-3.68-16.61-7.36-21.56-2.91-5.12-2.91-5.12l-4.91,4.94Z" transform="translate(-69.22 -113.73)"/><path class="cls-6" d="M523.09,327.07c-3.68-4.95-2.91-5.12-2.91-5.12l-4.91,4.94-.15,1.77s.42,1.36,1.2,3.64a13.18,13.18,0,0,0,6.46-4.7Z" transform="translate(-69.22 -113.73)"/><path class="cls-2" d="M512.05,377.62s-.15,11-1.68,12.9-3.68,2.3-4.45,3-.92,2.47,0,2.47,5.06-.18,7.21-1.59,2.3-4.6,2.6-6.19,3.37-1.06,4-2.29,1.07-1.42.15-3.54L517,375.67S513.74,378.15,512.05,377.62Z" transform="translate(-69.22 -113.73)"/><path class="cls-2" d="M532.29,366.66a41.46,41.46,0,0,1-1.08,9.19c-1.07,3.89-2.6,4.07-2.6,5.13s-.92,2.65,1.22,2.29,4.29-.7,6-2.12,1.53-6,1.69-7.07.15-.17,1.22-.88a3.56,3.56,0,0,0,1.69-3.71c-.31-1.77-4.91-5.66-4.91-5.66S534.43,366.31,532.29,366.66Z" transform="translate(-69.22 -113.73)"/><path class="cls-35" d="M495.73,270.16s0,19.09,2.3,32.61,5.75,27.84,6.21,29.16,12.87-1.85,16.78-6.36,4.6-5.3,4.14-6.36a20.8,20.8,0,0,1-2.53-9c-.23-5-1.38-22.53-5.06-30.22a86.48,86.48,0,0,0-6.1-10.47,15.33,15.33,0,0,1-2.18-3.85C509.06,264.06,495.73,270.16,495.73,270.16Z" transform="translate(-69.22 -113.73)"/><path class="cls-6" d="M498,302.77c-2.3-13.52-2.3-32.61-2.3-32.61s13.33-6.1,13.56-4.51a15.33,15.33,0,0,0,2.18,3.85s-3.9,1.85-7.35,3.58-6.32,3.58-6.44,10.2S498,302.77,498,302.77Z" transform="translate(-69.22 -113.73)"/><path class="cls-4" d="M467,245.51s-4.48-3.85-5.75-4.64-4.83-3.58-5.52-3.72-1.26.8-.8,1.2a28,28,0,0,0,3.1,2.52,14.9,14.9,0,0,1,1.27.79,4,4,0,0,0-2.19,2.39c-.34,1.59-.69,2.25-.11,3.18s1.15,1.85,1.95,1.72a61.79,61.79,0,0,1,7-.53C466.88,248.55,467,245.51,467,245.51Z" transform="translate(-69.22 -113.73)"/><path class="cls-7" d="M467.75,244.05a1.51,1.51,0,0,0-1.15.55,6.18,6.18,0,0,0-1.56,2.76c-.12,1.33-.12,2.39.23,2.79s5.17,7,10.69,9.67,9.88,3.05,12.07-2.12c0,0,1,8.62,3,10.61s3.56,3.71,7.47,2.65,10.46-3.58,12.87-6a8.78,8.78,0,0,0,3.11-7.16,41,41,0,0,0-2.3-10.6c-.69-1.59-15.75-18.16-15.75-18.16a9.46,9.46,0,0,0-3.68.93c-1.95.92-5.06,1.19-8.28,5.7s-2.87,10.6-4.13,11.13S472.83,244.19,467.75,244.05Z" transform="translate(-69.22 -113.73)"/><path class="cls-6" d="M488,257.7s1,8.62,3,10.61,3.56,3.71,7.47,2.65c0,0-4.14-2.65-5.29-7s-2.64-16.57-2.64-16.57S490.1,253.59,488,257.7Z" transform="translate(-69.22 -113.73)"/><path class="cls-2" d="M484.66,205.51c-1.52,1-3.73,2.71-4.1,5.4-.56,4,0,5.17-.35,6.1s1.15,1.59,3.33.53,3.34-1.73,3.45-.8l.12.93s1.15-2,2.53-.66-.69,3.18-1.38,3.58-1.73,4.63,1.95,7.82,5.63,4.24,6.67,7.82,8.05,16.43,16.67,13.65,3.56-16.83-.58-21.87-6.89-3.58-8.5-8.49-7-13.77-12.88-14.84C487.91,204,485.59,204.92,484.66,205.51Z" transform="translate(-69.22 -113.73)"/><path class="cls-5" d="M481.32,220.23s0,4.07.3,4,1.08,0,1.08-.35-.92-3.72-.92-3.72S481.32,220,481.32,220.23Z" transform="translate(-69.22 -113.73)"/></svg>