<svg id="OBJECTS" xmlns="http://www.w3.org/2000/svg" viewBox="0 0 621 326.93"><defs><style>.cls-1{fill:#ffeafe;}.cls-2{fill:#c7a1c9;}.cls-3{fill:#fec372;}.cls-4{fill:#333;}.cls-5{fill:#c1845b;}.cls-6{fill:#dd9666;}.cls-7{fill:#a6714d;}.cls-8{opacity:0.18;}.cls-9{fill:#553e89;}.cls-10{fill:#7765a1;}.cls-11{fill:#201834;}.cls-12{fill:#30234d;}.cls-13{fill:#fd84c2;}.cls-14{fill:#feb5da;}.cls-15{fill:#7f4261;}.cls-16{fill:#402131;}.cls-17{fill:#201018;}.cls-18{fill:#fedbaa;}.cls-19{fill:#bf9256;}.cls-20{fill:#483721;}.cls-21{fill:#8f6e41;}.cls-22{fill:#d331b5;}.cls-23{fill:#e583d3;}.cls-24{fill:#9e2588;}.cls-25{fill:#350d2e;}.cls-26{fill:#6a195b;}.cls-27{fill:#dc5ac4;}.cls-28{fill:#efd5ef;}.cls-29{fill:#9fabee;}.cls-30{fill:#c5cdf5;}.cls-31{fill:#6165a0;}.cls-32{fill:#dce1f9;}.cls-33{fill:#fff;}.cls-34{fill:#8186d5;}.cls-35{fill:#eaedfb;}</style></defs><path class="cls-1" d="M685.5,316.12V439.54H64.5V310.79s98.83-34,311.5-24C651.83,299.76,685.5,316.12,685.5,316.12Z" transform="translate(-64.5 -112.61)"/><path class="cls-2" d="M513.5,362.92c0,6.52-79.78,7.2-178.5,7.2s-179-.68-179-7.2,80-11.8,178.75-11.8S513.5,356.41,513.5,362.92Z" transform="translate(-64.5 -112.61)"/><ellipse class="cls-2" cx="106.22" cy="221.72" rx="75.28" ry="9.2"/><ellipse class="cls-2" cx="345.48" cy="226.56" rx="174.98" ry="26.53"/><ellipse class="cls-2" cx="537.5" cy="257.51" rx="46" ry="13.5"/><ellipse class="cls-2" cx="548" cy="212.01" rx="61" ry="6.5"/><path class="cls-3" d="M404.08,180.12s2.17,2.42,7.17-.33,5.17-9.75,3.67-13.09-1.84-3.5-1.84-3.5Z" transform="translate(-64.5 -112.61)"/><path class="cls-4" d="M371.67,180.12s-4.84,1.5-5.17-5.67,2.33-12.33-.67-19.16-4-21.17,3.84-24.17,15.66,1.83,16.33,6,3.17,18.1,3.17,18.1Z" transform="translate(-64.5 -112.61)"/><path class="cls-5" d="M377,152.7a51.55,51.55,0,0,1,1.83,5.17c0,.58,2.84.42,2.84.42l3.16-2.92-1.5-5.67Z" transform="translate(-64.5 -112.61)"/><path class="cls-6" d="M371.67,148.79s-4.17,1.41-4.75-1,4.16-1.84,4.16-1.84l-2.75-6.16,7.59-5.84,8.58,4.84-.08,2.16s3,10.59-2.75,12.42S371.67,148.79,371.67,148.79Z" transform="translate(-64.5 -112.61)"/><path class="cls-4" d="M376.67,137s-.42,6-5.25,9L368,144.62,366,139l7.83-5.5,1.75-.5A10.66,10.66,0,0,1,376.67,137Z" transform="translate(-64.5 -112.61)"/><path class="cls-4" d="M384.42,141s-6.42-.75-7.75-4-.84-4.83-.84-4.83l7.42,3.25,2.08,2.67Z" transform="translate(-64.5 -112.61)"/><path class="cls-7" d="M379.08,144.7l.92,3.17s1.08.25,1.42-.67l-1.5-2.83S379.08,144,379.08,144.7Z" transform="translate(-64.5 -112.61)"/><path class="cls-3" d="M378.75,157.25a9.61,9.61,0,0,0,6.08-1.88l4.79,2.25,11.76,11.88s3.62,17.12,1,23.5c-3.17,7.68-30.63,1.37-30.63,1.37s-2.87-9.87-1.87-15.87-2.88-9.25,1.5-14.63S378.75,157.25,378.75,157.25Z" transform="translate(-64.5 -112.61)"/><path class="cls-8" d="M379.42,163.29s-4.09.75-4.5,5.75-.92,13.5.08,16.41,1.75,7.92,6,8.59,15.5,1.5,17.75-.42,2.83-8.17,2.92-9.58-7.84-18.59-7.84-18.59S389.33,160.79,379.42,163.29Z" transform="translate(-64.5 -112.61)"/><polygon class="cls-9" points="342.1 4.58 330 76.76 320.08 75.93 323.94 19.2 325.04 2.93 342.1 4.58"/><path class="cls-10" d="M398.43,112.7c4.71.45,8.35,2.56,8.15,4.72s-4.2,3.53-8.91,3.07-8.36-2.57-8.15-4.72S393.72,112.24,398.43,112.7Z" transform="translate(-64.5 -112.61)"/><path class="cls-9" d="M398.36,113.34c3.93.38,7,2.14,6.8,3.94s-3.5,2.94-7.42,2.56-7-2.14-6.8-3.93S394.44,113,398.36,113.34Z" transform="translate(-64.5 -112.61)"/><path class="cls-11" d="M398.19,115.09c1.82.17,3.23,1,3.15,1.82s-1.62,1.37-3.44,1.19-3.23-1-3.15-1.82S396.37,114.91,398.19,115.09Z" transform="translate(-64.5 -112.61)"/><path class="cls-12" d="M401.07,119.79l.27-2.88,0-.23h-.05a.9.9,0,0,1,0,.23c-.08.83-1.62,1.37-3.44,1.19s-3.23-1-3.15-1.82l-.27,2.87A14.78,14.78,0,0,0,401.07,119.79Z" transform="translate(-64.5 -112.61)"/><polygon class="cls-13" points="366.76 25.66 349.31 53.55 345.96 58.9 343.08 63.51 331.5 82.01 319.31 75.67 343.75 29.65 350.76 16.46 366.76 25.66"/><path class="cls-8" d="M418.58,158.45l-8.12,13.06-2.88,4.61a20.45,20.45,0,0,0-1-4.83c-.75-1.84-2.16-2.5-2.25-4.09s-.48-3.5.42-4.16c3.5-2.58.13-2.5,2.71-3,.94-.18,3.15,1.92,5,1.66.28,0,2.46-1.46,2.75-1.5C418.09,159.8,418.58,158.45,418.58,158.45Z" transform="translate(-64.5 -112.61)"/><path class="cls-14" d="M424.94,130.74c4.42,2.54,7.2,6,6.21,7.71s-5.37,1.05-9.79-1.49-7.2-6-6.21-7.71S420.52,128.2,424.94,130.74Z" transform="translate(-64.5 -112.61)"/><path class="cls-15" d="M424.64,131.26c3.69,2.11,6,5,5.18,6.42s-4.47.88-8.16-1.24-6-5-5.18-6.42S421,129.14,424.64,131.26Z" transform="translate(-64.5 -112.61)"/><path class="cls-15" d="M420.06,132.07c-.38.67.69,2,2.4,3s3.4,1.24,3.78.58" transform="translate(-64.5 -112.61)"/><path class="cls-16" d="M424.92,137.92l1.32-2.29h0l-6.18-3.56-1.32,2.3S420.5,136.23,424.92,137.92Z" transform="translate(-64.5 -112.61)"/><path class="cls-6" d="M388.42,165.87s-.34-5.75.33-7.58.58-2.92,1.17-2.84.58.67.41,1.42-.66,2.17,0,2.17,1.09-6,1.92-7.17,1.83-1,2.83-.58.84,4.83.25,6.91-2.83,9.09-2.83,9.09l-2.08.25Z" transform="translate(-64.5 -112.61)"/><path class="cls-3" d="M387.92,165.37a64.34,64.34,0,0,0-5.09,8.08s-2.41-6-5.16-7.33-4.59-2.75-7.25-1.17-3.75,9.09-1.34,13.75,9.59,10.25,12.34,11.42,9,1.33,10.16-3.08,2.92-17.5,2.34-19.25-1-1.25-1-1.25S388.25,166.87,387.92,165.37Z" transform="translate(-64.5 -112.61)"/><path class="cls-6" d="M410.83,170a10.72,10.72,0,0,1-2.41-2.09c-1.59-1.66-4-3.75-4.25-4.83a2.85,2.85,0,0,1,1.25-2.75,7.11,7.11,0,0,1,4.83,1.92c1.92,1.66,2.08,2.16,2.5,1.91s.08-1.66.75-2.33,1.08-.33.92.42a17.27,17.27,0,0,0-.25,2.75c0,.5,1,1.91,0,3.5S411.83,170.62,410.83,170Z" transform="translate(-64.5 -112.61)"/><path class="cls-17" d="M423.84,132.65c1.71,1,2.78,2.31,2.4,3s-2.07.4-3.78-.58-2.78-2.31-2.4-3S422.14,131.67,423.84,132.65Z" transform="translate(-64.5 -112.61)"/><polygon class="cls-3" points="591.83 211.64 486.01 211.64 486.01 189.85 568.26 187.51 591.83 186.85 591.83 211.64"/><path class="cls-18" d="M661.67,311.85c0,6.85-2.54,12.4-5.67,12.4s-5.67-5.55-5.67-12.4,2.54-12.4,5.67-12.4S661.67,305,661.67,311.85Z" transform="translate(-64.5 -112.61)"/><path class="cls-19" d="M660.72,311.85c0,5.71-2.11,10.34-4.72,10.34s-4.72-4.63-4.72-10.34,2.11-10.33,4.72-10.33S660.72,306.14,660.72,311.85Z" transform="translate(-64.5 -112.61)"/><path class="cls-20" d="M658.19,311.85c0,2.65-1,4.79-2.19,4.79s-2.19-2.14-2.19-4.79,1-4.79,2.19-4.79S658.19,309.21,658.19,311.85Z" transform="translate(-64.5 -112.61)"/><path class="cls-21" d="M651.82,307.06H656c-1.21,0-2.19,2.15-2.19,4.79s1,4.79,2.19,4.79a1,1,0,0,0,.33-.07v.07h-4.51A23.47,23.47,0,0,1,651.82,307.06Z" transform="translate(-64.5 -112.61)"/><path class="cls-8" d="M656.33,299.45s-9.5,2.07-8.47,15.26l-95.5,1.93V305.31L634.61,303l21.72-3.53" transform="translate(-64.5 -112.61)"/><path class="cls-18" d="M656,299.45s-8.75,2.07-10,12.4l-95.49,1.94V302.45l82.25-2.33,23.57-.67" transform="translate(-64.5 -112.61)"/><polygon class="cls-22" points="582.53 183.52 469.56 198.67 466.43 175.4 553.91 161.14 578.98 157.05 582.53 183.52"/><path class="cls-23" d="M651,282.13c1,7.31-.93,13.59-4.28,14s-6.84-5.11-7.82-12.42.93-13.6,4.27-14.05S650,274.82,651,282.13Z" transform="translate(-64.5 -112.61)"/><path class="cls-24" d="M649.94,282.26c.82,6.09-.78,11.34-3.56,11.71s-5.71-4.26-6.52-10.36.77-11.33,3.56-11.71S649.13,276.17,649.94,282.26Z" transform="translate(-64.5 -112.61)"/><path class="cls-25" d="M647.24,282.62c.38,2.83-.36,5.26-1.65,5.43s-2.65-2-3-4.8.36-5.25,1.65-5.43S646.86,279.8,647.24,282.62Z" transform="translate(-64.5 -112.61)"/><path class="cls-26" d="M641.12,288.65l4.47-.6.35-.05v-.07a1.06,1.06,0,0,1-.34.12c-1.3.17-2.65-2-3-4.8s.36-5.25,1.65-5.43l-4.46.6S639.31,284.88,641.12,288.65Z" transform="translate(-64.5 -112.61)"/><path class="cls-8" d="M643.48,269.66s-9.85,3.56-6.87,17.49L535,302.89l-1.63-12.1,87.48-14.26,22.68-6.87" transform="translate(-64.5 -112.61)"/><path class="cls-27" d="M643.12,269.7s-9,3.46-8.9,14.67L532.56,300.11,530.93,288l87.48-14.27,25.07-4.08" transform="translate(-64.5 -112.61)"/><rect class="cls-2" x="367.17" y="54.51" width="186.83" height="104.5"/><polygon class="cls-28" points="554.06 174.53 367.17 174.53 367.17 72.18 410.17 70.18 367.17 68.51 367.17 60.51 432.83 59.14 367.17 57.26 367.17 52.01 554.06 52.01 554.06 72.51 454.05 74.85 554.06 76.76 554.06 148.35 511.06 150.51 554.06 153.01 554.06 174.53"/><polygon class="cls-2" points="554.06 52.01 367.17 52.01 387.17 35.51 534.06 35.51 554.06 52.01"/><polygon class="cls-2" points="273.04 209.53 66.15 209.53 66.15 88.35 87.83 70.51 273.04 70.51 273.04 209.53"/><polygon class="cls-28" points="253.04 219.53 66.15 219.53 66.15 107.18 109.15 105.18 66.15 103.52 66.15 87.02 253.04 87.02 253.04 183.35 210.04 185.51 253.04 188.01 253.04 219.53"/><polygon class="cls-1" points="253.04 87.02 66.15 87.02 86.15 70.52 273.04 70.52 253.04 87.02"/><polygon class="cls-1" points="270 41.17 184.17 41.17 174.17 52.01 263 52.01 270 41.17"/><polygon class="cls-2" points="270 41.17 263 52.01 231.67 61.01 263 74.85 270 70.85 270 41.17"/><polygon class="cls-28" points="263 74.85 174.17 74.85 174.17 52.01 263 52.01 263 60.89 233 61.89 263 62.43 263 74.85"/><polygon class="cls-13" points="138.38 116.53 164.19 219.83 142.92 225.14 120.58 145.43 114.17 122.58 138.38 116.53"/><path class="cls-14" d="M189.47,227c6.69-1.67,12.72-.55,13.49,2.51s-4,6.88-10.72,8.55-12.72.55-13.48-2.5S182.79,228.63,189.47,227Z" transform="translate(-64.5 -112.61)"/><path class="cls-15" d="M189.7,227.88c5.58-1.39,10.61-.46,11.24,2.09s-3.36,5.74-8.93,7.13-10.6.46-11.24-2.09S184.13,229.27,189.7,227.88Z" transform="translate(-64.5 -112.61)"/><path class="cls-17" d="M190.32,230.36c2.58-.65,4.92-.22,5.21,1s-1.56,2.66-4.14,3.31-4.91.21-5.21-1S187.74,231,190.32,230.36Z" transform="translate(-64.5 -112.61)"/><path class="cls-16" d="M196.55,235.41l-1-4.09-.08-.32-.07,0a1.2,1.2,0,0,1,.15.3c.3,1.18-1.56,2.66-4.14,3.31s-4.91.21-5.21-1l1,4.08A21.47,21.47,0,0,0,196.55,235.41Z" transform="translate(-64.5 -112.61)"/><path class="cls-8" d="M178.67,235.19s4.33,8.77,17,4.55l25.18,92.74-11.06,2.77-22.34-79.72-8.74-20.34" transform="translate(-64.5 -112.61)"/><path class="cls-14" d="M178.76,235.52s4.14,8,14.54,6.73L218.48,335l-11.06,2.76L185.08,258l-6.41-22.85" transform="translate(-64.5 -112.61)"/><polygon class="cls-22" points="56.01 132.86 179.31 189.87 163.24 224.63 65.69 184.04 37.73 172.41 56.01 132.86"/><ellipse class="cls-23" cx="111.76" cy="265.42" rx="21.79" ry="7.27" transform="translate(-240.56 142.87) rotate(-65.19)"/><path class="cls-24" d="M106.25,262.88c4.21-9.11,10.09-15.35,13.13-13.94s2.09,9.92-2.12,19-10.08,15.34-13.12,13.94S102,272,106.25,262.88Z" transform="translate(-64.5 -112.61)"/><path class="cls-25" d="M109.21,264.24c2-4.22,4.67-7.11,6.08-6.46s1,4.6-1,8.82-4.68,7.12-6.09,6.47S107.26,268.46,109.21,264.24Z" transform="translate(-64.5 -112.61)"/><path class="cls-26" d="M120.17,260l-4.88-2.26-.39-.18-.05.12a1.07,1.07,0,0,1,.44.06c1.41.65,1,4.6-1,8.82s-4.68,7.12-6.09,6.47l4.88,2.25A54.5,54.5,0,0,0,120.17,260Z" transform="translate(-64.5 -112.61)"/><path class="cls-8" d="M102.23,285s12.59,1.83,21.12-19.76L236,313.61l-8.36,18.07L130.13,291.1,102.23,285" transform="translate(-64.5 -112.61)"/><path class="cls-27" d="M102.61,285.2s11.72,1.42,20.8-14.39L236.1,319.16l-8.36,18.08-97.55-40.59-28-11.63" transform="translate(-64.5 -112.61)"/><path class="cls-4" d="M188,322.45a123.15,123.15,0,0,0-5,13.34c-1.33,5,1.17,8,4.5,10.83s14.5,11.67,15,12.17,8-3,8-3-4.67-6.5-5.5-8.5-5.33-7.67-5.17-9.17A7.24,7.24,0,0,1,201.5,335s1,1.84,3.67,6.17,3.33,7.33,5.16,9S220,358.79,220.5,359s6.17-.66,5.83-2.5-5.83-8.83-5.83-12.33a59.18,59.18,0,0,0-3.67-17.83,15.92,15.92,0,0,0-6.5-7.84Z" transform="translate(-64.5 -112.61)"/><path class="cls-3" d="M183.67,315.45a10.41,10.41,0,0,1,2.33,2.67c1.17,1.83,1,4.33,1.67,5.17s16.83-.84,20.5-2.5,2.16-2.34,2.16-2.34a11,11,0,0,0,.17-3.16c-.17-1.67-2.83-5.5-3.83-7.67s-2.67-7.83-2.67-7.83,3-.34,5.17-.5,5.83,4,7.16,5.66,3.17-.33,3.17-.33a4.34,4.34,0,0,0,2-4.17c-.33-2.83-8-11.33-10.33-12s-11.84-1.16-15.5-.16S191,291.62,190.5,292c-.28.19-3.92,1.57-7.26,2.95-2.66,1.1-5.13,2.2-5.57,2.72-1,1.17-4,8.33-3.34,20.5s3,15.83,4.67,18.33,8,10.84,11.5,11,5-4.83,5-4.83-6.67-12.17-9-14.83S183.67,315.45,183.67,315.45Z" transform="translate(-64.5 -112.61)"/><path class="cls-8" d="M195.67,288.29c-3.67,1-4.67,3.33-5.17,3.66-.28.19-3.92,1.57-7.26,2.95,0,0-4.24,4.41,1.2,4s7.06-1.5,8.62-3.12,2.32-1.88,2.63-3.63A14.09,14.09,0,0,0,195.67,288.29Z" transform="translate(-64.5 -112.61)"/><path class="cls-8" d="M206.67,307.62c1,2.17,3.66,6,3.83,7.67a11,11,0,0,1-.17,3.16s1.5.67-2.16,2.34-19.84,3.33-20.5,2.5-.5-3.34-1.67-5.17a10.41,10.41,0,0,0-2.33-2.67s.21-2.9.14-3.83,0-2.37,0-2.37,1.13,5.13,2.07,6.31,3.5,4.31,4.87,4.44,16.75-.5,16.63-3.63S206.67,307.62,206.67,307.62Z" transform="translate(-64.5 -112.61)"/><path class="cls-5" d="M189,287.56s3.69,3.44,4.5,3.94-5.31,4.87-5.31,4.87l-3.07-2.69-1.31-.06Z" transform="translate(-64.5 -112.61)"/><path class="cls-6" d="M186.58,278.45s.54-2.33,2-1.33-.56,4.44-1,5-1.5-.5-1.5-.5l-.81-1.81.31-1.69Z" transform="translate(-64.5 -112.61)"/><path class="cls-6" d="M172.5,286.87s2.17,2.5,3.33,3.75a8.4,8.4,0,0,0,4,2.33,13.83,13.83,0,0,0,3.84-.75l2.16-4.16L186,284s.5-1,.33-1.41a27.29,27.29,0,0,0-3-2.75L180.25,277l-3.42,3Z" transform="translate(-64.5 -112.61)"/><path class="cls-4" d="M175.5,291a5.48,5.48,0,0,0,3.25,4.25,9.59,9.59,0,0,0,6.33,1.08,7.25,7.25,0,0,0,4-2.75c.92-1.58.75-3.75.59-5.83a11.92,11.92,0,0,0-.92-4.17c-.33-.58-2.08-1.92-2.42-2.75s-.5-2.17.25-2.42c0,0-2.83-4-5.16-4.75s-7-.08-8.34,1-3.33,3.09-3.83,5.25.42,6.75,2.75,7.59,6.83-1.75,8.08-3.59a8.55,8.55,0,0,0,1-4.75,6.39,6.39,0,0,0,1.84,1.59,2.66,2.66,0,0,0,1.58.25,1.44,1.44,0,0,1,.83.66,11.06,11.06,0,0,1,.17,4.84c-.42,1.41-.5,3-2.42,4.33a5.1,5.1,0,0,1-5.25.58,9.09,9.09,0,0,1-2.41-1.41l-.42-.25A4.66,4.66,0,0,1,175.5,291Z" transform="translate(-64.5 -112.61)"/><path class="cls-7" d="M179.51,288.05l1.42,2.38s1.41.15,1.49-.89l-1.94-2.39S179.14,286.86,179.51,288.05Z" transform="translate(-64.5 -112.61)"/><path class="cls-4" d="M210.62,359.79s.77,4.32.38,5.25-.54.83-.54.83l-2.65.06a.37.37,0,0,1-.35-.3c-.07-.36-.24-.93-.58-.84a26.58,26.58,0,0,1-6.63,2.5c-3.75.75-7.63,1.5-7.87.5s-2.26-.88,1.74-2.5,9-4.25,10.38-5.75S210.62,359.79,210.62,359.79Z" transform="translate(-64.5 -112.61)"/><path class="cls-4" d="M221,356.54s-.25,3,.25,3.75,2.5,4,3.13,4.62,2.37.88,2.62.13a11.87,11.87,0,0,0-.25-4.5c-.37-2-.87-4.88-.87-4.88S222,354.66,221,356.54Z" transform="translate(-64.5 -112.61)"/><rect class="cls-29" x="155.83" y="152.85" width="348.84" height="83.21"/><rect class="cls-30" x="164.17" y="159.51" width="332" height="10.67"/><rect class="cls-31" x="168.5" y="162.18" width="324.26" height="4"/><polygon class="cls-30" points="504.68 152.85 155.83 152.85 200.84 80.53 504.83 80.53 504.68 152.85"/><polygon class="cls-29" points="346.79 142.12 187.17 142.12 216.31 87.26 354.49 87.26 346.79 142.12"/><polygon class="cls-32" points="341.85 137.53 195.11 137.53 220.44 91.85 348.55 91.85 341.85 137.53"/><rect class="cls-33" x="215.32" y="100.08" width="131.88" height="2"/><rect class="cls-33" x="210.83" y="108.18" width="135.18" height="2"/><rect class="cls-31" x="187.17" y="142.12" width="159.61" height="4.21"/><polygon class="cls-34" points="346.78 142.12 354.49 87.26 354.49 99.51 346.78 146.33 346.78 142.12"/><polygon class="cls-29" points="368.5 87.26 367.17 102.18 386 102.18 387 87.26 368.5 87.26"/><rect class="cls-31" x="367.17" y="102.18" width="18.83" height="3.67"/><polygon class="cls-29" points="467.51 87.26 466.17 102.18 485.01 102.18 486.01 87.26 467.51 87.26"/><rect class="cls-31" x="466.17" y="102.18" width="18.83" height="3.67"/><polygon class="cls-29" points="393.76 87.26 392.17 102.18 400.5 102.18 400.5 87.26 393.76 87.26"/><rect class="cls-31" x="392.17" y="102.18" width="8.33" height="3.67"/><polygon class="cls-29" points="405.76 87.26 404.17 102.18 412.5 102.18 412.5 87.26 405.76 87.26"/><rect class="cls-31" x="404.17" y="102.18" width="8.33" height="3.67"/><polygon class="cls-35" points="365.22 127.74 363.63 142.66 386.17 142.66 386.17 127.74 365.22 127.74"/><rect class="cls-31" x="363.63" y="142.66" width="22.54" height="3.67"/><polygon class="cls-29" points="391.55 128 391.5 142.66 412.5 142.68 412.5 128 391.55 128"/><rect class="cls-31" x="391.5" y="142.67" width="21" height="3.67"/><polygon class="cls-29" points="366.95 113.26 365.5 122.29 386 122.29 386 113.26 366.95 113.26"/><rect class="cls-31" x="365.5" y="122.29" width="20.5" height="2.22"/><polygon class="cls-29" points="392.06 113.26 391.5 122.29 412.5 122.29 412.5 113.26 392.06 113.26"/><rect class="cls-31" x="391.5" y="122.29" width="21" height="2.22"/><polygon class="cls-29" points="465.56 128 465.51 142.66 486.51 142.68 486.51 128 465.56 128"/><rect class="cls-31" x="465.51" y="142.67" width="21" height="3.67"/><polygon class="cls-35" points="466.06 113.26 465.51 122.29 486.51 122.29 486.51 113.26 466.06 113.26"/><rect class="cls-31" x="465.51" y="122.29" width="21" height="2.22"/><polygon class="cls-31" points="504.68 236.06 504.68 152.85 504.83 80.53 514.83 203.51 504.68 236.06"/><polygon class="cls-35" points="437.42 102.18 422.5 102.18 423.5 87.26 438.42 87.26 437.42 102.18"/><rect class="cls-31" x="422.5" y="102.18" width="14.92" height="3.67"/><path class="cls-29" d="M496.75,210.72l-5.17-3a.52.52,0,0,1-.25-.44.49.49,0,0,1,.26-.43l5.17-2.87.48.87-4.39,2.44,4.4,2.52Z" transform="translate(-64.5 -112.61)"/><polygon class="cls-35" points="441.5 102.18 456.42 102.18 457.42 87.26 442.5 87.26 441.5 102.18"/><rect class="cls-31" x="506" y="214.79" width="14.92" height="3.67" transform="translate(962.42 320.63) rotate(180)"/><path class="cls-29" d="M511.17,210.72l-.5-.87,4.4-2.52-4.39-2.44.49-.87,5.16,2.87a.49.49,0,0,1,.26.43.5.5,0,0,1-.25.44Z" transform="translate(-64.5 -112.61)"/><polygon class="cls-35" points="437.42 125.18 422.5 125.18 423.5 110.26 438.42 110.26 437.42 125.18"/><rect class="cls-31" x="422.5" y="125.18" width="14.92" height="3.67"/><path class="cls-29" d="M491.93,233.2l-.86-.49,3-5.17a.5.5,0,0,1,.43-.25h0a.51.51,0,0,1,.44.26l2.87,5.16-.87.49-2.45-4.39Z" transform="translate(-64.5 -112.61)"/><polygon class="cls-35" points="441.5 125.18 456.42 125.18 457.42 110.26 442.5 110.26 441.5 125.18"/><rect class="cls-31" x="506" y="237.79" width="14.92" height="3.67" transform="translate(962.42 366.64) rotate(180)"/><path class="cls-29" d="M513.55,233.46a.49.49,0,0,1-.43-.26l-3-5.16.86-.5,2.52,4.4,2.45-4.39.87.48L514,233.2a.51.51,0,0,1-.44.26Z" transform="translate(-64.5 -112.61)"/><rect class="cls-29" x="422.5" y="135.34" width="14.92" height="6.78"/><rect class="cls-31" x="422.5" y="142.12" width="14.92" height="4.21"/><rect class="cls-29" x="441.5" y="135.34" width="14.92" height="6.78"/><rect class="cls-31" x="441.5" y="142.12" width="14.92" height="4.21"/><rect class="cls-33" x="286.13" y="225.8" width="48.08" height="3" transform="translate(-67.02 338.51) rotate(-71.83)"/><path class="cls-33" d="M553.52,276.62s-23,6.83-25.51,37.17-27,47.33-27,47.33H189s24.5-17,27-47.33,25.51-37.17,25.51-37.17Z" transform="translate(-64.5 -112.61)"/><path class="cls-6" d="M220,297.45s-3.5,1.34-3.33,4.84.5,3.5.5,3.5.79-4.4,1.45-4.73,5.4,1.19,6.07.19-.23-.82-1.57-1.32-1.45-3-3.12-2.48" transform="translate(-64.5 -112.61)"/><path class="cls-6" d="M192.12,346.93s3.44,6,5.32,7.13,2.75,2.06,3.56,1.69,2.06-.88,1.69-1.88-2-3.31-2-3.87-.94-1.69-.63-2.07,1.82.38,1.82.38l.93-1.19s-2.56-2-4-2.31-4.43-1.25-4.43-1.25Z" transform="translate(-64.5 -112.61)"/><path class="cls-5" d="M555.13,219.75a29.51,29.51,0,0,1,3.12,3.87c.25.75,3.88-.37,4.13-1.5s-4-4.5-4-4.5Z" transform="translate(-64.5 -112.61)"/><path class="cls-6" d="M548.25,210.5s.5,5.5,2.25,8.25,6.88,1.37,7.88.75,1.12-5.25,1.12-5.25l1.38-6.13L554.13,205S548,205.62,548.25,210.5Z" transform="translate(-64.5 -112.61)"/><path class="cls-6" d="M574.5,317s.12,2.11.37,5.3c.37,4.62,1,11.52,2.13,17.54a224.87,224.87,0,0,0,5.84,22.83l3.66-1,.17-1s.33-24.5-.67-31.83c-.57-4.24-1.26-7.2-1.74-9.3a17.73,17.73,0,0,1-.59-3.37C583.67,314.29,574.5,317,574.5,317Z" transform="translate(-64.5 -112.61)"/><path class="cls-8" d="M584.26,319.49a17.73,17.73,0,0,1-.59-3.37c0-1.83-9.17.83-9.17.83s.12,2.11.37,5.3c0,0,5.51.12,8.76-2.25Z" transform="translate(-64.5 -112.61)"/><path class="cls-6" d="M585.34,315.29s.46,1.28,1.31,3.42c2.7,6.84,9.36,22.46,17.85,33.74H607l.84-2.83s-5.17-10.17-5.84-15.5-4-15.67-8-20.33-3.16-4.84-3.16-4.84l-5.34,4.67Z" transform="translate(-64.5 -112.61)"/><path class="cls-8" d="M594,313.79c-4-4.67-3.16-4.84-3.16-4.84l-5.34,4.67-.16,1.67s.46,1.28,1.31,3.42c0,0,4.52-1.17,7-4.42Z" transform="translate(-64.5 -112.61)"/><path class="cls-4" d="M582,361.45s-.16,10.34-1.83,12.17-4,2.17-4.83,2.83-1,2.34,0,2.34,5.5-.17,7.83-1.5,2.5-4.34,2.83-5.84,3.67-1,4.34-2.16,1.16-1.34.16-3.34l-3.16-6.33S583.84,362,582,361.45Z" transform="translate(-64.5 -112.61)"/><path class="cls-4" d="M604,351.12a34.55,34.55,0,0,1-1.16,8.67c-1.17,3.66-2.84,3.83-2.84,4.83s-1,2.5,1.34,2.17,4.66-.67,6.5-2,1.66-5.67,1.83-6.67.17-.17,1.33-.83a3.25,3.25,0,0,0,1.84-3.5c-.34-1.67-5.34-5.34-5.34-5.34A5.17,5.17,0,0,1,604,351.12Z" transform="translate(-64.5 -112.61)"/><path class="cls-35" d="M564.25,260.12s0,18,2.5,30.75,6.25,26.25,6.75,27.5,14-1.75,18.25-6,5-5,4.5-6a17.78,17.78,0,0,1-2.75-8.5c-.25-4.75-1.5-21.25-5.5-28.5a79.93,79.93,0,0,0-6.63-9.87c-1.34-1.76-2.26-3-2.37-3.63C578.75,254.37,564.25,260.12,564.25,260.12Z" transform="translate(-64.5 -112.61)"/><path class="cls-8" d="M566.75,290.87c-2.5-12.75-2.5-30.75-2.5-30.75s14.5-5.75,14.75-4.25c.11.64,1,1.87,2.37,3.63,0,0-4.24,1.75-8,3.37s-6.88,3.38-7,9.63S566.75,290.87,566.75,290.87Z" transform="translate(-64.5 -112.61)"/><path class="cls-6" d="M533,236.87s-4.87-3.62-6.25-4.37-5.25-3.38-6-3.5-1.37.75-.87,1.12a29.61,29.61,0,0,0,3.37,2.38,15.41,15.41,0,0,1,1.38.75s-2,.75-2.38,2.25-.75,2.12-.12,3,1.25,1.75,2.12,1.62,6.63-.62,7.63-.5S533,236.87,533,236.87Z" transform="translate(-64.5 -112.61)"/><path class="cls-9" d="M533.83,235.5a1.73,1.73,0,0,0-1.25.52,5.72,5.72,0,0,0-1.7,2.6c-.13,1.25-.13,2.25.25,2.63s5.62,6.62,11.62,9.12,10.75,2.88,13.13-2c0,0,1.12,8.13,3.25,10s3.87,3.5,8.12,2.5,11.38-3.37,14-5.62,3.38-4,3.38-6.75-1.75-8.5-2.5-10S565,221.37,565,221.37a11.62,11.62,0,0,0-4,.88c-2.12.87-5.5,1.12-9,5.37s-3.12,10-4.5,10.5S539.35,235.63,533.83,235.5Z" transform="translate(-64.5 -112.61)"/><path class="cls-8" d="M555.88,248.37s1.12,8.13,3.25,10,3.87,3.5,8.12,2.5c0,0-4.5-2.5-5.75-6.62s-2.87-15.63-2.87-15.63S558.13,244.5,555.88,248.37Z" transform="translate(-64.5 -112.61)"/><path class="cls-4" d="M552.22,199.15c-1.65.91-4.06,2.57-4.47,5.1-.59,3.73,0,4.87-.37,5.75s1.25,1.5,3.62.5,3.63-1.63,3.75-.75l.13.87s1.25-1.87,2.75-.62-.75,3-1.5,3.37-1.88,4.38,2.12,7.38,6.13,4,7.25,7.37,8.75,15.5,18.13,12.88,3.87-15.88-.63-20.63-7.5-3.37-9.25-8-7.54-13-14-14C555.75,197.75,553.23,198.6,552.22,199.15Z" transform="translate(-64.5 -112.61)"/><path class="cls-7" d="M548.58,213s0,3.83.34,3.75,1.16,0,1.16-.34-1-3.5-1-3.5S548.58,212.79,548.58,213Z" transform="translate(-64.5 -112.61)"/><rect class="cls-2" x="367.17" y="54.51" width="186.83" height="104.5"/><polygon class="cls-28" points="554.06 174.53 367.17 174.53 367.17 72.18 410.17 70.18 367.17 68.51 367.17 60.51 432.83 59.14 367.17 57.26 367.17 52.01 554.06 52.01 554.06 72.51 454.05 74.85 554.06 76.76 554.06 148.35 511.06 150.51 554.06 153.01 554.06 174.53"/><polygon class="cls-2" points="554.06 52.01 367.17 52.01 387.17 35.51 534.06 35.51 554.06 52.01"/><polygon class="cls-2" points="273.04 209.53 66.15 209.53 66.15 88.35 87.83 70.51 273.04 70.51 273.04 209.53"/><polygon class="cls-28" points="253.04 219.53 66.15 219.53 66.15 107.18 109.15 105.18 66.15 103.52 66.15 87.02 253.04 87.02 253.04 183.35 210.04 185.51 253.04 188.01 253.04 219.53"/><polygon class="cls-1" points="253.04 87.02 66.15 87.02 86.15 70.52 273.04 70.52 253.04 87.02"/><polygon class="cls-1" points="270 41.17 184.17 41.17 174.17 52.01 263 52.01 270 41.17"/><polygon class="cls-2" points="270 41.17 263 52.01 231.67 61.01 263 74.85 270 70.85 270 41.17"/><polygon class="cls-28" points="263 74.85 174.17 74.85 174.17 52.01 263 52.01 263 60.89 233 61.89 263 62.43 263 74.85"/><path class="cls-3" d="M404.08,180.12s2.17,2.42,7.17-.33,5.17-9.75,3.67-13.09-1.84-3.5-1.84-3.5Z" transform="translate(-64.5 -112.61)"/><path class="cls-4" d="M371.67,180.12s-4.84,1.5-5.17-5.67,2.33-12.33-.67-19.16-4-21.17,3.84-24.17,15.66,1.83,16.33,6,3.17,18.1,3.17,18.1Z" transform="translate(-64.5 -112.61)"/><path class="cls-5" d="M377,152.7a51.55,51.55,0,0,1,1.83,5.17c0,.58,2.84.42,2.84.42l3.16-2.92-1.5-5.67Z" transform="translate(-64.5 -112.61)"/><path class="cls-6" d="M371.67,148.79s-4.17,1.41-4.75-1,4.16-1.84,4.16-1.84l-2.75-6.16,7.59-5.84,8.58,4.84-.08,2.16s3,10.59-2.75,12.42S371.67,148.79,371.67,148.79Z" transform="translate(-64.5 -112.61)"/><path class="cls-4" d="M376.67,137s-.42,6-5.25,9L368,144.62,366,139l7.83-5.5,1.75-.5A10.66,10.66,0,0,1,376.67,137Z" transform="translate(-64.5 -112.61)"/><path class="cls-4" d="M384.42,141s-6.42-.75-7.75-4-.84-4.83-.84-4.83l7.42,3.25,2.08,2.67Z" transform="translate(-64.5 -112.61)"/><path class="cls-7" d="M379.08,144.7l.92,3.17s1.08.25,1.42-.67l-1.5-2.83S379.08,144,379.08,144.7Z" transform="translate(-64.5 -112.61)"/><path class="cls-3" d="M378.75,157.25a9.61,9.61,0,0,0,6.08-1.88l4.79,2.25,11.76,11.88s3.62,17.12,1,23.5c-3.17,7.68-30.63,1.37-30.63,1.37s-2.87-9.87-1.87-15.87-2.88-9.25,1.5-14.63S378.75,157.25,378.75,157.25Z" transform="translate(-64.5 -112.61)"/><path class="cls-8" d="M379.42,163.29s-4.09.75-4.5,5.75-.92,13.5.08,16.41,1.75,7.92,6,8.59,15.5,1.5,17.75-.42,2.83-8.17,2.92-9.58-7.84-18.59-7.84-18.59S389.33,160.79,379.42,163.29Z" transform="translate(-64.5 -112.61)"/><polygon class="cls-9" points="342.1 4.58 330 76.76 320.08 75.93 323.94 19.2 325.04 2.93 342.1 4.58"/><path class="cls-10" d="M398.43,112.7c4.71.45,8.35,2.56,8.15,4.72s-4.2,3.53-8.91,3.07-8.36-2.57-8.15-4.72S393.72,112.24,398.43,112.7Z" transform="translate(-64.5 -112.61)"/><path class="cls-9" d="M398.36,113.34c3.93.38,7,2.14,6.8,3.94s-3.5,2.94-7.42,2.56-7-2.14-6.8-3.93S394.44,113,398.36,113.34Z" transform="translate(-64.5 -112.61)"/><path class="cls-11" d="M398.19,115.09c1.82.17,3.23,1,3.15,1.82s-1.62,1.37-3.44,1.19-3.23-1-3.15-1.82S396.37,114.91,398.19,115.09Z" transform="translate(-64.5 -112.61)"/><path class="cls-12" d="M401.07,119.79l.27-2.88,0-.23h-.05a.9.9,0,0,1,0,.23c-.08.83-1.62,1.37-3.44,1.19s-3.23-1-3.15-1.82l-.27,2.87A14.78,14.78,0,0,0,401.07,119.79Z" transform="translate(-64.5 -112.61)"/><polygon class="cls-13" points="366.76 25.66 349.31 53.55 345.96 58.9 343.08 63.51 331.5 82.01 319.31 75.67 343.75 29.65 350.76 16.46 366.76 25.66"/><path class="cls-8" d="M418.58,158.45l-8.12,13.06-2.88,4.61a20.45,20.45,0,0,0-1-4.83c-.75-1.84-2.16-2.5-2.25-4.09s-.48-3.5.42-4.16c3.5-2.58.13-2.5,2.71-3,.94-.18,3.15,1.92,5,1.66.28,0,2.46-1.46,2.75-1.5C418.09,159.8,418.58,158.45,418.58,158.45Z" transform="translate(-64.5 -112.61)"/><path class="cls-14" d="M424.94,130.74c4.42,2.54,7.2,6,6.21,7.71s-5.37,1.05-9.79-1.49-7.2-6-6.21-7.71S420.52,128.2,424.94,130.74Z" transform="translate(-64.5 -112.61)"/><path class="cls-15" d="M424.64,131.26c3.69,2.11,6,5,5.18,6.42s-4.47.88-8.16-1.24-6-5-5.18-6.42S421,129.14,424.64,131.26Z" transform="translate(-64.5 -112.61)"/><path class="cls-15" d="M420.06,132.07c-.38.67.69,2,2.4,3s3.4,1.24,3.78.58" transform="translate(-64.5 -112.61)"/><path class="cls-16" d="M424.92,137.92l1.32-2.29h0l-6.18-3.56-1.32,2.3S420.5,136.23,424.92,137.92Z" transform="translate(-64.5 -112.61)"/><path class="cls-6" d="M388.42,165.87s-.34-5.75.33-7.58.58-2.92,1.17-2.84.58.67.41,1.42-.66,2.17,0,2.17,1.09-6,1.92-7.17,1.83-1,2.83-.58.84,4.83.25,6.91-2.83,9.09-2.83,9.09l-2.08.25Z" transform="translate(-64.5 -112.61)"/><path class="cls-3" d="M387.92,165.37a64.34,64.34,0,0,0-5.09,8.08s-2.41-6-5.16-7.33-4.59-2.75-7.25-1.17-3.75,9.09-1.34,13.75,9.59,10.25,12.34,11.42,9,1.33,10.16-3.08,2.92-17.5,2.34-19.25-1-1.25-1-1.25S388.25,166.87,387.92,165.37Z" transform="translate(-64.5 -112.61)"/><path class="cls-6" d="M410.83,170a10.72,10.72,0,0,1-2.41-2.09c-1.59-1.66-4-3.75-4.25-4.83a2.85,2.85,0,0,1,1.25-2.75,7.11,7.11,0,0,1,4.83,1.92c1.92,1.66,2.08,2.16,2.5,1.91s.08-1.66.75-2.33,1.08-.33.92.42a17.27,17.27,0,0,0-.25,2.75c0,.5,1,1.91,0,3.5S411.83,170.62,410.83,170Z" transform="translate(-64.5 -112.61)"/><path class="cls-17" d="M423.84,132.65c1.71,1,2.78,2.31,2.4,3s-2.07.4-3.78-.58-2.78-2.31-2.4-3S422.14,131.67,423.84,132.65Z" transform="translate(-64.5 -112.61)"/><polygon class="cls-3" points="591.83 211.64 486.01 211.64 486.01 189.85 568.26 187.51 591.83 186.85 591.83 211.64"/><path class="cls-18" d="M661.67,311.85c0,6.85-2.54,12.4-5.67,12.4s-5.67-5.55-5.67-12.4,2.54-12.4,5.67-12.4S661.67,305,661.67,311.85Z" transform="translate(-64.5 -112.61)"/><path class="cls-19" d="M660.72,311.85c0,5.71-2.11,10.34-4.72,10.34s-4.72-4.63-4.72-10.34,2.11-10.33,4.72-10.33S660.72,306.14,660.72,311.85Z" transform="translate(-64.5 -112.61)"/><path class="cls-20" d="M658.19,311.85c0,2.65-1,4.79-2.19,4.79s-2.19-2.14-2.19-4.79,1-4.79,2.19-4.79S658.19,309.21,658.19,311.85Z" transform="translate(-64.5 -112.61)"/><path class="cls-21" d="M651.82,307.06H656c-1.21,0-2.19,2.15-2.19,4.79s1,4.79,2.19,4.79a1,1,0,0,0,.33-.07v.07h-4.51A23.47,23.47,0,0,1,651.82,307.06Z" transform="translate(-64.5 -112.61)"/><path class="cls-8" d="M656.33,299.45s-9.5,2.07-8.47,15.26l-95.5,1.93V305.31L634.61,303l21.72-3.53" transform="translate(-64.5 -112.61)"/><path class="cls-18" d="M656,299.45s-8.75,2.07-10,12.4l-95.49,1.94V302.45l82.25-2.33,23.57-.67" transform="translate(-64.5 -112.61)"/><polygon class="cls-22" points="582.53 183.52 469.56 198.67 466.43 175.4 553.91 161.14 578.98 157.05 582.53 183.52"/><path class="cls-23" d="M651,282.13c1,7.31-.93,13.59-4.28,14s-6.84-5.11-7.82-12.42.93-13.6,4.27-14.05S650,274.82,651,282.13Z" transform="translate(-64.5 -112.61)"/><path class="cls-24" d="M649.94,282.26c.82,6.09-.78,11.34-3.56,11.71s-5.71-4.26-6.52-10.36.77-11.33,3.56-11.71S649.13,276.17,649.94,282.26Z" transform="translate(-64.5 -112.61)"/><path class="cls-25" d="M647.24,282.62c.38,2.83-.36,5.26-1.65,5.43s-2.65-2-3-4.8.36-5.25,1.65-5.43S646.86,279.8,647.24,282.62Z" transform="translate(-64.5 -112.61)"/><path class="cls-26" d="M641.12,288.65l4.47-.6.35-.05v-.07a1.06,1.06,0,0,1-.34.12c-1.3.17-2.65-2-3-4.8s.36-5.25,1.65-5.43l-4.46.6S639.31,284.88,641.12,288.65Z" transform="translate(-64.5 -112.61)"/><path class="cls-8" d="M643.48,269.66s-9.85,3.56-6.87,17.49L535,302.89l-1.63-12.1,87.48-14.26,22.68-6.87" transform="translate(-64.5 -112.61)"/><path class="cls-27" d="M643.12,269.7s-9,3.46-8.9,14.67L532.56,300.11,530.93,288l87.48-14.27,25.07-4.08" transform="translate(-64.5 -112.61)"/><polygon class="cls-13" points="138.38 116.53 164.19 219.83 142.92 225.14 120.58 145.43 114.17 122.58 138.38 116.53"/><path class="cls-14" d="M189.47,227c6.69-1.67,12.72-.55,13.49,2.51s-4,6.88-10.72,8.55-12.72.55-13.48-2.5S182.79,228.63,189.47,227Z" transform="translate(-64.5 -112.61)"/><path class="cls-15" d="M189.7,227.88c5.58-1.39,10.61-.46,11.24,2.09s-3.36,5.74-8.93,7.13-10.6.46-11.24-2.09S184.13,229.27,189.7,227.88Z" transform="translate(-64.5 -112.61)"/><path class="cls-17" d="M190.32,230.36c2.58-.65,4.92-.22,5.21,1s-1.56,2.66-4.14,3.31-4.91.21-5.21-1S187.74,231,190.32,230.36Z" transform="translate(-64.5 -112.61)"/><path class="cls-16" d="M196.55,235.41l-1-4.09-.08-.32-.07,0a1.2,1.2,0,0,1,.15.3c.3,1.18-1.56,2.66-4.14,3.31s-4.91.21-5.21-1l1,4.08A21.47,21.47,0,0,0,196.55,235.41Z" transform="translate(-64.5 -112.61)"/><path class="cls-8" d="M178.67,235.19s4.33,8.77,17,4.55l25.18,92.74-11.06,2.77-22.34-79.72-8.74-20.34" transform="translate(-64.5 -112.61)"/><path class="cls-14" d="M178.76,235.52s4.14,8,14.54,6.73L218.48,335l-11.06,2.76L185.08,258l-6.41-22.85" transform="translate(-64.5 -112.61)"/><polygon class="cls-22" points="56.01 132.86 179.31 189.87 163.24 224.63 65.69 184.04 37.73 172.41 56.01 132.86"/><ellipse class="cls-23" cx="111.76" cy="265.42" rx="21.79" ry="7.27" transform="translate(-240.56 142.87) rotate(-65.19)"/><path class="cls-24" d="M106.25,262.88c4.21-9.11,10.09-15.35,13.13-13.94s2.09,9.92-2.12,19-10.08,15.34-13.12,13.94S102,272,106.25,262.88Z" transform="translate(-64.5 -112.61)"/><path class="cls-25" d="M109.21,264.24c2-4.22,4.67-7.11,6.08-6.46s1,4.6-1,8.82-4.68,7.12-6.09,6.47S107.26,268.46,109.21,264.24Z" transform="translate(-64.5 -112.61)"/><path class="cls-26" d="M120.17,260l-4.88-2.26-.39-.18-.05.12a1.07,1.07,0,0,1,.44.06c1.41.65,1,4.6-1,8.82s-4.68,7.12-6.09,6.47l4.88,2.25A54.5,54.5,0,0,0,120.17,260Z" transform="translate(-64.5 -112.61)"/><path class="cls-8" d="M102.23,285s12.59,1.83,21.12-19.76L236,313.61l-8.36,18.07L130.13,291.1,102.23,285" transform="translate(-64.5 -112.61)"/><path class="cls-27" d="M102.61,285.2s11.72,1.42,20.8-14.39L236.1,319.16l-8.36,18.08-97.55-40.59-28-11.63" transform="translate(-64.5 -112.61)"/><path class="cls-4" d="M188,322.45a123.15,123.15,0,0,0-5,13.34c-1.33,5,1.17,8,4.5,10.83s14.5,11.67,15,12.17,8-3,8-3-4.67-6.5-5.5-8.5-5.33-7.67-5.17-9.17A7.24,7.24,0,0,1,201.5,335s1,1.84,3.67,6.17,3.33,7.33,5.16,9S220,358.79,220.5,359s6.17-.66,5.83-2.5-5.83-8.83-5.83-12.33a59.18,59.18,0,0,0-3.67-17.83,15.92,15.92,0,0,0-6.5-7.84Z" transform="translate(-64.5 -112.61)"/><path class="cls-3" d="M183.67,315.45a10.41,10.41,0,0,1,2.33,2.67c1.17,1.83,1,4.33,1.67,5.17s16.83-.84,20.5-2.5,2.16-2.34,2.16-2.34a11,11,0,0,0,.17-3.16c-.17-1.67-2.83-5.5-3.83-7.67s-2.67-7.83-2.67-7.83,3-.34,5.17-.5,5.83,4,7.16,5.66,3.17-.33,3.17-.33a4.34,4.34,0,0,0,2-4.17c-.33-2.83-8-11.33-10.33-12s-11.84-1.16-15.5-.16S191,291.62,190.5,292c-.28.19-3.92,1.57-7.26,2.95-2.66,1.1-5.13,2.2-5.57,2.72-1,1.17-4,8.33-3.34,20.5s3,15.83,4.67,18.33,8,10.84,11.5,11,5-4.83,5-4.83-6.67-12.17-9-14.83S183.67,315.45,183.67,315.45Z" transform="translate(-64.5 -112.61)"/><path class="cls-8" d="M195.67,288.29c-3.67,1-4.67,3.33-5.17,3.66-.28.19-3.92,1.57-7.26,2.95,0,0-4.24,4.41,1.2,4s7.06-1.5,8.62-3.12,2.32-1.88,2.63-3.63A14.09,14.09,0,0,0,195.67,288.29Z" transform="translate(-64.5 -112.61)"/><path class="cls-8" d="M206.67,307.62c1,2.17,3.66,6,3.83,7.67a11,11,0,0,1-.17,3.16s1.5.67-2.16,2.34-19.84,3.33-20.5,2.5-.5-3.34-1.67-5.17a10.41,10.41,0,0,0-2.33-2.67s.21-2.9.14-3.83,0-2.37,0-2.37,1.13,5.13,2.07,6.31,3.5,4.31,4.87,4.44,16.75-.5,16.63-3.63S206.67,307.62,206.67,307.62Z" transform="translate(-64.5 -112.61)"/><path class="cls-5" d="M189,287.56s3.69,3.44,4.5,3.94-5.31,4.87-5.31,4.87l-3.07-2.69-1.31-.06Z" transform="translate(-64.5 -112.61)"/><path class="cls-6" d="M186.58,278.45s.54-2.33,2-1.33-.56,4.44-1,5-1.5-.5-1.5-.5l-.81-1.81.31-1.69Z" transform="translate(-64.5 -112.61)"/><path class="cls-6" d="M172.5,286.87s2.17,2.5,3.33,3.75a8.4,8.4,0,0,0,4,2.33,13.83,13.83,0,0,0,3.84-.75l2.16-4.16L186,284s.5-1,.33-1.41a27.29,27.29,0,0,0-3-2.75L180.25,277l-3.42,3Z" transform="translate(-64.5 -112.61)"/><path class="cls-4" d="M175.5,291a5.48,5.48,0,0,0,3.25,4.25,9.59,9.59,0,0,0,6.33,1.08,7.25,7.25,0,0,0,4-2.75c.92-1.58.75-3.75.59-5.83a11.92,11.92,0,0,0-.92-4.17c-.33-.58-2.08-1.92-2.42-2.75s-.5-2.17.25-2.42c0,0-2.83-4-5.16-4.75s-7-.08-8.34,1-3.33,3.09-3.83,5.25.42,6.75,2.75,7.59,6.83-1.75,8.08-3.59a8.55,8.55,0,0,0,1-4.75,6.39,6.39,0,0,0,1.84,1.59,2.66,2.66,0,0,0,1.58.25,1.44,1.44,0,0,1,.83.66,11.06,11.06,0,0,1,.17,4.84c-.42,1.41-.5,3-2.42,4.33a5.1,5.1,0,0,1-5.25.58,9.09,9.09,0,0,1-2.41-1.41l-.42-.25A4.66,4.66,0,0,1,175.5,291Z" transform="translate(-64.5 -112.61)"/><path class="cls-7" d="M179.51,288.05l1.42,2.38s1.41.15,1.49-.89l-1.94-2.39S179.14,286.86,179.51,288.05Z" transform="translate(-64.5 -112.61)"/><path class="cls-4" d="M210.62,359.79s.77,4.32.38,5.25-.54.83-.54.83l-2.65.06a.37.37,0,0,1-.35-.3c-.07-.36-.24-.93-.58-.84a26.58,26.58,0,0,1-6.63,2.5c-3.75.75-7.63,1.5-7.87.5s-2.26-.88,1.74-2.5,9-4.25,10.38-5.75S210.62,359.79,210.62,359.79Z" transform="translate(-64.5 -112.61)"/><path class="cls-4" d="M221,356.54s-.25,3,.25,3.75,2.5,4,3.13,4.62,2.37.88,2.62.13a11.87,11.87,0,0,0-.25-4.5c-.37-2-.87-4.88-.87-4.88S222,354.66,221,356.54Z" transform="translate(-64.5 -112.61)"/><rect class="cls-29" x="155.83" y="152.85" width="348.84" height="83.21"/><rect class="cls-30" x="164.17" y="159.51" width="332" height="10.67"/><rect class="cls-31" x="168.5" y="162.18" width="324.26" height="4"/><polygon class="cls-30" points="504.68 152.85 155.83 152.85 200.84 80.53 504.83 80.53 504.68 152.85"/><polygon class="cls-29" points="346.79 142.12 187.17 142.12 216.31 87.26 354.49 87.26 346.79 142.12"/><polygon class="cls-32" points="341.85 137.53 195.11 137.53 220.44 91.85 348.55 91.85 341.85 137.53"/><rect class="cls-33" x="215.32" y="100.08" width="131.88" height="2"/><rect class="cls-33" x="210.83" y="108.18" width="135.18" height="2"/><rect class="cls-31" x="187.17" y="142.12" width="159.61" height="4.21"/><polygon class="cls-34" points="346.78 142.12 354.49 87.26 354.49 99.51 346.78 146.33 346.78 142.12"/><polygon class="cls-29" points="368.5 87.26 367.17 102.18 386 102.18 387 87.26 368.5 87.26"/><rect class="cls-31" x="367.17" y="102.18" width="18.83" height="3.67"/><polygon class="cls-29" points="467.51 87.26 466.17 102.18 485.01 102.18 486.01 87.26 467.51 87.26"/><rect class="cls-31" x="466.17" y="102.18" width="18.83" height="3.67"/><polygon class="cls-29" points="393.76 87.26 392.17 102.18 400.5 102.18 400.5 87.26 393.76 87.26"/><rect class="cls-31" x="392.17" y="102.18" width="8.33" height="3.67"/><polygon class="cls-29" points="405.76 87.26 404.17 102.18 412.5 102.18 412.5 87.26 405.76 87.26"/><rect class="cls-31" x="404.17" y="102.18" width="8.33" height="3.67"/><polygon class="cls-35" points="365.22 127.74 363.63 142.66 386.17 142.66 386.17 127.74 365.22 127.74"/><rect class="cls-31" x="363.63" y="142.66" width="22.54" height="3.67"/><polygon class="cls-29" points="391.55 128 391.5 142.66 412.5 142.68 412.5 128 391.55 128"/><rect class="cls-31" x="391.5" y="142.67" width="21" height="3.67"/><polygon class="cls-29" points="366.95 113.26 365.5 122.29 386 122.29 386 113.26 366.95 113.26"/><rect class="cls-31" x="365.5" y="122.29" width="20.5" height="2.22"/><polygon class="cls-29" points="392.06 113.26 391.5 122.29 412.5 122.29 412.5 113.26 392.06 113.26"/><rect class="cls-31" x="391.5" y="122.29" width="21" height="2.22"/><polygon class="cls-29" points="465.56 128 465.51 142.66 486.51 142.68 486.51 128 465.56 128"/><rect class="cls-31" x="465.51" y="142.67" width="21" height="3.67"/><polygon class="cls-35" points="466.06 113.26 465.51 122.29 486.51 122.29 486.51 113.26 466.06 113.26"/><rect class="cls-31" x="465.51" y="122.29" width="21" height="2.22"/><polygon class="cls-31" points="504.68 236.06 504.68 152.85 504.83 80.53 514.83 203.51 504.68 236.06"/><polygon class="cls-35" points="437.42 102.18 422.5 102.18 423.5 87.26 438.42 87.26 437.42 102.18"/><rect class="cls-31" x="422.5" y="102.18" width="14.92" height="3.67"/><path class="cls-29" d="M496.75,210.72l-5.17-3a.52.52,0,0,1-.25-.44.49.49,0,0,1,.26-.43l5.17-2.87.48.87-4.39,2.44,4.4,2.52Z" transform="translate(-64.5 -112.61)"/><polygon class="cls-35" points="441.5 102.18 456.42 102.18 457.42 87.26 442.5 87.26 441.5 102.18"/><rect class="cls-31" x="506" y="214.79" width="14.92" height="3.67" transform="translate(962.42 320.63) rotate(180)"/><path class="cls-29" d="M511.17,210.72l-.5-.87,4.4-2.52-4.39-2.44.49-.87,5.16,2.87a.49.49,0,0,1,.26.43.5.5,0,0,1-.25.44Z" transform="translate(-64.5 -112.61)"/><polygon class="cls-35" points="437.42 125.18 422.5 125.18 423.5 110.26 438.42 110.26 437.42 125.18"/><rect class="cls-31" x="422.5" y="125.18" width="14.92" height="3.67"/><path class="cls-29" d="M491.93,233.2l-.86-.49,3-5.17a.5.5,0,0,1,.43-.25h0a.51.51,0,0,1,.44.26l2.87,5.16-.87.49-2.45-4.39Z" transform="translate(-64.5 -112.61)"/><polygon class="cls-35" points="441.5 125.18 456.42 125.18 457.42 110.26 442.5 110.26 441.5 125.18"/><rect class="cls-31" x="506" y="237.79" width="14.92" height="3.67" transform="translate(962.42 366.64) rotate(180)"/><path class="cls-29" d="M513.55,233.46a.49.49,0,0,1-.43-.26l-3-5.16.86-.5,2.52,4.4,2.45-4.39.87.48L514,233.2a.51.51,0,0,1-.44.26Z" transform="translate(-64.5 -112.61)"/><rect class="cls-29" x="422.5" y="135.34" width="14.92" height="6.78"/><rect class="cls-31" x="422.5" y="142.12" width="14.92" height="4.21"/><rect class="cls-29" x="441.5" y="135.34" width="14.92" height="6.78"/><rect class="cls-31" x="441.5" y="142.12" width="14.92" height="4.21"/><rect class="cls-33" x="286.13" y="225.8" width="48.08" height="3" transform="translate(-67.02 338.51) rotate(-71.83)"/><path class="cls-33" d="M553.52,276.62s-23,6.83-25.51,37.17-27,47.33-27,47.33H189s24.5-17,27-47.33,25.51-37.17,25.51-37.17Z" transform="translate(-64.5 -112.61)"/><path class="cls-6" d="M220,297.45s-3.5,1.34-3.33,4.84.5,3.5.5,3.5.79-4.4,1.45-4.73,5.4,1.19,6.07.19-.23-.82-1.57-1.32-1.45-3-3.12-2.48" transform="translate(-64.5 -112.61)"/><path class="cls-6" d="M192.12,346.93s3.44,6,5.32,7.13,2.75,2.06,3.56,1.69,2.06-.88,1.69-1.88-2-3.31-2-3.87-.94-1.69-.63-2.07,1.82.38,1.82.38l.93-1.19s-2.56-2-4-2.31-4.43-1.25-4.43-1.25Z" transform="translate(-64.5 -112.61)"/><path class="cls-5" d="M555.13,219.75a29.51,29.51,0,0,1,3.12,3.87c.25.75,3.88-.37,4.13-1.5s-4-4.5-4-4.5Z" transform="translate(-64.5 -112.61)"/><path class="cls-6" d="M548.25,210.5s.5,5.5,2.25,8.25,6.88,1.37,7.88.75,1.12-5.25,1.12-5.25l1.38-6.13L554.13,205S548,205.62,548.25,210.5Z" transform="translate(-64.5 -112.61)"/><path class="cls-6" d="M574.5,317s.12,2.11.37,5.3c.37,4.62,1,11.52,2.13,17.54a224.87,224.87,0,0,0,5.84,22.83l3.66-1,.17-1s.33-24.5-.67-31.83c-.57-4.24-1.26-7.2-1.74-9.3a17.73,17.73,0,0,1-.59-3.37C583.67,314.29,574.5,317,574.5,317Z" transform="translate(-64.5 -112.61)"/><path class="cls-8" d="M584.26,319.49a17.73,17.73,0,0,1-.59-3.37c0-1.83-9.17.83-9.17.83s.12,2.11.37,5.3c0,0,5.51.12,8.76-2.25Z" transform="translate(-64.5 -112.61)"/><path class="cls-6" d="M585.34,315.29s.46,1.28,1.31,3.42c2.7,6.84,9.36,22.46,17.85,33.74H607l.84-2.83s-5.17-10.17-5.84-15.5-4-15.67-8-20.33-3.16-4.84-3.16-4.84l-5.34,4.67Z" transform="translate(-64.5 -112.61)"/><path class="cls-8" d="M594,313.79c-4-4.67-3.16-4.84-3.16-4.84l-5.34,4.67-.16,1.67s.46,1.28,1.31,3.42c0,0,4.52-1.17,7-4.42Z" transform="translate(-64.5 -112.61)"/><path class="cls-4" d="M582,361.45s-.16,10.34-1.83,12.17-4,2.17-4.83,2.83-1,2.34,0,2.34,5.5-.17,7.83-1.5,2.5-4.34,2.83-5.84,3.67-1,4.34-2.16,1.16-1.34.16-3.34l-3.16-6.33S583.84,362,582,361.45Z" transform="translate(-64.5 -112.61)"/><path class="cls-4" d="M604,351.12a34.55,34.55,0,0,1-1.16,8.67c-1.17,3.66-2.84,3.83-2.84,4.83s-1,2.5,1.34,2.17,4.66-.67,6.5-2,1.66-5.67,1.83-6.67.17-.17,1.33-.83a3.25,3.25,0,0,0,1.84-3.5c-.34-1.67-5.34-5.34-5.34-5.34A5.17,5.17,0,0,1,604,351.12Z" transform="translate(-64.5 -112.61)"/><path class="cls-35" d="M564.25,260.12s0,18,2.5,30.75,6.25,26.25,6.75,27.5,14-1.75,18.25-6,5-5,4.5-6a17.78,17.78,0,0,1-2.75-8.5c-.25-4.75-1.5-21.25-5.5-28.5a79.93,79.93,0,0,0-6.63-9.87c-1.34-1.76-2.26-3-2.37-3.63C578.75,254.37,564.25,260.12,564.25,260.12Z" transform="translate(-64.5 -112.61)"/><path class="cls-8" d="M566.75,290.87c-2.5-12.75-2.5-30.75-2.5-30.75s14.5-5.75,14.75-4.25c.11.64,1,1.87,2.37,3.63,0,0-4.24,1.75-8,3.37s-6.88,3.38-7,9.63S566.75,290.87,566.75,290.87Z" transform="translate(-64.5 -112.61)"/><path class="cls-6" d="M533,236.87s-4.87-3.62-6.25-4.37-5.25-3.38-6-3.5-1.37.75-.87,1.12a29.61,29.61,0,0,0,3.37,2.38,15.41,15.41,0,0,1,1.38.75s-2,.75-2.38,2.25-.75,2.12-.12,3,1.25,1.75,2.12,1.62,6.63-.62,7.63-.5S533,236.87,533,236.87Z" transform="translate(-64.5 -112.61)"/><path class="cls-9" d="M533.83,235.5a1.73,1.73,0,0,0-1.25.52,5.72,5.72,0,0,0-1.7,2.6c-.13,1.25-.13,2.25.25,2.63s5.62,6.62,11.62,9.12,10.75,2.88,13.13-2c0,0,1.12,8.13,3.25,10s3.87,3.5,8.12,2.5,11.38-3.37,14-5.62,3.38-4,3.38-6.75-1.75-8.5-2.5-10S565,221.37,565,221.37a11.62,11.62,0,0,0-4,.88c-2.12.87-5.5,1.12-9,5.37s-3.12,10-4.5,10.5S539.35,235.63,533.83,235.5Z" transform="translate(-64.5 -112.61)"/><path class="cls-8" d="M555.88,248.37s1.12,8.13,3.25,10,3.87,3.5,8.12,2.5c0,0-4.5-2.5-5.75-6.62s-2.87-15.63-2.87-15.63S558.13,244.5,555.88,248.37Z" transform="translate(-64.5 -112.61)"/><path class="cls-4" d="M552.22,199.15c-1.65.91-4.06,2.57-4.47,5.1-.59,3.73,0,4.87-.37,5.75s1.25,1.5,3.62.5,3.63-1.63,3.75-.75l.13.87s1.25-1.87,2.75-.62-.75,3-1.5,3.37-1.88,4.38,2.12,7.38,6.13,4,7.25,7.37,8.75,15.5,18.13,12.88,3.87-15.88-.63-20.63-7.5-3.37-9.25-8-7.54-13-14-14C555.75,197.75,553.23,198.6,552.22,199.15Z" transform="translate(-64.5 -112.61)"/><path class="cls-7" d="M548.58,213s0,3.83.34,3.75,1.16,0,1.16-.34-1-3.5-1-3.5S548.58,212.79,548.58,213Z" transform="translate(-64.5 -112.61)"/></svg>