<svg xmlns="http://www.w3.org/2000/svg" viewBox="0 0 590 373.3"><defs><style>.cls-1{isolation:isolate;}.cls-2{opacity:0.5;}.cls-10,.cls-3,.cls-4,.cls-5,.cls-6,.cls-7,.cls-8,.cls-9{fill:#b5def7;}.cls-3{opacity:0.58;}.cls-4{opacity:0.6;}.cls-32,.cls-5{opacity:0.29;}.cls-6{opacity:0.41;}.cls-7{opacity:0.59;}.cls-8{opacity:0.42;}.cls-9{opacity:0.64;}.cls-11{fill:#e8505c;}.cls-12{fill:#e6f8ff;}.cls-13{fill:#67c2ef;}.cls-14,.cls-34,.cls-39,.cls-42,.cls-44,.cls-45{fill:none;}.cls-14{stroke:#ffbc97;stroke-linecap:round;stroke-width:1.5px;}.cls-14,.cls-45{stroke-linejoin:round;}.cls-15{fill:#153351;}.cls-16{fill:#c1e9f4;}.cls-17{fill:#a7ddf2;}.cls-18{fill:#fcb6ac;}.cls-19{fill:#ed9c80;opacity:0.3;}.cls-19,.cls-30,.cls-32,.cls-35,.cls-42{mix-blend-mode:multiply;}.cls-20{fill:#285faf;}.cls-21{fill:#144e93;}.cls-22{fill:#fff;}.cls-23{fill:#f0f9fc;}.cls-24{fill:#db4052;}.cls-25{fill:#e6ecef;}.cls-26{fill:#389fe5;}.cls-27{fill:#b0d9ef;}.cls-28{fill:#f99ba7;}.cls-29{fill:#af835b;}.cls-30,.cls-32{fill:#65a0b7;}.cls-30{opacity:0.45;}.cls-31{fill:#9cd9f2;}.cls-33{fill:#f9dce0;}.cls-34,.cls-39{stroke:#fff;}.cls-34,.cls-39,.cls-42,.cls-44{stroke-miterlimit:10;}.cls-34{stroke-width:0.46px;}.cls-36{fill:#d2f0f9;}.cls-37{fill:#d6e0e5;}.cls-38{fill:#c1ced6;}.cls-39,.cls-44,.cls-45{stroke-width:0.42px;}.cls-40{fill:#0f7bb7;}.cls-41{fill:#bbeaf9;}.cls-42{stroke:#cfeffe;stroke-width:0.83px;}.cls-43{fill:#c9ecf7;}.cls-44,.cls-45{stroke:#f4bac0;}.cls-46{opacity:0.4;}.cls-47{fill:#f3fbff;}</style></defs><g class="cls-1"><g id="OBJECT"><g class="cls-2"><path class="cls-3" d="M192.11,286.62V262.09l-16.64,18.19v30.24H164.75V267.18H162l-7.77-7.26-7.8,7.26h-2.68v58.49H104.33v57.41H218.11V286.62ZM162,302.18H146.5v-1.59H162Zm0-3.17H146.5v-1.58H162Zm0-3.16H146.5v-1.58H162Zm0-3.17H146.5V291.1H162Zm0-3.16H146.5v-1.58H162Zm0-3.16H146.5v-1.59H162Zm0-3.17H146.5v-1.58H162Zm0-3.16H146.5v-1.58H162Zm0-3.17H146.5v-1.58H162Zm0-3.16H146.5v-1.58H162Zm0-3.16H146.5V269H162Zm28,77.07h-1.61V269.75L190,268Z" transform="translate(-62.82 -52.94)"/><path class="cls-4" d="M309.63,286.62V262.09L293,280.28v30.24H282.26V267.18h-2.72l-7.76-7.26L264,267.18h-2.68v58.49H221.84v57.41H335.62V286.62Zm-30.09,15.56H264v-1.59h15.52Zm0-3.17H264v-1.58h15.52Zm0-3.16H264v-1.58h15.52Zm0-3.17H264V291.1h15.52Zm0-3.16H264v-1.58h15.52Zm0-3.16H264v-1.59h15.52Zm0-3.17H264v-1.58h15.52Zm0-3.16H264v-1.58h15.52Zm0-3.17H264v-1.58h15.52Zm0-3.16H264v-1.58h15.52Zm0-3.16H264V269h15.52Zm28,77.07H305.9V269.75l1.62-1.77Z" transform="translate(-62.82 -52.94)"/><path class="cls-5" d="M267.16,327.84V272.39h-2.5v-5.61H245.33v5.61h-2.49V342.1H224.7V310.53H198.29V352H185.52V277.75h-26v57h-3.06V300.83h-4.7l-13.13-6.94v6.94h-2.87v41.91h-6.37V286h-6.44V266.06h-.88V286H115.6V383.2H283.44V327.84Zm-139.34-5.39H117.19v-1.23h10.63Zm0-2.85H117.19v-1.24h10.63Zm0-2.86H117.19v-1.23h10.63Zm0-2.86H117.19v-1.23h10.63Zm0-2.85H117.19V309.8h10.63Zm0-2.86H117.19v-1.23h10.63Zm0-2.85H117.19v-1.24h10.63Zm0-2.86H117.19v-1.23h10.63Zm0-2.86H117.19v-1.23h10.63Zm0-2.85H117.19v-1.23h10.63Zm0-2.86H117.19v-1.23h10.63Zm0-2.85H117.19V289.8h10.63Zm0-2.86H117.19V287h10.63Zm37.28,17h-3.16V302h3.16Zm0-5.27h-3.16v-3.17h3.16Zm0-5.28h-3.16v-3.16h3.16Zm0-5.27h-3.16v-3.17h3.16Zm0-5.28h-3.16v-3.17h3.16Zm6,21.1H168V302h3.17Zm0-5.27H168v-3.17h3.17Zm0-5.28H168v-3.16h3.17Zm0-5.27H168v-3.17h3.17Zm0-5.28H168v-3.17h3.17Zm6,21.1H174V302h3.16Zm0-5.27H174v-3.17h3.16Zm0-5.28H174v-3.16h3.16Zm0-5.27H174v-3.17h3.16Zm0-5.28H174v-3.17h3.16Zm6,21.1H180V302h3.17Zm0-5.27H180v-3.17h3.17Zm0-5.28H180v-3.16h3.17Zm0-5.27H180v-3.17h3.17Zm86.5,64.58h-3.29v-3.29h3.29Zm0-6.59h-3.29v-3.29h3.29Zm0-6.58h-3.29v-3.29h3.29Zm0-6.59h-3.29v-3.29h3.29Zm6.1,19.76h-3.29v-3.29h3.29Zm0-6.59h-3.29v-3.29h3.29Zm0-6.58h-3.29v-3.29h3.29Zm0-6.59h-3.29v-3.29h3.29Zm6.11,19.76h-3.29v-3.29h3.29Zm0-6.59h-3.29v-3.29h3.29Zm0-6.58h-3.29v-3.29h3.29Zm0-6.59h-3.29v-3.29h3.29Z" transform="translate(-62.82 -52.94)"/><path class="cls-6" d="M344.36,322V272.39h-2.5v-5.61H322.53v5.61H320V342.1H301.9V310.53H275.48V352H262.72V277.75h-26v57h-3.05V300.83h-4.71l-13.12-6.94v6.94h-2.87v41.91h-6.37V286h-6.45V266.06h-.88V286H192.8V383.2H360.64V322Zm-139.34.5H194.38v-1.23H205Zm0-2.85H194.38v-1.24H205Zm0-2.86H194.38v-1.23H205Zm0-2.86H194.38v-1.23H205Zm0-2.85H194.38V309.8H205Zm0-2.86H194.38v-1.23H205Zm0-2.85H194.38v-1.24H205Zm0-2.86H194.38v-1.23H205Zm0-2.86H194.38v-1.23H205Zm0-2.85H194.38v-1.23H205Zm0-2.86H194.38v-1.23H205Zm0-2.85H194.38V289.8H205Zm0-2.86H194.38V287H205Zm37.28,17h-3.17V302h3.17Zm0-5.27h-3.17v-3.17h3.17Zm0-5.28h-3.17v-3.16h3.17Zm0-5.27h-3.17v-3.17h3.17Zm0-5.28h-3.17v-3.17h3.17Zm6,21.1h-3.16V302h3.16Zm0-5.27h-3.16v-3.17h3.16Zm0-5.28h-3.16v-3.16h3.16Zm0-5.27h-3.16v-3.17h3.16Zm0-5.28h-3.16v-3.17h3.16Zm6,21.1h-3.17V302h3.17Zm0-5.27h-3.17v-3.17h3.17Zm0-5.28h-3.17v-3.16h3.17Zm0-5.27h-3.17v-3.17h3.17Zm0-5.28h-3.17v-3.17h3.17Zm6,21.1h-3.16V302h3.16Zm0-5.27h-3.16v-3.17h3.16Zm0-5.28h-3.16v-3.16h3.16Zm0-5.27h-3.16v-3.17h3.16Zm88.17,55.85h-2.84v-2.84h2.84Zm0-5.69h-2.84v-2.84h2.84Zm0-5.69h-2.84V331h2.84Zm0-5.68h-2.84v-2.84h2.84Zm5.28,17.06h-2.85v-2.84h2.85Zm0-5.69h-2.85v-2.84h2.85Zm0-5.69h-2.85V331h2.85Zm0-5.68h-2.85v-2.84h2.85Zm5.27,17.06h-2.85v-2.84h2.85Zm0-5.69h-2.85v-2.84h2.85Zm0-5.69h-2.85V331h2.85Zm0-5.68h-2.85v-2.84h2.85Z" transform="translate(-62.82 -52.94)"/><path class="cls-7" d="M444.37,286.62V262.09l-16.64,18.19v30.24H417V267.18h-2.73l-7.76-7.26-7.81,7.26H396v58.49H356.59v57.41H470.37V286.62Zm-30.09,15.56H398.76v-1.59h15.52Zm0-3.17H398.76v-1.58h15.52Zm0-3.16H398.76v-1.58h15.52Zm0-3.17H398.76V291.1h15.52Zm0-3.16H398.76v-1.58h15.52Zm0-3.16H398.76v-1.59h15.52Zm0-3.17H398.76v-1.58h15.52Zm0-3.16H398.76v-1.58h15.52Zm0-3.17H398.76v-1.58h15.52Zm0-3.16H398.76v-1.58h15.52Zm0-3.16H398.76V269h15.52Zm28,77.07h-1.61V269.75l1.61-1.77Z" transform="translate(-62.82 -52.94)"/><path class="cls-8" d="M561.88,286.62V262.09l-16.64,18.19v30.24H534.52V267.18h-2.73L524,259.92l-7.8,7.26h-2.68v58.49H474.1v57.41H587.88V286.62Zm-30.09,15.56H516.27v-1.59h15.52Zm0-3.17H516.27v-1.58h15.52Zm0-3.16H516.27v-1.58h15.52Zm0-3.17H516.27V291.1h15.52Zm0-3.16H516.27v-1.58h15.52Zm0-3.16H516.27v-1.59h15.52Zm0-3.17H516.27v-1.58h15.52Zm0-3.16H516.27v-1.58h15.52Zm0-3.17H516.27v-1.58h15.52Zm0-3.16H516.27v-1.58h15.52Zm0-3.16H516.27V269h15.52Zm28,77.07h-1.61V269.75l1.61-1.77Z" transform="translate(-62.82 -52.94)"/><path class="cls-4" d="M519.41,327.84V272.39h-2.49v-5.61H497.59v5.61H495.1V342.1H477V310.53H450.54V352H437.78V277.75h-26v57H408.7V300.83H404l-13.12-6.94v6.94H388v41.91h-6.37V286h-6.45V266.06h-.88V286h-6.44V383.2H535.7V327.84Zm-139.33-5.39H369.44v-1.23h10.64Zm0-2.85H369.44v-1.24h10.64Zm0-2.86H369.44v-1.23h10.64Zm0-2.86H369.44v-1.23h10.64Zm0-2.85H369.44V309.8h10.64Zm0-2.86H369.44v-1.23h10.64Zm0-2.85H369.44v-1.24h10.64Zm0-2.86H369.44v-1.23h10.64Zm0-2.86H369.44v-1.23h10.64Zm0-2.85H369.44v-1.23h10.64Zm0-2.86H369.44v-1.23h10.64Zm0-2.85H369.44V289.8h10.64Zm0-2.86H369.44V287h10.64Zm37.28,17h-3.17V302h3.17Zm0-5.27h-3.17v-3.17h3.17Zm0-5.28h-3.17v-3.16h3.17Zm0-5.27h-3.17v-3.17h3.17Zm0-5.28h-3.17v-3.17h3.17Zm6,21.1h-3.16V302h3.16Zm0-5.27h-3.16v-3.17h3.16Zm0-5.28h-3.16v-3.16h3.16Zm0-5.27h-3.16v-3.17h3.16Zm0-5.28h-3.16v-3.17h3.16Zm6,21.1h-3.17V302h3.17Zm0-5.27h-3.17v-3.17h3.17Zm0-5.28h-3.17v-3.16h3.17Zm0-5.27h-3.17v-3.17h3.17Zm0-5.28h-3.17v-3.17h3.17Zm6,21.1h-3.16V302h3.16Zm0-5.27h-3.16v-3.17h3.16Zm0-5.28h-3.16v-3.16h3.16Zm0-5.27h-3.16v-3.17h3.16Zm86.51,64.58h-3.29v-3.29h3.29Zm0-6.59h-3.29v-3.29h3.29Zm0-6.58h-3.29v-3.29h3.29Zm0-6.59h-3.29v-3.29h3.29Zm6.1,19.76h-3.29v-3.29H528Zm0-6.59h-3.29v-3.29H528Zm0-6.58h-3.29v-3.29H528Zm0-6.59h-3.29v-3.29H528Zm6.11,19.76h-3.3v-3.29h3.3Zm0-6.59h-3.3v-3.29h3.3Zm0-6.58h-3.3v-3.29h3.3Zm0-6.59h-3.3v-3.29h3.3Z" transform="translate(-62.82 -52.94)"/><path class="cls-9" d="M596.61,322V272.39h-2.5v-5.61H574.78v5.61H572.3V342.1H554.16V310.53H527.74V352H515V277.75H489v57H485.9V300.83h-4.71l-13.12-6.94v6.94H465.2v41.91h-6.38V286h-6.44V266.06h-.88V286h-6.45V383.2H612.89V322Zm-139.34.5H446.64v-1.23h10.63Zm0-2.85H446.64v-1.24h10.63Zm0-2.86H446.64v-1.23h10.63Zm0-2.86H446.64v-1.23h10.63Zm0-2.85H446.64V309.8h10.63Zm0-2.86H446.64v-1.23h10.63Zm0-2.85H446.64v-1.24h10.63Zm0-2.86H446.64v-1.23h10.63Zm0-2.86H446.64v-1.23h10.63Zm0-2.85H446.64v-1.23h10.63Zm0-2.86H446.64v-1.23h10.63Zm0-2.85H446.64V289.8h10.63Zm0-2.86H446.64V287h10.63Zm37.29,17h-3.17V302h3.17Zm0-5.27h-3.17v-3.17h3.17Zm0-5.28h-3.17v-3.16h3.17Zm0-5.27h-3.17v-3.17h3.17Zm0-5.28h-3.17v-3.17h3.17Zm6,21.1h-3.16V302h3.16Zm0-5.27h-3.16v-3.17h3.16Zm0-5.28h-3.16v-3.16h3.16Zm0-5.27h-3.16v-3.17h3.16Zm0-5.28h-3.16v-3.17h3.16Zm6,21.1h-3.17V302h3.17Zm0-5.27h-3.17v-3.17h3.17Zm0-5.28h-3.17v-3.16h3.17Zm0-5.27h-3.17v-3.17h3.17Zm0-5.28h-3.17v-3.17h3.17Zm6,21.1h-3.16V302h3.16Zm0-5.27h-3.16v-3.17h3.16Zm0-5.28h-3.16v-3.16h3.16Zm0-5.27h-3.16v-3.17h3.16Zm88.17,55.85h-2.84v-2.84h2.84Zm0-5.69h-2.84v-2.84h2.84Zm0-5.69h-2.84V331h2.84Zm0-5.68h-2.84v-2.84h2.84ZM606,345.21H603.2v-2.84H606Zm0-5.69H603.2v-2.84H606Zm0-5.69H603.2V331H606Zm0-5.68H603.2v-2.84H606Zm5.27,17.06h-2.84v-2.84h2.84Zm0-5.69h-2.84v-2.84h2.84Zm0-5.69h-2.84V331h2.84Zm0-5.68h-2.84v-2.84h2.84Z" transform="translate(-62.82 -52.94)"/><rect class="cls-10" x="465.99" y="263.12" width="18.67" height="67.15"/><path class="cls-10" d="M652.16,384.25H63.49a.62.62,0,0,1-.67-.55h0a.62.62,0,0,1,.67-.56H652.16a.61.61,0,0,1,.66.56h0A.61.61,0,0,1,652.16,384.25Z" transform="translate(-62.82 -52.94)"/></g><path class="cls-11" d="M290.59,266.78a42.71,42.71,0,0,1,12.24,3,25.5,25.5,0,0,1,8.76,6.05,21.8,21.8,0,0,1,5,9.2,33.09,33.09,0,0,1,.72,12.37q-1,9-4.91,14.54a21.94,21.94,0,0,1-10.25,8L312,349.9a3.17,3.17,0,0,1,.17,1.35,2.7,2.7,0,0,1-.88,1.78,2.13,2.13,0,0,1-1.72.6l-14.32-1.58a3.7,3.7,0,0,1-2.88-1.41,10.53,10.53,0,0,1-1.18-2.31l-8.87-26.88-9.68-1.07L269.83,346a3.34,3.34,0,0,1-1.1,2.18,2.59,2.59,0,0,1-2.1.74l-13.79-1.52a2.65,2.65,0,0,1-1.9-1.18,3.39,3.39,0,0,1-.59-2.37l8.51-77.28a3.36,3.36,0,0,1,1.1-2.18,2.59,2.59,0,0,1,2.1-.73ZM274.7,301.72,286.6,303a13.13,13.13,0,0,0,7.52-1.11q3.11-1.59,3.66-6.62T295.65,288a13,13,0,0,0-7.1-2.72L276.65,284Z" transform="translate(-62.82 -52.94)"/><path class="cls-12" d="M414.25,94.85h-.65l-20.77-26.7-20.16,26.7H290.56l-42.95,42.53H290v10.07h2V137.38h39.12l.11.11.11-.11h.93l.11.11.11-.11h39.12V382.22h42.67V137.38h39.12l.1.11.11-.11h1l43-42.53ZM252.47,135.38,290,98.25v37.13Zm77-38.53L311.44,114.9,293.39,96.85ZM292,98.27l18.06,18L292,134.37Zm1.82,37.11,17.65-17.65,17.65,17.65Zm36.86-1.27-17.8-17.79,17.8-17.79Zm39.51-37.26L352.11,114.9,334.06,96.85Zm-37.51,1.42,18.05,18-18.05,18.05Zm1.81,37.11,17.65-17.65,17.65,17.65Zm37.12-1-18.05-18.05,18.05-18Zm21.27-62.94,18.21,23.42H375.18Zm17.91,25.42-17.88,17.89L375,96.85Zm-35.51,241,17.63-17.63,17.63,17.63Zm35.7,2-18.07,18.07L374.8,339.85ZM374.9,299.41h36l-18,18Zm.26-2,17.72-17.72,17.72,17.72ZM375,259h35.77l-17.88,17.89Zm.07-2,17.82-17.81L410.69,257Zm0-38.43h35.58l-17.79,17.79Zm-.12-2,17.91-17.91,17.91,17.91Zm0-38.63h35.77L392.88,195.8Zm.07-2,17.82-17.81,17.81,17.81ZM375,137.38h35.77l-17.88,17.89Zm.07-2,17.82-17.81,17.81,17.81Zm-1.48-37.11,17.88,17.88L373.58,134Zm0,40.53,17.88,17.88-17.88,17.89Zm0,40.53,17.88,17.88L373.58,215.1Zm0,40.53,17.88,17.88-17.88,17.89Zm0,40.53,17.88,17.89-17.88,17.88Zm0,40.53,17.88,17.89-17.88,17.88Zm0,40.53,17.88,17.89-17.88,17.88Zm38.67,38.77H373.58v-.17l19.3-19.3,19.37,19.37Zm0-2.93-18-18,18-18Zm0-40.53-18-17.95,18-18Zm0-40.53-18-18,18-18Zm0-40.53-18-18,18-18Zm0-40.53-18-18,18-18Zm0-40.53-18-18,18-18Zm0-40.53-18-18,18-18Zm39.52-37.26L433.71,114.9l-18-18.05Zm-37.52,1.42,18.05,18-18.05,18.05Zm1.81,37.11,17.65-17.65,17.66,17.65Zm37.12-1-18.05-18.05,18.05-18Zm2-37.52h37.5L455.18,134Z" transform="translate(-62.82 -52.94)"/><path class="cls-12" d="M290,215.38a4.51,4.51,0,0,1-4.5-4.51V143a4.51,4.51,0,1,1,9,0v67.9A4.51,4.51,0,0,1,290,215.38Zm0-76.17a3.76,3.76,0,0,0-3.75,3.76v67.9a3.76,3.76,0,1,0,7.51,0V143A3.76,3.76,0,0,0,290,139.21Z" transform="translate(-62.82 -52.94)"/><path class="cls-13" d="M290,215h0a4.15,4.15,0,0,1-4.13-4.14V199.26a4.14,4.14,0,0,1,4.13-4.13h0a4.15,4.15,0,0,1,4.14,4.13v11.61A4.15,4.15,0,0,1,290,215Z" transform="translate(-62.82 -52.94)"/><path class="cls-13" d="M290,231.79a6.07,6.07,0,0,1-.85-.06,6.19,6.19,0,0,1-5.27-6,1.3,1.3,0,1,1,2.6-.11,3.62,3.62,0,0,0,3,3.55c1.69.25,3.09-.81,3.78-2.81,1.28-3.75-3.35-6.45-3.55-6.56a1.32,1.32,0,0,1-.66-1.13V212.8a1.31,1.31,0,1,1,2.62,0v5.11c2.33,1.58,5.5,5,4.06,9.26C294.75,230.05,292.54,231.79,290,231.79Z" transform="translate(-62.82 -52.94)"/><rect class="cls-13" x="220.62" y="73.54" width="13.07" height="24.73" rx="4.05"/><line class="cls-14" x1="227.15" y1="176.02" x2="227.15" y2="232.65"/><path class="cls-13" d="M187.46,386.39a2.62,2.62,0,0,1-2-1,3.36,3.36,0,0,1-.84-2.29V305.39a3.35,3.35,0,0,1,.84-2.28,2.6,2.6,0,0,1,2-1h34.1a28.81,28.81,0,0,1,12,2.23,21.27,21.27,0,0,1,7.78,5.78,21.78,21.78,0,0,1,4.18,8.06,32.88,32.88,0,0,1,1.27,9,24.18,24.18,0,0,1-.68,6.07,22.46,22.46,0,0,1-1.65,4.46,14.8,14.8,0,0,1-2,3c-.67.76-1.21,1.34-1.64,1.74A17.58,17.58,0,0,1,246.6,350a28.61,28.61,0,0,1,1.65,10.29A36.94,36.94,0,0,1,247,369.9a23.07,23.07,0,0,1-4.19,8.37,20.93,20.93,0,0,1-7.57,5.89,26.34,26.34,0,0,1-11.44,2.23Zm39.61-58.73a7.28,7.28,0,0,0-1.65-5,6.08,6.08,0,0,0-4.82-1.86H204.19v13.72H220.6a6.05,6.05,0,0,0,4.82-1.87A7.24,7.24,0,0,0,227.07,327.66Zm-22.88,40.08h17.47a6.52,6.52,0,0,0,5.09-2.11,8.16,8.16,0,0,0,0-10.47,6.55,6.55,0,0,0-5.09-2.11H204.19Z" transform="translate(-62.82 -52.94)"/><path class="cls-13" d="M365.12,302.14a4,4,0,0,1,3.23,1.33,7.85,7.85,0,0,1,1.53,2.64L393,381.94a6.09,6.09,0,0,1,.42,1.8,2.76,2.76,0,0,1-.68,1.87,2.13,2.13,0,0,1-1.65.78H377.72a3.86,3.86,0,0,1-3-1,4.51,4.51,0,0,1-1.11-2l-3-10H342.45l-3,10a4.51,4.51,0,0,1-1.11,2,3.86,3.86,0,0,1-3,1H322a2.13,2.13,0,0,1-1.64-.78,2.72,2.72,0,0,1-.69-1.87,6.18,6.18,0,0,1,.43-1.8l23.09-75.83a7.85,7.85,0,0,1,1.53-2.64,4,4,0,0,1,3.23-1.33ZM348,354.74h17.16l-8.58-28.89Z" transform="translate(-62.82 -52.94)"/><path class="cls-11" d="M445.75,386.39a4,4,0,0,1-2.92-1.08,8,8,0,0,1-1.43-1.69l-24.25-41.16v40.68a3.32,3.32,0,0,1-.85,2.29,2.58,2.58,0,0,1-2,1H400.42a2.58,2.58,0,0,1-2-1,3.32,3.32,0,0,1-.85-2.29V305.39a3.31,3.31,0,0,1,.85-2.28,2.56,2.56,0,0,1,2-1h11a4,4,0,0,1,2.92,1.09,8.31,8.31,0,0,1,1.43,1.68L440,346.07V305.39a3.31,3.31,0,0,1,.85-2.28,2.56,2.56,0,0,1,2-1h13.87a2.56,2.56,0,0,1,2,1,3.31,3.31,0,0,1,.85,2.28v77.75a3.32,3.32,0,0,1-.85,2.29,2.58,2.58,0,0,1-2,1Z" transform="translate(-62.82 -52.94)"/><path class="cls-13" d="M497.48,302.14a35,35,0,0,1,13.34,2.47,31,31,0,0,1,10.43,6.92,31.75,31.75,0,0,1,6.88,10.65,40.82,40.82,0,0,1,2.81,13.54c.07,1.69.11,3.23.11,4.64v8c0,1.36,0,2.85-.11,4.45a41.43,41.43,0,0,1-2.75,13.6A32.22,32.22,0,0,1,521.46,377a29.88,29.88,0,0,1-10.22,6.92A34,34,0,0,1,498,386.39h-28.6a2.58,2.58,0,0,1-2-1,3.32,3.32,0,0,1-.85-2.29V305.39a3.31,3.31,0,0,1,.85-2.28,2.56,2.56,0,0,1,2-1Zm13.87,33.1q-.63-13.85-14.4-13.84H486.14v45.73h11.34q13.33,0,13.87-13.84c.07-1.68.1-3.26.1-4.75v-8.61C511.45,338.49,511.42,336.93,511.35,335.24Z" transform="translate(-62.82 -52.94)"/><path class="cls-15" d="M568.78,218.05l-1.29-3.58a2.26,2.26,0,0,0-.89-1.32,1.42,1.42,0,0,0-1-.1c-1.14.26-1.74,1.5-2.06,2.62a35.53,35.53,0,0,1-1.55,5.52,6.18,6.18,0,0,0-.49,1.2c-.3,1.34.72,3.56,2.38,3.29a3.74,3.74,0,0,0,.74-.23,3.93,3.93,0,0,1,2.76.19,3.64,3.64,0,0,0,2.77-.41,4.1,4.1,0,0,0,1.87-2.51" transform="translate(-62.82 -52.94)"/><path class="cls-16" d="M550.57,408.79a1,1,0,0,1-.36-.08,1.88,1.88,0,0,1-.79-2c4.49-22,8.77-44.21,12.91-65.7s8.41-43.68,12.86-65.45c.17-.85.81-1.31,1.42-1a1.86,1.86,0,0,1,.79,2c-4.44,21.74-8.72,43.94-12.85,65.41s-8.42,43.73-12.92,65.74C551.49,408.36,551.06,408.79,550.57,408.79Z" transform="translate(-62.82 -52.94)"/><path class="cls-16" d="M524.14,408.79a.94.94,0,0,1-.36-.08,1.89,1.89,0,0,1-.8-2c4.49-22,8.77-44.21,12.91-65.7s8.41-43.68,12.86-65.45c.18-.85.81-1.31,1.42-1a1.86,1.86,0,0,1,.8,2c-4.45,21.74-8.72,43.94-12.86,65.41s-8.42,43.73-12.91,65.74C525.06,408.36,524.62,408.79,524.14,408.79Z" transform="translate(-62.82 -52.94)"/><path class="cls-16" d="M553.93,390.3" transform="translate(-62.82 -52.94)"/><path class="cls-16" d="M528.85,390.3" transform="translate(-62.82 -52.94)"/><path class="cls-16" d="M557.6,370.07H532.52c-.64,0-1.17-.72-1.2-1.62s.47-1.61,1.1-1.61H557.5c.64,0,1.17.72,1.2,1.61S558.23,370.07,557.6,370.07Z" transform="translate(-62.82 -52.94)"/><path class="cls-16" d="M561.59,348.22H536.51c-.63,0-1.17-.72-1.19-1.61s.46-1.62,1.1-1.62H561.5c.63,0,1.17.72,1.19,1.62S562.23,348.22,561.59,348.22Z" transform="translate(-62.82 -52.94)"/><path class="cls-16" d="M553.6,391.92H528.52c-.63,0-1.17-.72-1.19-1.62s.46-1.61,1.1-1.61h25.08c.63,0,1.17.72,1.19,1.61S554.24,391.92,553.6,391.92Z" transform="translate(-62.82 -52.94)"/><path class="cls-16" d="M566.37,326.37H541.29c-.64,0-1.17-.72-1.2-1.61s.47-1.62,1.1-1.62h25.08c.63,0,1.17.72,1.2,1.62S567,326.37,566.37,326.37Z" transform="translate(-62.82 -52.94)"/><path class="cls-16" d="M570,304.53H544.91c-.63,0-1.17-.73-1.2-1.62s.47-1.62,1.11-1.62h25.07c.64,0,1.17.73,1.2,1.62S570.62,304.53,570,304.53Z" transform="translate(-62.82 -52.94)"/><path class="cls-16" d="M575.13,282.68H550.06c-.64,0-1.18-.72-1.2-1.62s.46-1.61,1.1-1.61H575c.63,0,1.17.72,1.19,1.61S575.77,282.68,575.13,282.68Z" transform="translate(-62.82 -52.94)"/><path class="cls-17" d="M564.25,408.79a1,1,0,0,0,.37-.08,2,2,0,0,0,1-2c-2.63-22-5-44.21-7.35-65.7s-4.73-43.68-7.34-65.45c-.1-.85-.69-1.31-1.33-1a2,2,0,0,0-1,2c2.61,21.74,5,43.94,7.33,65.41s4.73,43.73,7.36,65.74C563.36,408.36,563.76,408.79,564.25,408.79Z" transform="translate(-62.82 -52.94)"/><path class="cls-17" d="M590.68,408.79a1,1,0,0,0,.37-.08,2,2,0,0,0,1-2c-2.63-22-5-44.21-7.36-65.7s-4.72-43.68-7.33-65.45c-.1-.85-.7-1.31-1.33-1a2,2,0,0,0-1,2c2.61,21.74,5,43.94,7.33,65.41s4.72,43.73,7.36,65.74C589.8,408.36,590.2,408.79,590.68,408.79Z" transform="translate(-62.82 -52.94)"/><path class="cls-17" d="M562.46,390.3" transform="translate(-62.82 -52.94)"/><path class="cls-17" d="M587.54,390.3" transform="translate(-62.82 -52.94)"/><path class="cls-17" d="M560.5,370.07h25.07c.64,0,1.24-.72,1.34-1.62s-.33-1.61-1-1.61H560.87c-.64,0-1.24.72-1.34,1.61S559.86,370.07,560.5,370.07Z" transform="translate(-62.82 -52.94)"/><path class="cls-17" d="M558.35,348.22h25.08c.63,0,1.23-.72,1.33-1.61s-.33-1.62-1-1.62H558.72c-.64,0-1.24.72-1.34,1.62S557.71,348.22,558.35,348.22Z" transform="translate(-62.82 -52.94)"/><path class="cls-17" d="M562.64,391.92h25.08c.64,0,1.24-.72,1.34-1.62s-.33-1.61-1-1.61H563c-.63,0-1.23.72-1.33,1.61S562,391.92,562.64,391.92Z" transform="translate(-62.82 -52.94)"/><path class="cls-17" d="M555.42,326.37H580.5c.63,0,1.23-.72,1.33-1.61s-.33-1.62-1-1.62H555.79c-.64,0-1.23.72-1.33,1.62S554.79,326.37,555.42,326.37Z" transform="translate(-62.82 -52.94)"/><path class="cls-17" d="M553.64,304.53h25.08c.64,0,1.23-.73,1.33-1.62s-.32-1.62-1-1.62H554c-.63,0-1.23.73-1.33,1.62S553,304.53,553.64,304.53Z" transform="translate(-62.82 -52.94)"/><path class="cls-17" d="M550.34,282.68h25.08c.64,0,1.23-.72,1.34-1.62s-.33-1.61-1-1.61H550.71c-.63,0-1.23.72-1.33,1.61S549.71,282.68,550.34,282.68Z" transform="translate(-62.82 -52.94)"/><path class="cls-13" d="M545.2,270.48h35.41a0,0,0,0,1,0,0v3.22a2.76,2.76,0,0,1-2.76,2.76H548a2.76,2.76,0,0,1-2.76-2.76v-3.22A0,0,0,0,1,545.2,270.48Z" transform="translate(1062.99 494) rotate(180)"/><path class="cls-18" d="M566.11,234.49s-2.19.32-5,.63c-4.15.48-9.6.93-11,.24-2.3-1.15-9.84-7.63-9.84-7.63l-1.18-.76a1.57,1.57,0,0,0-.66-.22,9.33,9.33,0,0,1-1.23-.22,2.83,2.83,0,0,1-.79-.35.33.33,0,0,1-.13-.07.06.06,0,0,0,0,0,11.84,11.84,0,0,1-1.26-1c-.53-.42.25-.69,1.13-.26s.32.34.88.32,0-.85-.54-1.44a12.23,12.23,0,0,1-.88-1.21c-.46-.64-.89-1.14-1.14-1.55s-.25-.66.08-.57,1.81,1.54,2.18,1.78.9-.2,1.93.36,1.43,2.23,1.75,2.76,10.76,6.64,12.06,6.58,11.1-2.4,14.14-2.23C568.28,229.68,566.11,234.49,566.11,234.49Z" transform="translate(-62.82 -52.94)"/><path class="cls-19" d="M561.16,235.12c-4.15.48-9.6.93-11,.24-2.3-1.15-9.84-7.63-9.84-7.63l-1.18-.76a1.57,1.57,0,0,0-.66-.22,9.33,9.33,0,0,1-1.23-.22,2.83,2.83,0,0,1-.79-.35c.69.35,2.14.06,2.85.44s6.07,4.72,8.48,6.24,3.3,2,5.46,2a63.87,63.87,0,0,0,7.27-.91Z" transform="translate(-62.82 -52.94)"/><path class="cls-18" d="M541.7,301.23a20,20,0,0,0-.32,3.83c.25,1.17,0,1.52,0,1.52l-4.47-.25s1.94-1,1.67-5.62S541.7,301.23,541.7,301.23Z" transform="translate(-62.82 -52.94)"/><path class="cls-15" d="M541.44,305.42a7,7,0,0,1-3.85.28,18.09,18.09,0,0,1-5.84,1.88c-2,.32-1.63,2,1.86,1.66a43.31,43.31,0,0,1,6.73-.18c.78.05,2,.12,2.07-.42S542.07,305.22,541.44,305.42Z" transform="translate(-62.82 -52.94)"/><path class="cls-18" d="M555.4,303.22a19.18,19.18,0,0,0-.32,3.84c.24,1.17,0,1.52,0,1.52l-4.48-.25s2-1,1.68-5.63S555.4,303.22,555.4,303.22Z" transform="translate(-62.82 -52.94)"/><path class="cls-15" d="M555.14,307.41a6.94,6.94,0,0,1-3.85.29,18.39,18.39,0,0,1-5.85,1.88c-2,.31-1.63,2,1.87,1.66a45.31,45.31,0,0,1,6.73-.19c.78.06,2,.13,2.06-.42S555.77,307.22,555.14,307.41Z" transform="translate(-62.82 -52.94)"/><path class="cls-20" d="M559.48,259.69s-20.36,6.59-21.22,14.58c-.42,3.9-3.76,26.52-3.76,26.52s7.86,2.69,9.52,1.09c0,0,1.84-22.57,2.58-26.34s20.65-12.33,20.65-12.33l-.81-5.13Z" transform="translate(-62.82 -52.94)"/><path class="cls-20" d="M559.48,259.69s-20.36,6.59-21.22,14.58c-.42,3.9-3.76,26.52-3.76,26.52s7.86,2.69,9.52,1.09c0,0,1.84-22.57,2.58-26.34s20.65-12.33,20.65-12.33l-.81-5.13Z" transform="translate(-62.82 -52.94)"/><path class="cls-21" d="M562.06,259.68l4.77.82.42,2.71s-19.9,8.56-20.65,12.33c-.16.83-.38,2.57-.62,4.77-.36-1.4-.73-2.8-1.09-4.2a6.64,6.64,0,0,1-.29-1.66,6,6,0,0,1,1.28-3.35C549.25,266.26,556.72,262.2,562.06,259.68Z" transform="translate(-62.82 -52.94)"/><path class="cls-20" d="M555.86,276c-.84-5.6,15.54-2.36,18.74-7.16,1.12-1.68,1.77-6.77,0-8.15-3.44-2.69-10.5-1.78-10.5-1.78s-16.66,10-16.68,14.09c0,4.61,2.29,30.68,2.29,30.68s7.51,1,8-.39C558.72,296,555.86,276,555.86,276Z" transform="translate(-62.82 -52.94)"/><path class="cls-22" d="M561.82,242.89c.69,9.33-3.4,9.48-3.7,17.41,0,0,10.15-1.27,17.4,1.76a44.55,44.55,0,0,0-2.16-8.72l-.15-.37a18,18,0,0,0-1-2.27.45.45,0,0,0-.06-.12,2.85,2.85,0,0,1-.12-.31.27.27,0,0,1-.06-.1,7,7,0,0,1,.29-4.47,26,26,0,0,1,2.21-4.75c.52-.91,1.08-1.79,1.6-2.58h0c1.51-2.25,2.81-3.87,2.81-3.87a7,7,0,0,0-.89-5.55h0a5.94,5.94,0,0,0-.73-.89,15.06,15.06,0,0,0-4.65-2.33c-.44-.15-.87-.27-1.23-.36a5.76,5.76,0,0,0-.76-.13,8.41,8.41,0,0,0-2.4.1c-1.89.42-2.5.81-5.31,1.66l-6.14,2.67s.82,5.14.19,6.69l4.25-.12S561.74,241.79,561.82,242.89Z" transform="translate(-62.82 -52.94)"/><path class="cls-23" d="M571.94,250.17c-1.12-3,1.73-8.22,4.1-11.8h0l-2.62-2.76s.05,4.54-.73,6.32S570.68,247.3,571.94,250.17Z" transform="translate(-62.82 -52.94)"/><path class="cls-23" d="M562.42,232s-1.77,2.87-1.26,4.25l-4.25.12a5.1,5.1,0,0,0,.24-1.87C557.8,234.63,560.37,235.27,562.42,232Z" transform="translate(-62.82 -52.94)"/><path class="cls-24" d="M566,259l-16.92-.68a.88.88,0,0,1-.82-.7l-2.35-11.45a.88.88,0,0,1,.9-1.05l16.92.68a.86.86,0,0,1,.82.7l2.34,11.45A.87.87,0,0,1,566,259Z" transform="translate(-62.82 -52.94)"/><path class="cls-11" d="M566,258.56l-16.84-.67a.53.53,0,0,1-.5-.42l-2.31-11.32a.52.52,0,0,1,.53-.63l16.46.66a.8.8,0,0,1,.77.65l2.3,11.25A.39.39,0,0,1,566,258.56Z" transform="translate(-62.82 -52.94)"/><path class="cls-18" d="M567.36,252.81l.12.68.36-.05.2,1,.79-.14s0,0,0,0h0c.88-.15,2.43-.46,4.5-.94,1.34-.31,2.89-.69,4.64-1.13,2.29-.59,3.79-1.77,3.82-2.08a13.09,13.09,0,0,0-.2-2.76c-.09-.63-.2-1.32-.32-2-.42-2.53-1-5.24-1.19-6.21a1.85,1.85,0,0,0-.06-.25l0-.13-.66.26-3.63,1.4.24.68,2.25,6.48a.25.25,0,0,1,0,.09.4.4,0,0,1-.28.44,56.54,56.54,0,0,0-5.77,2.59c-1.59.79-3,1.53-3.76,2a.51.51,0,0,1-.16.09,1,1,0,0,1-.55.12A1.89,1.89,0,0,1,567.36,252.81Z" transform="translate(-62.82 -52.94)"/><path class="cls-18" d="M568.86,254.28c.88-.15,2.43-.46,4.5-.94,1.34-.31,2.89-.68,4.64-1.13,2.29-.6,3.79-1.77,3.82-2.08a13.05,13.05,0,0,0-.2-2.76c-.4-2.92-1.25-7-1.51-8.24l-.05-.24-.91.46s0,.16.1.44c.29,1.34,1.17,5.39,1.58,7.76a11.28,11.28,0,0,1,.2,1.64c0,1.18-.69,1.33-1.49,1.67-.46.2-3.57,1.22-6.33,2.11C571.11,253.64,569.22,254.22,568.86,254.28Z" transform="translate(-62.82 -52.94)"/><path class="cls-18" d="M568.43,252.65a5,5,0,0,1-.62.1.73.73,0,0,1-.32-.06,4.93,4.93,0,0,0-1.83-.76l.14.69s-1.15.65-1.51.88a5.13,5.13,0,0,1-.53.22c-.15,0-1.49-.08-1.81-.07s-.49.19-.48.39c0,0,0,.1.19.13l.24,0-.36,0c-.32,0-.49.19-.48.39,0,0,0,.1.19.14l.59.07a.39.39,0,0,0-.37.38s0,.1.19.13l.64.08a.33.33,0,0,0-.15.28s0,.1.2.13,2.52.41,2.76.37a12.64,12.64,0,0,0,2.2-1.36,6.88,6.88,0,0,1,.73-.35Z" transform="translate(-62.82 -52.94)"/><path class="cls-22" d="M572.92,235.32c.94,3.26,1.36,5,1.52,5.63,0,.21.07.32.07.32a8.48,8.48,0,0,0,1.47-.17,9.14,9.14,0,0,0,3.27-1.31l.24-.16c.21-.15.41-.31.62-.49a7.53,7.53,0,0,0,1-1.06s-1-6.4-3.11-9.14h0a3.28,3.28,0,0,0-1.29-1.07l-.21-.07a2.4,2.4,0,0,0-2.75.89,6.1,6.1,0,0,0-1.14,3.24A9.66,9.66,0,0,0,572.92,235.32Z" transform="translate(-62.82 -52.94)"/><path class="cls-18" d="M565.81,223.64a5.45,5.45,0,0,0,2.44.59,8.42,8.42,0,0,1-.09,1.08,4.22,4.22,0,0,0-.46.12c-.31.12-.17.74-.13,1a1.59,1.59,0,0,0,2.14,1.23c1-.28,1.35-1.36,1.68-2.21a7.46,7.46,0,0,0,0-1.71l1.64-.66s2.07-1.68,2.1-3.19c0-.42-.74-1.52-.75-2,0-2.17-1.48-3.42-2.25-4.67-1-1.56-3.48-1.3-5.22-.88a15.93,15.93,0,0,0-1.83.55S562.74,222,565.81,223.64Z" transform="translate(-62.82 -52.94)"/><path class="cls-15" d="M563.3,210c.12-.24.26-.47.4-.7a1.25,1.25,0,0,0,1.23.49c2,0,4-.86,5.83-.28a1.88,1.88,0,0,1,1.29,1.06,4,4,0,0,1,4.23,1.2c2.24,2.45.16,6.1,1.3,8.89a25.54,25.54,0,0,1,1.4,2.76,3.1,3.1,0,0,1-.55,2.63,6.07,6.07,0,0,1-2.59,1.62,9.45,9.45,0,0,1-1.23.43,4.47,4.47,0,0,1-2.68-.2,2.24,2.24,0,0,1-1.39-1.33,2.89,2.89,0,0,1,.35-1.91,14.45,14.45,0,0,1,1.82-2.69c.66-.94,1.33-1.38,1.17-2.64a.87.87,0,0,0-.19-.54.62.62,0,0,0-.84.07,1.84,1.84,0,0,0-.41.84,3.7,3.7,0,0,0-1.55-2,5.33,5.33,0,0,1-1.54-1.2c-.26-.35-1-1.41-.75-1.82a5.71,5.71,0,0,1-3.52.09,3.11,3.11,0,0,1-2.36-2.16A3.76,3.76,0,0,1,563.3,210Z" transform="translate(-62.82 -52.94)"/><path class="cls-25" d="M175.63,399.7c0,1.11-10.19,2-22.77,2s-22.78-.9-22.78-2,10.2-2,22.78-2S175.63,398.6,175.63,399.7Z" transform="translate(-62.82 -52.94)"/><path class="cls-15" d="M157.3,276.34a8.58,8.58,0,0,1,2.07,3,3.87,3.87,0,0,1-.28,3.49,1.63,1.63,0,0,1-1.64.79,2,2,0,0,1-.46-.23,6.24,6.24,0,0,1-2.84-4.44" transform="translate(-62.82 -52.94)"/><path class="cls-18" d="M139.38,391.21s-1,3-1.31,3.69-2.48.06-2.61-.42a25.44,25.44,0,0,1,.86-4" transform="translate(-62.82 -52.94)"/><path class="cls-26" d="M134.82,394.55a7.57,7.57,0,0,0-.66,2.3c.11.39,2.88,1.57,3.51,1.95a7.71,7.71,0,0,0,2,.76c1.85.34,3.27,0,3.41-.27.59-1.2-3.07-2-4.63-5.38a.76.76,0,0,0-.57.26,1.28,1.28,0,0,1-1.56.31,2.07,2.07,0,0,1-.77-.88A1.4,1.4,0,0,0,134.82,394.55Z" transform="translate(-62.82 -52.94)"/><path class="cls-18" d="M163.83,392.42s-.08,3.12-.13,3.92-2.35.81-2.61.39a24.37,24.37,0,0,1-.4-4.07" transform="translate(-62.82 -52.94)"/><path class="cls-26" d="M160.49,397a7.55,7.55,0,0,0,.08,2.38c.22.35,3.22.63,3.93.8a7.76,7.76,0,0,0,2.15.12c1.86-.25,3.11-1,3.16-1.3.19-1.32-3.54-1-6.05-3.71a.74.74,0,0,0-.46.41,1.3,1.3,0,0,1-1.39.78,2.09,2.09,0,0,1-1-.61A1.45,1.45,0,0,0,160.49,397Z" transform="translate(-62.82 -52.94)"/><path class="cls-18" d="M186.56,268.66c0-.34-.48-.17-.59.11l-.06.24c0-.56.06-1,.05-1.13,0-.32-.44-.19-.58.06,0-.23,0-.4,0-.47,0-.41-.48-.23-.59.11a3.92,3.92,0,0,0-.1.57,1.63,1.63,0,0,0,0-.32c0-.33-.42-.24-.53,0a3.5,3.5,0,0,0-.12.65c0,.34-.14.71-.18,1.05s-.4,1.77-1.13,1.93c-1.11.23-.41-1.7-1.19-2.13-.24-.14-.51,1.36-.52,2.21a9.33,9.33,0,0,0,.05,1.77,11.29,11.29,0,0,1,.31,1.51,6.22,6.22,0,0,1-.63,1.48l2.81.64a11.24,11.24,0,0,1,1-1.9,6.47,6.47,0,0,0,1.7-3,13.46,13.46,0,0,0,.32-2.28S186.57,268.77,186.56,268.66Z" transform="translate(-62.82 -52.94)"/><path class="cls-18" d="M160.17,292.12s8.9-.08,13.73-5.5c3.85-5.4,7.58-11.37,7.86-11.93.76.29,2.39,1,2.39,1s-5.1,11.39-7.08,14-5.89,6.86-14.14,9C159,294.17,160.17,292.12,160.17,292.12Z" transform="translate(-62.82 -52.94)"/><path class="cls-13" d="M166.85,363c.51-6.7-1.81-27.73-2-29.54s-1.49-2-2.47-2.33c-4.85-1.46-10.6,6.06-9.07,12.82,0,.1.06.22.09.34.91,3.91,6,16.48,5.69,20.12-2.82,7.6.38,23.37,1.35,30h.34a19.12,19.12,0,0,0,3.79-.42S166.33,369.72,166.85,363Z" transform="translate(-62.82 -52.94)"/><path class="cls-26" d="M160.69,364.33c.18-2.47-2.33-22.16-2.95-21.89a1.05,1.05,0,0,0-.44.49c-.52.89-1,1.79-1.45,2.73a24.3,24.3,0,0,0-1.15,3c1.81,5.35,4.62,13.07,4.35,15.79-1.67,4.51-1.22,11.88-.39,18.52C158.34,374.21,160.55,366.31,160.69,364.33Z" transform="translate(-62.82 -52.94)"/><path class="cls-13" d="M164,326.32a23.27,23.27,0,0,1-5.52.35c-4.66-.12-10.57-2.48-10.57-2.48-5.94,6.44-2.68,14-2.88,16.45s-.69,14.25-1.22,20.81c-6,5.9-6.25,21.6-8,29.86,0,.09-.05.18-.07.28a20.86,20.86,0,0,0,4,1.11L140,392c1.8-5.43,10.09-21,12.16-27.08,1.87-5.52,6.71-22.28,6.8-22.26l6.17,1.05A119.14,119.14,0,0,0,164,326.32Z" transform="translate(-62.82 -52.94)"/><path class="cls-18" d="M160.31,286.09c0,.57,0,2.79-1.14,3.32s-1.94.77-1.9.95.13.47.25.86a1.81,1.81,0,0,0,.68,1.07l.18,2.84-2.12,2.11-.7.69-1-.95-3.39-3.09a3.45,3.45,0,0,0,.43-3.57c-.14-.26-1.68-2-2.91-3.69a9.25,9.25,0,0,1-1.49-2.75c-.45-2-.82-4.05.31-5.29s9.5-5.21,11,1.25a22.59,22.59,0,0,0,1.84,2.19.91.91,0,0,1-.08,1.53C159.69,283.85,160.29,285.53,160.31,286.09Z" transform="translate(-62.82 -52.94)"/><path class="cls-22" d="M165.61,333.43a56.9,56.9,0,0,1-21.76.12c.59-3.75,1.57-15,1.73-19.28l0-.44c.09-2.72.14-4.67.2-4.75s-.31-8.86.41-12.27a2.38,2.38,0,0,1,.52-1.26,26.28,26.28,0,0,1,5-3.34s4.33,4.67,6.55-.49c2.43-.22,3.67.27,4.37,2.71C166.5,308,165.61,333.43,165.61,333.43Z" transform="translate(-62.82 -52.94)"/><path class="cls-22" d="M160,291.75a21.57,21.57,0,0,0,8.15-1.75c2.29,2.69,3.68,7.61,3.68,7.61s-5.55,3.53-9.61,3.87A57.05,57.05,0,0,0,160,291.75Z" transform="translate(-62.82 -52.94)"/><path class="cls-27" d="M160.82,292.6a19.47,19.47,0,0,1,3.32,8.54,24.87,24.87,0,0,0,7.73-3.53c-1.23.4-6.49,2.35-7.21.74A24.92,24.92,0,0,0,160.82,292.6Z" transform="translate(-62.82 -52.94)"/><path class="cls-11" d="M159.79,295.63l17.84,1.93-3.71,10.19-15-10.26a.74.74,0,0,1-.44-1l.2-.37A1.07,1.07,0,0,1,159.79,295.63Z" transform="translate(-62.82 -52.94)"/><path class="cls-28" d="M177.18,302.94c-1,2.81-2.48,5-3.26,4.81s-.59-2.56.44-5.38,2.49-5,3.27-4.81S178.21,300.12,177.18,302.94Z" transform="translate(-62.82 -52.94)"/><path class="cls-18" d="M144.07,309.05s1.87,6.44,6.72,9.47a3.4,3.4,0,0,0,4.3-.85c3.32-3.72,6.64-12.09,7.7-15.25-1.95-1-2.57-.87-2.57-.87s-4.71,6.54-7.41,10.92l-2-3.52" transform="translate(-62.82 -52.94)"/><path class="cls-18" d="M160.08,301.8a6.44,6.44,0,0,0,.91-2.46c0-1.06-.46-2.9.57-3.85a4.35,4.35,0,0,1,3.23-.65c2.25.37,2.86,1,2.74,1.51s-1.68.64-2.09,1.45-.18,1.31-.28,2.19c-.15,1.33-2,1.9-2.41,2.56C162.46,303,160.08,301.8,160.08,301.8Z" transform="translate(-62.82 -52.94)"/><path class="cls-23" d="M146.21,329.81c.56-1.94,1.1-13.36,1.16-15.05a9,9,0,0,0,6.16-4,35.69,35.69,0,0,0-5.14-8l-1.69-6.34s-.19.15-.49.44c-.72,3.41-.29,12.1-.41,12.27s-.11,2-.2,4.75l0,.44h0c-.16,4.27-1.14,15.53-1.73,19.28a56.9,56.9,0,0,0,21.76-.12S145.58,332,146.21,329.81Z" transform="translate(-62.82 -52.94)"/><path class="cls-22" d="M147.84,294.66s-5,3.28-5.21,8.85c-.16,4.32,2.69,10.61,2.69,10.61s4.94.54,7.54-3.5a30.7,30.7,0,0,0-2.92-6" transform="translate(-62.82 -52.94)"/><path class="cls-15" d="M155.38,277.82c1.87-.58,4.36-.69,3.26-3.41-.64-1.58-2.81-2.87-5.43-2.73-1.44.08-3,1.66-4,3.59-4.14,1.63-4.65,5-3.82,8.34,0,0,1.84,6.36,6.65,6.6a13.34,13.34,0,0,0-.49-2.93s-2-.65-2.31-1.82c-.49-1.62,1.8-.54,1.8-.54a12.68,12.68,0,0,0-.22-2.42,2,2,0,0,0-.69-1.06C150.26,281.27,151.22,279.12,155.38,277.82Z" transform="translate(-62.82 -52.94)"/><ellipse class="cls-25" cx="445.44" cy="357.86" rx="30.21" ry="3.04"/><polygon class="cls-29" points="455.47 329.9 455.48 338.3 455.05 337.49 454.62 338.3 454.19 337.49 453.76 338.3 453.33 337.49 452.9 338.3 452.47 337.49 452.04 338.3 452.03 329.9 455.47 329.9"/><rect class="cls-13" x="506.34" y="383.4" width="23.04" height="27.85" transform="translate(-63.27 -52.35) rotate(-0.07)"/><rect class="cls-30" x="506.33" y="383.4" width="23.04" height="5.28" transform="translate(-63.23 -52.39) rotate(-0.06)"/><rect class="cls-11" x="505.76" y="382.83" width="24.5" height="5.03" transform="translate(-63.25 -52.36) rotate(-0.06)"/><polygon class="cls-31" points="456.87 329.89 456.88 338.3 456.45 337.49 456.02 338.3 455.59 337.49 455.16 338.3 454.73 337.49 454.3 338.3 453.87 337.49 453.44 338.3 453.43 329.9 456.87 329.89"/><polygon class="cls-32" points="448.63 338.09 426.72 338.07 426.72 341.66 426.88 341.66 426.86 358.34 448.63 358.37 448.63 338.09"/><path class="cls-33" d="M487.65,381.68A9.18,9.18,0,0,1,492,375.3a9.47,9.47,0,0,1,4.49-1.37,10.4,10.4,0,0,1,4,.84,9.15,9.15,0,0,1,5,4.83,9.81,9.81,0,0,1,.31,5.8c-.43,1.86-1.47,3.77-.79,5.72.2.55.77,1.16.6,1.78s-1.05,1-1.65,1.29l-2.13,1.12c-.51.27-1.24.85-1.86.62s-.8-1-1.16-1.48a7,7,0,0,0-4-2.13,10,10,0,0,1-4.43-2.26A9,9,0,0,1,487.65,381.68Z" transform="translate(-62.82 -52.94)"/><path class="cls-34" d="M503.63,394.82s-2.37-4.83-3.4-7.26a10.87,10.87,0,0,1-.77-2.41c-.14-.71-.31-2.28.71-2.45,1.19-.19,1.08,1.55.58,2.18a3,3,0,0,1-2.13.92,3.26,3.26,0,0,1-2.64-2.11.77.77,0,0,1,1.24-.83c.57.49,1.27,3,.11,3.73a2.83,2.83,0,0,1-2.05.32c-1.26-.26-1.55-2.33.05-1.75a6,6,0,0,1,2.66,2.61c1.64,2.72,2.86,4.89,4.45,7.64" transform="translate(-62.82 -52.94)"/><rect class="cls-26" x="500.38" y="394.64" width="5.45" height="0.54" transform="translate(1070.39 451.68) rotate(151.75)"/><path class="cls-13" d="M501.44,398.22a.32.32,0,0,0-.2-.35h-.05a.34.34,0,0,1-.2-.35l0-.09a.33.33,0,0,0-.22-.35.31.31,0,0,1-.22-.34l0-.24a.26.26,0,0,1,.15-.2l4.76-2.57a.28.28,0,0,1,.25,0l.23.1a.31.31,0,0,1,.16.37.31.31,0,0,0,.17.37l.08,0a.3.3,0,0,1,.18.35V395a.31.31,0,0,0,.18.36l.06,0a.3.3,0,0,1,.18.37v0a.62.62,0,0,1-.28.35l-4.61,2.47a.54.54,0,0,1-.45,0h0a.31.31,0,0,1-.2-.35Z" transform="translate(-62.82 -52.94)"/><path class="cls-26" d="M501,397l0,0a.08.08,0,0,1,0-.12l2.22-1.2a.09.09,0,0,1,.12,0,.08.08,0,0,1,0,.12L501.11,397A.09.09,0,0,1,501,397Z" transform="translate(-62.82 -52.94)"/><path class="cls-26" d="M504.22,395.29l0,0a.1.1,0,0,1,0-.12l1.24-.66a.09.09,0,0,1,.12,0,.1.1,0,0,1,0,.12l-1.23.66A.09.09,0,0,1,504.22,395.29Z" transform="translate(-62.82 -52.94)"/><path class="cls-26" d="M502.85,396.73l0,0a.1.1,0,0,1,0-.12l3.22-1.73a.09.09,0,0,1,.12,0,.09.09,0,0,1,0,.12l-3.22,1.73A.08.08,0,0,1,502.85,396.73Z" transform="translate(-62.82 -52.94)"/><path class="cls-26" d="M501.29,397.57l0,0a.08.08,0,0,1,0-.12l.95-.51a.09.09,0,0,1,.12,0,.09.09,0,0,1,0,.12l-.95.51A.09.09,0,0,1,501.29,397.57Z" transform="translate(-62.82 -52.94)"/><path class="cls-26" d="M504.32,396.64l0,0a.11.11,0,0,1,0-.13l1.72-.92a.09.09,0,0,1,.12,0,.1.1,0,0,1,0,.12l-1.73.92A.07.07,0,0,1,504.32,396.64Z" transform="translate(-62.82 -52.94)"/><path class="cls-26" d="M502.5,397.62l0,0a.1.1,0,0,1,0-.12l.69-.37a.09.09,0,0,1,.12,0,.09.09,0,0,1,0,.12l-.69.37A.07.07,0,0,1,502.5,397.62Z" transform="translate(-62.82 -52.94)"/><path class="cls-26" d="M503.66,395.59l0,0a.09.09,0,0,1,0-.12l.25-.13a.1.1,0,0,1,.12,0,.09.09,0,0,1,0,.12l-.25.14A.09.09,0,0,1,503.66,395.59Z" transform="translate(-62.82 -52.94)"/><g class="cls-35"><path class="cls-33" d="M487.65,381.68A9.18,9.18,0,0,1,492,375.3c.27-.15.55-.3.83-.43a8.5,8.5,0,0,0-2.94,11.27c1.91,3.29,4.82,4.8,9,4.45a2.25,2.25,0,0,1,2.18.87c.5.69.68,1.58,1.23,2.24a.73.73,0,0,0,.31.24.87.87,0,0,0,.36,0,5.73,5.73,0,0,0,2.69-1.24,1.25,1.25,0,0,1,0,.19c-.2.73-1.05,1-1.65,1.29l-2.13,1.12c-.51.27-1.24.85-1.86.62s-.8-1-1.16-1.48a7,7,0,0,0-4-2.13,10,10,0,0,1-4.43-2.26A9,9,0,0,1,487.65,381.68Z" transform="translate(-62.82 -52.94)"/></g><rect class="cls-36" x="488.67" y="391.22" width="19.87" height="20.28" transform="translate(33.86 846.57) rotate(-89.93)"/><path class="cls-25" d="M320.59,405.32c0,1.1-6.71,2-15,2s-15-.89-15-2,6.71-2,15-2S320.59,404.22,320.59,405.32Z" transform="translate(-62.82 -52.94)"/><ellipse class="cls-25" cx="167.49" cy="358.82" rx="73.95" ry="5.25"/><path class="cls-37" d="M196.63,405.19q-9.37-.46-18.79-.32c-3.15,0-6.29.1-9.44.1-3.32,0-6.63,0-9.93.27a44.84,44.84,0,0,0-4.48.52,11.91,11.91,0,0,0-3.27.94c-1.13.56-1.86,1.83-.53,2.62a7.38,7.38,0,0,0,2.38.77,35.42,35.42,0,0,0,3.69.46,193.91,193.91,0,0,0,20.6,0c2.76-.08,5.53-.19,8.29-.19,5.88,0,11.76.09,17.63,0,1.54,0,3.08,0,4.62-.12a.17.17,0,0,0,0-.33c-6.07,0-12.15.1-18.22.06-3.14,0-6.26,0-9.4.07-6.72.19-13.45.47-20.18.24a37.33,37.33,0,0,1-7.67-.79c-.9-.22-3-.93-1.66-2.11a6.2,6.2,0,0,1,2.6-1.06,31.9,31.9,0,0,1,4.24-.64c3.22-.3,6.47-.37,9.7-.39,8.46-.06,16.92-.22,25.38-.1l4.44.06a.06.06,0,1,0,0-.12Z" transform="translate(-62.82 -52.94)"/><path class="cls-38" d="M260.58,398.1c4.35.08,8.71.37,13.05.74,2.15.19,4.3.41,6.44.64,1.83.19,3.7.26,5.52.53a7,7,0,0,1,2.42.76,1.27,1.27,0,0,1,.32,2.15c-.74.69-2,.71-2.94.81s-2.18.19-3.27.24c-4.21.2-8.43,0-12.64-.17-4.66-.17-9.52-.44-14.13.43a.22.22,0,0,0,.06.43c2.3-.16,4.59-.35,6.9-.38s4.62,0,6.93.11c4.57.17,9.15.41,13.72.14,1.13-.07,2.26-.16,3.38-.31a4.21,4.21,0,0,0,2.35-.83,1.87,1.87,0,0,0-.46-3.16,12,12,0,0,0-5.06-1c-2.23-.16-4.46-.44-6.69-.63-5.29-.46-10.59-.75-15.9-.72a.11.11,0,1,0,0,.22Z" transform="translate(-62.82 -52.94)"/><path class="cls-38" d="M183.61,407.32a95.86,95.86,0,0,0-15.14,1.37,28.84,28.84,0,0,0-8.73,2.54c-1.3.69-3.26,2.12-2.72,3.87s2.74,2.25,4.15,2.65a44.79,44.79,0,0,0,8.47,1.28c4.89.39,9.79.37,14.69.39,4.1,0,10.45.63,12-4.39.88-2.8-.35-5.75-1.15-8.42a8.92,8.92,0,0,1-.39-5.13,2.72,2.72,0,0,1,1.9-2.09,1.82,1.82,0,0,1,2,1.07c.15.34.65,0,.49-.29a2.45,2.45,0,0,0-3.69-.89c-1.92,1.43-1.7,4.41-1.2,6.45.68,2.73,2.08,5.47,1.62,8.36-.38,2.41-2.3,3.87-4.56,4.44-2.92.75-6.11.34-9.12.36-2.48,0-5,0-7.43-.1a90.22,90.22,0,0,1-9.14-.69c-2.31-.31-4.93-.65-7-1.85-1.66-1-1.56-2.47-.14-3.68,2.09-1.79,5.19-2.46,7.8-3a99.32,99.32,0,0,1,17.21-1.91Z" transform="translate(-62.82 -52.94)"/><path class="cls-38" d="M315.52,400.63c.07,1.23,2.07,1.26,3,1.35a22.6,22.6,0,0,1,3.13.65c1.14.3,2.65.53,3.52,1.37a1.79,1.79,0,0,1,.27,2.34,4.66,4.66,0,0,1-2.87,1.66c-2.56.7-5.23.46-7.84.47-5.71,0-11.41.17-17.11.19s-11.54,0-17.3.14c-6.41.14-12.81,0-19.21,0a.21.21,0,0,0,0,.42c5.94,0,11.89.14,17.83,0s11.87-.17,17.81-.19,11.84-.14,17.76-.21c2.57,0,5.2.21,7.73-.38,1.55-.36,3.82-1.17,3.88-3.1.08-2.33-3.2-2.78-4.84-3.17a21.49,21.49,0,0,0-3.19-.55c-.71-.06-2.26-.11-2.41-1,0-.07-.12-.05-.11,0Z" transform="translate(-62.82 -52.94)"/><path class="cls-38" d="M313.38,401.35c0,.38.65.75.91.94.7.51,1.45,1,2.18,1.44a20.17,20.17,0,0,1,2.36,1.77,3.58,3.58,0,0,1,1.28,1.81c.14.77-.49,1.3-1.1,1.63a14.05,14.05,0,0,1-4.73,1.26,78.8,78.8,0,0,1-9.59.64c-4.62.09-9.24,0-13.86.05s-9.46.08-14.18.21-9.5,0-14.24,0h-3.49a.21.21,0,0,0,0,.42c4.85,0,9.7.12,14.54.07s9.59-.23,14.38-.27,9.67,0,14.51-.06a102.16,102.16,0,0,0,10.64-.52,20.92,20.92,0,0,0,5.54-1.19c.75-.31,1.69-.79,1.91-1.66.4-1.57-1.68-3-2.74-3.7-.8-.57-1.64-1.08-2.47-1.6a6.4,6.4,0,0,1-1.62-1.09.36.36,0,0,1-.11-.16c0-.07-.12-.08-.12,0Z" transform="translate(-62.82 -52.94)"/><path class="cls-33" d="M289.55,399.77a10.66,10.66,0,0,1-.53-8.93,11,11,0,0,1,3.16-4.43,12.07,12.07,0,0,1,4.29-2.09,10.62,10.62,0,0,1,8,.92,11.38,11.38,0,0,1,4.39,5.11c.93,2,1.32,4.51,3.33,5.81.57.37,1.53.52,1.81,1.21s-.28,1.64-.6,2.35-.78,1.7-1.16,2.55c-.28.6-.54,1.66-1.28,1.88s-1.45-.36-2.11-.54c-1.73-.48-3.61.2-5.19.89a11.49,11.49,0,0,1-5.68,1.06A10.41,10.41,0,0,1,289.55,399.77Z" transform="translate(-62.82 -52.94)"/><path class="cls-39" d="M313.54,400.54s-5.59-2.76-8.26-4.27a11.91,11.91,0,0,1-2.42-1.67c-.63-.56-1.9-1.88-1.08-2.75,1-1,2.09.65,2.08,1.59a3.59,3.59,0,0,1-1.31,2.36,3.8,3.8,0,0,1-3.92-.07.9.9,0,0,1,.56-1.65c.86.06,3.3,1.89,2.74,3.35a3.27,3.27,0,0,1-1.66,1.75c-1.34.65-3.08-1-1.2-1.65a7,7,0,0,1,4.3.52c3.43,1.33,6.08,2.47,9.49,3.87" transform="translate(-62.82 -52.94)"/><rect class="cls-26" x="309.97" y="400.67" width="6.32" height="0.62" transform="translate(744.25 226.16) rotate(114.12)"/><path class="cls-13" d="M313.94,405.21a.36.36,0,0,0-.43-.18l-.06,0a.38.38,0,0,1-.43-.18l0-.09a.37.37,0,0,0-.44-.17.36.36,0,0,1-.44-.16l-.14-.24a.32.32,0,0,1,0-.3l2.56-5.73a.33.33,0,0,1,.23-.18l.27-.06a.37.37,0,0,1,.42.22.36.36,0,0,0,.42.22l.1,0a.37.37,0,0,1,.42.2l0,.05a.35.35,0,0,0,.42.2l.08,0a.37.37,0,0,1,.42.21l0,0a.72.72,0,0,1,0,.52l-2.48,5.53a.66.66,0,0,1-.38.35l0,0a.37.37,0,0,1-.44-.18Z" transform="translate(-62.82 -52.94)"/><path class="cls-26" d="M312.69,404.41h0a.11.11,0,0,1,0-.14l1.19-2.67a.11.11,0,0,1,.14,0,.11.11,0,0,1,.05.14l-1.2,2.67A.1.1,0,0,1,312.69,404.41Z" transform="translate(-62.82 -52.94)"/><path class="cls-26" d="M314.42,400.55h0a.11.11,0,0,1-.06-.14l.67-1.48a.1.1,0,1,1,.18.09l-.66,1.48A.11.11,0,0,1,314.42,400.55Z" transform="translate(-62.82 -52.94)"/><path class="cls-26" d="M314.18,402.84h-.05a.1.1,0,0,1-.05-.13l1.73-3.87a.11.11,0,0,1,.14-.06.11.11,0,0,1,.05.14l-1.73,3.87A.11.11,0,0,1,314.18,402.84Z" transform="translate(-62.82 -52.94)"/><path class="cls-26" d="M313.34,404.71h0a.1.1,0,0,1-.05-.14l.51-1.14a.1.1,0,1,1,.18.09l-.51,1.14A.09.09,0,0,1,313.34,404.71Z" transform="translate(-62.82 -52.94)"/><path class="cls-26" d="M315.46,401.72h0a.1.1,0,0,1-.05-.13l.93-2.07a.1.1,0,0,1,.18.08l-.92,2.07A.11.11,0,0,1,315.46,401.72Z" transform="translate(-62.82 -52.94)"/><path class="cls-26" d="M314.48,403.91h0a.11.11,0,0,1-.05-.14l.37-.83a.11.11,0,0,1,.14-.05.11.11,0,0,1,.05.14l-.37.83A.11.11,0,0,1,314.48,403.91Z" transform="translate(-62.82 -52.94)"/><path class="cls-26" d="M314.12,401.22h0a.11.11,0,0,1-.06-.14l.14-.3a.1.1,0,0,1,.13,0,.1.1,0,0,1,.06.14l-.14.3A.11.11,0,0,1,314.12,401.22Z" transform="translate(-62.82 -52.94)"/><g class="cls-35"><path class="cls-33" d="M289.55,399.77a10.66,10.66,0,0,1-.53-8.93c.14-.32.29-.65.45-1a9.85,9.85,0,0,0,5.29,12.43c4.08,1.68,7.83,1,11.4-2.28a2.62,2.62,0,0,1,2.62-.74c1,.28,1.74,1,2.72,1.19a.86.86,0,0,0,.45,0,1,1,0,0,0,.34-.25,6.56,6.56,0,0,0,1.59-3,1.18,1.18,0,0,1,.11.19c.33.82-.28,1.64-.6,2.35s-.78,1.7-1.16,2.55c-.28.6-.54,1.66-1.28,1.88s-1.45-.36-2.11-.54c-1.73-.48-3.61.2-5.19.89a11.49,11.49,0,0,1-5.68,1.06A10.41,10.41,0,0,1,289.55,399.77Z" transform="translate(-62.82 -52.94)"/></g><path class="cls-40" d="M263.19,409.72H195.6a.33.33,0,0,0-.35.29v2.09a.33.33,0,0,0,.35.3H270a2.11,2.11,0,0,0,2.28-1.88v-13.6A2.11,2.11,0,0,0,270,395H195.6a.33.33,0,0,0-.35.3v2.09a.33.33,0,0,0,.35.29h67.59a2.11,2.11,0,0,1,2.28,1.88v8.24A2.11,2.11,0,0,1,263.19,409.72Z" transform="translate(-62.82 -52.94)"/><path class="cls-41" d="M203.14,397.72h65.38a0,0,0,0,1,0,0v12a0,0,0,0,1,0,0H203.14a5,5,0,0,1-5-5v-2.06a5,5,0,0,1,5-5Z" transform="translate(403.88 754.5) rotate(180)"/><line class="cls-42" x1="205.7" y1="353.1" x2="174" y2="353.1"/><line class="cls-42" x1="205.7" y1="350.72" x2="153.53" y2="350.72"/><line class="cls-42" x1="205.7" y1="348.54" x2="139.83" y2="348.54"/><line class="cls-42" x1="198.24" y1="346.22" x2="145.95" y2="346.22"/><line class="cls-42" x1="162.54" y1="353.1" x2="144.4" y2="353.1"/><path class="cls-26" d="M198.35,386.51h69.84c.18,0,.33-.08.33-.17v-1.22c0-.09-.15-.17-.33-.17H192c-1.18,0-1.75.49-1.75,1.09V394c0,.61.57,1.1,1.75,1.1h76.2c.18,0,.33-.08.33-.18v-1.21c0-.1-.15-.17-.33-.17H198.35c-1.18,0-2.13-.49-2.13-1.1V387.6C196.22,387,197.17,386.51,198.35,386.51Z" transform="translate(-62.82 -52.94)"/><path class="cls-43" d="M265.78,393.49H195.36a3.5,3.5,0,0,1-3.49-3.49h0a3.49,3.49,0,0,1,3.49-3.49h70.42Z" transform="translate(-62.82 -52.94)"/><line class="cls-42" x1="129.05" y1="335.72" x2="159.38" y2="335.72"/><line class="cls-42" x1="129.05" y1="337.1" x2="178.97" y2="337.1"/><line class="cls-42" x1="129.05" y1="338.37" x2="198.68" y2="338.37"/><line class="cls-42" x1="136.2" y1="339.72" x2="192.82" y2="339.72"/><line class="cls-42" x1="170.35" y1="335.72" x2="194.31" y2="335.72"/><path class="cls-33" d="M239.73,378.12c-4.28,0-5.71,2.19-6.18,3.1-.48-.91-1.9-3.1-6.19-3.1-6.3,0-31.76,2.78-31.76,2.78V382h75.9V380.9S246,378.11,239.73,378.12Z" transform="translate(-62.82 -52.94)"/><path class="cls-44" d="M271.18,381.54s-25.15-2.41-31.45-2.4c-4.28,0-5.71,1.81-6.18,2.72-.48-.91-1.9-2.72-6.19-2.72-6.3,0-31.44,2.4-31.44,2.4" transform="translate(-62.82 -52.94)"/><path class="cls-45" d="M217.78,381.47s9-.45,11.08-.28a35.66,35.66,0,0,1,4.69.67S231.6,380,227,380c-2.76,0-31.1,1.92-31.1,1.92" transform="translate(-62.82 -52.94)"/><line class="cls-45" x1="154.33" y1="328.5" x2="140.33" y2="329.03"/><path class="cls-45" d="M249.36,381.47s-9.05-.45-11.09-.28a35.65,35.65,0,0,0-4.68.67s1.94-1.82,6.53-1.82c2.76,0,31.1,1.92,31.1,1.92" transform="translate(-62.82 -52.94)"/><line class="cls-45" x1="187.15" y1="328.5" x2="201.16" y2="329.03"/><rect class="cls-11" x="131.67" y="329.03" width="78.59" height="2.99" rx="0.95"/><path class="cls-25" d="M342.41,418.27c0,1.55-10.41,2.81-23.25,2.81s-23.26-1.26-23.26-2.81,10.42-2.81,23.26-2.81S342.41,416.72,342.41,418.27Z" transform="translate(-62.82 -52.94)"/><path class="cls-18" d="M309.36,411.7a29.63,29.63,0,0,0,.14,3.23c.15.86,2.48.66,2.7.19a28.61,28.61,0,0,0-.07-4.43" transform="translate(-62.82 -52.94)"/><path class="cls-15" d="M312.59,415.2a6.22,6.22,0,0,1,0,2.21c-.22.31-3.29.57-4,.72a8.38,8.38,0,0,1-2.18.11c-1.9-.23-3.19-.91-3.24-1.2-.22-1.22,3.59-.89,6.11-3.42a.78.78,0,0,1,.48.38,1.37,1.37,0,0,0,1.43.72,1.68,1.68,0,0,0,.9-.47A1,1,0,0,1,312.59,415.2Z" transform="translate(-62.82 -52.94)"/><path class="cls-22" d="M329.5,345.31c1-.71,2-1.52,3-2.35,2.29-1.92,4.33-4,4.58-5.53.56-3.4.12-13.51-.15-18.28,0-.29,0-.56,0-.82-.27-4.51-2.7-6.5-3.91-7.24-.62,5.87-2,19.1-2.13,19.78C330.73,331.75,329.5,345.31,329.5,345.31Z" transform="translate(-62.82 -52.94)"/><path class="cls-27" d="M329.5,345.31c1-.71,2-1.52,3-2.35.08-3.73,1.19-8.94,2.75-15.46,1.86-8.21.69-9.72.69-9.72l-3.72.56c-.62,5.81-1.29,12.07-1.37,12.53C330.73,331.75,329.5,345.31,329.5,345.31Z" transform="translate(-62.82 -52.94)"/><path class="cls-18" d="M329.14,410.45s.32,2.86.44,3.59,2.45.58,2.69.18a21.43,21.43,0,0,0,.08-3.78" transform="translate(-62.82 -52.94)"/><path class="cls-15" d="M332.89,414.42a6.47,6.47,0,0,1,.12,2.2c-.2.33-3.23.8-3.94,1a8.45,8.45,0,0,1-2.18.26c-1.91-.09-3.24-.68-3.31-1-.31-1.2,3.51-1.15,5.85-3.85a.77.77,0,0,1,.5.35,1.38,1.38,0,0,0,1.48.61,2,2,0,0,0,1-.63A1.27,1.27,0,0,1,332.89,414.42Z" transform="translate(-62.82 -52.94)"/><path class="cls-20" d="M330.3,344.12l-11.14-.06,1.06,13.78.37,4.65s1,18.67,1.89,21.61c1.41,8.22,6.48,28.6,6.48,28.6a5.21,5.21,0,0,0,3.85-.23c-1-10.86,1-23-3.31-30.7.68-5,1.72-9.44,2.72-20.82.21-2.3,1-2.67,1.27-7.44S330.3,344.12,330.3,344.12Z" transform="translate(-62.82 -52.94)"/><path class="cls-21" d="M321.52,376.05a100.24,100.24,0,0,1,3-9.68,17.29,17.29,0,0,1,2.71-5.13c5.09-6.37.57-13.64.57-13.64s-4.24,4.18-4.52,4.6-1.81,3.76-3,5.64l.37,4.65S321,369,321.52,376.05Z" transform="translate(-62.82 -52.94)"/><path class="cls-20" d="M327.81,344.14l-14.39.65s-3.91,30.73-3.69,36.6c.4,10.64-.68,31.2-.68,31.2a3.52,3.52,0,0,0,3.73.68S320.22,395,318,383.32c1-4.26,4.93-18.34,6.19-20.29C325.94,360.31,332.62,357.73,327.81,344.14Z" transform="translate(-62.82 -52.94)"/><path class="cls-18" d="M327.18,308.47a12.61,12.61,0,0,1-.45-4.7c.35-2,1.55-5.59,1.1-8.28s-3.84-4.94-7.43-4.59-4.64,3.79-5.24,5.79a20.5,20.5,0,0,0-.35,6.68,4.64,4.64,0,0,0,1.64,3.29c.6.35,2.86-.11,3.25.32a10.62,10.62,0,0,1,.7,3" transform="translate(-62.82 -52.94)"/><path class="cls-22" d="M328.88,310.6a4.53,4.53,0,0,0-.8-2.13c-.6-.56-4.59-.56-5.79-.41a18.36,18.36,0,0,0-4.54,1.82c-.39.29.38,1.8.38,1.8Z" transform="translate(-62.82 -52.94)"/><path class="cls-15" d="M327.23,305l-.15.08a2.72,2.72,0,0,1-2.79-.21,2.9,2.9,0,0,1-2.3.71,1.47,1.47,0,0,1-1.17-1.81,2.15,2.15,0,0,1-1.78-.56c-.94-.92-.32-1.71-.33-2.76,0-.75-.06-2-1-2.19a1,1,0,0,0-.95.45c-.07.13-.11.29-.24.37A.41.41,0,0,1,316,299a.94.94,0,0,1-.18-.56,3.22,3.22,0,0,1,1-2.51,4.42,4.42,0,0,1-2.22-3.58,3.32,3.32,0,0,1,.27-1.87,3.91,3.91,0,0,1,2.08-1.6,5.71,5.71,0,0,1,3.32-.35c1.32.24,1.76,1.05,2.77,1.37,1.63-.54,3.81,0,4.15,1.78a2.32,2.32,0,0,1,2.31.76c.78,1,.17,1.85-.09,2.88-.37,1.44.1,2.68,0,4.08-.06,1.2-.92,2.22-1.24,3.35C327.89,303.56,328.1,304.46,327.23,305Z" transform="translate(-62.82 -52.94)"/><path class="cls-22" d="M313.17,341.72c-.19,1.56-1.56,5.39-.62,5.73a17.88,17.88,0,0,0,3.77-.12h.13c1.66-.13,3.56-.32,5.14-.44,6.35-.27,9.58-.42,10.22-.77.31-.19.32-.74.22-1.3a14.85,14.85,0,0,1-.11-4.21c.16-1.18.38-2.58.68-4.19,1-5.55,3.1-14,3.41-19.15.49-8-8.08-7.24-8.08-7.24-10.91-.68-16,2.46-16.62,7.15-.05.33-.07.68-.1,1.06-.28,4.83,1.2,12.63,1.89,18.46A29.21,29.21,0,0,1,313.17,341.72Z" transform="translate(-62.82 -52.94)"/><path class="cls-22" d="M313.17,341.72c-.19,1.56-1.56,5.39-.62,5.73a17.88,17.88,0,0,0,3.77-.12c-1.69.13-2-2.58-1.63-3.44a12.22,12.22,0,0,0,1.08-5.16c-.07-2.33-.95-7.56-1.46-12.51a40.25,40.25,0,0,1,0-8.67c-.26.52-1,1.26-3.12,1.74-.05,4.86,1.28,12,1.92,17.4A29.21,29.21,0,0,1,313.17,341.72Z" transform="translate(-62.82 -52.94)"/><path class="cls-18" d="M285.34,338.73c-.25-.13,0-.42.27-.42l.2,0c-.44-.14-.8-.27-.88-.31-.24-.13,0-.4.22-.43l-.36-.14c-.31-.16,0-.45.26-.43l.47.11-.24-.1c-.25-.14-.06-.41.19-.41a3.74,3.74,0,0,1,.55.12c.27.06.59.1.87.18a6.08,6.08,0,0,0,.81.14,3.52,3.52,0,0,0,1.44-.82l-.95-.53s-.06-.84,2.6.17c.39.15.73.69,1,.75a5.68,5.68,0,0,0,1,.06V339a5.47,5.47,0,0,0-1.68-.08,17.32,17.32,0,0,1-2.19.68,10.11,10.11,0,0,1-1.1-.11l-.8-.17-.75-.24S285.42,338.78,285.34,338.73Z" transform="translate(-62.82 -52.94)"/><path class="cls-22" d="M292.16,339.19s4.15.94,7.53,1.57a32.66,32.66,0,0,0,8.1.66h.07c1.69-.06,3.92-.55,4.45-1.31a27.39,27.39,0,0,0,1.53-3.75c.86-1.76,2.15-6.54,3.24-10.61,0-.07,0-.13.05-.19.5-1.9,1-3.63,1.32-4.81a2.58,2.58,0,0,0,0-1.65,2.3,2.3,0,0,0-.89-1.16v0c-1.15-.78-.8-1.88-2-1.13-.06,0-.77-.18-.82-.14a8.82,8.82,0,0,1-.25-4.35s-3.29,1.44-4.49,8.23c-.27,1.51-1.92,12.14-2,13.45a2.46,2.46,0,0,1,0,.28s0,.15-.08.39c0,.07,0,.17,0,.26a12.8,12.8,0,0,0-3.22.3,103,103,0,0,1-12.18,1.29l-.22,2.1v0h0Z" transform="translate(-62.82 -52.94)"/><g class="cls-46"><path class="cls-47" d="M352.09,248.8a9.46,9.46,0,0,0-2.72-10.36,11.69,11.69,0,0,0-10.76-2.12,15.41,15.41,0,0,0-8.68,7,8,8,0,0,0-3.11-4.5c-2.23-1.33-5.21-.63-7.24,1s-3.33,3.93-4.58,6.2c-2.37-1.87-4.86-3.81-7.83-4.34-4.39-.79-8.63,1.64-12.63,3.62-7.39,3.64-13.93,3-27.17,4.63C294.08,248.39,352.09,248.8,352.09,248.8Z" transform="translate(-62.82 -52.94)"/></g><g class="cls-46"><path class="cls-47" d="M247,172.8c1.89-4.65.22-10.36-3.58-13.65a15.38,15.38,0,0,0-14.17-2.78,20.25,20.25,0,0,0-11.43,9.25c-.8-2.32-2-4.67-4.1-5.92-2.93-1.75-6.86-.83-9.53,1.27s-4.39,5.19-6,8.17c-3.11-2.47-6.4-5-10.31-5.72-5.78-1-11.36,2.17-16.63,4.77-9.74,4.8-18.35,3.91-35.78,6.1C170.59,172.27,247,172.8,247,172.8Z" transform="translate(-62.82 -52.94)"/></g><g class="cls-46"><path class="cls-47" d="M502.57,170.56a8.72,8.72,0,0,1,8.36,7.52,6.87,6.87,0,0,1,5.4-2.91,4.32,4.32,0,0,1,4.25,3.9,8.1,8.1,0,0,1,9.3-1.49,11.62,11.62,0,0,1,3.42,2.74A9.92,9.92,0,0,0,536,183c1.19.59,8.94,1.12,11.49,1.3,5.9.4,11.8.67,17.7.9,3.34.13,6.69.24,10,.32-14.58,0-88.36-.2-92.79-.2a7.54,7.54,0,0,1,4.08-5.64c2.35-1.14,4.72-.74,7,.24C493.42,179.13,494.29,170.56,502.57,170.56Z" transform="translate(-62.82 -52.94)"/></g><g class="cls-46"><path class="cls-47" d="M465,52.94A14,14,0,0,1,478.45,65c2.07-2.71,5.26-4.77,8.67-4.68s6.78,2.85,6.82,6.26c3.6-4,10.25-4.75,14.92-2.38a18.54,18.54,0,0,1,5.49,4.39c1.35,1.54,2.48,3.41,4.36,4.36s14.35,1.8,18.45,2.08c9.45.65,18.92,1.09,28.39,1.46,5.36.2,10.73.38,16.1.5-23.39,0-141.78-.31-148.89-.31a12.06,12.06,0,0,1,6.54-9c3.77-1.84,7.58-1.19,11.22.38C450.36,66.68,451.75,52.94,465,52.94Z" transform="translate(-62.82 -52.94)"/></g><path class="cls-25" d="M431.54,424.25c0,1.1,6.71,2,15,2s15-.89,15-2-6.71-2-15-2S431.54,423.15,431.54,424.25Z" transform="translate(-62.82 -52.94)"/><path class="cls-33" d="M462.58,418.7a10.66,10.66,0,0,0,.53-8.93,11,11,0,0,0-3.16-4.43,12.07,12.07,0,0,0-4.29-2.09,10.62,10.62,0,0,0-8,.92,11.38,11.38,0,0,0-4.39,5.11c-.93,2-1.32,4.51-3.33,5.81-.57.37-1.53.52-1.81,1.21s.28,1.64.6,2.35.78,1.7,1.16,2.55c.28.61.55,1.66,1.28,1.88s1.45-.36,2.11-.54c1.73-.48,3.61.2,5.19.89a11.49,11.49,0,0,0,5.68,1.06A10.41,10.41,0,0,0,462.58,418.7Z" transform="translate(-62.82 -52.94)"/><path class="cls-39" d="M438.59,419.47s5.59-2.76,8.26-4.27a11.91,11.91,0,0,0,2.42-1.67c.63-.56,1.9-1.88,1.08-2.75s-2.09.65-2.08,1.59a3.59,3.59,0,0,0,1.31,2.36,3.8,3.8,0,0,0,3.92-.07.9.9,0,0,0-.56-1.65c-.86.06-3.3,1.89-2.74,3.35a3.27,3.27,0,0,0,1.66,1.75c1.34.65,3.08-1,1.2-1.65a7,7,0,0,0-4.3.52c-3.43,1.33-6.08,2.47-9.49,3.87" transform="translate(-62.82 -52.94)"/><rect class="cls-26" x="435.85" y="419.6" width="6.32" height="0.62" transform="translate(580 -205.31) rotate(65.88)"/><path class="cls-13" d="M438.19,424.14a.38.38,0,0,1,.44-.18l.05,0a.38.38,0,0,0,.43-.18l.05-.09a.37.37,0,0,1,.44-.17.36.36,0,0,0,.44-.16l.14-.24a.32.32,0,0,0,0-.3l-2.56-5.72a.32.32,0,0,0-.23-.19l-.27-.06a.37.37,0,0,0-.42.22.36.36,0,0,1-.42.22l-.1,0a.37.37,0,0,0-.42.2l0,.05a.35.35,0,0,1-.42.2l-.08,0a.37.37,0,0,0-.42.21l0,0a.72.72,0,0,0,0,.52L437.3,424a.71.71,0,0,0,.38.36h0a.37.37,0,0,0,.44-.18Z" transform="translate(-62.82 -52.94)"/><path class="cls-26" d="M439.44,423.34h0a.11.11,0,0,0,.06-.14l-1.2-2.67a.11.11,0,1,0-.19.09l1.2,2.67A.1.1,0,0,0,439.44,423.34Z" transform="translate(-62.82 -52.94)"/><path class="cls-26" d="M437.71,419.48h0a.11.11,0,0,0,.06-.14l-.67-1.48a.1.1,0,1,0-.18.09l.66,1.48A.11.11,0,0,0,437.71,419.48Z" transform="translate(-62.82 -52.94)"/><path class="cls-26" d="M438,421.77h0a.1.1,0,0,0,.05-.13l-1.73-3.87a.11.11,0,0,0-.14-.05.1.1,0,0,0-.05.13l1.73,3.87A.11.11,0,0,0,438,421.77Z" transform="translate(-62.82 -52.94)"/><path class="cls-26" d="M438.79,423.64h0a.1.1,0,0,0,.06-.14l-.52-1.14a.1.1,0,0,0-.13-.05.1.1,0,0,0-.05.14l.51,1.14A.09.09,0,0,0,438.79,423.64Z" transform="translate(-62.82 -52.94)"/><path class="cls-26" d="M436.67,420.65h0a.09.09,0,0,0,.05-.13l-.92-2.07a.11.11,0,0,0-.14-.05.09.09,0,0,0-.05.13l.92,2.07A.11.11,0,0,0,436.67,420.65Z" transform="translate(-62.82 -52.94)"/><path class="cls-26" d="M437.65,422.84h0a.11.11,0,0,0,.05-.14l-.37-.83a.11.11,0,1,0-.19.09l.37.83A.11.11,0,0,0,437.65,422.84Z" transform="translate(-62.82 -52.94)"/><path class="cls-26" d="M438,420.15h.05a.11.11,0,0,0,.05-.14l-.14-.3a.1.1,0,0,0-.13-.05.1.1,0,0,0-.06.14l.14.3A.11.11,0,0,0,438,420.15Z" transform="translate(-62.82 -52.94)"/><g class="cls-35"><path class="cls-33" d="M462.58,418.7a10.66,10.66,0,0,0,.53-8.93c-.14-.32-.29-.65-.45-1a9.85,9.85,0,0,1-5.29,12.43c-4.08,1.68-7.82,1-11.4-2.27a2.6,2.6,0,0,0-2.62-.75c-1,.28-1.74,1-2.72,1.19a.86.86,0,0,1-.45,0,1,1,0,0,1-.34-.25,6.56,6.56,0,0,1-1.59-3,1.18,1.18,0,0,0-.11.19c-.33.82.28,1.64.6,2.35s.78,1.7,1.16,2.55c.28.61.55,1.66,1.28,1.88s1.45-.36,2.11-.54c1.73-.48,3.61.2,5.19.89a11.49,11.49,0,0,0,5.68,1.06A10.41,10.41,0,0,0,462.58,418.7Z" transform="translate(-62.82 -52.94)"/></g></g></g></svg>