<svg xmlns="http://www.w3.org/2000/svg" viewBox="0 0 560 400"><defs><style>.cls-1{isolation:isolate;}.cls-2{fill:#a5a6c2;}.cls-3{fill:#f2a299;}.cls-4,.cls-56{fill:#8488ab;}.cls-5{fill:#5dd7de;}.cls-6{fill:#51bcc2;}.cls-7{fill:#d6d7d9;}.cls-8{fill:#fff;}.cls-9{fill:#babbbd;}.cls-10{opacity:0.6;}.cls-11{fill:#cc776e;}.cls-103,.cls-11,.cls-28,.cls-30,.cls-56,.cls-60,.cls-62{opacity:0.4;}.cls-11,.cls-126,.cls-28,.cls-30,.cls-34,.cls-35,.cls-73,.cls-82,.cls-85,.cls-89,.cls-99{mix-blend-mode:multiply;}.cls-12{fill:#d3fffe;}.cls-13{fill:#cecfd1;}.cls-14{fill:#8db90a;}.cls-15{fill:#618c03;}.cls-16{fill:#476602;}.cls-17,.cls-35{fill:#f3ad7a;}.cls-18{fill:#2f4052;}.cls-19{fill:#cf9b72;}.cls-20{fill:#edd6b6;}.cls-21{fill:#17191a;}.cls-22{fill:#2e3133;}.cls-23{fill:#fff7dc;}.cls-24{fill:#424549;}.cls-25{fill:#de641b;}.cls-26{fill:#f36d1d;}.cls-27{fill:#ccdcff;}.cls-29,.cls-30,.cls-34{fill:#d68453;}.cls-31{fill:#1e2a36;}.cls-32{fill:#b35016;}.cls-33{fill:#ffca00;}.cls-34,.cls-85{opacity:0.8;}.cls-35,.cls-42,.cls-73,.cls-82,.cls-99{opacity:0.3;}.cls-36{fill:#ffcd9c;}.cls-37{fill:#713815;}.cls-38{fill:#52290f;}.cls-39,.cls-99{fill:#fec08a;}.cls-40{fill:#2a2626;}.cls-41{fill:#fefefe;}.cls-42{fill:#ffe9d4;}.cls-43{fill:#f48fb7;opacity:0.1;}.cls-44{fill:#462119;}.cls-45{fill:#2f323d;}.cls-46{fill:#44556e;}.cls-47{fill:#0f2436;}.cls-48{fill:#bd2626;}.cls-49{fill:#eb3131;}.cls-50,.cls-62{fill:#ffa600;}.cls-51{fill:#cec1a5;}.cls-52{fill:#d87e2e;}.cls-53{fill:#f54131;}.cls-54,.cls-60{fill:#ad2e23;}.cls-55,.cls-59{fill:#465c05;}.cls-126,.cls-55{opacity:0.2;}.cls-57{fill:#593d3d;}.cls-58{fill:#361d1b;}.cls-61{fill:#ffc30b;}.cls-63{fill:#4993ba;}.cls-64{fill:#3e7e9b;}.cls-65{fill:#fafbfd;}.cls-66{fill:#bd4237;}.cls-67{fill:#96a635;}.cls-68{fill:#f55648;}.cls-69{fill:#a1dbcc;}.cls-70{fill:#92c7b9;}.cls-71,.cls-73{fill:#235a9d;}.cls-72{fill:#1b4578;}.cls-74{fill:#1c1919;}.cls-103,.cls-75{fill:#85231b;}.cls-76{fill:#313e4f;}.cls-77{fill:#e8efff;}.cls-78{fill:#405067;}.cls-79{fill:#ec8800;}.cls-80{fill:#fa0;}.cls-81{fill:#3d414f;}.cls-83{fill:#e55822;}.cls-84{fill:#e6e6e6;}.cls-85{fill:#bdbdbd;}.cls-86{fill:#eb8d00;}.cls-87{fill:#1a2230;}.cls-88{fill:#fc0;}.cls-89{fill:#ebb386;opacity:0.5;}.cls-90{fill:#2485b0;}.cls-91{fill:#4fbef0;}.cls-92{fill:#54caff;}.cls-93{fill:#2eabe3;}.cls-94{fill:#2894c4;}.cls-95{fill:#71cff3;}.cls-96{fill:#353942;}.cls-97{fill:#585b64;}.cls-98{fill:#507302;}.cls-100{fill:#bf4223;}.cls-101{fill:#3f705c;}.cls-102{fill:#7cc4a6;}.cls-104{fill:#f7ac2f;}.cls-105{fill:#748200;}.cls-106{fill:#f27c14;}.cls-107{fill:#e89700;}.cls-108{fill:#ffa108;}.cls-109{fill:#515e5e;}.cls-110{fill:#e0e0e0;}.cls-111{fill:#75bd48;}.cls-112{fill:#182121;}.cls-113{fill:#374955;}.cls-114{fill:#2e3d47;}.cls-115{fill:#d25400;}.cls-116{fill:#f8690e;}.cls-117{fill:#f3b02b;}.cls-118{fill:#f29b12;}.cls-119,.cls-126{fill:#572c15;}.cls-120{fill:#ff8d23;}.cls-121{fill:#478391;}.cls-122{fill:#c0c5c9;}.cls-123{fill:#4c5570;}.cls-124{fill:#134663;}.cls-125{fill:#381c0e;}</style></defs><g class="cls-1"><g id="Layer_1" data-name="Layer 1"><rect class="cls-2" width="560" height="400"/><rect class="cls-3" y="308.46" width="560" height="91.54"/><rect class="cls-4" y="296.73" width="560" height="11.73"/><polygon class="cls-4" points="13.41 20.06 13.41 215.54 144.14 212.31 266.48 209.28 266.48 26.33 13.41 20.06"/><polygon class="cls-5" points="256.54 34.08 256.54 201.52 245.07 201.78 241.46 201.86 237.93 201.94 227.32 202.18 224.32 202.25 204.14 202.71 201.62 202.76 104.66 204.96 24.7 206.77 24.7 28.84 256.54 34.08"/><path class="cls-6" d="M104.66,94.21V205l97-2.2v-48h25.7v47.38l10.61-.24V94.21Zm23.47,94H116.67V172.86h11.46Zm0-19.33H116.67V154.1h11.46Zm.1-30.73H116.67v-14h11.56Zm0-18H116.67V104h11.56Zm14.14,68H131.29V172.86h11.08Zm0-19.33H131.29V154.1h11.08Zm0-30.73h-11v-14h11Zm0-18h-11V104h11Zm27.95,68H159.15V172.86h11.17Zm0-19.33H159.15V154.1h11.17Zm.09-30.73H159.15v-14h11.26Zm0-18H159.15V104h11.26Zm14.43,68H173.48V172.86h11.36Zm0-19.33H173.48V154.1h11.36Zm0-30.73H173.58v-14h11.26Zm0-18H173.58V104h11.26Zm27.76,18h-11v-14h11Zm0-18h-11V104h11Zm14.72,18H215.77v-14h11.55Zm0-18H215.77V104h11.55Z" transform="translate(0 0)"/><polygon class="cls-6" points="221.3 59.49 221.3 74.9 201.54 74.9 201.54 59.49 193.25 59.49 149.36 59.49 111.78 59.49 98.22 86.89 149.36 86.89 193.25 86.89 245.83 86.89 232.26 59.49 221.3 59.49"/><rect class="cls-6" x="204.63" y="47.51" width="13.58" height="24.9"/><polygon class="cls-6" points="224.32 157.5 224.32 202.25 204.14 202.71 204.14 157.5 224.32 157.5"/><polygon class="cls-6" points="241.46 201.86 241.46 91.92 99.34 91.92 99.34 88.1 245.03 88.1 245.07 201.78 241.46 201.86"/><rect class="cls-7" x="19.28" y="376.71" width="171.85" height="7.19"/><rect class="cls-8" x="185.62" y="359.3" width="111" height="7.2"/><rect class="cls-9" x="188.94" y="346.15" width="126.52" height="10.89"/><rect class="cls-8" x="62.66" y="344.76" width="167.15" height="10.89"/><rect class="cls-8" x="208.42" y="370.94" width="73.06" height="21.25"/><g class="cls-10"><path class="cls-11" d="M474.4,311.84H308a8.16,8.16,0,0,0-7.63-5.36H225a8.16,8.16,0,0,0-8.13,8.13v2.69a8.16,8.16,0,0,0,6.66,8H11.17A8.16,8.16,0,0,0,3,333.42v.05a8.16,8.16,0,0,0,8.13,8.14H261.3a8.16,8.16,0,0,0,8.13-8.14v-.05a8.15,8.15,0,0,0-6.66-8h32.38a8.14,8.14,0,0,0,7,4H474.4a8.16,8.16,0,0,0,8.13-8.13V320A8.16,8.16,0,0,0,474.4,311.84Z" transform="translate(0 0)"/><path class="cls-11" d="M560,344.24v20.22H330.3a8.16,8.16,0,0,1-8.13-8.14v-3.95a8.16,8.16,0,0,1,8.13-8.13Z" transform="translate(0 0)"/><rect class="cls-11" x="421.53" y="372.19" width="115.03" height="20" rx="8.13"/><path class="cls-11" d="M145.36,374.23H77.44a7.09,7.09,0,0,1-7.07-7.07h0a7.09,7.09,0,0,1,7.07-7.07h67.92a7.1,7.1,0,0,1,7.08,7.07h0A7.1,7.1,0,0,1,145.36,374.23Z" transform="translate(0 0)"/></g><polygon class="cls-4" points="323.89 122.45 326.31 23.54 441.66 22.28 429.22 132.38 323.89 122.45"/><polygon class="cls-12" points="425.98 128.38 327.65 119.12 329.89 27.18 437.55 26 425.98 128.38"/><polygon class="cls-13" points="328.62 79.6 351.55 67.42 365.54 70.59 377.31 54.17 386.76 61.8 396.17 52.24 404.73 55.84 421.53 41.97 433.86 58.65 425.98 128.38 327.65 119.12 328.62 79.6"/><polygon class="cls-8" points="338.44 74.39 351.55 67.42 352.75 71.24 346.85 76.98 348.16 72.19 338.44 74.39"/><polygon class="cls-8" points="377.31 54.17 365.54 70.59 362.11 77.67 372.56 68.14 374.77 71.21 379.52 65.07 382.6 66.55 377.31 54.17"/><polygon class="cls-8" points="396.17 52.24 386.76 61.8 374.62 83.96 392.12 61.81 392.57 68.82 396.17 52.24"/><polygon class="cls-8" points="404.73 55.84 399.14 71.63 411 59.83 414.86 52.54 417.75 58.25 420.72 52.64 421.53 41.97 404.73 55.84"/><path class="cls-14" d="M431.7,77.7a80.86,80.86,0,0,0-33.34,6.13C364.71,98,339.69,101.73,328,107.07l-.3,12.05L426,128.38Z" transform="translate(0 0)"/><path class="cls-15" d="M428.22,108.51c-20.63-2.42-48.34-5.49-73.57-14.38a87.16,87.16,0,0,0-26.26-5.25l-.74,30.24L426,128.38Z" transform="translate(0 0)"/><path class="cls-16" d="M327.78,114c17.2.81,43.33-8.44,70.33-12.68a128.27,128.27,0,0,1,31.06-1.23L426,128.38l-98.33-9.26Z" transform="translate(0 0)"/><path class="cls-8" d="M417.66,41.26c.14-1.43-4.27-2.6-9.79-2.61s-9.93,1.12-10.05,2.52,4.16,2.56,9.59,2.6S417.52,42.69,417.66,41.26Z" transform="translate(0 0)"/><path class="cls-8" d="M401.65,43.4c.08-.93-3.35-1.7-7.63-1.72s-7.7.7-7.77,1.61S389.53,45,393.76,45,401.58,44.32,401.65,43.4Z" transform="translate(0 0)"/><path class="cls-8" d="M375,54.9c0-.59-2.14-1.12-4.86-1.17s-4.9.39-4.93,1,2.11,1.11,4.81,1.17S375,55.5,375,54.9Z" transform="translate(0 0)"/><path class="cls-8" d="M370.64,53.28c0-.6-2.13-1.12-4.82-1.16s-4.86.39-4.89,1,2.1,1.11,4.77,1.16S370.6,53.87,370.64,53.28Z" transform="translate(0 0)"/><path class="cls-8" d="M329.43,60.35h-.34l-.1,4h.34c4.93.16,9-.63,9-1.76S334.38,60.48,329.43,60.35Z" transform="translate(0 0)"/><rect class="cls-17" x="212.11" y="146.6" width="4.28" height="7.41" transform="translate(-33.04 64.61) rotate(-15.94)"/><path class="cls-17" d="M210.85,144.29a1.1,1.1,0,0,1-.49,1.46h0a1.11,1.11,0,0,1-1.46-.49l-2.9-5.83a1.09,1.09,0,0,1,.49-1.46h0a1.09,1.09,0,0,1,1.45.49Z" transform="translate(0 0)"/><path class="cls-17" d="M215.7,142.62A1.1,1.1,0,0,1,215,144h0a1.09,1.09,0,0,1-1.36-.73l-1.9-6.22a1.1,1.1,0,0,1,.72-1.36h0a1.1,1.1,0,0,1,1.36.73Z" transform="translate(0 0)"/><path class="cls-17" d="M218.7,140.72a1.18,1.18,0,0,0-1.64.31l-3,4.34a3.57,3.57,0,0,0,1,1.47c.27.22,1.22-.1,1.22-.1l2.67-4.37A1.19,1.19,0,0,0,218.7,140.72Z" transform="translate(0 0)"/><path class="cls-17" d="M213,142.53a1.08,1.08,0,0,1-.62,1.4h0a1.08,1.08,0,0,1-1.4-.62l-2.36-6.07a1.09,1.09,0,0,1,.63-1.41h0a1.08,1.08,0,0,1,1.4.62Z" transform="translate(0 0)"/><path class="cls-17" d="M216.58,144.72a2.13,2.13,0,0,1-1.22,2.78l-2.87,1.11a2.14,2.14,0,0,1-2.77-1.23l-1.11-2.87a2.15,2.15,0,0,1,1.23-2.78l2.86-1.1a2.15,2.15,0,0,1,2.78,1.23Z" transform="translate(0 0)"/><path class="cls-18" d="M229.22,179.61q.65.33,1.29.6c5.22,2.16,10.73,1,15.52-3.26,9.61-8.56,15.36-34,13.74-44.77A4.44,4.44,0,1,0,251,133.5c1.36,9.1-4.49,31.13-10.87,36.81-2.88,2.57-4.83,2.25-6.21,1.68a5.38,5.38,0,0,1-.6-.28c-6-3.13-14.26-16.34-14.66-23.07l-8.57,1.29C210.55,157.83,219.09,174.31,229.22,179.61Z" transform="translate(0 0)"/><polygon class="cls-19" points="260.59 305.5 266.58 305.62 266.69 300.59 260.7 300.45 260.59 305.5"/><polygon class="cls-20" points="260.03 311.05 267.07 311.07 267.08 303.76 260.02 303.76 260.03 311.05"/><path class="cls-21" d="M268.16,313.36a1.29,1.29,0,0,1-1.3,1.32l-7.71,0-14.15,0V313l23.17,0Z" transform="translate(0 0)"/><path class="cls-22" d="M249.79,309.09h4.61l.78,0a1.51,1.51,0,0,1,.26,0,2.22,2.22,0,0,0,1.09-.46c.07-.07.14-.13.18-.18a1.48,1.48,0,0,0,.25-.88v-.12h0v-.1a2.6,2.6,0,0,1,5.18-.26h0v.17a2.47,2.47,0,0,0,4.93,0V307a1.28,1.28,0,0,1,1.06,1.28V313L245,313C245,310.4,247.14,309.1,249.79,309.09Z" transform="translate(0 0)"/><polygon class="cls-19" points="275 305.46 280.99 305.58 281.1 300.55 275.11 300.42 275 305.46"/><polygon class="cls-23" points="274.44 311.02 281.48 311.03 281.48 303.72 274.44 303.72 274.44 311.02"/><path class="cls-22" d="M282.57,313.33a1.29,1.29,0,0,1-1.3,1.31l-7.7,0-14.16,0V313l23.17,0Z" transform="translate(0 0)"/><path class="cls-24" d="M259.41,313c0-2.63,2.15-3.93,4.8-3.94h4.6l.78,0,.27,0a2.4,2.4,0,0,0,1.1-.46,1.49,1.49,0,0,1,.17-.18,1.49,1.49,0,0,0,.25-.86v-.14h0v-.1a2.6,2.6,0,0,1,5.18-.25h0v.17a2.46,2.46,0,1,0,4.91,0V307a1.3,1.3,0,0,1,1.09,1.28V313Z" transform="translate(0 0)"/><g id="Legs"><path class="cls-25" d="M252.2,202.5v-5.34a18.13,18.13,0,0,1,18.08-18.08h.31a18.13,18.13,0,0,1,18.08,18.08l.1,5.34Z" transform="translate(0 0)"/><polygon class="cls-26" points="280.09 214.74 253.94 214.74 252.2 202.5 280.09 202.5 280.09 214.74"/><polygon class="cls-26" points="272.01 301.3 272.01 202.5 288.77 202.5 285.61 301.3 272.01 301.3"/><polygon class="cls-25" points="268.96 301.3 268.96 202.5 252.2 202.5 255.36 301.3 268.96 301.3"/><polygon class="cls-27" points="286.82 263.25 286.62 269.73 272.01 269.73 272.01 263.25 286.82 263.25"/><polygon class="cls-27" points="272.01 282.7 272.01 276.21 286.41 276.21 286.2 282.7 272.01 282.7"/><polygon class="cls-27" points="254.77 282.7 254.56 276.21 268.96 276.21 268.96 282.7 254.77 282.7"/><polygon class="cls-27" points="268.96 263.25 268.96 269.73 254.35 269.73 254.14 263.25 268.96 263.25"/></g><g class="cls-28"><path class="cls-29" d="M265,295.78c3.32-12.92,4.06-27.69-1.11-39.88-.74-2.22,2.59-3,2.59-4.8,2.21-12.19-3-24,.74-36.19a5.28,5.28,0,0,1,1.76-.18V301.3h-13.6l-.08-2.72.84.16C259.44,299.11,263.87,298.74,265,295.78Z" transform="translate(0 0)"/></g><path class="cls-30" d="M282.31,293.57c2.95-14.41-2.59-28.07-1.48-41.73,0-1.85,3.69-3.7,4.06-6.65,1.48-12.56,0-24.74-1.11-36.93-.28-2.09-.54-4-.87-5.76h5.81l0,.95-3.13,97.85H272.14v-2.23C277,299,281.42,298.25,282.31,293.57Z" transform="translate(0 0)"/><path class="cls-18" d="M252.19,192.13V132a2.89,2.89,0,0,1,2.4-2.79h0l6.85-1.31,8.12-1.56,5.5,1,6.89,1.23,4.22.76a2.63,2.63,0,0,1,2.56,2.7v60.18Z" transform="translate(0 0)"/><path class="cls-31" d="M277.91,195c1.84-.37,4.06-1.48,4.43-3.32,5.61-16.84,4.37-34.61,2.89-52l-.33-.12a4.35,4.35,0,0,1-2.67-5.53,4.46,4.46,0,0,1,.28-.63h6.26v66.35a2.64,2.64,0,0,1-2.56,2.7H254.74a2.63,2.63,0,0,1-2.55-2.7v-3.79A77.42,77.42,0,0,0,277.91,195Z" transform="translate(0 0)"/><path class="cls-26" d="M252.19,142.52v57.19a2.63,2.63,0,0,0,2.55,2.7h31.47a2.58,2.58,0,0,0,2.47-2,2.46,2.46,0,0,0,.09-.67V184.23H283.3V142.52Z" transform="translate(0 0)"/><path class="cls-32" d="M278.22,150.9v8.47a4.92,4.92,0,0,1-4.92,4.92H260.51a4.92,4.92,0,0,1-4.92-4.92V150.9Z" transform="translate(0 0)"/><path class="cls-25" d="M255.59,153.6l11.32,4.1,11.31-4.1v-3.15a2.74,2.74,0,0,0-2.73-2.74H258.33a2.74,2.74,0,0,0-2.74,2.74Z" transform="translate(0 0)"/><path class="cls-33" d="M265.48,153.6a1.43,1.43,0,1,1,1.43,1.42A1.42,1.42,0,0,1,265.48,153.6Z" transform="translate(0 0)"/><polygon class="cls-26" points="275.1 127.26 275.1 142.88 281.99 142.88 281.99 128.49 280.31 128.19 275.1 127.26"/><rect class="cls-33" x="275.1" y="139.72" width="6.89" height="4.19"/><path class="cls-26" d="M254.59,129.16V143h6.89v-15.2l-6.85,1.31Z" transform="translate(0 0)"/><rect class="cls-33" x="254.59" y="139.72" width="6.89" height="4.19"/><g class="cls-28"><path class="cls-34" d="M282.89,202.41c-1.43-7.46-4.13-11.88-14.57-14,4.06-.74,10.71.74,11.45-4.43,1.41-10.59.31-30.16-.68-41.13l0-.36,1.25-14.33,1.68.3v14h1.28v41.71h5.47v15.48a2.6,2.6,0,0,1-.06.56v.11l0,2.12h-5.81S282.9,202.44,282.89,202.41Z" transform="translate(0 0)"/></g><g id="Head"><path class="cls-17" d="M263.4,130.35a5.22,5.22,0,0,0,5.23,5.23h0a5.22,5.22,0,0,0,5.23-5.23V113.16a5.22,5.22,0,0,0-5.23-5.22h0a5.23,5.23,0,0,0-5.23,5.22Z" transform="translate(0 0)"/><path class="cls-35" d="M269.18,129.14c-1.43-.86-3.84,1.56-5.78,1.21V113.16a5.23,5.23,0,0,1,10.46,0v17.19a5.23,5.23,0,0,1-2.55,4.5C272,131.39,272.48,131.12,269.18,129.14Z" transform="translate(0 0)"/><path class="cls-36" d="M255.45,113.25a10.88,10.88,0,0,0,10.89,10.89h0a10.88,10.88,0,0,0,10.9-10.89V101.81a10.88,10.88,0,0,0-10.9-10.89h0a10.88,10.88,0,0,0-10.89,10.89Z" transform="translate(0 0)"/><path class="cls-37" d="M255.48,101S253.6,85.57,268.6,86.6c8.09,0,8.09,4.84,8.09,4.84s5.41-.19,7,3.38a27.1,27.1,0,0,1,1.73,9.44c0,6.94-4,12.67-9.14,13.62a11.34,11.34,0,0,0,.92-4.5l.06-5.77a15.8,15.8,0,0,0-1.39,2.72c-.91,2.26-1.21,3.17-1.21,2,0,0,3-16.2-1.63-16.38-3.83-.15-2.39,1.47-7.8,1.58-2.94.07-5.2-2.32-6.83-1.9C255.65,96.38,255.48,101,255.48,101Z" transform="translate(0 0)"/><path class="cls-37" d="M275.58,104.2s-.16,10.43-4.61,11.15a42.67,42.67,0,0,1-9.89.25,24,24,0,0,1-5.51-1.47s-3,12.78-.78,14c4.94,2.78,15.09,1.14,19-4.52,1.22-1.75,5.07-8.72,5.07-15.88l4.17-2.79Z" transform="translate(0 0)"/><path class="cls-38" d="M255.32,125.45c8.2,3.56,17.47-1.07,21.4-9.27.35-1.07,3.56-2.14,4.63-3.57,4.64-4.63,2.5-12.48,1.07-18.54A4.91,4.91,0,0,0,280.28,92a5.42,5.42,0,0,1,3.39,2.82,27.1,27.1,0,0,1,1.73,9.44c0,6.7-3.7,12.27-8.61,13.5a31,31,0,0,1-3,5.87c-3.94,5.66-14.09,7.3-19,4.52-.69-.38-.88-1.87-.81-3.74A6.1,6.1,0,0,0,255.32,125.45Z" transform="translate(0 0)"/><path class="cls-39" d="M277,111.89c1.16.49,2.71-.59,3.45-2.4s.42-3.66-.74-4.14-2.71.6-3.45,2.4S275.85,111.41,277,111.89Z" transform="translate(0 0)"/><path class="cls-17" d="M277.64,110.16c.46.24,1.14-.15,1.51-.87s.31-1.5-.15-1.74-1.14.15-1.52.87S277.18,109.92,277.64,110.16Z" transform="translate(0 0)"/><path class="cls-40" d="M266.75,107.94a1.38,1.38,0,1,0,1.34-1.7A1.55,1.55,0,0,0,266.75,107.94Z" transform="translate(0 0)"/><path class="cls-41" d="M268.09,107.25a.64.64,0,0,0,.55.69.63.63,0,0,0,.54-.69.62.62,0,0,0-.54-.69A.63.63,0,0,0,268.09,107.25Z" transform="translate(0 0)"/><path class="cls-17" d="M263.4,115.42h0a1.78,1.78,0,0,0,1.81-1.61c0-1.53-.38-2.3-.4-3.84a1.47,1.47,0,0,0-1.41-1.61h0A1.46,1.46,0,0,0,262,110c0,1.54-.38,2.31-.41,3.84A1.78,1.78,0,0,0,263.4,115.42Z" transform="translate(0 0)"/><path class="cls-42" d="M262,113.38c0,.51.26.92.57.92s.57-.41.57-.92-.25-.92-.57-.92S262,112.87,262,113.38Z" transform="translate(0 0)"/><path class="cls-40" d="M257.41,107.94a1.38,1.38,0,1,0,1.34-1.7A1.55,1.55,0,0,0,257.41,107.94Z" transform="translate(0 0)"/><path class="cls-41" d="M258.75,107.25a.56.56,0,1,0,1.09,0,.56.56,0,1,0-1.09,0Z" transform="translate(0 0)"/><path class="cls-43" d="M268.14,114.33c.19.69,1.27,1,2.41.67s1.91-1.13,1.72-1.82-1.27-1-2.42-.68S267.94,113.64,268.14,114.33Z" transform="translate(0 0)"/><path class="cls-43" d="M260.44,114.33c-.19.69-1.27,1-2.41.67s-1.91-1.13-1.72-1.82,1.27-1,2.42-.68S260.64,113.64,260.44,114.33Z" transform="translate(0 0)"/><path class="cls-44" d="M258.44,116.84a8.4,8.4,0,0,0,0,1.42c.35,1.25,1.92,2.26,3.84,2.37s3.61-.71,4.11-1.91a9.56,9.56,0,0,0,.19-1.41Z" transform="translate(0 0)"/><path class="cls-41" d="M258.81,116.86a.49.49,0,0,0,.05.25c.36.59,1.82,1.09,3.6,1.19s3.29-.23,3.72-.77a.66.66,0,0,0,.08-.24Z" transform="translate(0 0)"/><path class="cls-37" d="M266,105.68a12.69,12.69,0,0,1,3.89,0,1.18,1.18,0,0,0,1.33-.9h0a1.14,1.14,0,0,0-1-1.31,14.5,14.5,0,0,0-4.46,0,1.14,1.14,0,0,0-1.05,1.31h0A1.18,1.18,0,0,0,266,105.68Z" transform="translate(0 0)"/><path class="cls-37" d="M256.86,105.68a12.69,12.69,0,0,1,3.89,0,1.18,1.18,0,0,0,1.33-.9h0a1.14,1.14,0,0,0-1-1.31,14.5,14.5,0,0,0-4.46,0,1.14,1.14,0,0,0-1,1.31h0A1.18,1.18,0,0,0,256.86,105.68Z" transform="translate(0 0)"/></g><g id="Distant_hand" data-name="Distant hand"><rect class="cls-45" x="204.01" y="139.39" width="8.01" height="3.83" transform="translate(51.22 337.9) rotate(-85.61)"/><rect class="cls-46" x="185.98" y="110.36" width="2.04" height="26.56" transform="translate(3.14 251.9) rotate(-68.37)"/><polygon class="cls-47" points="188.31 128.9 199.18 134.16 203.08 124.33 191.56 120.71 188.31 128.9"/><polygon class="cls-48" points="207.52 154.13 214.55 156.91 215.32 143.01 208.3 140.23 207.52 154.13"/><rect class="cls-46" x="184.24" y="122.5" width="10.39" height="4.22" transform="translate(3.72 254.7) rotate(-68.35)"/><rect class="cls-45" x="217.91" y="136.29" width="12.61" height="4.21" transform="translate(12.83 295.69) rotate(-68.34)"/><path class="cls-49" d="M192.66,130.84a3.73,3.73,0,0,0,2.09,4.85l22.92,9.09a3.72,3.72,0,0,0,4.84-2.1l3.41-8.57a3.74,3.74,0,0,0-2.1-4.85l-22.92-9.09a3.74,3.74,0,0,0-4.84,2.1Z" transform="translate(0 0)"/><rect class="cls-45" x="208.64" y="149.6" width="3.36" height="9.69" transform="translate(-10.79 293) rotate(-68.36)"/><rect class="cls-45" x="203.09" y="120.36" width="1.58" height="8.76" transform="translate(12.74 268.25) rotate(-68.36)"/><rect class="cls-45" x="202.09" y="122.89" width="1.58" height="8.76" transform="translate(9.75 268.89) rotate(-68.35)"/><rect class="cls-45" x="201.08" y="125.41" width="1.58" height="8.76" transform="translate(6.94 269.79) rotate(-68.42)"/><rect class="cls-45" x="200.08" y="127.94" width="1.58" height="8.77" transform="translate(3.82 270.26) rotate(-68.37)"/><rect class="cls-45" x="215.69" y="136.96" width="8.01" height="3.83" transform="translate(9.53 291.78) rotate(-68.34)"/></g><rect class="cls-36" x="214.5" y="147.81" width="4.29" height="7.43" transform="translate(-43.9 196.35) rotate(-44.73)"/><path class="cls-36" d="M210.34,144.11a2.52,2.52,0,0,0-2.85,2.1l-.52,3.53a2.48,2.48,0,0,0,2.09,2.83l3.53.53a2.5,2.5,0,0,0,2.84-2.09l.53-3.53a2.51,2.51,0,0,0-2.09-2.84Z" transform="translate(0 0)"/><path class="cls-46" d="M220.21,149.05c5.08,6.64,17.55,12.74,29.58,11.76,9.82-.8,23.31-6.49,31.82-29.05a4.35,4.35,0,1,1,8.13,3.07c-4.19,11.12-10,19.76-17.24,25.69a39.21,39.21,0,0,1-22,9c-16.66,1.35-30.76-6.52-36.82-15.79Z" transform="translate(0 0)"/><path class="cls-50" d="M504.53,49.14s-2.5,3.74,0,7.12h18.24a7.27,7.27,0,0,1,0-7.12Z" transform="translate(0 0)"/><path class="cls-50" d="M522.77,49.14h20.05a.6.6,0,0,1,0,.92H522Z" transform="translate(0 0)"/><path class="cls-50" d="M521.81,55.35h21a.59.59,0,0,1,0,.91H522Z" transform="translate(0 0)"/><path class="cls-8" d="M542.82,50.06a10,10,0,0,0,0,5.29H522.34a6.73,6.73,0,0,1,0-5.29Z" transform="translate(0 0)"/><path class="cls-51" d="M522.34,50.06a6.22,6.22,0,0,0,0,5.29h6.17s-4.7-1.11-4.13-5.29Z" transform="translate(0 0)"/><path class="cls-52" d="M504.53,49.14s-2.55,3.7,0,7.12h8.28s-4.92-1.18-4.83-7.12Z" transform="translate(0 0)"/><path class="cls-53" d="M508.08,39.82s-2.39,4.89,0,9.32H525.4a12.64,12.64,0,0,1,0-9.32Z" transform="translate(0 0)"/><path class="cls-53" d="M525.4,39.82h19.48a1,1,0,0,1,0,1.2H524.62Z" transform="translate(0 0)"/><path class="cls-53" d="M524.49,48h20.39a1,1,0,0,1,0,1.19H524.62Z" transform="translate(0 0)"/><path class="cls-8" d="M544.88,41a17.81,17.81,0,0,0,0,6.93H525A11.87,11.87,0,0,1,525,41Z" transform="translate(0 0)"/><path class="cls-51" d="M525,41A11,11,0,0,0,525,48h5.86s-4.47-1.45-3.92-6.93Z" transform="translate(0 0)"/><path class="cls-54" d="M508.08,39.82s-2.43,4.84,0,9.32h7.85s-4.67-1.55-4.58-9.32Z" transform="translate(0 0)"/><path class="cls-15" d="M502.08,32.7s-2.51,3.74,0,7.12h18.24a7.27,7.27,0,0,1,0-7.12Z" transform="translate(0 0)"/><path class="cls-15" d="M520.32,32.7h20a.6.6,0,0,1,0,.92H519.5Z" transform="translate(0 0)"/><path class="cls-15" d="M519.36,38.91h21a.59.59,0,0,1,0,.91H519.5Z" transform="translate(0 0)"/><path class="cls-8" d="M540.37,33.62a10,10,0,0,0,0,5.29H519.89a6.73,6.73,0,0,1,0-5.29Z" transform="translate(0 0)"/><path class="cls-51" d="M519.89,33.62a6.22,6.22,0,0,0,0,5.29h6.17s-4.7-1.11-4.13-5.29Z" transform="translate(0 0)"/><path class="cls-55" d="M502.08,32.7s-2.55,3.7,0,7.12h8.28s-4.92-1.18-4.83-7.12Z" transform="translate(0 0)"/><polygon class="cls-56" points="545.93 62.91 499.37 67.32 499.37 58.79 545.93 58.79 545.93 62.91"/><rect class="cls-57" x="499.37" y="56.26" width="46.57" height="4.12"/><rect class="cls-58" x="532.04" y="56.26" width="13.9" height="4.12"/><path class="cls-15" d="M460.26,123.8V96a54,54,0,0,0,8.06,0V123.8Z" transform="translate(0 0)"/><path class="cls-55" d="M462.25,96.14c-1.24,0-2-.11-2-.11V123.8h8.06v-1.7c-2.42-.24-3.3-.18-4.32-2C460.89,114.64,461,103.67,462.25,96.14Z" transform="translate(0 0)"/><polygon class="cls-59" points="468.32 96.03 476.43 96.03 476.95 123.8 468.32 123.8 468.32 96.03"/><rect class="cls-53" x="470.77" y="96.03" width="5.53" height="27.77"/><path class="cls-60" d="M472.12,96h-1.35V123.8h5.53v-2.3C468.9,118.62,472.79,104.62,472.12,96Z" transform="translate(0 0)"/><polygon class="cls-54" points="476.3 96.03 485.77 96.03 486.37 123.8 476.3 123.8 476.3 96.03"/><path class="cls-61" d="M479.25,123.8V99.24a61.61,61.61,0,0,0,8.07,0V123.8Z" transform="translate(0 0)"/><path class="cls-62" d="M480.86,99.32c-1,0-1.61-.08-1.61-.08V123.8h8.07v-1.41C480,120.42,480.86,108.55,480.86,99.32Z" transform="translate(0 0)"/><polygon class="cls-50" points="487.32 99.24 495.43 99.24 495.94 123.8 487.32 123.8 487.32 99.24"/><path class="cls-63" d="M489.17,123.8V91.47a47,47,0,0,0,8.06,0V123.8Z" transform="translate(0 0)"/><path class="cls-64" d="M491.16,91.6c-1.24,0-2-.13-2-.13V123.8h8.06v-2c-2.9-.07-3.75,0-4.8-2.48C489.65,112.92,489.94,100,491.16,91.6Z" transform="translate(0 0)"/><rect class="cls-64" x="497.23" y="91.47" width="12.57" height="32.33"/><polygon class="cls-56" points="510.7 131.27 457.96 137.13 457.96 127.15 510.7 127.15 510.7 131.27"/><rect class="cls-57" x="457.97" y="123.8" width="52.73" height="4.12"/><rect class="cls-58" x="494.13" y="123.8" width="16.57" height="4.12"/><rect class="cls-7" x="173.1" y="105.23" width="46.3" height="7.2"/><rect class="cls-7" x="173.12" y="149.07" width="46.3" height="7.2"/><rect class="cls-7" x="173.14" y="192.92" width="46.3" height="7.19"/><rect class="cls-7" x="175.04" y="262.65" width="46.3" height="7.19"/><rect class="cls-7" x="216.86" y="87.27" width="8.45" height="219.21"/><rect class="cls-7" x="66.78" y="87.27" width="8.45" height="219.21"/><rect class="cls-7" x="53.61" y="306.52" width="171.85" height="21.78"/><rect class="cls-9" x="49.77" y="321.06" width="179.54" height="10.89"/><rect class="cls-8" x="12.79" y="321.08" width="167.15" height="10.89"/><rect class="cls-8" x="16.69" y="61.46" width="6.78" height="245.45"/><rect class="cls-65" x="169.27" y="87.29" width="6.77" height="219.21"/><rect class="cls-8" x="18.14" y="105.27" width="155.99" height="7.2"/><rect class="cls-8" x="18.16" y="149.12" width="155.99" height="7.2"/><rect class="cls-8" x="18.18" y="192.96" width="155.99" height="7.19"/><rect class="cls-8" x="16.61" y="262.7" width="159.46" height="7.19"/><rect class="cls-8" x="16.64" y="306.53" width="159.46" height="21.78"/><path class="cls-66" d="M88.11,146.7l-15.76-.16a2.81,2.81,0,0,1,.06-5.62l15.76.17a2.81,2.81,0,1,1-.06,5.61Zm41.72.45L114.07,147a2.81,2.81,0,0,1,.06-5.62l15.76.17a2.81,2.81,0,1,1-.06,5.62ZM152,140.08l-46.74-1.59,0,1.52a1.81,1.81,0,0,1-1.82,1.79l-4.49-.05a1.81,1.81,0,0,1-1.79-1.83V138.4L50.9,136.68l-1.17,0a1.11,1.11,0,0,0-.89,1.14l.44,9.83v.09a1.55,1.55,0,0,0,1.33,1.37h.83l98.47,0a1.35,1.35,0,0,0,1.31-1.07l1.48-7A.77.77,0,0,0,152,140.08Z" transform="translate(0 0)"/><path class="cls-67" d="M104.17,141.85,96,141.76a1.42,1.42,0,0,1-1.4-1.42h0a1.42,1.42,0,0,1,1.43-1.4l8.22.09a1.41,1.41,0,0,1,1.39,1.42h0A1.42,1.42,0,0,1,104.17,141.85Z" transform="translate(0 0)"/><path class="cls-68" d="M87.05,146.69l-15.77-.17a2.81,2.81,0,0,1,.06-5.62l15.76.17a2.81,2.81,0,0,1,0,5.62Zm41.72.44L113,147a2.81,2.81,0,0,1,.06-5.61l15.77.16a2.81,2.81,0,1,1-.06,5.62Zm22.14-7.07-46.74-1.59,0,1.52a1.81,1.81,0,0,1-1.83,1.79l-4.48-.05a1.82,1.82,0,0,1-1.8-1.82l0-1.52-46.22-1.73-1.18,0a1.11,1.11,0,0,0-.88,1.14l.43,9.83v.1a1.54,1.54,0,0,0,1.32,1.37h.83l98.48,0a1.35,1.35,0,0,0,1.31-1.06l1.47-7A.76.76,0,0,0,150.91,140.06Z" transform="translate(0 0)"/><path class="cls-8" d="M53.49,143.52l-3.12,5.54v0h-.82a1.54,1.54,0,0,1-1.32-1.37v-.1l-.43-9.83a1.11,1.11,0,0,1,.88-1.14,1,1,0,0,1,.24,0h.91l0,0Z" transform="translate(0 0)"/><path class="cls-8" d="M87.11,140.27l-15.76-.17a3.62,3.62,0,0,0-3.65,3.57h0a3.62,3.62,0,0,0,3.57,3.65l15.77.17a3.63,3.63,0,0,0,3.65-3.57h0A3.62,3.62,0,0,0,87.11,140.27Zm-.06,6.42-15.77-.17a2.81,2.81,0,0,1,.06-5.62l15.76.17a2.81,2.81,0,0,1,0,5.62Z" transform="translate(0 0)"/><path class="cls-8" d="M128.83,140.71l-15.76-.17a3.63,3.63,0,0,0-3.65,3.57h0a3.62,3.62,0,0,0,3.58,3.64l15.76.17a3.62,3.62,0,0,0,3.65-3.57h0A3.62,3.62,0,0,0,128.83,140.71Zm-.06,6.42L113,147a2.81,2.81,0,0,1,.06-5.61l15.77.16a2.81,2.81,0,1,1-.06,5.62Z" transform="translate(0 0)"/><path class="cls-8" d="M105.21,138.48l0,2.1a2.29,2.29,0,0,1-2.3,2.25l-5.64-.06a2.28,2.28,0,0,1-2.25-2.3l0-2.1h1l0,1.53a1.81,1.81,0,0,0,1.79,1.82l4.49.05a1.81,1.81,0,0,0,1.83-1.79l0-1.52Z" transform="translate(0 0)"/><path class="cls-8" d="M64.06,143.63a3.9,3.9,0,1,0-3.94,3.86A3.89,3.89,0,0,0,64.06,143.63Z" transform="translate(0 0)"/><path class="cls-8" d="M63.26,143.63a3.09,3.09,0,0,1-5.45,2,3,3,0,0,1-.74-2,3.14,3.14,0,0,1,.74-2,3.1,3.1,0,0,1,5.45,2Z" transform="translate(0 0)"/><path class="cls-67" d="M62.48,141.54l0,3.7a1.81,1.81,0,0,1-.07.52,3.07,3.07,0,0,1-4.56-.17,1.75,1.75,0,0,1,0-.4l0-3.61a3.1,3.1,0,0,1,4.67,0Z" transform="translate(0 0)"/><path class="cls-8" d="M143.84,144.48a3.9,3.9,0,1,0-3.94,3.85A3.9,3.9,0,0,0,143.84,144.48Z" transform="translate(0 0)"/><path class="cls-8" d="M143,144.47a3.11,3.11,0,0,1-3.13,3.06,3.09,3.09,0,1,1,2.35-5.14A3.06,3.06,0,0,1,143,144.47Z" transform="translate(0 0)"/><path class="cls-67" d="M142.26,142.39l0,3.69a2.18,2.18,0,0,1-.07.52,3,3,0,0,1-2.24.93,3.1,3.1,0,0,1-2.33-1.09,2.73,2.73,0,0,1,0-.41l0-3.6a3.1,3.1,0,0,1,4.67,0Z" transform="translate(0 0)"/><rect class="cls-36" x="62.02" y="153.8" width="6.28" height="3.63" transform="translate(-103.45 161.22) rotate(-69.18)"/><path class="cls-36" d="M65.9,149.8a.92.92,0,0,1-1.07.74h0a.92.92,0,0,1-.74-1.07l1-5.43a.92.92,0,0,1,1.07-.75h0a.94.94,0,0,1,.75,1.07Z" transform="translate(0 0)"/><path class="cls-36" d="M70,151.12a.93.93,0,0,1-1.18.55h0a.91.91,0,0,1-.55-1.18l1.87-5.19a.92.92,0,0,1,1.18-.56h0a.93.93,0,0,1,.55,1.18Z" transform="translate(0 0)"/><path class="cls-36" d="M73.05,151.36a1,1,0,0,0-1.28-.62l-4.22,1.45a3.24,3.24,0,0,0,0,1.51c.08.29.89.55.89.55l4-1.61A1,1,0,0,0,73.05,151.36Z" transform="translate(0 0)"/><path class="cls-36" d="M68.22,149.67a.92.92,0,0,1-1.13.64h0a.93.93,0,0,1-.64-1.14l1.49-5.32a.92.92,0,0,1,1.13-.64h0a.92.92,0,0,1,.64,1.13Z" transform="translate(0 0)"/><path class="cls-36" d="M65.62,147.79h2.6A1.82,1.82,0,0,1,70,149.61v2.6A1.82,1.82,0,0,1,68.22,154H65.62a1.82,1.82,0,0,1-1.82-1.82v-2.6a1.83,1.83,0,0,1,1.83-1.83Z" transform="translate(-96.45 174.67) rotate(-74.36)"/><path class="cls-31" d="M18.5,158.12A43.09,43.09,0,0,0,22,175.93c4,8.68,11.12,13.44,20.56,13.75h.05c5.75.17,13.94-2.54,20.44-16.4,3-6.46,5.13-16.45,5.13-16.45l-6.8-2.46a134.45,134.45,0,0,1-5.67,15.46c-2.57,5.46-6.87,11.92-12.85,11.74h0c-4.68-.17-8.24-1.78-10.91-4.94-5.42-6.44-5.47-17.44-5.25-19.74a4,4,0,0,0,.12-1,4.06,4.06,0,0,0-4.08-4,4.11,4.11,0,0,0-4,3.55c0,.21-.06.46-.08.75C18.53,156.72,18.51,157.39,18.5,158.12Z" transform="translate(0 0)"/><path class="cls-17" d="M46.4,151.61a5.46,5.46,0,0,1-5.46,5.47h0a5.46,5.46,0,0,1-5.46-5.47v-18a5.46,5.46,0,0,1,5.46-5.46h0a5.46,5.46,0,0,1,5.46,5.46Z" transform="translate(0 0)"/><path class="cls-35" d="M40.8,147.29c1.49-.9,3.58-1,5.6-1.37V133.65a5.46,5.46,0,0,0-10.92,0v18a5.44,5.44,0,0,0,2.67,4.69C37.39,152.69,37.36,149.35,40.8,147.29Z" transform="translate(0 0)"/><path class="cls-36" d="M54.71,133.74a11.37,11.37,0,0,1-11.38,11.38h0a11.38,11.38,0,0,1-11.39-11.38v-12a11.39,11.39,0,0,1,11.39-11.38h0a11.37,11.37,0,0,1,11.37,11c0,.14,0,.29,0,.43Z" transform="translate(0 0)"/><path class="cls-36" d="M37.59,121.93c-5.22,5.21-5.22,17.88,2.23,21.23a14.44,14.44,0,0,0,7.72,1.16,11.4,11.4,0,0,0,7.17-10.58v-12C48.89,120.23,41.87,118,37.59,121.93Z" transform="translate(0 0)"/><path class="cls-37" d="M54.68,120.94s2-16.12-13.7-15c-3.74.45-9.56-.8-15.75,8.59-1.54,2.34-3.94,6.56-3.72,9.59,2,27.19,25.09,23.65,28.42,14.34a16.37,16.37,0,0,1-1.33-5.51,3.46,3.46,0,0,0,.85-2.09l0-8.54a21.92,21.92,0,0,1,1.31-6.34A19.67,19.67,0,0,1,54.68,120.94Z" transform="translate(0 0)"/><path class="cls-39" d="M50.68,134.11c-1.19.57-2.86-.47-3.74-2.3s-.64-3.8.53-4.37,2.87.47,3.75,2.31S51.85,133.55,50.68,134.11Z" transform="translate(0 0)"/><path class="cls-17" d="M50,132c-.45.31-1.21,0-1.68-.71s-.51-1.51-.06-1.82,1.2,0,1.68.71S50.39,131.73,50,132Z" transform="translate(0 0)"/><polygon class="cls-69" points="15.13 115.38 39.1 95.62 63.08 115.38 15.13 115.38"/><path class="cls-70" d="M39.42,113.92c-3.35.75-6-2.23-8.94-1.49-1.86.75-9.94-1.51-2.24-4.09,5.26-3,8.2-7.66,11.38-12.3l-.52-.42-24,19.76H63.08l-4.53-3.73C52.35,112.59,45.88,112.67,39.42,113.92Z" transform="translate(0 0)"/><rect class="cls-69" x="13.72" y="114.92" width="50.78" height="7.29"/><path class="cls-70" d="M46.87,118.39c-10.06.75-20.86,3.73-30.18-.74a3.42,3.42,0,0,1-1.05-2.73H13.72v7.29H64.49v-3.83C58.59,118.11,52.68,118.2,46.87,118.39Z" transform="translate(0 0)"/><polygon class="cls-19" points="32.78 329.73 26.75 329.85 26.64 324.77 32.68 324.64 32.78 329.73"/><polygon class="cls-20" points="33.36 335.33 26.25 335.35 26.24 327.98 33.36 327.98 33.36 335.33"/><path class="cls-21" d="M25.15,337.66A1.31,1.31,0,0,0,26.46,339l7.78,0,14.28,0v-1.75l-23.37,0Z" transform="translate(0 0)"/><path class="cls-22" d="M43.68,333.35H39l-.79,0a1.38,1.38,0,0,0-.26,0,2.26,2.26,0,0,1-1.1-.46,1.53,1.53,0,0,1-.18-.19,1.46,1.46,0,0,1-.25-.88v-.13h0v-.1a2.62,2.62,0,0,0-5.23-.25h0v.17a2.49,2.49,0,0,1-5,0v-.13a1.29,1.29,0,0,0-1.07,1.28v4.73l23.37,0C48.52,334.67,46.35,333.36,43.68,333.35Z" transform="translate(0 0)"/><polygon class="cls-19" points="50.4 329.69 44.36 329.81 44.25 324.74 50.29 324.6 50.4 329.69"/><polygon class="cls-23" points="50.96 335.3 43.86 335.31 43.86 327.94 50.96 327.94 50.96 335.3"/><path class="cls-22" d="M42.76,337.63A1.3,1.3,0,0,0,44.07,339l7.77,0,14.29,0v-1.75l-23.37,0Z" transform="translate(0 0)"/><path class="cls-24" d="M66.12,337.29c0-2.66-2.16-4-4.83-4H56.65l-.8,0-.27,0a2.46,2.46,0,0,1-1.1-.47l-.18-.19a1.57,1.57,0,0,1-.25-.86v-.14h0v-.1a2.62,2.62,0,0,0-5.22-.26h0v.17a2.48,2.48,0,1,1-5,0v-.14a1.32,1.32,0,0,0-1.1,1.29v4.73Z" transform="translate(0 0)"/><g id="Legs-2" data-name="Legs"><path class="cls-71" d="M57.54,225.82v-5.38a18.28,18.28,0,0,0-18.23-18.23H39a18.29,18.29,0,0,0-18.24,18.23l-.1,5.38Z" transform="translate(0 0)"/><polygon class="cls-71" points="29.4 238.17 55.78 238.17 57.54 225.82 29.4 225.82 29.4 238.17"/><polygon class="cls-71" points="37.56 325.49 37.56 225.82 20.65 225.82 23.84 325.49 37.56 325.49"/><polygon class="cls-71" points="40.64 325.49 40.64 225.82 57.54 225.82 54.35 325.49 40.64 325.49"/></g><path class="cls-18" d="M57.55,154.66V223A2.66,2.66,0,0,1,55,225.74H23.23A2.66,2.66,0,0,1,20.65,223V154.66a2.66,2.66,0,0,1,2.58-2.72l.71-.13,3.55-.64,2-.36,4.93-.88,5.54-1,7.33,1.4.86.17,4.71.9,2.2.42,0,0A2.9,2.9,0,0,1,57.55,154.66Z" transform="translate(0 0)"/><rect class="cls-36" x="110.26" y="149.08" width="6.28" height="3.63" transform="translate(-57.08 231.91) rotate(-78.49)"/><path class="cls-36" d="M115.89,145.58a.92.92,0,0,0,.51,1.2h0a.92.92,0,0,0,1.2-.51l2.07-5.11a.94.94,0,0,0-.51-1.21h0a.93.93,0,0,0-1.2.51Z" transform="translate(0 0)"/><path class="cls-36" d="M111.69,144.49a.91.91,0,0,0,.69,1.09h0a.92.92,0,0,0,1.1-.7l1.2-5.39a.92.92,0,0,0-.7-1.1h0a.93.93,0,0,0-1.1.7Z" transform="translate(0 0)"/><path class="cls-36" d="M109,143.08a1,1,0,0,1,1.41.16l2.8,3.48a3.35,3.35,0,0,1-.77,1.31c-.22.2-1,0-1,0l-2.54-3.52A1,1,0,0,1,109,143.08Z" transform="translate(0 0)"/><path class="cls-36" d="M114,144.23a.94.94,0,0,0,.62,1.15h0a.93.93,0,0,0,1.15-.62l1.59-5.3a.91.91,0,0,0-.62-1.14h0a.92.92,0,0,0-1.15.61Z" transform="translate(0 0)"/><path class="cls-36" d="M113.13,142.85h2.6a1.82,1.82,0,0,1,1.82,1.82v2.6a1.82,1.82,0,0,1-1.82,1.82h-2.61a1.82,1.82,0,0,1-1.82-1.82v-2.6a1.83,1.83,0,0,1,1.83-1.83Z" transform="translate(-58.26 213.67) rotate(-73.31)"/><path class="cls-18" d="M110.76,149.4c-2.16,6.73-10.36,15.13-20.23,17.76-8,2.16-20.41,1.45-33.59-14.11a3.68,3.68,0,1,0-5.61,4.76c6.49,7.67,13.57,12.91,21,15.57a33.22,33.22,0,0,0,20.07.89c13.67-3.65,22.67-13.93,24.86-23Z" transform="translate(0 0)"/><path class="cls-71" d="M57.55,207.39V223A2.65,2.65,0,0,1,55,225.74H23.23a2.6,2.6,0,0,1-2.49-2.05.85.85,0,0,1,0-.22v0a.5.5,0,0,1,0-.12,1.67,1.67,0,0,1,0-.32V207.39Z" transform="translate(0 0)"/><polygon class="cls-72" points="53 207.39 47 207.39 45.89 204.73 38.33 186.5 35.33 179.26 23.94 151.81 27.49 151.17 29.52 150.81 38.33 172.03 41.33 179.26 51.9 204.73 53 207.39"/><polygon class="cls-71" points="52.88 151.41 41.33 179.26 38.33 186.5 30.76 204.73 29.66 207.39 23.69 207.39 23.69 207.31 24.76 204.73 35.33 179.26 38.33 172.03 47.32 150.34 48.18 150.51 52.88 151.41"/><rect class="cls-33" x="23.69" y="204.73" width="7.51" height="2.66"/><rect class="cls-33" x="45.31" y="204.73" width="7.69" height="2.66"/><path class="cls-73" d="M37.56,322.77v2.72H23.84l-3.19-99.67.05-2.35v0a.5.5,0,0,1,0-.12,1.67,1.67,0,0,1,0-.32V207.39h4.88A108,108,0,0,1,27,225.74c.09,13.81-1.36,27.76.45,41,2,17,2,35,1,52C28.43,323,33.57,322.89,37.56,322.77Z" transform="translate(0 0)"/><path class="cls-73" d="M41.14,237.73h2A4.46,4.46,0,0,0,41.14,237.73Z" transform="translate(0 0)"/><path class="cls-73" d="M43.43,237.73h-.3l.31.08S43.43,237.76,43.43,237.73Z" transform="translate(0 0)"/><path class="cls-73" d="M43.43,316.73c-3-8,3-17,1-24-3-18,3-36-1-54.92l-.31-.08h-2a3.4,3.4,0,0,0-1,.44h.5v87.32H54.35l.1-3C49.52,322.62,45.15,321.33,43.43,316.73Z" transform="translate(0 0)"/><polygon class="cls-74" points="205.41 303.63 205.41 298.91 217.48 298.91 217.48 303.63 219.38 303.63 219.38 296.94 203.51 296.94 203.51 303.63 205.41 303.63"/><polygon class="cls-40" points="203.96 303.63 203.96 298.91 216.03 298.91 216.03 303.63 217.94 303.63 217.94 296.94 202.07 296.94 202.07 303.63 203.96 303.63"/><path class="cls-54" d="M241.41,311.53v18.93a4.37,4.37,0,0,1-4.37,4.38H200.31c-2.42,0-4.38-4.94-4.38-7.36v-16c0-2.41,2-6.7,4.38-6.7l40.27-.66C243,304.17,241.41,309.12,241.41,311.53Z" transform="translate(0 0)"/><path class="cls-53" d="M228.48,311.53v18.93a4.37,4.37,0,0,1-4.37,4.38H187.38a4.38,4.38,0,0,1-4.38-4.38V311.53c0-2.41,2-6.7,4.38-6.7h36.73C226.53,304.83,228.48,309.12,228.48,311.53Z" transform="translate(0 0)"/><rect class="cls-23" x="198.8" y="319.21" width="12.52" height="7.97"/><path class="cls-68" d="M194.4,327v6a2.93,2.93,0,0,1-.62,1.81h-6.4a4.38,4.38,0,0,1-4.38-4.38v-6.37a3.41,3.41,0,0,1,.55,0h7.87A3,3,0,0,1,194.4,327Z" transform="translate(0 0)"/><path class="cls-68" d="M217.09,327v6a3,3,0,0,0,.61,1.81h6.41a4.37,4.37,0,0,0,4.37-4.38v-6.37a3.21,3.21,0,0,0-.55,0h-7.86A3,3,0,0,0,217.09,327Z" transform="translate(0 0)"/><path class="cls-53" d="M243,304.49V312a1.34,1.34,0,0,1-1.34,1.34h-.27v-5a1.19,1.19,0,0,0-1.19-1.19h-7.9a1.18,1.18,0,0,0-1.18,1.19v3.5a1.53,1.53,0,0,1-1.53,1.52H196.27a1.34,1.34,0,0,1-1.34-1.34v-7.51a1.34,1.34,0,0,1,1.34-1.34h45.41A1.34,1.34,0,0,1,243,304.49Z" transform="translate(0 0)"/><rect class="cls-68" x="182" y="303.15" width="47.49" height="10.19" rx="1.34"/><rect class="cls-74" x="188.15" y="309.96" width="10.53" height="6.77" rx="2.98" transform="translate(506.76 119.92) rotate(90)"/><rect class="cls-40" x="187.49" y="309.96" width="10.53" height="6.77" rx="2.98" transform="translate(506.09 120.58) rotate(90)"/><rect class="cls-74" x="213.47" y="309.96" width="10.53" height="6.77" rx="2.98" transform="translate(532.07 94.61) rotate(90)"/><rect class="cls-40" x="212.81" y="309.96" width="10.53" height="6.77" rx="2.98" transform="translate(531.41 95.27) rotate(90)"/><rect class="cls-75" x="230.3" y="314.51" width="9.54" height="16.48" rx="2.98"/><rect class="cls-40" x="199.94" y="320.02" width="3.99" height="6.35"/><polygon class="cls-27" points="422.72 188.8 368.13 188.8 368.13 179.8 419.3 179.8 422.72 188.8"/><polygon class="cls-76" points="456.29 322.15 413.05 150.12 407.32 156.31 448.76 322.15 456.29 322.15"/><polygon class="cls-76" points="405.16 322.15 362.26 148.78 356.19 156.31 397.62 322.15 405.16 322.15"/><rect class="cls-77" x="349.47" y="179.8" width="54.59" height="9"/><rect class="cls-77" x="340.83" y="209.3" width="54.59" height="9"/><rect class="cls-77" x="332.2" y="241.17" width="54.59" height="9"/><polygon class="cls-77" points="376.77 281.99 322.18 281.99 326.76 272.99 376.77 272.99 376.77 281.99"/><rect class="cls-76" x="386.61" y="260.29" width="51.55" height="5.78"/><rect class="cls-76" x="390.69" y="279.1" width="51.55" height="5.78"/><polygon class="cls-78" points="360.85 135.05 310.93 322.15 318.47 322.15 368.38 135.05 360.85 135.05"/><path class="cls-78" d="M411.93,135.05c-.1.47-.21.94-.34,1.41L362.07,322.15h7.53l49-183.74a28.78,28.78,0,0,0,.72-3.36Z" transform="translate(0 0)"/><path class="cls-78" d="M368.18,135.77l2.95-10.6a21.08,21.08,0,0,1,20.23-15.36,21,21,0,0,1,20.4,26h7.41a28.24,28.24,0,0,0-27.81-33.21,28.34,28.34,0,0,0-27.21,20.66l-3.5,12.55Z" transform="translate(0 0)"/><path class="cls-27" d="M318.57,323.43h-6.82a2.84,2.84,0,0,1-2.83-2.84h0a2.84,2.84,0,0,1,2.83-2.83h6.82a2.84,2.84,0,0,1,2.83,2.83h0A2.84,2.84,0,0,1,318.57,323.43Z" transform="translate(0 0)"/><path class="cls-27" d="M369.78,323.43H363a2.85,2.85,0,0,1-2.83-2.84h0a2.85,2.85,0,0,1,2.83-2.83h6.83a2.84,2.84,0,0,1,2.83,2.83h0A2.84,2.84,0,0,1,369.78,323.43Z" transform="translate(0 0)"/><path class="cls-27" d="M405,323.43h-6.83a2.85,2.85,0,0,1-2.83-2.84h0a2.85,2.85,0,0,1,2.83-2.83H405a2.85,2.85,0,0,1,2.83,2.83h0A2.85,2.85,0,0,1,405,323.43Z" transform="translate(0 0)"/><path class="cls-27" d="M456.21,323.43h-6.82a2.84,2.84,0,0,1-2.83-2.84h0a2.84,2.84,0,0,1,2.83-2.83h6.82a2.85,2.85,0,0,1,2.84,2.83h0A2.85,2.85,0,0,1,456.21,323.43Z" transform="translate(0 0)"/><path class="cls-36" d="M330,79.46a2,2,0,0,0,.05,2.75l2,1.92a1.94,1.94,0,0,0,2.75-.06l1.91-2a1.93,1.93,0,0,0-.05-2.75l-2-1.91a2,2,0,0,0-2.76,0Z" transform="translate(0 0)"/><rect class="cls-36" x="326.46" y="83.12" width="6.23" height="3.6" transform="translate(38.1 260.62) rotate(-45.53)"/><rect class="cls-47" x="327.83" y="55.25" width="3.49" height="35.89" transform="translate(28.83 226.59) rotate(-39.55)"/><rect class="cls-47" x="320.84" y="51.92" width="3.56" height="4.36" transform="translate(39.4 217.8) rotate(-39.55)"/><rect class="cls-79" x="332.3" y="70.85" width="5.75" height="18.28" transform="translate(25.67 231.47) rotate(-39.5)"/><rect class="cls-45" x="312.11" y="55" width="10.53" height="6.84" transform="translate(35.39 215.34) rotate(-39.52)"/><path class="cls-45" d="M327.75,53.94a1.3,1.3,0,0,1-.18,1.82L326,57.1a1.29,1.29,0,0,1-1.82-.18l-4-4.84a1.3,1.3,0,0,1,.17-1.83l1.62-1.34a1.31,1.31,0,0,1,1.83.18Z" transform="translate(0 0)"/><path class="cls-47" d="M311.14,59.13A7.4,7.4,0,0,0,309,67.81c.1.22.23.52.41.6s.63-.1.65-.66c0,0,.19-3.94,2.49-5.83l.33-.27a.49.49,0,0,0,.16-.21Z" transform="translate(0 0)"/><path class="cls-36" d="M329.64,75.39a1.08,1.08,0,0,1,1.28.82l1,4.67a3.65,3.65,0,0,1-1.38.87c-.3.07-1-.52-1-.52l-.69-4.58A1.05,1.05,0,0,1,329.64,75.39Z" transform="translate(0 0)"/><path class="cls-36" d="M337.72,80.27a1.16,1.16,0,0,1,0-1.64l.21-.2a1.17,1.17,0,0,1,1.65,0h0a1.18,1.18,0,0,1,0,1.65l-.21.19a1.15,1.15,0,0,1-1.64,0Z" transform="translate(0 0)"/><path class="cls-36" d="M336.11,78.58a1.16,1.16,0,0,1,0-1.64l.2-.2a1.16,1.16,0,0,1,1.65.05h0a1.15,1.15,0,0,1,0,1.64l-.21.2a1.16,1.16,0,0,1-1.64,0Z" transform="translate(0 0)"/><path class="cls-36" d="M334.5,76.9a1.18,1.18,0,0,1,0-1.65l.21-.2a1.16,1.16,0,0,1,1.64,0h0a1.15,1.15,0,0,1,0,1.64l-.2.2a1.18,1.18,0,0,1-1.65,0Z" transform="translate(0 0)"/><path class="cls-80" d="M315.47,134.41a11.77,11.77,0,0,0,6.17-1.73c5.27-3.21,9-9.05,11.22-13.38,2-3.85,7.85-16.22,9.05-22.38a4.48,4.48,0,0,0-8.8-1.72c-.79,4.06-5.37,14.42-8.23,20-2.39,4.66-5.19,8.14-7.9,9.79a3,3,0,0,1-2.49.28,4,4,0,0,1-2.45-2c-1.19-2.43-.69-5.36,1.73-10.1C315,110.78,332.92,87,332.92,87l-6.61-5.29s-18.17,22.62-20.53,27.37c-2.49,5-5,11.51-1.79,18.11a13,13,0,0,0,8,6.71A12.49,12.49,0,0,0,315.47,134.41Z" transform="translate(0 0)"/><polygon class="cls-36" points="401.7 67.14 397.98 69.19 394.44 62.76 398.15 60.72 401.7 67.14"/><path class="cls-36" d="M396.25,58.35a1.09,1.09,0,0,0,1.37.68h0a1.09,1.09,0,0,0,.68-1.36l-2-6.12a1.1,1.1,0,0,0-1.37-.69h0a1.09,1.09,0,0,0-.68,1.36Z" transform="translate(0 0)"/><path class="cls-36" d="M391.69,60.56a1.07,1.07,0,0,0,1.45.44h0a1.08,1.08,0,0,0,.44-1.46l-3-5.7a1.08,1.08,0,0,0-1.46-.44h0a1.07,1.07,0,0,0-.44,1.45Z" transform="translate(0 0)"/><path class="cls-36" d="M388.24,61.33a1.18,1.18,0,0,1,1.37-.93l5.12,1a3.75,3.75,0,0,1,.32,1.74c-.05.35-.94.79-.94.79l-4.93-1.2A1.19,1.19,0,0,1,388.24,61.33Z" transform="translate(0 0)"/><path class="cls-36" d="M393.55,58.58a1.07,1.07,0,0,0,1.42.55h0a1.09,1.09,0,0,0,.55-1.42l-2.6-5.91a1.09,1.09,0,0,0-1.42-.56h0a1.1,1.1,0,0,0-.56,1.43Z" transform="translate(0 0)"/><path class="cls-36" d="M392.53,62.66a2.13,2.13,0,0,0,2.81,1.09l2.78-1.22a2.13,2.13,0,0,0,1.1-2.8L398,56.94a2.11,2.11,0,0,0-2.8-1.09l-2.79,1.22a2.15,2.15,0,0,0-1.1,2.81Z" transform="translate(0 0)"/><path class="cls-80" d="M365.2,100.65c2.19,2.26,8.14,7.82,15.85,10.65,9.44,3.48,18.27,1.72,25.54-5.07l0,0c4.41-4.14,8.49-12.26,3-27.41-2.56-7.06-8.43-16.05-8.43-16.05L394.3,66a140.73,140.73,0,0,1,7.29,15.73c2.16,6,3.77,14-.82,18.29v0c-3.6,3.36-7.46,4.81-11.79,4.44-8.83-.74-17.06-8.89-18.6-10.77a4.59,4.59,0,0,0-.65-.82,4.27,4.27,0,0,0-6,0,4.32,4.32,0,0,0-.36,5.64c.13.18.3.39.5.62C364.19,99.58,364.67,100.1,365.2,100.65Z" transform="translate(0 0)"/><g id="Head-2" data-name="Head"><path class="cls-17" d="M359.19,92.1a5.34,5.34,0,0,1-5.33,5.34h0a5.33,5.33,0,0,1-5.34-5.34V74.56a5.33,5.33,0,0,1,5.34-5.33h0a5.33,5.33,0,0,1,5.33,5.33Z" transform="translate(0 0)"/><path class="cls-35" d="M353.72,87.88c1.46-.87,3.49-1,5.47-1.33v-12a5.34,5.34,0,0,0-10.67,0V92.1a5.33,5.33,0,0,0,2.61,4.59C350.39,93.16,350.36,89.9,353.72,87.88Z" transform="translate(0 0)"/><path class="cls-36" d="M367.3,74.65a11.11,11.11,0,0,1-11.11,11.12h0a11.12,11.12,0,0,1-11.12-11.12V63a11.12,11.12,0,0,1,11.12-11.12h0A11.11,11.11,0,0,1,367.3,63Z" transform="translate(0 0)"/><path class="cls-81" d="M361.55,56.22a5.88,5.88,0,0,0-2.3-.39s-11.46-.09-12.57,0-3.76-.27-4.6,2.39a37.51,37.51,0,0,0-1.6,10.07c-.84,17.18,13.76,17.45,14.22,17.48,1.5.08.46-13.56,4-13.69l1.39-.08a.39.39,0,0,1,.08.1,1.17,1.17,0,0,1,.05-.11l.6-.07a1.57,1.57,0,0,0,.68,0,2.14,2.14,0,0,0,1.75-2V58.24A2.21,2.21,0,0,0,361.55,56.22Z" transform="translate(0 0)"/><path class="cls-45" d="M355.55,83c-.19,1.67-.41,2.84-.85,2.82s-15.06-.3-14.22-17.48l0-.62c0-.51.07-1,.11-1.5s.09-1.1.15-1.63.13-1.09.21-1.62a29.77,29.77,0,0,1,1.1-4.7c.69-2.19,2.64-2.34,3.9-2.37a12.76,12.76,0,0,0-3,7.06c-.06.52-.1,1-.11,1.57s0,1.12.05,1.69.09,1,.17,1.49a21.34,21.34,0,0,0,3.88,9.39A14.9,14.9,0,0,0,355.55,83Z" transform="translate(0 0)"/><path class="cls-39" d="M359.94,73.93c-1.05.73-2.83,0-3.95-1.66s-1.19-3.57-.14-4.29,2.83,0,4,1.66S361,73.21,359.94,73.93Z" transform="translate(0 0)"/><path class="cls-17" d="M358.75,72.19c-.44.3-1.18,0-1.64-.69s-.5-1.48-.06-1.78,1.17,0,1.64.69S359.18,71.89,358.75,72.19Z" transform="translate(0 0)"/></g><g id="Legs-3" data-name="Legs"><path class="cls-21" d="M368.06,166v-4.67a15.86,15.86,0,0,0-15.8-15.81H352a15.86,15.86,0,0,0-15.81,15.81l-.08,4.67Z" transform="translate(0 0)"/><polygon class="cls-24" points="343.67 176.66 366.54 176.66 368.06 165.96 343.67 165.96 343.67 176.66"/><polygon class="cls-19" points="348.3 266.52 342.4 266.66 342.28 261.7 348.18 261.55 348.3 266.52"/><polygon class="cls-20" points="348.87 271.99 341.93 272.02 341.91 264.82 348.86 264.81 348.87 271.99"/><path class="cls-21" d="M340.86,274.29a1.28,1.28,0,0,0,1.29,1.29h21.54v-1.72l-22.83,0Z" transform="translate(0 0)"/><path class="cls-22" d="M359,270h-4.54l-.77,0a.87.87,0,0,0-.26,0,2.23,2.23,0,0,1-1.07-.45,1.53,1.53,0,0,1-.18-.19,1.38,1.38,0,0,1-.25-.86v-.22a2.56,2.56,0,0,0-5.1-.23h0v.16a2.43,2.43,0,1,1-4.85,0v-.13a1.26,1.26,0,0,0-1.05,1.26v4.62l22.83,0C363.68,271.3,361.56,270,359,270Z" transform="translate(0 0)"/><polygon class="cls-19" points="363.04 266.52 357.14 266.66 357.01 261.7 362.92 261.55 363.04 266.52"/><polygon class="cls-23" points="363.6 271.99 356.66 272.02 356.64 264.82 363.58 264.81 363.6 271.99"/><path class="cls-22" d="M355.6,274.29a1.27,1.27,0,0,0,1.28,1.29h21.54v-1.72l-22.82,0Z" transform="translate(0 0)"/><path class="cls-24" d="M378.41,273.9c0-2.6-2.12-3.87-4.73-3.87h-4.53l-.78,0a.84.84,0,0,0-.27,0,2.38,2.38,0,0,1-1.07-.45l-.18-.19a1.56,1.56,0,0,1-.25-.84v-.14h0v-.1a2.56,2.56,0,0,0-5.1-.23h0v.16a2.42,2.42,0,1,1-4.84,0v-.13a1.27,1.27,0,0,0-1.06,1.26v4.62Z" transform="translate(0 0)"/><polygon class="cls-22" points="350.74 262.39 350.74 165.96 336.09 165.96 338.85 262.39 350.74 262.39"/><g class="cls-82"><path class="cls-22" d="M341.46,251.29c-2.19-12-.37-23.64-1.82-35.64-2.11-16.53-3.88-34.08,1.6-49.69h-5.15l2.76,96.43h11.89v-3.68C346.45,258,342.44,256.22,341.46,251.29Z" transform="translate(0 0)"/></g><polygon class="cls-24" points="368.07 165.96 366.72 212.84 366.1 234.6 365.3 262.39 353.41 262.39 353.41 165.96 368.07 165.96"/><path class="cls-22" d="M356.36,253.47c-2.18-11.64.73-23.27-1.09-34.55-1.81-13.81,4.41-26.57.05-40.38a3,3,0,0,0-1.91-1.91v85.76H365.3l0-1C360.85,261,357.29,258.72,356.36,253.47Z" transform="translate(0 0)"/></g><g id="Body"><path class="cls-80" d="M370.11,94.49v66.75a2.64,2.64,0,0,1-.15.89,2.58,2.58,0,0,1-.37.72h0a2.49,2.49,0,0,1-1.53,1,1.83,1.83,0,0,1-.47.05h-31a1.84,1.84,0,0,1-.41,0,2.4,2.4,0,0,1-.74-.25,2.68,2.68,0,0,1-1.36-2.37V94.49a3.07,3.07,0,0,1,.05-.53,2.73,2.73,0,0,1,.89-1.55,2.38,2.38,0,0,1,1.57-.59l1.29-.23,9.92-1.77.75-.14,4.34-.77.08,0,6.26,1.2,1,.19,6.24,1.2,1.28.24a4.29,4.29,0,0,1,1.31.62A2.47,2.47,0,0,1,370.06,94,3,3,0,0,1,370.11,94.49Z" transform="translate(0 0)"/></g><g id="Body-2" data-name="Body"><path class="cls-83" d="M361.57,100.91a15,15,0,0,1,.34-10.3l-1.73-.33-1-.19L353,88.89l-.08,0-4.34.77-.75.14-7.65,1.37q.24.57.42,1.14c2.21,7.33,0,14.63-6.49,18.63v38.77h36V111.1A18.46,18.46,0,0,1,361.57,100.91Z" transform="translate(0 0)"/></g><path class="cls-84" d="M364.46,111.82l-.12,0,.08,0Z" transform="translate(0 0)"/><path class="cls-83" d="M374.12,62h-9.44a1,1,0,0,0-1.05,1v1a1,1,0,0,0,1.05,1h9.44a1,1,0,0,0,1-1V63A1,1,0,0,0,374.12,62Z" transform="translate(0 0)"/><path class="cls-85" d="M367.29,62.81v4.75l-24.24.1h-2.54c0-.51.07-1,.11-1.5s.09-1.1.15-1.63.13-1.09.21-1.62h2Z" transform="translate(0 0)"/><polygon class="cls-86" points="352.72 45.97 355.51 51.42 360.24 51.42 359.1 45.97 352.72 45.97"/><path class="cls-87" d="M367.88,64.42v1.75H353.33a3.08,3.08,0,0,0-1.34-1.1,7.36,7.36,0,0,0-5.63,0,3.08,3.08,0,0,0-1.34,1.1h-4.4c0-.55.09-1.1.15-1.63l2.06-.06,2.19-.06a.86.86,0,0,1,.1-.16c.66-.88,2.23-1.34,4.05-1.34s3.4.46,4.06,1.34c0,0,.07.1.1.16Z" transform="translate(0 0)"/><path class="cls-88" d="M370.56,62.83a15.61,15.61,0,0,1-.15,2.17H353.33c-.58-1-2.22-1.66-4.16-1.66S345.6,64,345,65h-5.51a15.61,15.61,0,0,1-.15-2.17c0-.3,0-.59,0-.88a15.6,15.6,0,0,1,31.15,0C370.55,62.24,370.56,62.53,370.56,62.83Z" transform="translate(0 0)"/><path class="cls-86" d="M360.35,60.63a.61.61,0,0,1-.62.61h0a.61.61,0,0,1-.62-.61V58.44a.61.61,0,0,1,.62-.61h0a.61.61,0,0,1,.62.61Z" transform="translate(0 0)"/><path class="cls-86" d="M362.52,60.63a.61.61,0,0,1-.62.61h0a.61.61,0,0,1-.62-.61V58.44a.61.61,0,0,1,.62-.61h0a.61.61,0,0,1,.62.61Z" transform="translate(0 0)"/><path class="cls-86" d="M365,60.63a.61.61,0,0,1-.62.61h0a.61.61,0,0,1-.62-.61V58.44a.61.61,0,0,1,.62-.61h0a.61.61,0,0,1,.62.61Z" transform="translate(0 0)"/><path class="cls-86" d="M348.89,55.57a1.71,1.71,0,0,1-1.72,1.71h-2a1.72,1.72,0,0,1-1.73-1.71h0a1.72,1.72,0,0,1,1.73-1.7h2a1.71,1.71,0,0,1,1.72,1.7Z" transform="translate(0 0)"/><path class="cls-80" d="M370.56,62.83a15.61,15.61,0,0,1-.15,2.17H353.33c-.58-1-2.22-1.66-4.16-1.66S345.6,64,345,65h-5.51a15.61,15.61,0,0,1-.15-2.17c0-.3,0-.59,0-.88h31.15C370.55,62.24,370.56,62.53,370.56,62.83Z" transform="translate(0 0)"/><path class="cls-89" d="M370.13,59.19c-9.56,1.34-28.58,3.19-28.4-.56s2.9-6.59,5.38-9.35A15.66,15.66,0,0,0,339.39,62c0,.29,0,.58,0,.88a15.61,15.61,0,0,0,.15,2.17H345c.58-1,2.22-1.66,4.15-1.66s3.58.69,4.16,1.66h17.08a15.61,15.61,0,0,0,.15-2.17c0-.3,0-.59,0-.88A14.82,14.82,0,0,0,370.13,59.19Z" transform="translate(0 0)"/><path class="cls-90" d="M560,223.31H511.89a11.2,11.2,0,0,0-11.2,11.2v60.88a11.2,11.2,0,0,0,11.2,11.19H560Z" transform="translate(0 0)"/><path class="cls-91" d="M560,223.31H394.56c-8.39,0-15.19,5-15.19,11.2v74.1c0,6.18,6.8,11.19,15.19,11.19l105.2-13.22H560Z" transform="translate(0 0)"/><path class="cls-92" d="M560,223.31H394.56c-8.39,0-15.19,5-15.19,11.2v74.1c0,4.29,3.31,8,8.13,9.86a8.89,8.89,0,0,1-.21-1.55V242.81c0-6.18,6.8-11.19,15.2-11.19H560Z" transform="translate(0 0)"/><rect class="cls-90" x="350.89" y="278.14" width="28.48" height="81.14"/><rect class="cls-93" x="335.91" y="306.58" width="224.09" height="52.69"/><rect class="cls-92" x="335.91" y="339.57" width="224.09" height="4.66"/><rect class="cls-94" x="334.11" y="306.58" width="25.88" height="52.69"/><rect class="cls-94" x="335.22" y="306.58" width="224.78" height="7.63"/><rect class="cls-95" x="332.78" y="278.14" width="18.14" height="81.14"/><rect class="cls-95" x="322.89" y="278.14" width="28.04" height="15.91"/><path class="cls-90" d="M407.88,268.05a6.7,6.7,0,1,0-6.69,6.7A6.7,6.7,0,0,0,407.88,268.05Z" transform="translate(0 0)"/><path class="cls-90" d="M441.23,268.05a6.7,6.7,0,1,0-6.7,6.7A6.7,6.7,0,0,0,441.23,268.05Z" transform="translate(0 0)"/><path class="cls-90" d="M474.57,268.05a6.7,6.7,0,1,0-6.7,6.7A6.69,6.69,0,0,0,474.57,268.05Z" transform="translate(0 0)"/><path class="cls-90" d="M507.91,268.05a6.7,6.7,0,1,0-6.69,6.7A6.7,6.7,0,0,0,507.91,268.05Z" transform="translate(0 0)"/><path class="cls-90" d="M541.25,268.05a6.69,6.69,0,1,0-6.69,6.7A6.69,6.69,0,0,0,541.25,268.05Z" transform="translate(0 0)"/><path class="cls-90" d="M424.56,248a6.7,6.7,0,1,0-6.7,6.7A6.7,6.7,0,0,0,424.56,248Z" transform="translate(0 0)"/><path class="cls-90" d="M457.9,248a6.7,6.7,0,1,0-6.7,6.7A6.7,6.7,0,0,0,457.9,248Z" transform="translate(0 0)"/><path class="cls-90" d="M491.24,248a6.7,6.7,0,1,0-6.69,6.7A6.7,6.7,0,0,0,491.24,248Z" transform="translate(0 0)"/><path class="cls-90" d="M524.58,248a6.7,6.7,0,1,0-6.7,6.7A6.7,6.7,0,0,0,524.58,248Z" transform="translate(0 0)"/><path class="cls-90" d="M557.92,248a6.7,6.7,0,1,0-6.69,6.7A6.69,6.69,0,0,0,557.92,248Z" transform="translate(0 0)"/><path class="cls-90" d="M424.56,288.12a6.7,6.7,0,1,0-6.7,6.69A6.7,6.7,0,0,0,424.56,288.12Z" transform="translate(0 0)"/><path class="cls-90" d="M457.9,288.12a6.7,6.7,0,1,0-6.7,6.69A6.7,6.7,0,0,0,457.9,288.12Z" transform="translate(0 0)"/><path class="cls-90" d="M491.24,288.12a6.7,6.7,0,1,0-6.69,6.69A6.7,6.7,0,0,0,491.24,288.12Z" transform="translate(0 0)"/><path class="cls-90" d="M524.58,288.12a6.7,6.7,0,1,0-6.7,6.69A6.7,6.7,0,0,0,524.58,288.12Z" transform="translate(0 0)"/><path class="cls-90" d="M557.92,288.12a6.7,6.7,0,1,0-6.69,6.69A6.69,6.69,0,0,0,557.92,288.12Z" transform="translate(0 0)"/><path class="cls-59" d="M376.55,275.11c-.3-8.08,2.27-16.06,6.12-23.18s8.93-13.47,14-19.74a452.79,452.79,0,0,1-16.64,51Z" transform="translate(0 0)"/><path class="cls-15" d="M367.43,280.94a159.94,159.94,0,0,1,6.84-59.29q-.24,29.79-.49,59.58Z" transform="translate(0 0)"/><path class="cls-14" d="M372.36,279.07a126.42,126.42,0,0,1,10.41-53.47q-.6,27.69-2.41,55.33c0,.65-.18,1.43-.78,1.66Z" transform="translate(0 0)"/><path class="cls-59" d="M360.73,280.39c-4.81-6.5-7.2-14.54-8-22.59s-.24-16.16.44-24.22a456.53,456.53,0,0,1,15.08,51.5Z" transform="translate(0 0)"/><path class="cls-15" d="M378.62,291.32c5-18.28,10.06-36.83,19.84-53-1,18.44-6.79,39.93-15,55.57Z" transform="translate(0 0)"/><path class="cls-15" d="M375.31,298.52c1.15-21.16,2.49-43,12.26-61.85,4,20-5.45,40.13-6.77,60.49Z" transform="translate(0 0)"/><path class="cls-15" d="M363.41,300.36c-.07-11.16-3.06-22.07-4.57-33.13s-1.37-23,4.28-32.57a447.45,447.45,0,0,1,6.07,70.1Z" transform="translate(0 0)"/><path class="cls-14" d="M364.59,287.86a62.57,62.57,0,0,1,.06-31.58,104.77,104.77,0,0,1,6.76,30.05Z" transform="translate(0 0)"/><path class="cls-14" d="M377.74,285.34Q383,274,388.4,262.64c.69-1.46,1.64-3.1,3.23-3.31.31,4.59-1.12,9.11-2.54,13.49q-2.88,9-5.78,17.9Z" transform="translate(0 0)"/><path class="cls-61" d="M358,278.37c.74,11.57,3.25,21.61,6.78,28.21h19.83c3.54-6.6,6-16.64,6.79-28.21Z" transform="translate(0 0)"/><path class="cls-50" d="M369.22,299.07c-6.06-5.05-8.67-12.68-7.85-20.7H358c.74,11.57,3.25,21.6,6.78,28.21h19.83a40.33,40.33,0,0,0,2-4.36C380.3,303.91,374,303.83,369.22,299.07Z" transform="translate(0 0)"/><g id="Paramedic"><g id="Legs-4" data-name="Legs"><path class="cls-31" d="M446.82,273.17v-4.83A16.42,16.42,0,0,1,463.2,252h.28a16.42,16.42,0,0,1,16.38,16.37l.08,4.83Z" transform="translate(0 0)"/><polygon class="cls-78" points="472.09 284.26 448.4 284.26 446.82 273.17 472.09 273.17 472.09 284.26"/><polygon class="cls-19" points="452.95 377.33 459.05 377.48 459.18 372.34 453.07 372.19 452.95 377.33"/><polygon class="cls-20" points="452.35 383 459.54 383.04 459.57 375.58 452.37 375.56 452.35 383"/><path class="cls-18" d="M451.89,376.51a2.63,2.63,0,0,1,2.65,2.64v2.42a2.65,2.65,0,0,1-2.66,2.66h0a2.65,2.65,0,0,1-2.64-2.66v-2.44a2.62,2.62,0,0,1,2.65-2.62Z" transform="translate(0 0)"/><path class="cls-96" d="M460.65,385.38a1.33,1.33,0,0,1-1.33,1.35H437V385l23.64,0Z" transform="translate(0 0)"/><path class="cls-18" d="M437,385l23.64,0v-2.07h0v-2.71a1.32,1.32,0,0,0-1.08-1.31v.14a2.52,2.52,0,0,1-5,0v-.17l-5.3.35v.12a1.5,1.5,0,0,1-.26.89l-.18.19a2.34,2.34,0,0,1-1.12.47,1.38,1.38,0,0,0-.26,0l-.8,0h-4.7C439.21,381,437,382.29,437,385Z" transform="translate(0 0)"/><polygon class="cls-19" points="467.64 377.33 473.76 377.48 473.89 372.34 467.77 372.19 467.64 377.33"/><polygon class="cls-23" points="467.07 383 474.25 383.04 474.27 375.58 467.08 375.56 467.07 383"/><path class="cls-78" d="M466.6,376.51a2.63,2.63,0,0,1,2.65,2.64v2.42a2.64,2.64,0,0,1-2.64,2.66h0a2.66,2.66,0,0,1-2.66-2.66v-2.44a2.63,2.63,0,0,1,2.65-2.62Z" transform="translate(0 0)"/><path class="cls-97" d="M475.36,385.38a1.34,1.34,0,0,1-1.34,1.35H451.71V385l23.65,0Z" transform="translate(0 0)"/><path class="cls-78" d="M451.72,385l23.64,0v-2.07h0v-2.71a1.32,1.32,0,0,0-1.1-1.31v.14a2.51,2.51,0,1,1-5,0v-.17l-5.31.35v.12a1.56,1.56,0,0,1-.25.89l-.19.19a2.39,2.39,0,0,1-1.11.47,1.45,1.45,0,0,0-.28,0l-.8,0h-4.7C453.92,381,451.72,382.29,451.72,385Z" transform="translate(0 0)"/><polygon class="cls-78" points="464.76 373.06 464.76 273.17 479.94 273.17 477.08 373.06 464.76 373.06"/><path class="cls-18" d="M465.16,369.81c3.39,1.5,7.16-1.89,7.91-4.9,2.64-13.19,1.51-26,.75-39.2-.37-1.88,2.26-4.9,2.64-7.16,1.47-15.36.09-30.38.36-45.38h3.12l-2.86,99.89H464.76v-3.44Z" transform="translate(0 0)"/><path class="cls-78" d="M476.46,318.55c-.38,2.26-3,5.28-2.64,7.16.76,13.19,1.89,26-.75,39.2-.75,3-4.52,6.4-7.91,4.9l-.4-.19V273.17h12.06C476.55,288.17,477.93,303.19,476.46,318.55Z" transform="translate(0 0)"/><polygon class="cls-18" points="462 373.06 462 273.17 446.82 273.17 449.69 373.06 462 373.06"/><path class="cls-31" d="M457.62,365.66a68.24,68.24,0,0,0,0-40.7c6-12.81,0-26.38,3-40.32a1.85,1.85,0,0,1,1.37-.38v88.8H449.69l-.12-4.11C453.36,369.3,456.61,368.88,457.62,365.66Z" transform="translate(0 0)"/></g><g id="Distant_hand-2" data-name="Distant hand"><path class="cls-17" d="M433.11,281.44c3.25,1.41.46-.19,3.74,1.17,6.6-14.47,17.29-58.06,14.41-82.15a4.46,4.46,0,0,0-5.11-3.92,4.51,4.51,0,0,0-2.64,1.58,4.77,4.77,0,0,0-1.05,3,5.47,5.47,0,0,0,.05.69q.56,4.81.83,9.57a150.44,150.44,0,0,1,0,16.45C442.38,245,440.1,265,433.11,281.44Z" transform="translate(0 0)"/><path class="cls-98" d="M443.34,211.37a150.44,150.44,0,0,1,0,16.45c-.13,2.21-.3,4.4-.53,6.59h8.9a157.67,157.67,0,0,0-.45-33.95,4.46,4.46,0,0,0-5.11-3.92,4.51,4.51,0,0,0-2.64,1.58,4.77,4.77,0,0,0-1.05,3,5.47,5.47,0,0,0,.05.69Q443.07,206.61,443.34,211.37Z" transform="translate(0 0)"/><rect class="cls-98" x="441.15" y="231.23" width="11.99" height="4.88" rx="1.29" transform="translate(894.29 467.33) rotate(180)"/><path class="cls-17" d="M434.88,285.55a1,1,0,0,1,1.25-.68h0a1,1,0,0,1,.68,1.25l-1.73,5.78a1,1,0,0,1-1.26.68h0a1,1,0,0,1-.67-1.25Z" transform="translate(0 0)"/><path class="cls-17" d="M430.54,283.61a1,1,0,0,1,1.35-.46h0a1,1,0,0,1,.46,1.35l-2.66,5.41a1,1,0,0,1-1.35.46h0a1,1,0,0,1-.46-1.35Z" transform="translate(0 0)"/><path class="cls-17" d="M427.31,283a1.09,1.09,0,0,0,1.3.83l4.76-1.06a3.39,3.39,0,0,0,.24-1.64c-.05-.32-.89-.7-.89-.7l-4.58,1.26A1.09,1.09,0,0,0,427.31,283Z" transform="translate(0 0)"/><path class="cls-17" d="M432.34,285.4a1,1,0,0,1,1.31-.55h0a1,1,0,0,1,.55,1.31l-2.25,5.6a1,1,0,0,1-1.31.55h0a1,1,0,0,1-.56-1.31Z" transform="translate(0 0)"/><path class="cls-17" d="M431.27,281.62a2,2,0,0,1,2.6-1.11l2.63,1.07a2,2,0,0,1,1.11,2.59l-1.07,2.64a2,2,0,0,1-2.59,1.1l-2.64-1.07a2,2,0,0,1-1.1-2.59Z" transform="translate(0 0)"/></g><g id="Body-3" data-name="Body"><path class="cls-23" d="M444.71,268.29a2.68,2.68,0,0,0,2.6,2.75h32.12a2.67,2.67,0,0,0,2.6-2.75V199.14a2.68,2.68,0,0,0-2.6-2.76l-17-3-15.28,2.93a3,3,0,0,0-2.48,2.86Z" transform="translate(0 0)"/><path class="cls-15" d="M444.71,199.14v69.15a2.68,2.68,0,0,0,2.6,2.75h32.12a2.67,2.67,0,0,0,2.6-2.75V199.14a2.68,2.68,0,0,0-2.6-2.76L471,194.87l-2-.36s-4,12.42-7.87,13.54a1.87,1.87,0,0,1-.66.08c-1.75-.13-3.17-3.25-4.17-6.43,0-.11-.07-.22-.1-.33s-.11-.36-.16-.54c0,0,0,0,0-.05-.45-1.53-.79-3-1-4.11,0-.2-.09-.4-.13-.61-.15-.74-.23-1.2-.23-1.2h0l-2.22.43-5.17,1A3,3,0,0,0,444.71,199.14Z" transform="translate(0 0)"/><path class="cls-98" d="M452.37,195.29c1,5.06,3,13.05,6.12,14.92a3.12,3.12,0,0,0,2.77.26c4.94-1.88,8.6-12.11,9.72-15.6l-2-.36s-4,12.42-7.87,13.54a3.26,3.26,0,0,1-.62.31.85.85,0,0,1-.81-.09c-1.26-.75-2.43-3.38-3.4-6.57,0-.11-.07-.22-.1-.33s-.11-.36-.16-.54c0,0,0,0,0-.05-.38-1.33-.72-2.73-1-4.11,0-.2-.09-.4-.13-.61q-.13-.6-.24-1.2Z" transform="translate(0 0)"/><path class="cls-98" d="M474.8,257.6c1.8-6.13-6.14-9.38-11.55-9.74-.72,0-1.44-1.44-1.08-1.44,7.58-1.45,13-5.42,14.79-12.63,3.09-12.36,4.85-24.45,4.16-36.74a2.82,2.82,0,0,1,.91,2.09v69.15a2.67,2.67,0,0,1-2.6,2.75H447.31a2.68,2.68,0,0,1-2.6-2.75v-3C456,268.66,470.5,270.17,474.8,257.6Z" transform="translate(0 0)"/><path class="cls-98" d="M474.43,203a4.67,4.67,0,0,0,.26,1.55,152.44,152.44,0,0,1,4.87,20.12,110.32,110.32,0,0,0,1.85-25.34,4.24,4.24,0,0,0-4.12-.62A4.58,4.58,0,0,0,474.43,203Z" transform="translate(0 0)"/></g><g id="Head-3" data-name="Head"><path class="cls-17" d="M456.31,196.46a5.26,5.26,0,0,0,5.26,5.26h0a5.25,5.25,0,0,0,5.25-5.26V179.18a5.24,5.24,0,0,0-5.25-5.25h0a5.26,5.26,0,0,0-5.26,5.25Z" transform="translate(0 0)"/><path class="cls-35" d="M461.71,192.3c-1.44-.86-3.45-1-5.4-1.31V179.18a5.26,5.26,0,0,1,10.51,0v17.28a5.23,5.23,0,0,1-2.57,4.51C465,197.5,465,194.29,461.71,192.3Z" transform="translate(0 0)"/><path class="cls-36" d="M448.32,167.72v11.55c0,.27,0,.56,0,.83v.06c0,.21,0,.41.08.61a6.85,6.85,0,0,0,.13.81,3.89,3.89,0,0,0,.11.43,10.79,10.79,0,0,0,.36,1.14l.15.37a7.34,7.34,0,0,0,.47,1,8.77,8.77,0,0,0,.54.89c.09.13.19.28.29.41.22.29.44.56.68.84l.36.38.38.36a2,2,0,0,0,.16.14c.12.11.25.21.37.3a6,6,0,0,0,.65.48l.51.34a10.36,10.36,0,0,0,.93.5l.67.29,0,0h0c.15.06.3.12.47.17l.48.16.13,0,.36.1a9.35,9.35,0,0,0,.92.18h.09a5,5,0,0,0,.52.07c.35,0,.7.05,1.06.05a11,11,0,0,0,10.3-7.19c0-.11.08-.22.11-.33a2.91,2.91,0,0,0,.12-.39,10.79,10.79,0,0,0,.42-2.54c0-.16,0-.34,0-.5v-11.5a10.35,10.35,0,0,0-.25-2.31,8.78,8.78,0,0,0-.36-1.31c-.05-.15-.12-.31-.17-.46s0-.09-.06-.15a10.22,10.22,0,0,0-.46-.94,9.08,9.08,0,0,0-.77-1.23,11,11,0,0,0-8.89-4.55,11,11,0,0,0-7.69,3.17,2.18,2.18,0,0,0-.21.22,10.49,10.49,0,0,0-1.73,2.39,1.15,1.15,0,0,0-.14.27c-.12.22-.22.45-.32.67a9.83,9.83,0,0,0-.57,1.79c-.05.21-.1.43-.13.64,0,0,0,0,0,0a4.68,4.68,0,0,0-.07.54l0,.26c0,.09,0,.15,0,.15s0,.27,0,.4S448.32,167.6,448.32,167.72Z" transform="translate(0 0)"/><path class="cls-36" d="M448.32,167.72v11.55c0,.27,0,.56,0,.83v.06c0,.21,0,.41.08.61a6.85,6.85,0,0,0,.13.81,3.89,3.89,0,0,0,.11.43,10.79,10.79,0,0,0,.36,1.14l.15.37a10.84,10.84,0,0,0,1,1.87c.09.13.19.28.29.41.22.29.44.56.68.84l.36.38.38.36a2,2,0,0,0,.16.14c.12.11.25.21.37.3a6,6,0,0,0,.65.48l.51.34a10.36,10.36,0,0,0,.93.5l.67.29,0,0h0c.36,0,.72.06,1.08.07a13.6,13.6,0,0,0,6.33-1.18,8.76,8.76,0,0,0,4.18-4.08,14.23,14.23,0,0,0,1.49-7v0a16.07,16.07,0,0,0-1.46-6.37,11.81,11.81,0,0,0-1.26-2.06,10.28,10.28,0,0,0-.8-.93,7.57,7.57,0,0,0-.78-.62,8.11,8.11,0,0,0-3.25-1.31,15.68,15.68,0,0,0-4.74,0,51.11,51.11,0,0,0-6,1.31C449.42,167.42,448.86,167.58,448.32,167.72Z" transform="translate(0 0)"/><path class="cls-99" d="M468.31,177.26v0a14.23,14.23,0,0,1-1.49,7,8.76,8.76,0,0,1-4.18,4.08,13.6,13.6,0,0,1-6.33,1.18c-.36,0-.72,0-1.08-.07.15.06.3.12.47.17l.48.16.13,0,.36.1a9.35,9.35,0,0,0,.92.18h.09a5,5,0,0,0,.52.07c.35,0,.7.05,1.06.05a11,11,0,0,0,10.3-7.19c0-.11.08-.22.11-.33a2.91,2.91,0,0,0,.12-.39,10.79,10.79,0,0,0,.42-2.54c0-.16,0-.34,0-.5v-11.5a10.35,10.35,0,0,0-.25-2.31,8.78,8.78,0,0,0-.36-1.31c-.05-.15-.12-.31-.17-.46s0-.09-.06-.15a10.22,10.22,0,0,0-.46-.94,9.08,9.08,0,0,0-.77-1.23,11,11,0,0,0-8.89-4.55,11,11,0,0,0-7.69,3.17,2.18,2.18,0,0,0-.21.22,10.49,10.49,0,0,0-1.73,2.39,1.15,1.15,0,0,0-.14.27c-.12.22-.22.45-.32.67a9.83,9.83,0,0,0-.57,1.79c-.05.21-.1.43-.13.64,0,0,0,0,0,0a4.68,4.68,0,0,0-.07.54l0,.26c0,.09,0,.15,0,.15s0,.27,0,.4,0,.24,0,.36c.54-.14,1.1-.3,1.67-.44a51.11,51.11,0,0,1,6-1.31,15.68,15.68,0,0,1,4.74,0,8.11,8.11,0,0,1,3.25,1.31,7.57,7.57,0,0,1,.78.62,10.28,10.28,0,0,1,.8.93,11.81,11.81,0,0,1,1.26,2.06A16.07,16.07,0,0,1,468.31,177.26Z" transform="translate(0 0)"/><path class="cls-81" d="M448.28,166v0c0,.6.07,1,.07,1s0-.06,0-.15a4.66,4.66,0,0,1,0-.56l0-.24v0c0-.19.06-.41.11-.64a7.18,7.18,0,0,1,.55-1.79,4.73,4.73,0,0,1,.4-.67,2,2,0,0,1,.22-.27,2.53,2.53,0,0,1,1.3-.83c.58-.15,1.11.25,1.7.83.3.29.59.62.91.94a5.32,5.32,0,0,0,2.86,1.79,3.92,3.92,0,0,0,.59,0c.29,0,.58,0,.83,0,2.35-.18,3.18-1,3.77-1.79a6.67,6.67,0,0,1,.77-.94,2.41,2.41,0,0,1,2.19-.48,1.39,1.39,0,0,1,.89.48,3.28,3.28,0,0,1,.58.94,5.54,5.54,0,0,1,.35,1.07,8.94,8.94,0,0,1,.23,1.21,19.7,19.7,0,0,1,.18,2.42v2.65l0,5.57c0,.91.73,1.76,1.49.82v0a2.53,2.53,0,0,0,.37-.58,0,0,0,0,0,0,0,2.22,2.22,0,0,0,.14-.31,9.92,9.92,0,0,1,1.38-2.14l0,2v1.26l0,1.92c0,.12,0,.24,0,.36a10.75,10.75,0,0,1-.36,2.55,2.91,2.91,0,0,1-.12.39c0,.11-.07.22-.11.33a7.34,7.34,0,0,1-.33.89c3.79-.68,9.23-7.59,9.88-15.09,0-.51.06-1,.06-1.55s0-.87-.06-1.31c0-.16,0-.32-.06-.5a16.74,16.74,0,0,0-.36-1.93c-.09-.31-.17-.63-.29-.94a13.12,13.12,0,0,0-.91-2.13,3.54,3.54,0,0,0-.42-.64c-1.65-2.1-4.76-2.07-4.76-2.07l-.15-.36a7.78,7.78,0,0,0-2.39-2.86c-1.65-1.23-4.26-2.37-8.41-2.46-8-.56-11.21,3.73-12.41,7.84a17.43,17.43,0,0,0-.54,2.68c-.05.32-.08.64-.1.94A20.41,20.41,0,0,0,448.28,166Z" transform="translate(0 0)"/><path class="cls-39" d="M469.62,179.62c1.14.55,2.75-.45,3.6-2.21s.61-3.66-.52-4.2-2.75.45-3.6,2.22S468.49,179.08,469.62,179.62Z" transform="translate(0 0)"/><path class="cls-17" d="M470.32,177.63c.43.3,1.16,0,1.62-.68s.49-1.45.06-1.75-1.16,0-1.62.68S469.89,177.34,470.32,177.63Z" transform="translate(0 0)"/><path class="cls-40" d="M459.68,173.93a1.38,1.38,0,1,0,1.34-1.7A1.55,1.55,0,0,0,459.68,173.93Z" transform="translate(0 0)"/><path class="cls-41" d="M461,173.24a.64.64,0,0,0,.55.69.71.71,0,0,0,0-1.39A.64.64,0,0,0,461,173.24Z" transform="translate(0 0)"/><path class="cls-40" d="M453,183.07a8.13,8.13,0,0,0,.1,1.3c.39,1.12,1.87,2,3.64,2s3.25-.84,3.65-2a9.48,9.48,0,0,0,.1-1.3Z" transform="translate(0 0)"/><path class="cls-41" d="M453.37,183.07a.54.54,0,0,0,.06.23c.36.51,1.72.9,3.35.9s3-.39,3.36-.9a.8.8,0,0,0,.05-.23Z" transform="translate(0 0)"/><path class="cls-81" d="M452.24,181.15l3.09-1.36h2l3.52,1.51.05,2.08c-2.56.12-5.95.15-8.62.08Z" transform="translate(0 0)"/><path class="cls-17" d="M456.31,181h0a1.8,1.8,0,0,0,1.82-1.62c0-1.54-.38-2.31-.41-3.85a1.46,1.46,0,0,0-1.41-1.62h0a1.46,1.46,0,0,0-1.41,1.62c0,1.54-.38,2.31-.41,3.85A1.8,1.8,0,0,0,456.31,181Z" transform="translate(0 0)"/><path class="cls-42" d="M454.93,179.32c0,.51.26.92.58.92s.57-.41.57-.92-.26-.93-.57-.93S454.93,178.8,454.93,179.32Z" transform="translate(0 0)"/><path class="cls-81" d="M459.22,171.41h4.7a.73.73,0,0,0,.72-.72h0a.73.73,0,0,0-.72-.72h-4.7a.72.72,0,0,0-.72.72h0A.72.72,0,0,0,459.22,171.41Z" transform="translate(0 0)"/><path class="cls-81" d="M449.28,171.41H454a.72.72,0,0,0,.71-.72h0A.72.72,0,0,0,454,170h-4.71a.72.72,0,0,0-.71.72h0A.72.72,0,0,0,449.28,171.41Z" transform="translate(0 0)"/><path class="cls-40" d="M450.29,173.93a1.38,1.38,0,1,0,1.35-1.7A1.55,1.55,0,0,0,450.29,173.93Z" transform="translate(0 0)"/><path class="cls-41" d="M451.63,173.24a.64.64,0,0,0,.55.69.71.71,0,0,0,0-1.39A.64.64,0,0,0,451.63,173.24Z" transform="translate(0 0)"/><path class="cls-43" d="M461.07,180.35c.19.7,1.28,1,2.43.68s1.92-1.14,1.72-1.83-1.28-1-2.42-.68S460.88,179.66,461.07,180.35Z" transform="translate(0 0)"/><path class="cls-43" d="M453.34,180.35c-.19.7-1.28,1-2.43.68s-1.92-1.14-1.73-1.83,1.28-1,2.43-.68S453.53,179.66,453.34,180.35Z" transform="translate(0 0)"/></g><g id="Front_Hand" data-name="Front Hand"><path class="cls-36" d="M481.48,282.12c3.45.77.92.91,4.4,1.63,6-27.73,7-57-1.54-84.1a4.43,4.43,0,0,0-5.74-2.89h0a4.62,4.62,0,0,0-2.6,5.84C484,228.14,487.18,256,481.48,282.12Z" transform="translate(0 0)"/><path class="cls-36" d="M484.12,286.3a1,1,0,0,1,1.11-.9h0a1,1,0,0,1,.89,1.11l-.62,6a1,1,0,0,1-1.11.89h0a1,1,0,0,1-.89-1.1Z" transform="translate(0 0)"/><path class="cls-36" d="M479.5,285.2a1,1,0,0,1,1.24-.7h0a1,1,0,0,1,.7,1.24l-1.61,5.82a1,1,0,0,1-1.23.7h0a1,1,0,0,1-.71-1.24Z" transform="translate(0 0)"/><path class="cls-36" d="M476.2,285.19a1.1,1.1,0,0,0,1.44.57l4.48-1.92a3.55,3.55,0,0,0-.07-1.66c-.11-.31-1-.53-1-.53l-4.27,2.1A1.1,1.1,0,0,0,476.2,285.19Z" transform="translate(0 0)"/><path class="cls-36" d="M481.6,286.63a1,1,0,0,1,1.18-.79h0a1,1,0,0,1,.79,1.19L482.4,293a1,1,0,0,1-1.19.79h0a1,1,0,0,1-.79-1.18Z" transform="translate(0 0)"/><path class="cls-36" d="M479.84,283.11a2,2,0,0,1,2.35-1.56l2.78.55a2,2,0,0,1,1.57,2.34l-.55,2.79a2,2,0,0,1-2.34,1.57l-2.79-.56a2,2,0,0,1-1.57-2.34Z" transform="translate(0 0)"/><path class="cls-15" d="M476,202.6a150,150,0,0,1,6,28.24q.19,1.78.36,3.57h8.88c-.12-1.49-.26-3-.43-4.47a158.93,158.93,0,0,0-6.47-30.29,4.45,4.45,0,0,0-5.75-2.89A4.63,4.63,0,0,0,476,202.6Z" transform="translate(0 0)"/><path class="cls-98" d="M482,230.84q.19,1.78.36,3.57h8.88c-.12-1.49-.26-3-.43-4.47l-8.75.89Z" transform="translate(0 0)"/><rect class="cls-15" x="480.62" y="231.23" width="11.99" height="4.88" rx="1.29" transform="translate(973.23 467.33) rotate(180)"/><path class="cls-18" d="M489.77,233.84a1.06,1.06,0,1,1,1.06,1.06A1.05,1.05,0,0,1,489.77,233.84Z" transform="translate(0 0)"/></g></g><path class="cls-36" d="M489.72,295.33c.11,46,3.32,82.95,7.26,82.95s7.14-36.92,7.25-82.95Z" transform="translate(0 0)"/><polygon class="cls-54" points="498.94 384.71 500.3 384.71 500.89 378.32 498.62 378.32 498.94 384.71"/><path class="cls-54" d="M483.93,384.4c-.73-.4-.62-.08-.64-1.18,0-1.66,7.94-7,8.87-7.72,6.59-5.12,7.16-3.26,7.21-3.19a4.9,4.9,0,0,1,2,5.74c-1,3-4.76.45-6.38,3.12C492.55,385.15,486,385,483.93,384.4Z" transform="translate(0 0)"/><path class="cls-36" d="M494.54,372.89s-7.17,5.69-7,7.2c.13,1.24,10.09-3.3,11.15-4.08a2.86,2.86,0,0,0,.95-3.53c-.33-.88-2.43-3.14-4.27-2.07A2,2,0,0,0,494.54,372.89Z" transform="translate(0 0)"/><path class="cls-36" d="M506.76,295.33c.11,46,3.31,82.95,7.25,82.95s7.14-36.92,7.25-82.95Z" transform="translate(0 0)"/><polygon class="cls-53" points="516.67 384.71 518.04 384.71 518.63 378.32 516.36 378.32 516.67 384.71"/><path class="cls-53" d="M501.35,384.4c-.73-.4-.62-.08-.64-1.18,0-1.66,7.94-7,8.87-7.72,6.59-5.12,7.16-3.26,7.21-3.19a4.92,4.92,0,0,1,2,5.74c-1,3-4.77.45-6.39,3.12C510,385.15,503.4,385,501.35,384.4Z" transform="translate(0 0)"/><path class="cls-36" d="M512,372.89s-7.17,5.69-7,7.2c.14,1.24,10.09-3.3,11.15-4.08a2.86,2.86,0,0,0,.95-3.53c-.33-.88-2.8-2.21-4.63-1.14C510.9,372.23,512,372.89,512,372.89Z" transform="translate(0 0)"/><rect class="cls-17" x="482.52" y="198.91" width="6.18" height="3.57" transform="translate(148.75 603.96) rotate(-72.58)"/><path class="cls-36" d="M486,194.94a.9.9,0,0,1-1,.79h0a.9.9,0,0,1-.79-1l.65-5.4a.91.91,0,0,1,1-.79h0a.9.9,0,0,1,.79,1Z" transform="translate(0 0)"/><path class="cls-36" d="M490.14,196a.91.91,0,0,1-1.12.62h0a.91.91,0,0,1-.61-1.13l1.53-5.21a.92.92,0,0,1,1.13-.62h0a.91.91,0,0,1,.61,1.13Z" transform="translate(0 0)"/><path class="cls-17" d="M493.12,196.06a1,1,0,0,0-1.29-.54l-4.07,1.67a3.24,3.24,0,0,0,0,1.49c.1.28.91.49.91.49l3.87-1.82A1,1,0,0,0,493.12,196.06Z" transform="translate(0 0)"/><path class="cls-36" d="M488.28,194.68a.91.91,0,0,1-1.08.69h0a.92.92,0,0,1-.7-1.08l1.16-5.32a.9.9,0,0,1,1.08-.69h0a.9.9,0,0,1,.69,1.08Z" transform="translate(0 0)"/><path class="cls-36" d="M485.79,192.9h2.56a1.8,1.8,0,0,1,1.8,1.8v2.56a1.8,1.8,0,0,1-1.8,1.8h-2.56a1.79,1.79,0,0,1-1.79-1.79v-2.56a1.8,1.8,0,0,1,1.8-1.8Z" transform="translate(192.26 630.4) rotate(-77.76)"/><path class="cls-14" d="M487.65,241.51a9.46,9.46,0,0,0,4.25-2.89c3.2-3.79,4.56-9.19,5.14-13.05.52-3.43,1.84-14.35,1.19-19.34a3.6,3.6,0,1,0-7.14.93c.43,3.29-.42,12.35-1.17,17.35-.63,4.16-1.88,7.52-3.52,9.47a2.45,2.45,0,0,1-1.82.84,3.21,3.21,0,0,1-2.39-.93c-1.52-1.55-1.89-3.9-1.26-8.13.32-2.12,7.93-24.79,7.93-24.79l-6.39-2.34s-8.07,21.85-8.66,26.07c-.62,4.43-.88,10.05,3.26,14.24a10.37,10.37,0,0,0,7.78,3.08A9.91,9.91,0,0,0,487.65,241.51Z" transform="translate(0 0)"/><path class="cls-100" d="M530.11,160.56a11,11,0,0,1-6.76,10.15l-.09,0a9.46,9.46,0,0,1-1.61.52.5.5,0,0,0-.13,0,10.69,10.69,0,0,1-2.42.27,11,11,0,0,1-11-11,10.87,10.87,0,0,1,1.8-6l.1-.17c.2-.3.43-.6.66-.89l.4-.42a11,11,0,0,1,19.06,7.49Z" transform="translate(0 0)"/><path class="cls-76" d="M511.51,152.62c-.16.15-.31.29-.46.45l-.4.42c-.23.29-.46.59-.66.89l-.1.17a10.87,10.87,0,0,0-1.8,6,11,11,0,0,0,11,11,10.69,10.69,0,0,0,2.42-.27.5.5,0,0,1,.13,0,9.46,9.46,0,0,0,1.61-.52l.09,0,.51-.24C523.3,163,518.18,156.34,511.51,152.62Z" transform="translate(0 0)"/><path class="cls-100" d="M488.11,170.26a18.65,18.65,0,0,0,.15,2.26c.09.62.21,1.25.36,1.86a16.75,16.75,0,0,0,22.14,11.5h0a16.7,16.7,0,0,0,10.76-14.58c0-.34,0-.69,0-1a16.73,16.73,0,0,0-16.72-16.7,16.48,16.48,0,0,0-4.19.53,12.32,12.32,0,0,0-1.46.45,16.37,16.37,0,0,0-3.86,2A16.68,16.68,0,0,0,488.11,170.26Z" transform="translate(0 0)"/><g id="Legs-5" data-name="Legs"><path class="cls-101" d="M490.49,269.78v-4.57A15.56,15.56,0,0,1,506,249.69h.27a15.57,15.57,0,0,1,15.52,15.52l.08,4.57Z" transform="translate(0 0)"/><polygon class="cls-102" points="514.43 280.29 491.99 280.29 490.49 269.78 514.43 269.78 514.43 280.29"/></g><path class="cls-76" d="M485.92,212.19c0-6.12,4.56-11.06,10.19-11.06s10.19,4.94,10.19,11.06-4.56,11.05-10.19,11.05S485.92,218.29,485.92,212.19Z" transform="translate(0 0)"/><path class="cls-53" d="M523.9,309.13c-1.16,3.89-36.61,3.42-37.07-.64-2.44-21.46.59-33.17,3.08-52.23.09-.76.19-1.48.29-2.21.27-2.05.51-4,.76-5.82.11-.76.2-1.51.29-2.22.54-4.06.94-7.42,1.14-9.9.4-5.1-2.89-20.7-2.89-20.7a9.52,9.52,0,0,1-.11-1.06V198.1a2.21,2.21,0,0,1,.69-1.69,2.38,2.38,0,0,1,.7-.49,4.69,4.69,0,0,1,.75-.3l13.21-2.52,5.56,1,9.1,1.64a2.32,2.32,0,0,1,2.25,2.38l-.08.39c-.05.26-.12.65-.22,1.16-.52,2.83-1.69,9.18-2.74,15.56v0c-1.06,6.57-2,13.15-2,16a6.66,6.66,0,0,0,0,.68,47.4,47.4,0,0,0,1.89,8.71c.36,1.21.76,2.46,1.17,3.74,2.58,7.91,5.92,16.34,6.66,20C528.1,273.12,526.49,300.47,523.9,309.13Z" transform="translate(0 0)"/><path class="cls-103" d="M501.63,292.79c1.55-3.11,7.77,4.66,9.32,3.11,15.53-18.64,0-48.15-4.66-69.9-3.11,1.55-4.66-1.55-7.77-1.55,17.92,1.49,15.75-15.68,22.46-28a2.46,2.46,0,0,1,.67,1.7l-.08.39c-.05.26-.12.65-.22,1.16-.52,2.83-1.69,9.18-2.74,15.56v0c-1.06,6.57-2,13.15-2,16a6.66,6.66,0,0,0,0,.68,47.4,47.4,0,0,0,1.89,8.71c.36,1.21.76,2.46,1.17,3.74,2.58,7.91,5.92,16.34,6.66,20,1.74,8.74.13,36.09-2.46,44.75-1.16,3.89-36.61,3.42-37.07-.64-.33-2.95-.56-5.7-.7-8.32C491.77,300.8,497.21,299.1,501.63,292.79Z" transform="translate(0 0)"/><path class="cls-17" d="M498.5,197.68a5.38,5.38,0,0,0,5.39,5.38h0a5.38,5.38,0,0,0,5.38-5.38V180a5.38,5.38,0,0,0-5.38-5.38h0A5.38,5.38,0,0,0,498.5,180Z" transform="translate(0 0)"/><path class="cls-35" d="M504,193.42c-1.48-.88-3.53-1-5.53-1.34V180a5.39,5.39,0,0,1,10.77,0v17.69a5.38,5.38,0,0,1-2.63,4.62C507.38,198.74,507.42,195.46,504,193.42Z" transform="translate(0 0)"/><path class="cls-36" d="M512.75,168.31v11.77a11.1,11.1,0,0,1-3.29,7.92,9.83,9.83,0,0,1-1.34,1.14,11.17,11.17,0,0,1-12,.73,11.19,11.19,0,0,1-5.76-9.79V168.31c0-.14,0-.29,0-.43a11.21,11.21,0,0,1,22.42.43Z" transform="translate(0 0)"/><path class="cls-100" d="M503,172.6a10.44,10.44,0,0,1,2.48,1l0,.25a19.86,19.86,0,0,0-2.79-.18s-.71,0-.71-.42S502.11,172.51,503,172.6Z" transform="translate(0 0)"/><path class="cls-100" d="M494.58,172.5a9.78,9.78,0,0,0-2.37,1.25l.06.24a20.81,20.81,0,0,1,2.76-.44s.72,0,.66-.49S495.42,172.33,494.58,172.5Z" transform="translate(0 0)"/><path class="cls-43" d="M503.48,182.48c.18.66,1.21.94,2.29.64s1.82-1.08,1.64-1.73-1.21-.95-2.3-.65S503.29,181.82,503.48,182.48Z" transform="translate(0 0)"/><path class="cls-43" d="M496.16,182.48c-.18.66-1.21.94-2.29.64s-1.82-1.08-1.64-1.73,1.22-.95,2.3-.65S496.35,181.82,496.16,182.48Z" transform="translate(0 0)"/><path class="cls-17" d="M499,183.11h0a1.7,1.7,0,0,0,1.72-1.53c0-1.46-.36-2.19-.39-3.65A1.38,1.38,0,0,0,499,176.4h0a1.39,1.39,0,0,0-1.34,1.53c0,1.46-.36,2.19-.39,3.65A1.71,1.71,0,0,0,499,183.11Z" transform="translate(0 0)"/><path class="cls-40" d="M495.59,184.56a17.41,17.41,0,0,0,.11,1.93,3.64,3.64,0,0,0,7.14,0c.06-.28.1-1.62.1-1.93Z" transform="translate(0 0)"/><path class="cls-41" d="M495.59,184.56c0,.06,0,.18,0,.32a4.61,4.61,0,0,0,7.33,0c0-.15,0-.26,0-.33Z" transform="translate(0 0)"/><path class="cls-40" d="M501.83,177.94a.32.32,0,0,0,.32-.33,1.76,1.76,0,1,1,3.52,0,.33.33,0,0,0,.66,0,2.42,2.42,0,0,0-4.83,0A.33.33,0,0,0,501.83,177.94Z" transform="translate(0 0)"/><path class="cls-40" d="M492.53,177.94a.33.33,0,0,0,.33-.33,1.76,1.76,0,1,1,3.51,0,.33.33,0,0,0,.66,0,2.42,2.42,0,0,0-4.83,0A.33.33,0,0,0,492.53,177.94Z" transform="translate(0 0)"/><path class="cls-100" d="M511.93,161.22c-3.77-5-8.93-7.42-11.53-5.45s-1.64,7.6,2.13,12.57,8.93,7.42,11.52,5.45S515.7,166.2,511.93,161.22Z" transform="translate(0 0)"/><path class="cls-100" d="M488.11,170.26a18.65,18.65,0,0,0,.15,2.26c2.6-.3,5.86-2.13,8.65-5.09,4.28-4.54,5.83-10,3.46-12.27l-.08-.08a13.51,13.51,0,0,0-12.18,15.18Z" transform="translate(0 0)"/><path class="cls-36" d="M512.13,180.44c1.17.56,2.82-.46,3.68-2.27s.63-3.74-.53-4.3-2.81.46-3.68,2.28S511,179.88,512.13,180.44Z" transform="translate(0 0)"/><path class="cls-17" d="M512.85,178.4c.44.31,1.18,0,1.65-.69s.5-1.49.06-1.8-1.18,0-1.65.7S512.41,178.1,512.85,178.4Z" transform="translate(0 0)"/><path class="cls-104" d="M475.54,221.83a3.3,3.3,0,0,1,1.16-.5,22.51,22.51,0,0,0-.17,2.88c0,.2,0,.42,0,.63a11.34,11.34,0,0,0-1.15,1.44,11.54,11.54,0,0,0,2.36,2.82,2.4,2.4,0,0,0-.49,1.15c0,.95,1.09,2.13,2.85,3.09a14,14,0,0,0,1.61.74,22.62,22.62,0,0,0,8,1.37,20.88,20.88,0,0,0,9.6-2.11c1.75-1,2.85-2.14,2.85-3.09a3.47,3.47,0,0,1,3.42-3.47h.05a3.47,3.47,0,0,1,3.47,3.47,8.93,8.93,0,0,1-2,5.51c-.23.29-.47.57-.73.85a15.16,15.16,0,0,1-3.76,2.82,29.57,29.57,0,0,1-25.83,0,14.14,14.14,0,0,1-4.5-3.67,9,9,0,0,1-2-5.51C470.32,227,472.18,224,475.54,221.83Z" transform="translate(0 0)"/><path class="cls-105" d="M512.52,208.2c2.86-1.15,5.74-2.3,8.63-3.41-3.87-10.33-12.06-21.13-12.06-21.13-7.89-.88-7.69,3.86-8.6,10.17-.43,2.95,3.21,10.06,7.64,16.19C509.59,209.4,511.05,208.8,512.52,208.2Z" transform="translate(0 0)"/><rect class="cls-106" x="490.11" y="203.49" width="36.25" height="6.42" rx="2.85"/><path class="cls-104" d="M512.58,206.59a30.79,30.79,0,0,1-1.4,6.42,34.4,34.4,0,0,1-3.22,7c-9.79,16.31-21,15.25-26.31,12-5.77-3.52-13.66-11-5.46-25.58,5.39-9.61,24.57-19.62,31.22-15.56C511.08,193.1,513.37,199.2,512.58,206.59Z" transform="translate(0 0)"/><path class="cls-107" d="M501.7,219.9c-1,1-3.85,1.92-5.78,1s-1-4.81-1-4.81c-7.7-3.85-17.33,13.47-19.25,1-1.59-11.12,8-16.34,15.14-23.24-6.13,3.2-12,8-14.66,12.65C468,221,475.88,228.48,481.65,232c5.3,3.23,16.52,4.29,26.31-12a33.15,33.15,0,0,0,4.52-12.55C509,211.6,504.74,215.56,501.7,219.9Z" transform="translate(0 0)"/><path class="cls-107" d="M512.58,206.59a30.79,30.79,0,0,1-1.4,6.42h-15.1a2.85,2.85,0,0,1-2.85-2.85v-.72a2.84,2.84,0,0,1,2.85-2.85Z" transform="translate(0 0)"/><path class="cls-107" d="M501.9,232c0,1.46-3.19,2.64-7.14,2.64s-7.14-1.18-7.14-2.64,3.2-2.64,7.14-2.64S501.9,230.57,501.9,232Z" transform="translate(0 0)"/><rect class="cls-36" x="480.16" y="213.3" width="4.09" height="7.08" transform="translate(-30.7 88.5) rotate(-10.16)"/><path class="cls-36" d="M479.54,210.8a1.05,1.05,0,0,1-.6,1.34h0a1.05,1.05,0,0,1-1.34-.61l-2.2-5.82a1,1,0,0,1,.61-1.34h0a1,1,0,0,1,1.33.6Z" transform="translate(0 0)"/><path class="cls-36" d="M484.31,209.67a1,1,0,0,1-.82,1.22h0a1,1,0,0,1-1.22-.82L481.06,204a1,1,0,0,1,.82-1.22h0a1,1,0,0,1,1.22.82Z" transform="translate(0 0)"/><path class="cls-36" d="M487.35,208.16a1.13,1.13,0,0,0-1.59.14l-3.23,3.84a3.7,3.7,0,0,0,.82,1.5c.25.23,1.18,0,1.18,0l3-3.91A1.11,1.11,0,0,0,487.35,208.16Z" transform="translate(0 0)"/><path class="cls-36" d="M481.71,209.32a1,1,0,0,1-.73,1.27h0a1,1,0,0,1-1.27-.72l-1.66-6a1,1,0,0,1,.74-1.28h0a1,1,0,0,1,1.27.72Z" transform="translate(0 0)"/><path class="cls-36" d="M485,211.76a2,2,0,0,1-1.44,2.52l-2.83.79a2.06,2.06,0,0,1-2.52-1.44l-.78-2.83a2.06,2.06,0,0,1,1.43-2.53l2.84-.78a2,2,0,0,1,2.52,1.44Z" transform="translate(0 0)"/><path class="cls-68" d="M495,244.8c.41.19.83.37,1.25.53,5.06,1.89,10.29.6,14.72-3.63,8.9-8.49,13.57-33,11.66-43.23a4.25,4.25,0,1,0-8.35,1.55c1.6,8.64-3.27,29.89-9.18,35.53-2.67,2.55-4.55,2.31-5.88,1.81-.19-.07-.39-.15-.58-.24-5.83-2.8-11.86-15.37-12.47-21.79L478,216.85C478.73,224.38,485.13,240.07,495,244.8Z" transform="translate(0 0)"/><rect class="cls-104" x="491.02" y="205.46" width="36.25" height="6.42" rx="2.85"/><path class="cls-108" d="M501.64,188.85c.43-.29,2.58-1.74,4.52-3.1l-6.13-6.7A18.54,18.54,0,0,0,501.64,188.85Z" transform="translate(0 0)"/><path class="cls-108" d="M509.52,183.23a9,9,0,0,0-9.49-4.18l6.13,6.7c.86-.61,1.68-1.19,2.29-1.65C508.69,183.92,509.28,183.41,509.52,183.23Z" transform="translate(0 0)"/><path class="cls-106" d="M501.1,180.15a7,7,0,0,1,7.32,3.22c-.18.14-.64.54-.82.67-.47.36-1.1.81-1.77,1.28-1.49,1.05-3.15,2.17-3.49,2.39A14.29,14.29,0,0,1,501.1,180.15Z" transform="translate(0 0)"/><path class="cls-108" d="M523.46,188.85c-.43-.29-2.58-1.74-4.52-3.1l6.13-6.7A18.54,18.54,0,0,1,523.46,188.85Z" transform="translate(0 0)"/><path class="cls-108" d="M515.58,183.23a9,9,0,0,1,9.49-4.18l-6.13,6.7c-.86-.61-1.68-1.19-2.29-1.65C516.41,183.92,515.82,183.41,515.58,183.23Z" transform="translate(0 0)"/><path class="cls-106" d="M524,180.15a14.29,14.29,0,0,1-1.24,7.56c-.34-.22-2-1.34-3.49-2.39-.67-.47-1.3-.92-1.77-1.28-.18-.13-.64-.53-.82-.67A7,7,0,0,1,524,180.15Z" transform="translate(0 0)"/><path class="cls-61" d="M512.55,181.31c6.39,0,11.58,4,11.58,10.37s-5.19,12.57-11.58,12.57S501,198,501,191.68,506.15,181.31,512.55,181.31Z" transform="translate(0 0)"/><path class="cls-8" d="M507.39,195.74c-1.63,1.17-2.24,3.12-1.35,4.36l5.91-4.25C511.07,194.62,509,194.56,507.39,195.74Z" transform="translate(0 0)"/><path class="cls-8" d="M512,195.85,506,200.1h0c.89,1.24,2.93,1.29,4.57.12s2.23-3.13,1.34-4.37Z" transform="translate(0 0)"/><path class="cls-109" d="M510.32,196.62a.27.27,0,0,1-.53,0,.27.27,0,0,1,.53,0Z" transform="translate(0 0)"/><path class="cls-109" d="M508.65,195.76a.27.27,0,0,1-.53,0,.27.27,0,0,1,.53,0Z" transform="translate(0 0)"/><path class="cls-109" d="M509.63,198.4a.27.27,0,0,1-.26.27.27.27,0,0,1,0-.53A.26.26,0,0,1,509.63,198.4Z" transform="translate(0 0)"/><path class="cls-109" d="M511.27,198.2a.27.27,0,1,1-.27-.27A.27.27,0,0,1,511.27,198.2Z" transform="translate(0 0)"/><path class="cls-109" d="M508.33,197.5a.26.26,0,0,1-.26.26.27.27,0,0,1,0-.53A.27.27,0,0,1,508.33,197.5Z" transform="translate(0 0)"/><circle class="cls-109" cx="509.32" cy="199.99" r="0.26"/><path class="cls-109" d="M506.47,198.57a.26.26,0,0,1-.26.26.25.25,0,0,1-.26-.26.26.26,0,0,1,.26-.26A.26.26,0,0,1,506.47,198.57Z" transform="translate(0 0)"/><path class="cls-109" d="M507.79,200.18a.27.27,0,0,1-.53,0,.27.27,0,0,1,.53,0Z" transform="translate(0 0)"/><path class="cls-110" d="M508.21,197.28a.27.27,0,0,1-.18-.07A.21.21,0,0,1,508,197a9.16,9.16,0,0,0-2.68-.59,29.17,29.17,0,0,0-10.11.7.21.21,0,0,1-.27-.16.22.22,0,0,1,.16-.28,29.83,29.83,0,0,1,10.27-.71,9.12,9.12,0,0,1,2.93.69.34.34,0,0,1,.24.32.3.3,0,0,1-.16.24A.27.27,0,0,1,508.21,197.28Z" transform="translate(0 0)"/><path class="cls-110" d="M496.23,200.56a.24.24,0,0,1-.21-.15.23.23,0,0,1,.14-.29,70.47,70.47,0,0,1,8.55-2.53,7.85,7.85,0,0,1,3.6-.2.21.21,0,0,1,.17.24.23.23,0,0,1-.22.2H508a.23.23,0,0,1-.18-.08,8.45,8.45,0,0,0-3,.29,70.16,70.16,0,0,0-8.5,2.51Z" transform="translate(0 0)"/><path class="cls-110" d="M498.34,203.63a.24.24,0,0,1-.19-.1.22.22,0,0,1,.07-.31c2.83-1.84,6.34-4.12,10.19-4.41l.08,0h.3a.23.23,0,0,1,.23.21.22.22,0,0,1-.22.23c-3.87.16-7.46,2.49-10.34,4.36A.19.19,0,0,1,498.34,203.63Z" transform="translate(0 0)"/><path class="cls-8" d="M517.71,195.74c1.63,1.17,2.24,3.12,1.35,4.36l-5.91-4.25C514,194.62,516.08,194.56,517.71,195.74Z" transform="translate(0 0)"/><path class="cls-8" d="M513.15,195.85l5.91,4.25h0c-.89,1.24-2.93,1.29-4.57.12s-2.23-3.13-1.34-4.37Z" transform="translate(0 0)"/><path class="cls-109" d="M514.78,196.62a.27.27,0,0,0,.53,0,.27.27,0,0,0-.53,0Z" transform="translate(0 0)"/><path class="cls-109" d="M516.45,195.76a.27.27,0,0,0,.53,0,.27.27,0,0,0-.53,0Z" transform="translate(0 0)"/><path class="cls-109" d="M515.47,198.4a.27.27,0,0,0,.26.27.27.27,0,0,0,0-.53A.26.26,0,0,0,515.47,198.4Z" transform="translate(0 0)"/><path class="cls-109" d="M513.83,198.2a.27.27,0,1,0,.27-.27A.27.27,0,0,0,513.83,198.2Z" transform="translate(0 0)"/><path class="cls-109" d="M516.77,197.5a.26.26,0,0,0,.26.26.27.27,0,0,0,0-.53A.27.27,0,0,0,516.77,197.5Z" transform="translate(0 0)"/><circle class="cls-109" cx="515.78" cy="199.99" r="0.26"/><path class="cls-109" d="M518.63,198.57a.26.26,0,0,0,.26.26.25.25,0,0,0,.26-.26.26.26,0,0,0-.26-.26A.26.26,0,0,0,518.63,198.57Z" transform="translate(0 0)"/><path class="cls-109" d="M517.31,200.18a.27.27,0,0,0,.53,0,.27.27,0,0,0-.53,0Z" transform="translate(0 0)"/><path class="cls-110" d="M515.6,196.58a.3.3,0,0,0,.18-.06.34.34,0,0,0,.08-.17,9.11,9.11,0,0,1,2.67-.6,29.23,29.23,0,0,1,10.12.71.24.24,0,0,0,.27-.17.22.22,0,0,0-.16-.27,29.66,29.66,0,0,0-10.28-.71,9.37,9.37,0,0,0-2.93.68.36.36,0,0,0-.24.33.34.34,0,0,0,.17.24Z" transform="translate(0 0)"/><path class="cls-110" d="M527.57,199.86a.22.22,0,0,0,.21-.14.23.23,0,0,0-.13-.29,71.16,71.16,0,0,0-8.56-2.53,8,8,0,0,0-3.6-.21.23.23,0,0,0-.17.25.22.22,0,0,0,.22.19h.32A.2.2,0,0,0,516,197a8.66,8.66,0,0,1,3,.3,69.11,69.11,0,0,1,8.5,2.51Z" transform="translate(0 0)"/><path class="cls-110" d="M525.46,202.93a.21.21,0,0,0,.19-.1.22.22,0,0,0-.06-.31c-2.84-1.84-6.35-4.11-10.2-4.41H515a.22.22,0,0,0-.22.22.22.22,0,0,0,.21.23c3.87.16,7.46,2.49,10.34,4.36A.27.27,0,0,0,525.46,202.93Z" transform="translate(0 0)"/><path class="cls-111" d="M508.9,190a3.35,3.35,0,0,0-.59-.39h0l-1.45,2.52-.14.25.09.05a4.06,4.06,0,0,0,.65.27,6.06,6.06,0,0,0,3.22,0A6,6,0,0,0,508.9,190Z" transform="translate(0 0)"/><polygon class="cls-14" points="506.86 192.17 508.31 189.65 506.86 192.17 506.86 192.17"/><path class="cls-111" d="M504.44,189.41a6,6,0,0,0,1.78,2.68,2.93,2.93,0,0,0,.5.34l.14-.24,1.45-2.53a4.06,4.06,0,0,0-.65-.27A6.12,6.12,0,0,0,504.44,189.41Z" transform="translate(0 0)"/><path class="cls-112" d="M506.42,190.34a1.54,1.54,0,0,0,.3,2.1l1.67-2.9A1.55,1.55,0,0,0,506.42,190.34Z" transform="translate(0 0)"/><path d="M508.39,189.54h0l-1.67,2.9h0a1.72,1.72,0,0,0,1.67-2.9Z" transform="translate(0 0)"/><path class="cls-8" d="M507.74,190.17a.33.33,0,0,1-.37.28.31.31,0,1,1,.06-.62A.32.32,0,0,1,507.74,190.17Z" transform="translate(0 0)"/><path class="cls-8" d="M508,191.92a.18.18,0,0,1-.2.15.17.17,0,0,1-.16-.19.16.16,0,0,1,.19-.14A.18.18,0,0,1,508,191.92Z" transform="translate(0 0)"/><path class="cls-14" d="M509.05,189.79a5,5,0,0,0-.59-.39,4.06,4.06,0,0,0-.65-.27,5.67,5.67,0,0,0-3.37.26,6.06,6.06,0,0,1,3.22,0,4.06,4.06,0,0,1,.65.27h0a3.35,3.35,0,0,1,.59.39,6,6,0,0,1,1.78,2.69A5.52,5.52,0,0,0,509.05,189.79Z" transform="translate(0 0)"/><path class="cls-111" d="M516.2,190.05a5,5,0,0,1,.59-.39h0l1.45,2.53.14.24-.09,0a3.36,3.36,0,0,1-.65.28,6.12,6.12,0,0,1-3.22,0A6,6,0,0,1,516.2,190.05Z" transform="translate(0 0)"/><polygon class="cls-14" points="518.24 192.17 516.79 189.65 518.24 192.17 518.24 192.17"/><path class="cls-111" d="M520.66,189.41a6,6,0,0,1-1.78,2.68,2.93,2.93,0,0,1-.5.34l-.14-.24-1.45-2.53a4.06,4.06,0,0,1,.65-.27A6.12,6.12,0,0,1,520.66,189.41Z" transform="translate(0 0)"/><path class="cls-112" d="M518.68,190.34a1.54,1.54,0,0,1-.3,2.1l-1.67-2.9A1.55,1.55,0,0,1,518.68,190.34Z" transform="translate(0 0)"/><path d="M516.71,189.54h0l1.67,2.9h0a1.72,1.72,0,0,1-1.67-2.9Z" transform="translate(0 0)"/><path class="cls-8" d="M517.36,190.17a.33.33,0,0,0,.37.28.31.31,0,1,0-.06-.62A.32.32,0,0,0,517.36,190.17Z" transform="translate(0 0)"/><path class="cls-8" d="M517.15,191.92a.18.18,0,0,0,.2.15.17.17,0,0,0,.16-.19.17.17,0,0,0-.19-.14A.18.18,0,0,0,517.15,191.92Z" transform="translate(0 0)"/><path class="cls-14" d="M516.05,189.79a5,5,0,0,1,.59-.39,4.06,4.06,0,0,1,.65-.27,5.67,5.67,0,0,1,3.37.26,6.06,6.06,0,0,0-3.22,0,4.06,4.06,0,0,0-.65.27h0a3.35,3.35,0,0,0-.59.39,6,6,0,0,0-1.78,2.69A5.52,5.52,0,0,1,516.05,189.79Z" transform="translate(0 0)"/><path class="cls-58" d="M510.45,194.39c-.45.19-.34.89,0,1.24l1.48,1.48a.85.85,0,0,0,.56.25h.06v-3.27A6.11,6.11,0,0,0,510.45,194.39Z" transform="translate(0 0)"/><path class="cls-58" d="M514.65,194.39a6.11,6.11,0,0,0-2.1-.3v3.27a.82.82,0,0,0,.61-.25l1.49-1.48C515,195.28,515.1,194.58,514.65,194.39Z" transform="translate(0 0)"/><polygon class="cls-113" points="105.1 330.63 105.39 331.53 92.61 335.9 92.61 342.55 92.14 342.55 92.14 335.07 105.1 330.63"/><polygon class="cls-114" points="91.67 335.23 92.14 335.07 92.14 342.55 91.67 342.55 91.67 335.23 91.67 335.23"/><rect class="cls-114" x="80.92" y="324.22" width="1.48" height="1.45"/><rect class="cls-113" x="92.36" y="324.48" width="13.03" height="0.94"/><rect class="cls-113" x="104.46" y="324.48" width="0.93" height="7.05"/><path class="cls-115" d="M90.27,341.74v-1.2h1.87v13.77a2.47,2.47,0,0,1-2.47-2.46V341.74Z" transform="translate(0 0)"/><path class="cls-116" d="M94,340.54v1.2h.59v10.11a2.46,2.46,0,0,1-2.46,2.46V340.54Z" transform="translate(0 0)"/><path class="cls-117" d="M101.32,321.61a1.45,1.45,0,0,1,1.45,1.45v3.77a1.44,1.44,0,0,1-1.45,1.44H92.14v-6.66Z" transform="translate(0 0)"/><path class="cls-118" d="M83,321.61h9.19v6.66H83a1.44,1.44,0,0,1-1.45-1.44v-3.77A1.45,1.45,0,0,1,83,321.61Z" transform="translate(0 0)"/><polygon class="cls-119" points="82.99 344.25 105.85 344.25 128.33 344.25 130.85 369.76 105.85 369.76 80.47 369.76 82.99 344.25"/><path class="cls-120" d="M114.74,351.23a1,1,0,0,0,0,2h0v2.89h0l0,.75a9.5,9.5,0,0,1-2-4.13c-1.13-5.23.17-7.22.36-10.91v-1.78c-.29-5.57-4.81-7.61-6.37-8.33a2.15,2.15,0,0,1-1.25-1.91h9.29v21.42Z" transform="translate(0 0)"/><path class="cls-120" d="M122.78,331.72c-1.56.72-6.08,2.76-6.37,8.33v1.78c.19,3.68,1.49,5.68.36,10.91a9.5,9.5,0,0,1-2,4.13l0-.75v-2.89a1,1,0,1,0,0-2V329.81H124A2.15,2.15,0,0,1,122.78,331.72Z" transform="translate(0 0)"/><polygon class="cls-121" points="106.54 329.81 105.45 329.81 105.45 328.73 105.45 328.33 105.45 326.89 105.45 326.5 105.45 325.41 106.54 325.41 114.74 325.41 114.74 329.81 106.54 329.81"/><polygon class="cls-121" points="122.94 329.81 114.74 329.81 114.74 325.41 122.94 325.41 124.03 325.41 124.03 326.5 124.03 326.89 124.03 328.33 124.03 328.73 124.03 329.81 122.94 329.81"/><rect class="cls-122" x="105.45" y="316.64" width="9.29" height="8.78"/><rect class="cls-122" x="114.74" y="316.64" width="9.29" height="8.78"/><rect class="cls-117" x="119.94" y="315.11" width="6.41" height="31.77"/><rect class="cls-122" x="130.75" y="324.53" width="3.04" height="31.25"/><rect class="cls-123" x="124.8" y="321.57" width="3.1" height="3.8"/><rect class="cls-49" x="129.76" y="339.86" width="5.01" height="15.92"/><rect class="cls-122" x="127.68" y="320.49" width="9.17" height="5.96"/><rect class="cls-122" x="122.82" y="319.61" width="4.08" height="7.73" rx="1.13"/><path class="cls-122" d="M136.85,320.49a6.45,6.45,0,0,1,6.24,4.65,1.14,1.14,0,0,1,.06.62c-.12.24-.48.28-.81-.07,0,0-2.3-2.55-4.89-2.55h-.37a.37.37,0,0,1-.23-.05Z" transform="translate(0 0)"/><path class="cls-47" d="M116.7,335.52a1.49,1.49,0,0,0,1.45-2.34l-6.24-11c-.64-1.29-1.68-1.29-2.32,0l-6.24,11a1.49,1.49,0,0,0,1.45,2.34Z" transform="translate(0 0)"/><rect class="cls-47" x="110.17" y="334" width="1.16" height="7.38"/><path class="cls-49" d="M112.25,341.43a1.49,1.49,0,0,0-1.38-1.15h-.24a1.49,1.49,0,0,0-1.38,1.15,22.21,22.21,0,0,0,0,6.41,1.49,1.49,0,0,0,1.38,1.15h.24a1.49,1.49,0,0,0,1.38-1.15A22.21,22.21,0,0,0,112.25,341.43Z" transform="translate(0 0)"/><polygon class="cls-123" points="98.98 337.3 97.55 335.81 99.05 334.38 97.61 332.9 99.11 331.48 97.67 329.99 99.17 328.57 97.74 327.08 99.24 325.66 97.8 324.17 99.3 322.75 97.87 321.26 99.37 319.84 97.93 318.35 99.43 316.93 98 315.45 99.5 314.02 98.06 312.54 99.51 311.16 102.65 310.06 104.24 310.92 103.02 312.54 104.68 313.69 103.46 315.32 105.13 316.47 103.91 318.1 105.58 319.25 104.36 320.87 106.03 322.02 104.81 323.65 106.48 324.8 105.26 326.43 106.93 327.58 105.71 329.2 107.38 330.36 106.16 331.98 107.83 333.13 106.6 334.76 108.28 335.91 107.06 337.53 108.73 338.69 107.51 340.31 98.92 340.21 97.48 338.72 98.98 337.3"/><polygon class="cls-123" points="97.48 343.11 105.45 343.11 107.81 341.6 102.65 310.06 98.22 310.06 97.48 343.11"/><rect class="cls-124" x="97.49" y="343.11" width="7.84" height="7.1"/><rect class="cls-119" x="83.56" y="335.54" width="44.77" height="2.42"/><rect class="cls-119" x="105.85" y="335.54" width="22.48" height="2.42"/><rect class="cls-125" x="126.9" y="335.54" width="15.57" height="2.42"/><rect class="cls-119" x="124.03" y="332.92" width="4.3" height="11.33"/><rect class="cls-119" x="83.02" y="332.92" width="4.3" height="11.33"/><rect class="cls-125" x="139.41" y="332.92" width="4.3" height="11.33"/><polygon class="cls-125" points="143.72 344.25 146.23 369.76 121.24 369.76 121.24 344.25 143.72 344.25"/><polygon class="cls-119" points="82.99 344.25 105.85 344.25 128.33 344.25 130.85 369.76 105.85 369.76 80.47 369.76 82.99 344.25"/><path class="cls-126" d="M87.74,344.25H83l-2.52,25.51h50.38l-.6-6C110.74,366.34,86.07,367.79,87.74,344.25Z" transform="translate(0 0)"/></g></g></svg>