<svg xmlns="http://www.w3.org/2000/svg" xmlns:xlink="http://www.w3.org/1999/xlink" viewBox="0 0 674.8 398.42"><defs><style>.cls-1,.cls-13,.cls-14,.cls-21,.cls-23,.cls-24,.cls-29,.cls-31,.cls-33,.cls-34,.cls-9{fill:none;}.cls-2{isolation:isolate;}.cls-3{fill:#fdffff;}.cls-4{fill:#7a98c5;}.cls-5{fill:#fdf9ff;}.cls-6{fill:#ecc9bf;}.cls-7{fill:#fff;}.cls-8{clip-path:url(#clip-path);}.cls-24,.cls-9{stroke:#7a98c5;}.cls-21,.cls-23,.cls-29,.cls-31,.cls-33,.cls-9{stroke-linecap:round;stroke-linejoin:round;}.cls-9{stroke-width:2.76px;}.cls-10{fill:#2f3052;}.cls-11{fill:#acacac;}.cls-11,.cls-15,.cls-16,.cls-17{mix-blend-mode:multiply;}.cls-12{fill:#f3e2d9;}.cls-13,.cls-14,.cls-34{stroke:#2f3052;}.cls-13,.cls-14,.cls-24,.cls-34{stroke-miterlimit:10;}.cls-13{stroke-width:1.06px;}.cls-14{stroke-width:2.12px;}.cls-15{fill:#61abeb;}.cls-16{fill:#c80788;}.cls-17{fill:#f8f039;}.cls-18{fill:#5f70a1;}.cls-19{fill:#9abde7;}.cls-20{fill:#101010;}.cls-21{stroke:#fff;stroke-width:0.96px;}.cls-22{fill:#1b1c3d;}.cls-23{stroke:#7b7b7b;stroke-width:1.11px;}.cls-24{stroke-width:0.98px;}.cls-25{fill:#e3a299;}.cls-26{fill:#131314;}.cls-27{fill:#404366;}.cls-28{fill:#9297b7;}.cls-29{stroke:#171717;stroke-width:0.41px;}.cls-30{fill:#1e0b02;}.cls-31,.cls-33{stroke:#1e0b02;}.cls-31{stroke-width:0.6px;}.cls-32{fill:#1f1e2d;}.cls-33{stroke-width:0.55px;}.cls-34{stroke-width:1.48px;}</style><clipPath id="clip-path" transform="translate(-48.78 -74.6)"><polyline class="cls-1" points="93.04 155.54 120.99 128.97 93.04 128.97 65.1 128.97 93.04 155.54"/></clipPath></defs><g class="cls-2"><g id="OBJECTS"><circle class="cls-3" cx="567.37" cy="141.82" r="50.36" transform="translate(-57.31 169.03) rotate(-24.06)"/><path class="cls-4" d="M589.34,157.52h-6.28v-2.09h6.28a1,1,0,0,0,1-1.05V130.31a1,1,0,0,0-1-1h-44a1,1,0,0,0-1,1v24.07a1,1,0,0,0,1,1.05h6.28v2.09h-6.28a3.14,3.14,0,0,1-3.13-3.14V130.31a3.14,3.14,0,0,1,3.13-3.14h44a3.15,3.15,0,0,1,3.14,3.14v24.07A3.15,3.15,0,0,1,589.34,157.52Z" transform="translate(-48.78 -74.6)"/><path class="cls-4" d="M584.11,166.94H550.63V149.15h33.48Zm-31.39-2.1H582v-13.6h-29.3Z" transform="translate(-48.78 -74.6)"/><path class="cls-4" d="M584.11,129.27H550.63V116.71h33.48Zm-31.39-2.1H582V118.8h-29.3Z" transform="translate(-48.78 -74.6)"/><rect class="cls-4" x="499.75" y="74.55" width="37.67" height="2.09"/><rect class="cls-4" x="529.05" y="57.81" width="3.14" height="2.09"/><rect class="cls-4" x="535.33" y="57.81" width="3.14" height="2.09"/><rect class="cls-4" x="507.08" y="79.78" width="23.02" height="2.09"/><rect class="cls-4" x="507.08" y="86.06" width="23.02" height="2.09"/><circle class="cls-4" cx="581.38" cy="37.96" r="29.05"/><path class="cls-5" d="M631.23,124.25A12.76,12.76,0,1,1,644,111.49,12.78,12.78,0,0,1,631.23,124.25Zm0-24a11.28,11.28,0,1,0,11.27,11.28A11.29,11.29,0,0,0,631.23,100.21Z" transform="translate(-48.78 -74.6)"/><path class="cls-5" d="M631.23,127.84a.75.75,0,0,1-.75-.74V95.88a.75.75,0,0,1,.75-.74.74.74,0,0,1,.74.74V127.1A.74.74,0,0,1,631.23,127.84Z" transform="translate(-48.78 -74.6)"/><path class="cls-5" d="M646.84,112.23H615.62a.74.74,0,1,1,0-1.48h31.22a.74.74,0,1,1,0,1.48Z" transform="translate(-48.78 -74.6)"/><path class="cls-6" d="M477.27,162.91h-92.4a3.45,3.45,0,0,1-3.46-3.45h0a3.46,3.46,0,0,1,3.46-3.46h92.4a3.46,3.46,0,0,1,3.45,3.46h0A3.45,3.45,0,0,1,477.27,162.91Z" transform="translate(-48.78 -74.6)"/><path class="cls-6" d="M706.28,242.61H661.43a3.45,3.45,0,0,1-3.46-3.45h0a3.46,3.46,0,0,1,3.46-3.46h44.85a3.45,3.45,0,0,1,3.45,3.46h0A3.44,3.44,0,0,1,706.28,242.61Z" transform="translate(-48.78 -74.6)"/><path class="cls-6" d="M87.24,367.89h-35a3.45,3.45,0,0,1-3.46-3.45h0A3.46,3.46,0,0,1,52.24,361h35a3.46,3.46,0,0,1,3.46,3.46h0A3.45,3.45,0,0,1,87.24,367.89Z" transform="translate(-48.78 -74.6)"/><rect class="cls-4" x="636.58" y="206.96" width="10.69" height="10.36" rx="2.61"/><rect class="cls-4" x="378.59" y="42.34" width="10.69" height="10.36" rx="2.61"/><rect class="cls-4" x="34.24" y="227.02" width="10.69" height="10.36" rx="2.61"/><rect class="cls-4" x="70.56" y="123.03" width="44.97" height="45.33" transform="translate(137.3 216.78) rotate(180)"/><polygon class="cls-4" points="66.75 86.44 66.75 102.24 53.3 86.44 66.75 86.44"/><path class="cls-7" d="M96.68,155.54A3.64,3.64,0,1,1,93,151.91,3.64,3.64,0,0,1,96.68,155.54Z" transform="translate(-48.78 -74.6)"/><g class="cls-8"><path class="cls-7" d="M93,167.93a12.39,12.39,0,1,1,12.38-12.39A12.4,12.4,0,0,1,93,167.93Zm0-21.32a8.94,8.94,0,1,0,8.94,8.93A8.94,8.94,0,0,0,93,146.61Z" transform="translate(-48.78 -74.6)"/><path class="cls-7" d="M93,176.1a20.56,20.56,0,1,1,20.56-20.56A20.58,20.58,0,0,1,93,176.1Zm0-37.67a17.11,17.11,0,1,0,17.11,17.11A17.14,17.14,0,0,0,93,138.43Z" transform="translate(-48.78 -74.6)"/></g><circle class="cls-3" cx="207.81" cy="41.37" r="41.37"/><path class="cls-9" d="M273.3,109.42a17.82,17.82,0,1,1-8-9.32" transform="translate(-48.78 -74.6)"/><polyline class="cls-9" points="205.11 33.68 211.56 40.28 224.18 25.51"/><path class="cls-6" d="M97.6,471.21s5.75-233.42,293.8-233.42S681.85,472.28,681.85,472.28Z" transform="translate(-48.78 -74.6)"/><rect class="cls-4" x="513.68" y="256.89" width="27.44" height="140.79"/><path class="cls-4" d="M505.77,382.88h44A13.24,13.24,0,0,1,563,396.11v1.57a0,0,0,0,1,0,0H492.54a0,0,0,0,1,0,0v-1.57A13.24,13.24,0,0,1,505.77,382.88Z"/><rect class="cls-10" x="505.86" y="256.89" width="27.44" height="140.79"/><path class="cls-10" d="M498,382.88h44a13.24,13.24,0,0,1,13.24,13.24v1.57a0,0,0,0,1,0,0H484.72a0,0,0,0,1,0,0v-1.57A13.24,13.24,0,0,1,498,382.88Z"/><polygon class="cls-11" points="505.86 256.89 505.86 275.11 541.12 263.23 541.12 256.89 505.86 256.89"/><rect class="cls-4" x="224.75" y="256.89" width="27.44" height="140.79"/><path class="cls-4" d="M216.85,382.88h44a13.24,13.24,0,0,1,13.24,13.24v1.57a0,0,0,0,1,0,0H203.61a0,0,0,0,1,0,0v-1.57A13.24,13.24,0,0,1,216.85,382.88Z"/><rect class="cls-10" x="216.93" y="256.89" width="27.44" height="140.79"/><path class="cls-10" d="M209,382.88h44a13.24,13.24,0,0,1,13.24,13.24v1.57a0,0,0,0,1,0,0H195.79a0,0,0,0,1,0,0v-1.57A13.24,13.24,0,0,1,209,382.88Z"/><polygon class="cls-11" points="216.93 256.89 216.93 275.11 252.19 263.23 252.19 256.89 216.93 256.89"/><path class="cls-10" d="M535,219.26h71.55a16.1,16.1,0,0,1,14,8.2l21,37.65a6.89,6.89,0,0,1-6,10.27H559.28Z" transform="translate(-48.78 -74.6)"/><polygon class="cls-11" points="521.13 144.66 552.64 200.78 527.4 200.78 496.79 144.66 521.13 144.66"/><polygon class="cls-4" points="536.89 158.4 540.45 164.66 559.32 164.66 555.66 158.4 536.89 158.4"/><polygon class="cls-12" points="541.57 166.72 542.62 168.59 561.5 168.59 560.35 166.72 541.57 166.72"/><polygon class="cls-12" points="543.48 170.09 544.53 171.96 563.41 171.96 562.26 170.09 543.48 170.09"/><polygon class="cls-12" points="545.05 173.44 546.1 175.31 564.98 175.31 563.83 173.44 545.05 173.44"/><polygon class="cls-12" points="549.8 181.54 550.85 183.42 569.72 183.42 568.57 181.54 549.8 181.54"/><polygon class="cls-12" points="551.71 184.91 552.75 186.79 571.63 186.79 570.48 184.91 551.71 184.91"/><polygon class="cls-4" points="546.91 176.87 548.53 179.75 577.7 179.75 575.92 176.87 546.91 176.87"/><polygon class="cls-4" points="559.32 158.4 568.89 174.96 575.4 174.96 565.74 158.4 559.32 158.4"/><polygon class="cls-4" points="571.63 181.54 574.78 186.79 581.29 186.79 578.04 181.54 571.63 181.54"/><path class="cls-4" d="M266.1,331.49H603.78V310.2a47.68,47.68,0,0,0-5.7-22.6L566.54,229a18.54,18.54,0,0,0-16.31-9.75H266.1Z" transform="translate(-48.78 -74.6)"/><path class="cls-10" d="M240.33,331.49h81.95V310.2a47.68,47.68,0,0,0-5.7-22.6l-31.7-58.89a18,18,0,0,0-15.81-9.45H240.33Z" transform="translate(-48.78 -74.6)"/><polyline class="cls-13" points="309.83 197.32 290.91 163.7 471.22 163.7 495.22 204.13"/><line class="cls-14" x1="299.68" y1="179.26" x2="480.62" y2="179.26"/><polygon class="cls-10" points="306.56 191.51 487.8 191.51 495.22 204.13 309.83 197.32 306.56 191.51"/><rect class="cls-4" x="288.69" y="104.96" width="8.68" height="39.7"/><rect class="cls-10" x="267" y="104.96" width="21.69" height="39.7"/><rect class="cls-4" x="273.7" y="104.96" width="8.68" height="39.7"/><rect class="cls-10" x="252.01" y="104.96" width="21.69" height="39.7"/><rect class="cls-4" x="258.52" y="104.96" width="8.68" height="39.7"/><rect class="cls-10" x="236.83" y="104.96" width="21.69" height="39.7"/><rect class="cls-4" x="242.34" y="104.96" width="8.68" height="39.7"/><rect class="cls-10" x="220.65" y="104.96" width="21.69" height="39.7"/><path class="cls-3" d="M297.7,185.73a2.25,2.25,0,1,1-2.24-2.25A2.24,2.24,0,0,1,297.7,185.73Z" transform="translate(-48.78 -74.6)"/><path class="cls-3" d="M313.88,185.73a2.25,2.25,0,1,1-2.24-2.25A2.24,2.24,0,0,1,313.88,185.73Z" transform="translate(-48.78 -74.6)"/><path class="cls-3" d="M329.07,185.73a2.25,2.25,0,1,1-2.25-2.25A2.25,2.25,0,0,1,329.07,185.73Z" transform="translate(-48.78 -74.6)"/><circle class="cls-3" cx="292.97" cy="111.13" r="2.25"/><rect class="cls-11" x="220.65" y="138.9" width="76.72" height="5.76"/><path class="cls-7" d="M374.9,412.79h0a33.82,33.82,0,0,0,33.81,33.82h74.15V412.79Z" transform="translate(-48.78 -74.6)"/><path class="cls-3" d="M358.61,271.92h172s24,1.92,24,32.59V412.79H374.9V306.07a41.4,41.4,0,0,0-10.31-27.34Z" transform="translate(-48.78 -74.6)"/><circle class="cls-15" cx="420.96" cy="258.58" r="28.77"/><circle class="cls-16" cx="401.98" cy="290.85" r="28.77"/><circle class="cls-17" cx="442.87" cy="290.85" r="28.77"/><path class="cls-18" d="M470.22,412.79s-15.91-1.39-15.91,15.42-13.64,18.4-13.64,18.4h42.19V412.79Z" transform="translate(-48.78 -74.6)"/><path class="cls-19" d="M470.22,412.79H651s16.86.89,16.86,19.44v21.92h-185v-23.1S482.77,412.79,470.22,412.79Z" transform="translate(-48.78 -74.6)"/><path class="cls-7" d="M709,454.15s2.22,13.64-20,18H513.63l21.34-18V435.59H709.1Z" transform="translate(-48.78 -74.6)"/><path class="cls-19" d="M482.86,454.15h0a18,18,0,0,0,18,18H517a18,18,0,0,0,18-18H482.86Z" transform="translate(-48.78 -74.6)"/><polygon class="cls-20" points="74.47 377.73 89.71 377.73 114.92 391.21 71.58 390.69 74.47 377.73"/><polygon class="cls-7" points="71.43 396.39 71.58 390.69 114.92 391.21 114.77 396.91 71.43 396.39"/><line class="cls-21" x1="100.25" y1="382.69" x2="95.25" y2="384.06"/><line class="cls-21" x1="95.37" y1="380.19" x2="90.37" y2="381.55"/><polygon class="cls-3" points="93.55 356.24 78.01 356.24 74.47 377.73 90.01 377.73 93.55 356.24"/><polygon class="cls-20" points="121.58 378.19 136.82 378.19 162.02 391.68 118.69 391.16 121.58 378.19"/><polygon class="cls-7" points="118.54 396.86 118.69 391.16 162.02 391.68 161.87 397.38 118.54 396.86"/><line class="cls-21" x1="147.35" y1="383.16" x2="142.36" y2="384.52"/><line class="cls-21" x1="142.47" y1="380.65" x2="137.48" y2="382.02"/><polygon class="cls-3" points="136.86 356.71 121.33 356.71 121.58 378.19 137.12 378.19 136.86 356.71"/><path class="cls-22" d="M183.48,269.41s1.29,2.75,3.65,28c.48,5.2.78,12.44.73,17.66l1.2,129.78-22.23-.24-4.23-137.1L144.42,446l-23.18-.84,14.49-171.81,10.46-1.81Z" transform="translate(-48.78 -74.6)"/><line class="cls-23" x1="113.82" y1="232.94" x2="123.32" y2="228.57"/><path class="cls-3" d="M182.18,201.79s13.06,7.78,15.59,28.86l-18.64,10.24Z" transform="translate(-48.78 -74.6)"/><path class="cls-3" d="M157.23,195.2a65.46,65.46,0,0,0-18.76,4.36c-1.46.59-2.91,1.23-4.23,1.92-4.16,2.18-2.92,6.89-2.4,11.69l2.45,65,52.43-1.33,2.08-61.51a14.77,14.77,0,0,0-9.63-15c-6.87-2.42-15.25-5.14-18.9-5.36Z" transform="translate(-48.78 -74.6)"/><line class="cls-24" x1="138.49" y1="163.02" x2="139.79" y2="144"/><path class="cls-25" d="M176.08,199.23s-9.65-3.78-15.81-4.29c0,0-8.42.36-14.21,2.14,0,0,3.21,6.85,18,8S176.08,199.23,176.08,199.23Z" transform="translate(-48.78 -74.6)"/><path class="cls-26" d="M220.71,230.71l-11,50.9a3.75,3.75,0,0,1-3.73,3l-40.74-.72a3.75,3.75,0,0,1-3.59-4.57l11.45-50.89a3.75,3.75,0,0,1,3.72-2.92l40.25.71A3.75,3.75,0,0,1,220.71,230.71Z" transform="translate(-48.78 -74.6)"/><polygon class="cls-26" points="170.81 152.56 173.22 155.04 116.16 210.43 113.58 207.76 170.81 152.56"/><path class="cls-27" d="M222.87,232.94l-11,50.9a3.74,3.74,0,0,1-3.73,3l-40.74-.71a3.76,3.76,0,0,1-3.59-4.57l11.45-50.89a3.74,3.74,0,0,1,3.72-2.93l40.25.71A3.74,3.74,0,0,1,222.87,232.94Z" transform="translate(-48.78 -74.6)"/><path class="cls-28" d="M200.46,251.54a4.35,4.35,0,1,1-4.78-3.87A4.33,4.33,0,0,1,200.46,251.54Z" transform="translate(-48.78 -74.6)"/><path class="cls-25" d="M223.61,248l-3.07,12.43a3.34,3.34,0,0,1-3.3,2.54h0a7.41,7.41,0,0,1-7.15-8.8l.79-4.14a7.4,7.4,0,0,1,6.79-6l2.47-.17A3.35,3.35,0,0,1,223.61,248Z" transform="translate(-48.78 -74.6)"/><polygon class="cls-25" points="56.23 157.46 80.88 195.11 74.24 202.64 47.03 174.98 56.23 157.46"/><path class="cls-25" d="M152.32,271.42l-10.55-5.56,1-2.4a2.17,2.17,0,0,0-.56-2.51,2,2,0,0,0-2.55,0l-10.39,8.46L123,277.24c5.7,5.06,9.42,5,11.57,4l.75.26,8.76,2.6a1.65,1.65,0,0,0,2.16-.8c.28-.6.39-1.55-1.3-2.44l1.69.89a1.7,1.7,0,0,0,2.25-.88c.38-.77-.09-1.79-1.08-2.46l1.3.52a1.76,1.76,0,0,0,2.38-1.09,1.94,1.94,0,0,0-1-2.29l-1.87-1,2.22.55a1.91,1.91,0,0,0,2.49-1.3A2.11,2.11,0,0,0,152.32,271.42Z" transform="translate(-48.78 -74.6)"/><line class="cls-29" x1="100.46" y1="200.26" x2="94.22" y2="197.21"/><line class="cls-29" x1="98.78" y1="203.71" x2="92.77" y2="201.12"/><line class="cls-29" x1="96.74" y1="206.51" x2="91.64" y2="204.43"/><path class="cls-25" d="M139.59,221.68l-31.35,28a8.42,8.42,0,0,1-11,1.12h0a9.18,9.18,0,0,1-1.59-13.42l29.48-29.88a9.69,9.69,0,0,1,13.61-1.15h0A10.57,10.57,0,0,1,139.59,221.68Z" transform="translate(-48.78 -74.6)"/><path class="cls-3" d="M140.28,198.87s-12.59,2.54-28.22,21.94l13.38,18,20.4-15.16Z" transform="translate(-48.78 -74.6)"/><line class="cls-24" x1="83.59" y1="159.03" x2="95.42" y2="150.24"/><path class="cls-30" d="M178.46,166.42a5.09,5.09,0,1,0,3.84-6.09A5.09,5.09,0,0,0,178.46,166.42Z" transform="translate(-48.78 -74.6)"/><polygon class="cls-25" points="121.87 104.38 121.41 124.39 106.37 123.09 110.08 90.56 121.87 104.38"/><polygon class="cls-30" points="121.6 116.1 110.87 101.83 121.8 105.46 121.6 116.1"/><path class="cls-25" d="M177.7,144.8c5.14.68,7.65,6.13,8.15,11,.59,5.63,1.11,14.35-.64,18.63-2.7,6.61-8.45,10.48-17.14,8.12,0,0-10.17-1.24-11.64-16.57C154.69,147.85,166.76,143.33,177.7,144.8Z" transform="translate(-48.78 -74.6)"/><path class="cls-30" d="M182.86,163.05a1.17,1.17,0,1,0,.93-1.36A1.17,1.17,0,0,0,182.86,163.05Z" transform="translate(-48.78 -74.6)"/><path class="cls-30" d="M173,163.05a1.17,1.17,0,1,0,.93-1.36A1.17,1.17,0,0,0,173,163.05Z" transform="translate(-48.78 -74.6)"/><path class="cls-31" d="M180.7,164.34l1.06,3.87a.64.64,0,0,1-.5.79l-1.23.23" transform="translate(-48.78 -74.6)"/><path class="cls-32" d="M181.84,154.64s-.46,1.38,1.26,1.66A12.59,12.59,0,0,1,186,157a.93.93,0,0,0,1.14-.34h0a.93.93,0,0,0,0-1,4.24,4.24,0,0,0-2.86-1.85C182.23,153.38,181.84,154.64,181.84,154.64Z" transform="translate(-48.78 -74.6)"/><path class="cls-32" d="M175.81,154.7s.53,1.39-1.69,1.63a27.18,27.18,0,0,0-4.65,1.12,1.35,1.35,0,0,1-1.45-.37h0a.74.74,0,0,1,0-1,9.13,9.13,0,0,1,4.69-2.33C175.37,153.43,175.81,154.7,175.81,154.7Z" transform="translate(-48.78 -74.6)"/><path class="cls-31" d="M174.53,171.4a7.46,7.46,0,0,0,6.14,1.1" transform="translate(-48.78 -74.6)"/><path class="cls-32" d="M160.66,168.72l2.24-11.2c.51-2.6-.33-4.74-.89-7.9,9.84,0,21.42-.13,21.42-1,0,0-2.8-11.19-21-8-27.36,4.74-14.83,30.26-4.87,35.86Z" transform="translate(-48.78 -74.6)"/><path class="cls-25" d="M150.83,167.41a5.57,5.57,0,1,0,4.21-6.67A5.57,5.57,0,0,0,150.83,167.41Z" transform="translate(-48.78 -74.6)"/><path class="cls-33" d="M153.87,164.37a4.09,4.09,0,0,1,4.92,3.69" transform="translate(-48.78 -74.6)"/><path class="cls-32" d="M162,149.6s26.57,3.26,26.19-5.19-16.16-12-23.09-3.75Z" transform="translate(-48.78 -74.6)"/><line class="cls-34" x1="6.39" y1="397.68" x2="674.8" y2="397.68"/></g></g></svg>