<svg id="Layer_1" data-name="Layer 1" xmlns="http://www.w3.org/2000/svg" viewBox="0 0 531.27 330.71"><defs><style>.cls-1{fill:#ccc;}.cls-2{fill:#6b6b6b;}.cls-3{fill:#5adcff;}.cls-4{fill:#1da4ff;}.cls-22,.cls-5{fill:#fff;}.cls-6{fill:#edd918;}.cls-7{fill:#ccae00;}.cls-8{fill:#005abc;}.cls-9{fill:#e0a705;}.cls-10{fill:#c48c0e;}.cls-11{fill:#00b5d3;}.cls-12{fill:#ff437d;}.cls-13{fill:#ffb0d0;}.cls-14{fill:#c06;}.cls-15{fill:#ff71a4;}.cls-16{fill:#ed88ff;}.cls-17{fill:#be34d6;}.cls-18{fill:#6bcf49;}.cls-19{fill:#21a63d;}.cls-20{fill:#616161;}.cls-21,.cls-22{opacity:0.4;}</style></defs><path d="M759.37,340.61h224.8A40.07,40.07,0,0,1,1002,306.87H741.51A40.07,40.07,0,0,1,759.37,340.61Z" transform="translate(-609.93 -119.29)"/><rect x="186.8" y="153.84" width="150.07" height="17.63"/><rect class="cls-1" x="186.8" y="171.46" width="150.07" height="16.11"/><rect class="cls-2" x="160.56" y="187.57" width="202.57" height="18.74"/><rect class="cls-1" x="170.01" y="191.33" width="183.66" height="5.62"/><path class="cls-2" d="M740.89,273.13v33.33c.22.13.41.28.62.41h55.22V273.13Z" transform="translate(-609.93 -119.29)"/><path class="cls-2" d="M946.81,273.13v33.74H1002l.62-.41V273.13Z" transform="translate(-609.93 -119.29)"/><rect class="cls-1" x="763.94" y="313.42" width="18.74" height="5.65" transform="translate(-153.89 969.83) rotate(-89.92)"/><rect class="cls-1" x="357.47" y="187.57" width="5.65" height="18.74"/><rect class="cls-1" x="149.44" y="221.32" width="20.47" height="63.34"/><rect class="cls-1" x="353.79" y="221.32" width="20.47" height="63.34"/><rect x="131.58" y="272.85" width="260.52" height="5.62"/><rect x="177.95" y="187.57" width="166.55" height="90.9"/><rect class="cls-3" x="186.8" y="187.57" width="150.07" height="59.98"/><rect class="cls-4" x="186.8" y="247.56" width="150.08" height="30.92"/><polygon class="cls-2" points="243.05 247.56 186.8 223.38 186.8 247.56 243.05 247.56"/><polygon class="cls-5" points="268.14 243.52 254.87 243.52 266.34 258.5 283.63 258.5 283.63 243.52 268.14 243.52"/><polygon class="cls-1" points="283.63 234.12 278.46 234.12 268.14 243.52 283.63 243.52 283.63 234.12"/><polygon class="cls-1" points="303.71 243.52 299.13 243.52 283.63 243.52 283.63 258.5 301.09 258.5 303.71 243.52"/><rect class="cls-2" x="283.63" y="234.12" width="15.5" height="9.41"/><path class="cls-5" d="M855.93,351.49a5,5,0,0,0-4.83-5.13l-.48,0a5.81,5.81,0,0,0-5.32-3.71,5.87,5.87,0,0,0-5.55,4.35,3.93,3.93,0,0,0-1.38-.24,4.58,4.58,0,0,0-4.44,4.71,5.42,5.42,0,0,0,.15,1.21h21.71A6.06,6.06,0,0,0,855.93,351.49Z" transform="translate(-609.93 -119.29)"/><path class="cls-5" d="M890.57,333.72a3.39,3.39,0,0,0-3.29-3.48,1.77,1.77,0,0,0-.32,0,3.93,3.93,0,0,0-3.61-2.52,4,4,0,0,0-3.77,2.95,2.7,2.7,0,0,0-.94-.17,3.23,3.23,0,0,0-2.91,4h14.74A3.61,3.61,0,0,0,890.57,333.72Z" transform="translate(-609.93 -119.29)"/><path class="cls-5" d="M933.29,341.46a6,6,0,0,0-5.83-6.2l-.59,0a6.87,6.87,0,0,0-13.12.78,5,5,0,0,0-1.68-.29,5.53,5.53,0,0,0-5.36,5.69,5.78,5.78,0,0,0,.18,1.46h26.24A6.87,6.87,0,0,0,933.29,341.46Z" transform="translate(-609.93 -119.29)"/><path class="cls-6" d="M848.13,325.62a8,8,0,0,0,7.76,8.24V317.37A8,8,0,0,0,848.13,325.62Z" transform="translate(-609.93 -119.29)"/><path class="cls-7" d="M863.66,325.62a8,8,0,0,0-7.77-8.25v16.49A8,8,0,0,0,863.66,325.62Z" transform="translate(-609.93 -119.29)"/><polygon points="135.51 290.11 142.34 290.11 140.62 280.55 130.72 277.67 135.51 290.11"/><path class="cls-6" d="M744.91,275.7v9.2h4.86v-6.25A6,6,0,0,1,744.91,275.7Z" transform="translate(-609.93 -119.29)"/><path class="cls-7" d="M749.77,278.65v6.25h4.85v-9.19A6,6,0,0,1,749.77,278.65Z" transform="translate(-609.93 -119.29)"/><path class="cls-7" d="M749.77,278.65v-8.84h-4.86v5.88A6,6,0,0,0,749.77,278.65Z" transform="translate(-609.93 -119.29)"/><path class="cls-2" d="M749.77,269.81v8.84a6,6,0,0,0,4.86-2.94v-5.89Z" transform="translate(-609.93 -119.29)"/><path class="cls-6" d="M749.77,258.07c-4.08,0-7.39,2.37-7.55,8.31a.69.69,0,0,0-.34-.05c-.67.11-.65,1.36-.4,2.87s.63,2.69,1.3,2.58c1.4,3.75,4,6.4,7.1,6.4Z" transform="translate(-609.93 -119.29)"/><path class="cls-7" d="M749.77,258.07c4.08,0,7.39,2.37,7.54,8.32a.71.71,0,0,1,.35-.05c.66.1.65,1.35.4,2.86s-.63,2.69-1.3,2.57c-1.4,3.76-4,6.39-7,6.41Z" transform="translate(-609.93 -119.29)"/><path d="M749.77,254.1a9,9,0,0,1,7.86,4.93,10,10,0,0,1,.31,2.36,24.83,24.83,0,0,1-.73,6c-.49-8.63-6.92-7.2-7.44-7.24Z" transform="translate(-609.93 -119.29)"/><path class="cls-2" d="M749.77,254.09c-2.43,0-6.34,1.51-7.86,5a9.85,9.85,0,0,0-.32,2.35,25.21,25.21,0,0,0,.74,6c.49-8.63,6.9-7.2,7.44-7.24Z" transform="translate(-609.93 -119.29)"/><path class="cls-4" d="M751,340.63l-1.21-58.19-4.86-3.88-3.66,3L733,284.9l-4,4-14.13,18.86,20.65,21.45.11,10.33,15,1.72ZM727.66,306.1l3.35-3.71,3-.45,1.68,13.44Z" transform="translate(-609.93 -119.29)"/><polygon class="cls-8" points="140.73 221.94 155.9 219.52 154.46 198.01 158.19 175.81 173 170.74 193.03 163.81 193.03 155.4 171.53 161.01 157.11 163.35 148.47 162.24 144.81 159.27 139.84 163.15 140.84 220.17 140.73 221.94"/><polygon class="cls-1" points="140.62 280.55 140.73 221.94 125.77 220.21 129.6 278.71 140.62 280.55"/><polygon class="cls-2" points="143.05 252.69 123.42 271.58 127.69 284.91 157.14 254.99 155.9 219.52 140.73 221.94 143.05 252.69"/><polygon class="cls-1" points="130.72 294.35 125.77 294.18 116.85 277.35 123.42 271.58 130.72 294.35"/><polygon class="cls-6" points="202.75 160.13 193.03 160.91 193.03 155.4 198.44 153.57 203.08 153.14 207.63 152.71 207.33 153.79 198.63 157.39 202.92 158.77 202.75 160.13"/><path class="cls-5" d="M611.17,208.27a2.25,2.25,0,0,0-1.07,2.88L626,250a2,2,0,0,0,2.71,1.14l5.19-2.39-17.48-42.9Z" transform="translate(-609.93 -119.29)"/><path class="cls-1" d="M640.12,243.51l-15.85-38.88a2,2,0,0,0-2.71-1.14l-5.19,2.39,17.48,42.9,5.2-2.39A2.25,2.25,0,0,0,640.12,243.51Z" transform="translate(-609.93 -119.29)"/><polygon class="cls-2" points="8.98 107.34 14.4 120.64 19.38 118.35 13.96 105.05 8.98 107.34"/><polygon class="cls-1" points="2.53 91.54 7.95 104.84 12.94 102.54 7.52 89.25 2.53 91.54"/><polygon points="18.95 102.76 13.96 105.05 19.38 118.35 24.37 116.05 18.95 102.76"/><polygon class="cls-2" points="12.51 86.95 7.52 89.25 12.94 102.54 17.92 100.25 12.51 86.95"/><path class="cls-5" d="M635,204.67a2.09,2.09,0,0,0-2.28,1.92l-4.57,42.09a2.16,2.16,0,0,0,1.81,2.43l5.62.69,5-46.44Z" transform="translate(-609.93 -119.29)"/><path class="cls-1" d="M643.48,250.57l4.57-42.1a2.16,2.16,0,0,0-1.81-2.42l-5.62-.69-5,46.44,5.63.69A2.11,2.11,0,0,0,643.48,250.57Z" transform="translate(-609.93 -119.29)"/><polygon class="cls-9" points="23.12 105.39 21.55 119.78 26.95 120.45 28.52 106.05 23.12 105.39"/><polygon class="cls-6" points="24.98 88.28 23.41 102.68 28.81 103.34 30.38 88.94 24.98 88.28"/><polygon class="cls-10" points="33.91 106.71 28.52 106.05 26.95 120.45 32.35 121.11 33.91 106.71"/><polygon class="cls-7" points="35.77 89.61 30.38 88.94 28.81 103.34 34.21 104 35.77 89.61"/><path class="cls-5" d="M657.32,214.2a2,2,0,0,0-2.88.46l-23.77,34a2.27,2.27,0,0,0,.43,3.06l4.54,3.58,26.23-37.53Z" transform="translate(-609.93 -119.29)"/><path class="cls-1" d="M643.07,258.46l23.77-34a2.27,2.27,0,0,0-.43-3.06l-4.54-3.58-26.23,37.53,4.55,3.59A2,2,0,0,0,643.07,258.46Z" transform="translate(-609.93 -119.29)"/><polygon class="cls-4" points="36.28 111.21 28.16 122.84 32.52 126.28 40.65 114.65 36.28 111.21"/><polygon class="cls-3" points="45.95 97.38 37.82 109.01 42.18 112.45 50.31 100.82 45.95 97.38"/><polygon class="cls-8" points="45.01 118.09 40.65 114.65 32.52 126.28 36.88 129.72 45.01 118.09"/><polygon class="cls-11" points="54.68 104.26 50.31 100.82 42.18 112.45 46.55 115.9 54.68 104.26"/><path class="cls-5" d="M672.17,234.32a2,2,0,0,0-2.71-1.14L632.86,250a2.25,2.25,0,0,0-1.07,2.88l2.25,5.52,40.38-18.58Z" transform="translate(-609.93 -119.29)"/><path class="cls-1" d="M639,265.07l36.6-16.84a2.24,2.24,0,0,0,1.07-2.87l-2.25-5.52L634,258.42l2.25,5.51A2,2,0,0,0,639,265.07Z" transform="translate(-609.93 -119.29)"/><polygon class="cls-12" points="44.95 123.24 32.43 129 34.59 134.3 47.11 128.54 44.95 123.24"/><polygon class="cls-13" points="59.83 116.4 47.31 122.16 49.47 127.45 61.99 121.69 59.83 116.4"/><polygon class="cls-14" points="49.27 133.84 47.11 128.54 34.59 134.3 36.75 139.59 49.27 133.84"/><polygon class="cls-15" points="64.15 126.99 61.99 121.69 49.47 127.45 51.63 132.75 64.15 126.99"/><path class="cls-1" d="M636.5,388.16V391c0,3.95,7.61,7.16,17,7.16v-4.63C645.29,393.57,638.41,391.27,636.5,388.16Z" transform="translate(-609.93 -119.29)"/><path class="cls-5" d="M653.49,393.57v-38h-17v32.62C638.41,391.27,645.29,393.57,653.49,393.57Z" transform="translate(-609.93 -119.29)"/><path class="cls-2" d="M670.48,391v-2.88c-1.91,3.11-8.79,5.42-17,5.41v4.63C662.87,398.2,670.48,395,670.48,391Z" transform="translate(-609.93 -119.29)"/><path class="cls-1" d="M670.48,388.16V355.54h-17v38C661.69,393.58,668.57,391.27,670.48,388.16Z" transform="translate(-609.93 -119.29)"/><path class="cls-6" d="M653.49,375.82a54.79,54.79,0,0,1-11.33-1.16v12.27a51.3,51.3,0,0,0,11.33,1.23Z" transform="translate(-609.93 -119.29)"/><path class="cls-7" d="M653.49,375.82v12.34a51.21,51.21,0,0,0,11.32-1.23V374.66A54.62,54.62,0,0,1,653.49,375.82Z" transform="translate(-609.93 -119.29)"/><path class="cls-2" d="M650.19,361.22v6.5a3.31,3.31,0,1,0,6.6,0v-6.5Z" transform="translate(-609.93 -119.29)"/><path class="cls-1" d="M655.44,367.81a2,2,0,1,1-2-2.07A2,2,0,0,1,655.44,367.81Z" transform="translate(-609.93 -119.29)"/><path d="M670.48,355.54c0,3.25-7.61,5.89-17,5.89s-17-2.64-17-5.89,7.61-5.89,17-5.89S670.48,352.29,670.48,355.54Z" transform="translate(-609.93 -119.29)"/><path class="cls-2" d="M667.65,355.54c0,2.71-6.34,4.91-14.16,4.91s-14.16-2.2-14.16-4.91,6.34-4.91,14.16-4.91S667.65,352.83,667.65,355.54Z" transform="translate(-609.93 -119.29)"/><path class="cls-6" d="M642.11,356.21c0,2.38,4.94,4.35,11.38,4.69v-9.39C647.05,351.85,642.11,353.82,642.11,356.21Z" transform="translate(-609.93 -119.29)"/><path class="cls-7" d="M661.69,362.13c.89,12,6.59,12.67,7.12-3.36,0-.45,0-2.17,0-2.56,0-2.62-6-4.75-13.35-4.75-.67,0-1.33,0-2,.05v9.39c.64,0,1.3.05,2,.05C657.65,361,661.55,360.17,661.69,362.13Z" transform="translate(-609.93 -119.29)"/><path d="M652.84,367.33c-10.73,16.08-15,15-16.07,14.26a1.86,1.86,0,0,1-.27-.22v2a3.71,3.71,0,0,0,1.54.32c3.05,0,8.05-3.29,16.1-15.35Z" transform="translate(-609.93 -119.29)"/><path class="cls-2" d="M636.5,365.84V361.5c-3.68,7.8-4.72,18.69-.59,21.51a5.54,5.54,0,0,0,.59.32v-2C634.22,379.31,634.39,372.28,636.5,365.84Z" transform="translate(-609.93 -119.29)"/><path class="cls-2" d="M654.64,367.81a1.16,1.16,0,1,1-1.15-1.22A1.19,1.19,0,0,1,654.64,367.81Z" transform="translate(-609.93 -119.29)"/><path class="cls-16" d="M1008,163.25c0,5.07-3.7,9.18-8.27,9.18s-8.26-4.11-8.26-9.18a11.88,11.88,0,0,1,2-5.83c2.82-4.5,6.31-9.3,6.31-9.3s3.53,5.11,6.3,9.27A11.32,11.32,0,0,1,1008,163.25Z" transform="translate(-609.93 -119.29)"/><path class="cls-3" d="M989.46,179.59c0,5.07-3.7,9.18-8.27,9.18s-8.27-4.11-8.27-9.18a11.88,11.88,0,0,1,2-5.82c2.82-4.5,6.31-9.31,6.31-9.31s3.52,5.12,6.29,9.27A11.28,11.28,0,0,1,989.46,179.59Z" transform="translate(-609.93 -119.29)"/><path d="M1008,195.94c0,5.07-3.7,9.18-8.27,9.18s-8.26-4.11-8.26-9.18a11.92,11.92,0,0,1,2-5.83c2.82-4.49,6.31-9.3,6.31-9.3s3.53,5.11,6.3,9.27A11.32,11.32,0,0,1,1008,195.94Z" transform="translate(-609.93 -119.29)"/><path class="cls-6" d="M1026.58,179.59c0,5.07-3.7,9.18-8.26,9.18s-8.27-4.11-8.27-9.18a11.88,11.88,0,0,1,2-5.82c2.81-4.5,6.31-9.31,6.31-9.31s3.52,5.12,6.29,9.27A11.26,11.26,0,0,1,1026.58,179.59Z" transform="translate(-609.93 -119.29)"/><path class="cls-5" d="M981.19,181.74a2.81,2.81,0,0,0,2.34-1.2l1.25,1.36a4.52,4.52,0,0,1-6.82.43,4.72,4.72,0,0,1-1.31-3.42,4.79,4.79,0,0,1,1.33-3.44,4.35,4.35,0,0,1,3.26-1.38,4.48,4.48,0,0,1,3.59,1.74l-1.21,1.46a2.8,2.8,0,0,0-2.3-1.22,2.59,2.59,0,0,0-1.88.76,2.74,2.74,0,0,0-.78,2.06,2.9,2.9,0,0,0,.74,2.07A2.37,2.37,0,0,0,981.19,181.74Z" transform="translate(-609.93 -119.29)"/><path class="cls-5" d="M1002.36,162.18l-2.35,5.07h-1.17l-2.34-5.07V168h-2v-9.27h2.64l2.24,5.09,2.26-5.09h2.62V168h-1.95Z" transform="translate(-609.93 -119.29)"/><path class="cls-5" d="M1019.29,183.68h-1.94V180l-3-5.61h2.11l1.89,3.45,1.88-3.45h2.11l-3,5.61Z" transform="translate(-609.93 -119.29)"/><path class="cls-5" d="M996.38,190.45h2v3.81l3.3-3.81H1004l-3.47,4.1,1.66,2.47c.8,1.21,1.41,2.11,1.81,2.7h-2.27l-2.57-3.66-.87,1v2.62h-2Z" transform="translate(-609.93 -119.29)"/><path class="cls-2" d="M876.9,152.62c0,13.41-10.23,24.28-22.85,24.27S831.19,166,831.19,152.62s10.24-24.28,22.86-24.28S876.9,139.21,876.9,152.62Z" transform="translate(-609.93 -119.29)"/><path d="M876.72,155.66,864,142.1l-19.47,20.68,13,13.84C867.56,175,875.45,166.42,876.72,155.66Z" transform="translate(-609.93 -119.29)"/><path class="cls-7" d="M854.05,152.62h14a15.5,15.5,0,0,0-1.88-7.44Z" transform="translate(-609.93 -119.29)"/><path class="cls-6" d="M866.18,145.18a14.54,14.54,0,0,0-5.13-5.45l-7,12.89Z" transform="translate(-609.93 -119.29)"/><path class="cls-17" d="M854.05,152.62l-7,12.88a13.34,13.34,0,0,0,7,2Z" transform="translate(-609.93 -119.29)"/><path class="cls-16" d="M854.05,152.62V167.5a13.28,13.28,0,0,0,7-2Z" transform="translate(-609.93 -119.29)"/><path class="cls-12" d="M861.05,165.5a14.51,14.51,0,0,0,5.13-5.44l-12.13-7.44Z" transform="translate(-609.93 -119.29)"/><path class="cls-8" d="M854.05,152.62l-12.13,7.44A14.56,14.56,0,0,0,847,165.5Z" transform="translate(-609.93 -119.29)"/><path class="cls-14" d="M854.05,152.62l12.13,7.44a15.56,15.56,0,0,0,1.88-7.44Z" transform="translate(-609.93 -119.29)"/><path class="cls-11" d="M854.05,152.62l-7-12.89a14.59,14.59,0,0,0-5.12,5.45Z" transform="translate(-609.93 -119.29)"/><path class="cls-18" d="M854.05,152.62l7-12.89a13.18,13.18,0,0,0-7-2Z" transform="translate(-609.93 -119.29)"/><path class="cls-19" d="M854.05,152.62V137.74a13.25,13.25,0,0,0-7,2Z" transform="translate(-609.93 -119.29)"/><path class="cls-4" d="M854.05,152.62H840a15.56,15.56,0,0,0,1.88,7.44Z" transform="translate(-609.93 -119.29)"/><path class="cls-3" d="M841.92,145.18a15.5,15.5,0,0,0-1.88,7.44h14Z" transform="translate(-609.93 -119.29)"/><path class="cls-3" d="M788.49,228.09a13.88,13.88,0,0,1-.33-3,13.58,13.58,0,0,1,4-9.68,12,12,0,0,0-8.5-3.57c-6.89,0-12.47,5.93-12.47,13.25A13.19,13.19,0,0,0,780,237.78a13.76,13.76,0,0,1,1.36-3.66A12.57,12.57,0,0,1,788.49,228.09Z" transform="translate(-609.93 -119.29)"/><path class="cls-16" d="M813.11,225.11c0-7.32-5.59-13.25-12.48-13.25a12,12,0,0,0-8.5,3.57,13.58,13.58,0,0,1,4,9.68,13.28,13.28,0,0,1-.32,3,12,12,0,0,1,2.59,1.19,13.14,13.14,0,0,1,5.9,8.5A13.17,13.17,0,0,0,813.11,225.11Z" transform="translate(-609.93 -119.29)"/><path class="cls-8" d="M788.16,225.11a13.88,13.88,0,0,0,.33,3,11.72,11.72,0,0,1,7.29,0,13.28,13.28,0,0,0,.32-3,13.58,13.58,0,0,0-4-9.68A13.58,13.58,0,0,0,788.16,225.11Z" transform="translate(-609.93 -119.29)"/><path class="cls-6" d="M792.13,234.79a11.89,11.89,0,0,1-12.16,3,13.61,13.61,0,0,0,5.92,14.45,12.1,12.1,0,0,0,17-4.85,13.91,13.91,0,0,0,1.34-9.6,11.56,11.56,0,0,1-3.64.58A12,12,0,0,1,792.13,234.79Z" transform="translate(-609.93 -119.29)"/><path class="cls-18" d="M792.13,234.79a13.39,13.39,0,0,1-3.64-6.7,12.57,12.57,0,0,0-7.16,6,13.76,13.76,0,0,0-1.36,3.66,11.89,11.89,0,0,0,12.16-3Z" transform="translate(-609.93 -119.29)"/><path class="cls-14" d="M798.37,229.28a12,12,0,0,0-2.59-1.19,13.44,13.44,0,0,1-3.65,6.7,12,12,0,0,0,8.5,3.57,11.56,11.56,0,0,0,3.64-.58A13.14,13.14,0,0,0,798.37,229.28Z" transform="translate(-609.93 -119.29)"/><path d="M788.49,228.09a13.39,13.39,0,0,0,3.64,6.7,13.44,13.44,0,0,0,3.65-6.7A11.72,11.72,0,0,0,788.49,228.09Z" transform="translate(-609.93 -119.29)"/><polygon class="cls-2" points="199.63 125.49 197.92 127.31 204.44 134.23 206.15 132.41 199.63 125.49"/><polygon class="cls-1" points="193.46 118.93 191.28 121.25 197.45 127.81 197.92 127.31 199.63 125.49 193.46 118.93"/><polygon class="cls-1" points="204.44 134.23 203.96 134.73 207.8 138.82 209.99 136.49 206.15 132.41 204.44 134.23"/><polygon points="206.15 132.41 207.86 130.59 201.34 123.67 199.63 125.49 206.15 132.41"/><polygon class="cls-2" points="201.34 123.67 201.82 123.17 195.65 116.61 193.46 118.93 199.63 125.49 201.34 123.67"/><polygon class="cls-2" points="208.33 130.09 207.86 130.59 206.15 132.41 209.99 136.49 212.18 134.17 208.33 130.09"/><path class="cls-2" d="M787.8,238.23a12.23,12.23,0,0,1,0-16.56l-1.87-2a15.18,15.18,0,0,0,0,20.53,13.11,13.11,0,0,0,19.33,0l-1.87-2A10.58,10.58,0,0,1,787.8,238.23Z" transform="translate(-609.93 -119.29)"/><path d="M787.8,238.23a10.58,10.58,0,0,0,15.59,0l-.78-.83a9.52,9.52,0,0,1-14,0,11,11,0,0,1,0-14.91l-.77-.82A12.23,12.23,0,0,0,787.8,238.23Z" transform="translate(-609.93 -119.29)"/><path d="M805.26,219.68a13.11,13.11,0,0,0-19.33,0l1.87,2a10.57,10.57,0,0,1,15.59,0,12.24,12.24,0,0,1,0,16.57l1.87,2A15.18,15.18,0,0,0,805.26,219.68Z" transform="translate(-609.93 -119.29)"/><path d="M788.57,222.49a9.52,9.52,0,0,1,14,0,11,11,0,0,1,0,14.91l.77.83a12.24,12.24,0,0,0,0-16.57,10.57,10.57,0,0,0-15.59,0Z" transform="translate(-609.93 -119.29)"/><path class="cls-5" d="M790,234.5c.45-.48-.51-2.18-.51-4.26s1-3.78.51-4.26-2.93,1.12-2.81,4.26a6.57,6.57,0,0,0,1.94,4.19S789.58,234.93,790,234.5Z" transform="translate(-609.93 -119.29)"/><polygon class="cls-5" points="463.73 123.31 429.49 123.31 429.49 74.53 455.83 74.53 463.73 82.92 463.73 123.31"/><rect class="cls-12" x="429.49" y="76.42" width="27.37" height="3"/><polygon class="cls-1" points="455.83 74.53 455.83 82.92 463.73 82.92 455.83 74.53"/><polygon points="437.68 82.78 431.38 82.78 431.38 81.95 437.68 81.95 437.68 82.78"/><rect x="431.38" y="88.78" width="6.3" height="0.84"/><rect x="431.38" y="83.53" width="6.3" height="1.61"/><rect x="431.38" y="89.93" width="6.3" height="1.28"/><rect x="431.38" y="85.65" width="6.3" height="0.58"/><rect x="431.38" y="86.67" width="6.3" height="1.39"/><rect class="cls-4" x="440.81" y="81.95" width="11.76" height="9.25"/><rect class="cls-7" x="454.83" y="88.06" width="7.01" height="3.24"/><rect class="cls-6" x="454.83" y="84.65" width="7.01" height="3.39"/><rect class="cls-1" x="431.38" y="92.9" width="30.45" height="2.8"/><rect class="cls-16" x="431.38" y="97.4" width="10.47" height="7.59"/><rect class="cls-19" x="454.83" y="97.4" width="7.01" height="7.59"/><rect class="cls-6" x="443.8" y="97.4" width="8.77" height="7.59"/><rect class="cls-17" x="454.83" y="104.99" width="7.01" height="6.89"/><rect class="cls-4" x="454.83" y="111.89" width="7.01" height="8.59"/><rect class="cls-14" x="443.8" y="104.99" width="8.77" height="10.49"/><rect class="cls-16" x="443.8" y="115.48" width="8.77" height="4.99"/><rect class="cls-12" x="431.38" y="104.99" width="10.47" height="8.71"/><rect class="cls-6" x="431.38" y="113.71" width="10.47" height="6.77"/><path class="cls-6" d="M1141.2,325.61c0,21.61-16.49,39.14-36.84,39.13s-36.84-17.52-36.84-39.13,16.5-39.13,36.84-39.13S1141.2,304,1141.2,325.61Z" transform="translate(-609.93 -119.29)"/><path class="cls-7" d="M1141.17,326.82l-11.89-12.64-4.67,5-11.31-12-33.85,37,19,20.14a35.6,35.6,0,0,0,6,.51C1124.33,364.75,1140.57,347.87,1141.17,326.82Z" transform="translate(-609.93 -119.29)"/><rect x="472.81" y="187.83" width="30.56" height="16.11"/><polygon class="cls-20" points="469.52 205.72 469.52 224.8 474.65 224.8 474.65 203.95 469.52 205.72"/><polygon class="cls-20" points="506.66 205.72 501.53 203.95 501.53 224.8 506.66 224.8 506.66 205.72"/><rect class="cls-20" x="474.65" y="203.95" width="26.88" height="10.42"/><rect x="474.65" y="214.37" width="26.88" height="10.43"/><rect class="cls-20" x="472.81" y="187.83" width="1.84" height="21.33"/><rect class="cls-20" x="501.53" y="187.83" width="1.84" height="21.33"/><rect class="cls-1" x="472.81" y="191.15" width="30.56" height="1.3"/><rect class="cls-1" x="472.81" y="187.83" width="3.96" height="4.62"/><rect class="cls-1" x="499.41" y="187.83" width="3.96" height="4.62"/><rect class="cls-1" x="478.3" y="194.88" width="19.57" height="4.98"/><rect class="cls-1" x="474.65" y="201.46" width="26.88" height="1.07"/><rect x="475.78" y="206.12" width="4.06" height="1.29"/><rect class="cls-1" x="496.35" y="206.12" width="4.06" height="1.29"/><rect class="cls-20" x="509.47" y="196.66" width="9.87" height="25.65"/><rect x="509.47" y="194.88" width="9.87" height="1.78"/><path d="M1121.57,343.43a.63.63,0,1,1-1.25,0v-1.16a.63.63,0,1,1,1.25,0Z" transform="translate(-609.93 -119.29)"/><path d="M1122.83,343.43a.63.63,0,1,1-1.26,0v-1.16a.63.63,0,1,1,1.26,0Z" transform="translate(-609.93 -119.29)"/><path d="M1127.11,343.43a.64.64,0,0,1-.63.66.63.63,0,0,1-.62-.66v-1.16a.63.63,0,0,1,.62-.66.64.64,0,0,1,.63.66Z" transform="translate(-609.93 -119.29)"/><path d="M1128.36,343.43a.63.63,0,1,1-1.25,0v-1.16a.64.64,0,0,1,.62-.66.65.65,0,0,1,.63.66Z" transform="translate(-609.93 -119.29)"/><rect class="cls-3" x="480.48" y="209.16" width="15.22" height="0.86"/><polygon class="cls-6" points="495.7 211.1 480.48 211.1 480.48 210.25 495.7 210.25 495.7 211.1"/><polygon class="cls-16" points="495.7 212.19 480.48 212.19 480.48 211.34 495.7 211.34 495.7 212.19"/><polygon points="495.7 213.28 480.48 213.28 480.48 212.43 495.7 212.43 495.7 213.28"/><rect class="cls-3" x="510.87" y="200.41" width="4.05" height="1.46"/><rect class="cls-6" x="510.87" y="202.28" width="4.05" height="1.46"/><rect class="cls-16" x="510.87" y="204.15" width="4.05" height="1.47"/><rect x="510.87" y="206.01" width="4.05" height="1.46"/><path class="cls-2" d="M925.34,250.16h-24V217.5h24v-3H901.59a3.22,3.22,0,0,0-3.12,3.31v32a3.22,3.22,0,0,0,3.12,3.31h23.75Z" transform="translate(-609.93 -119.29)"/><rect class="cls-4" x="291.38" y="98.21" width="24.03" height="32.66"/><polygon class="cls-5" points="315.41 133.85 304.64 133.85 304.64 137.1 313.07 137.1 315.41 137.1 315.41 133.85"/><rect class="cls-2" x="313.08" y="137.1" width="2.34" height="2.01"/><polygon class="cls-5" points="313.08 139.12 297.63 139.12 297.63 142.63 315.41 142.63 315.41 139.12 313.08 139.12"/><path d="M949.37,217.5v32.66h-24v3H949.1a3.22,3.22,0,0,0,3.12-3.31v-32a3.22,3.22,0,0,0-3.12-3.31H925.34v3Z" transform="translate(-609.93 -119.29)"/><rect class="cls-8" x="315.41" y="98.21" width="24.03" height="32.66"/><polygon class="cls-1" points="315.41 137.1 317.75 137.1 326.19 137.1 326.19 133.85 315.41 133.85 315.41 137.1"/><rect x="315.41" y="137.1" width="2.34" height="2.01"/><polygon class="cls-1" points="333.2 139.12 317.75 139.12 315.41 139.12 315.41 142.63 333.2 142.63 333.2 139.12"/><path class="cls-5" d="M925.34,250.82a.79.79,0,0,0,0,1.57Z" transform="translate(-609.93 -119.29)"/><path class="cls-1" d="M926.08,251.61a.76.76,0,0,0-.74-.79v1.57A.76.76,0,0,0,926.08,251.61Z" transform="translate(-609.93 -119.29)"/><rect class="cls-5" x="297.33" y="101.55" width="18.09" height="2.52"/><rect class="cls-1" x="315.41" y="101.55" width="18.09" height="2.52"/><rect class="cls-1" x="297.33" y="104.07" width="18.09" height="1.36"/><rect class="cls-2" x="315.41" y="104.07" width="18.09" height="1.36"/><rect class="cls-5" x="297.33" y="105.43" width="18.09" height="4.82"/><rect class="cls-1" x="315.41" y="105.43" width="18.09" height="4.82"/><rect class="cls-1" x="297.33" y="110.24" width="18.09" height="1.46"/><rect class="cls-2" x="315.41" y="110.24" width="18.09" height="1.46"/><rect class="cls-5" x="297.33" y="111.71" width="18.09" height="15.82"/><rect class="cls-1" x="315.41" y="111.71" width="18.09" height="15.82"/><rect class="cls-1" x="298.95" y="106.37" width="6.09" height="2.93"/><rect class="cls-1" x="307.9" y="106.37" width="6.09" height="2.93"/><rect class="cls-5" x="316.84" y="106.37" width="6.09" height="2.93"/><rect class="cls-2" x="325.79" y="106.37" width="6.09" height="2.93"/><rect class="cls-1" x="298.95" y="112.73" width="6.09" height="12.8"/><rect class="cls-18" x="307.9" y="112.73" width="6.09" height="2.93"/><rect class="cls-16" x="316.84" y="112.73" width="6.09" height="2.93"/><rect class="cls-7" x="325.79" y="112.73" width="6.09" height="2.93"/><rect class="cls-17" x="307.9" y="117.67" width="6.09" height="2.93"/><rect class="cls-11" x="316.84" y="117.67" width="6.09" height="2.93"/><rect class="cls-19" x="325.79" y="117.67" width="6.09" height="2.93"/><rect class="cls-6" x="307.9" y="122.6" width="6.09" height="2.93"/><rect class="cls-8" x="316.84" y="122.6" width="6.09" height="2.93"/><rect class="cls-14" x="325.79" y="122.6" width="6.09" height="2.93"/><path class="cls-4" d="M805.18,150.38c0,17.17-13.11,31.09-29.27,31.09s-29.26-13.92-29.26-31.09,13.1-31.09,29.26-31.09S805.18,133.21,805.18,150.38Z" transform="translate(-609.93 -119.29)"/><path class="cls-8" d="M805.18,150.38c0-.58,0-1.15,0-1.72l-7.34-7.79-12.45,1.72-7,8.65-11.85-12.59-8.31,8.82,12.5,13.28-5.8,7.2,12.68,13.46C793,180.49,805.18,167,805.18,150.38Z" transform="translate(-609.93 -119.29)"/><polygon class="cls-14" points="183.68 28.18 177.59 24.37 178.82 15.02 187.86 21.57 183.68 28.18"/><polygon class="cls-12" points="144.1 21.57 148.28 28.18 154.38 24.37 153.15 15.02 144.1 21.57"/><path class="cls-1" d="M781.28,133.05a5.86,5.86,0,0,1,.13,1.26,5.68,5.68,0,0,1-5.5,5.85V168h11l-1-10.84,2.82-22.8Z" transform="translate(-609.93 -119.29)"/><path class="cls-7" d="M785.05,151.55a4,4,0,1,1-4-4.21A4.1,4.1,0,0,1,785.05,151.55Z" transform="translate(-609.93 -119.29)"/><path class="cls-5" d="M770.41,134.31a6.57,6.57,0,0,1,.13-1.26l-7.46,1.26,1.23,9.35,1.62,13.45-1,10.84h11V140.16A5.68,5.68,0,0,1,770.41,134.31Z" transform="translate(-609.93 -119.29)"/><path class="cls-4" d="M763.08,134.31l1.23,9.35Z" transform="translate(-609.93 -119.29)"/><path class="cls-1" d="M775.91,134.28c-1.87,0-3.46-.61-4-1.45a4.78,4.78,0,0,0-.24,1.48,4.23,4.23,0,1,0,8.44,0,4.5,4.5,0,0,0-.24-1.48C779.38,133.67,777.79,134.28,775.91,134.28Z" transform="translate(-609.93 -119.29)"/><path class="cls-12" d="M771.69,134.31a4.78,4.78,0,0,1,.24-1.48s-1.39.22-1.39.22a6.57,6.57,0,0,0-.13,1.26,5.68,5.68,0,0,0,5.5,5.85V138.8A4.36,4.36,0,0,1,771.69,134.31Z" transform="translate(-609.93 -119.29)"/><path class="cls-14" d="M781.28,133.05l-1.38-.23a4.89,4.89,0,0,1,.23,1.49,4.36,4.36,0,0,1-4.22,4.49v1.36a5.68,5.68,0,0,0,5.5-5.85A5.86,5.86,0,0,0,781.28,133.05Z" transform="translate(-609.93 -119.29)"/><path class="cls-1" d="M781.55,153.78h-.93V152l-1.46-2.71h1l.91,1.67.9-1.67h1L781.55,152Z" transform="translate(-609.93 -119.29)"/><path class="cls-11" d="M772,157a4.09,4.09,0,0,0,4,4.21v-8.42A4.09,4.09,0,0,0,772,157Z" transform="translate(-609.93 -119.29)"/><path class="cls-8" d="M779.88,157a4.1,4.1,0,0,0-4-4.21v8.42A4.09,4.09,0,0,0,779.88,157Z" transform="translate(-609.93 -119.29)"/><path class="cls-12" d="M772,146.05a4.09,4.09,0,0,0,4,4.21v-8.42A4.09,4.09,0,0,0,772,146.05Z" transform="translate(-609.93 -119.29)"/><path class="cls-14" d="M779.88,146.05a4.1,4.1,0,0,0-4-4.21v8.42A4.09,4.09,0,0,0,779.88,146.05Z" transform="translate(-609.93 -119.29)"/><path d="M774.71,151.55a4,4,0,1,1-4-4.21A4.1,4.1,0,0,1,774.71,151.55Z" transform="translate(-609.93 -119.29)"/><polygon class="cls-5" points="164.9 24.52 163.63 24.52 163.63 28.99 164.57 28.99 164.57 26.18 165.7 28.62 165.98 28.62 165.98 26.98 164.9 24.52"/><polygon class="cls-1" points="167.4 26.18 167.4 28.99 168.34 28.99 168.34 24.52 167.07 24.52 165.98 26.98 165.98 28.62 166.26 28.62 167.4 26.18"/><path class="cls-5" d="M770.91,151.21l1.67-2h-1.16l-.68.79-.9,1v-1.83h-.94v4.47h.94v-1.27l.41-.5.49.7.75,1.07h1.09l-.87-1.31C771.32,151.82,771.05,151.43,770.91,151.21Z" transform="translate(-609.93 -119.29)"/><path class="cls-5" d="M775.26,158a1.42,1.42,0,0,1-.35-1,1.34,1.34,0,0,1,.38-1,1.23,1.23,0,0,1,.62-.34v-1a2,2,0,0,0-1.33.64,2.31,2.31,0,0,0-.64,1.66,2.26,2.26,0,0,0,.63,1.64,2,2,0,0,0,1.34.63v-.93A1.15,1.15,0,0,1,775.26,158Z" transform="translate(-609.93 -119.29)"/><path class="cls-1" d="M777.86,158.5l-.6-.66a1.36,1.36,0,0,1-1.13.58l-.22,0v.93l.26,0A2.14,2.14,0,0,0,777.86,158.5Z" transform="translate(-609.93 -119.29)"/><path class="cls-1" d="M776.19,155.69a1.35,1.35,0,0,1,1.11.58l.58-.7a2.15,2.15,0,0,0-1.73-.84l-.24,0v1Z" transform="translate(-609.93 -119.29)"/><g class="cls-21"><path class="cls-5" d="M782.76,198a1.59,1.59,0,1,1,1.59,1.68A1.64,1.64,0,0,1,782.76,198Z" transform="translate(-609.93 -119.29)"/><path class="cls-5" d="M777.39,198A1.58,1.58,0,1,1,779,199.7,1.63,1.63,0,0,1,777.39,198Z" transform="translate(-609.93 -119.29)"/><path class="cls-5" d="M772,198a1.58,1.58,0,1,1,1.58,1.68A1.64,1.64,0,0,1,772,198Z" transform="translate(-609.93 -119.29)"/><path class="cls-5" d="M766.63,198a1.59,1.59,0,1,1,1.59,1.68A1.64,1.64,0,0,1,766.63,198Z" transform="translate(-609.93 -119.29)"/><path class="cls-5" d="M761.26,198a1.58,1.58,0,1,1,1.58,1.68A1.64,1.64,0,0,1,761.26,198Z" transform="translate(-609.93 -119.29)"/><path class="cls-5" d="M755.88,198a1.58,1.58,0,1,1,1.58,1.68A1.64,1.64,0,0,1,755.88,198Z" transform="translate(-609.93 -119.29)"/><path class="cls-5" d="M750.5,198a1.59,1.59,0,1,1,1.58,1.68A1.64,1.64,0,0,1,750.5,198Z" transform="translate(-609.93 -119.29)"/><path class="cls-5" d="M745.13,198a1.58,1.58,0,1,1,1.58,1.68A1.63,1.63,0,0,1,745.13,198Z" transform="translate(-609.93 -119.29)"/><path class="cls-5" d="M739.75,198a1.58,1.58,0,1,1,1.58,1.68A1.64,1.64,0,0,1,739.75,198Z" transform="translate(-609.93 -119.29)"/><path class="cls-5" d="M734.38,198A1.58,1.58,0,1,1,736,199.7,1.63,1.63,0,0,1,734.38,198Z" transform="translate(-609.93 -119.29)"/><path class="cls-5" d="M729,198a1.58,1.58,0,1,1,1.58,1.68A1.64,1.64,0,0,1,729,198Z" transform="translate(-609.93 -119.29)"/><path class="cls-5" d="M723.62,198a1.58,1.58,0,1,1,1.59,1.68A1.64,1.64,0,0,1,723.62,198Z" transform="translate(-609.93 -119.29)"/><path class="cls-5" d="M718.24,198a1.59,1.59,0,1,1,1.59,1.68A1.64,1.64,0,0,1,718.24,198Z" transform="translate(-609.93 -119.29)"/><path class="cls-5" d="M712.89,198.45a1.63,1.63,0,0,1,1.38-1.91,1.56,1.56,0,0,1,1.76,1.52,1.7,1.7,0,0,1-1.39,1.81A1.65,1.65,0,0,1,712.89,198.45Z" transform="translate(-609.93 -119.29)"/><path class="cls-5" d="M707.75,200.09a1.68,1.68,0,0,1,1-2.19,1.54,1.54,0,0,1,2,1.08,1.77,1.77,0,0,1-1,2.09A1.61,1.61,0,0,1,707.75,200.09Z" transform="translate(-609.93 -119.29)"/><path class="cls-5" d="M703.08,202.89a1.7,1.7,0,0,1,.48-2.36,1.49,1.49,0,0,1,2.2.58,1.8,1.8,0,0,1-.53,2.26A1.56,1.56,0,0,1,703.08,202.89Z" transform="translate(-609.93 -119.29)"/><path class="cls-5" d="M699.09,206.7a1.7,1.7,0,0,1,0-2.41,1.47,1.47,0,0,1,2.26.06,1.8,1.8,0,0,1-.05,2.33A1.57,1.57,0,0,1,699.09,206.7Z" transform="translate(-609.93 -119.29)"/><path class="cls-5" d="M696,211.34a1.69,1.69,0,0,1-.51-2.35,1.49,1.49,0,0,1,2.22-.47,1.8,1.8,0,0,1,.43,2.29A1.56,1.56,0,0,1,696,211.34Z" transform="translate(-609.93 -119.29)"/><path class="cls-5" d="M693.9,216.6a1.68,1.68,0,0,1-1-2.18,1.52,1.52,0,0,1,2.08-1,1.75,1.75,0,0,1,.88,2.13A1.59,1.59,0,0,1,693.9,216.6Z" transform="translate(-609.93 -119.29)"/><path class="cls-5" d="M693,222.21a1.62,1.62,0,0,1-1.41-1.89,1.56,1.56,0,0,1,1.82-1.44,1.72,1.72,0,0,1,1.31,1.87A1.66,1.66,0,0,1,693,222.21Z" transform="translate(-609.93 -119.29)"/><path class="cls-5" d="M692.89,227.92a1.68,1.68,0,1,1,1.58-1.68A1.63,1.63,0,0,1,692.89,227.92Z" transform="translate(-609.93 -119.29)"/><path class="cls-5" d="M692.89,233.63a1.68,1.68,0,1,1,1.58-1.68A1.62,1.62,0,0,1,692.89,233.63Z" transform="translate(-609.93 -119.29)"/><path class="cls-5" d="M692.89,239.34a1.68,1.68,0,1,1,1.58-1.68A1.62,1.62,0,0,1,692.89,239.34Z" transform="translate(-609.93 -119.29)"/><path class="cls-5" d="M692.89,245.05a1.68,1.68,0,1,1,1.58-1.68A1.62,1.62,0,0,1,692.89,245.05Z" transform="translate(-609.93 -119.29)"/><path class="cls-5" d="M692.89,250.76a1.68,1.68,0,1,1,1.58-1.68A1.62,1.62,0,0,1,692.89,250.76Z" transform="translate(-609.93 -119.29)"/><path class="cls-5" d="M692.89,256.48a1.68,1.68,0,1,1,1.58-1.69A1.63,1.63,0,0,1,692.89,256.48Z" transform="translate(-609.93 -119.29)"/><path class="cls-5" d="M692.89,262.19a1.68,1.68,0,1,1,1.58-1.68A1.63,1.63,0,0,1,692.89,262.19Z" transform="translate(-609.93 -119.29)"/><path class="cls-5" d="M692.89,267.9a1.68,1.68,0,1,1,1.58-1.68A1.62,1.62,0,0,1,692.89,267.9Z" transform="translate(-609.93 -119.29)"/><path class="cls-5" d="M692.89,273.61a1.68,1.68,0,1,1,1.58-1.68A1.62,1.62,0,0,1,692.89,273.61Z" transform="translate(-609.93 -119.29)"/><path class="cls-5" d="M692.89,279.32a1.68,1.68,0,1,1,1.58-1.68A1.62,1.62,0,0,1,692.89,279.32Z" transform="translate(-609.93 -119.29)"/><path class="cls-5" d="M692.89,285a1.68,1.68,0,1,1,1.58-1.68A1.62,1.62,0,0,1,692.89,285Z" transform="translate(-609.93 -119.29)"/><path class="cls-5" d="M690.72,290.74a1.68,1.68,0,1,1,1.58-1.67A1.63,1.63,0,0,1,690.72,290.74Z" transform="translate(-609.93 -119.29)"/><path class="cls-5" d="M686,294a1.69,1.69,0,1,1,1.58-1.69A1.63,1.63,0,0,1,686,294Z" transform="translate(-609.93 -119.29)"/><path class="cls-5" d="M680.64,295.65a1.69,1.69,0,1,1,1.58-1.68A1.63,1.63,0,0,1,680.64,295.65Z" transform="translate(-609.93 -119.29)"/><path class="cls-5" d="M674.84,296a1.68,1.68,0,1,1,1.57-1.68A1.63,1.63,0,0,1,674.84,296Z" transform="translate(-609.93 -119.29)"/><path class="cls-5" d="M791.27,198a1.58,1.58,0,1,1-1.58-1.68A1.63,1.63,0,0,1,791.27,198Z" transform="translate(-609.93 -119.29)"/><path class="cls-5" d="M796.63,198a1.58,1.58,0,1,1-1.57-1.68A1.62,1.62,0,0,1,796.63,198Z" transform="translate(-609.93 -119.29)"/><path class="cls-5" d="M802,198a1.58,1.58,0,1,1-1.58-1.68A1.63,1.63,0,0,1,802,198Z" transform="translate(-609.93 -119.29)"/><path class="cls-5" d="M807.36,198a1.58,1.58,0,1,1-1.57-1.68A1.63,1.63,0,0,1,807.36,198Z" transform="translate(-609.93 -119.29)"/><path class="cls-5" d="M812.72,198a1.58,1.58,0,1,1-1.58-1.68A1.63,1.63,0,0,1,812.72,198Z" transform="translate(-609.93 -119.29)"/><path class="cls-5" d="M818.09,198a1.58,1.58,0,1,1-1.58-1.68A1.63,1.63,0,0,1,818.09,198Z" transform="translate(-609.93 -119.29)"/><path class="cls-5" d="M823.45,198a1.58,1.58,0,1,1-1.58-1.68A1.63,1.63,0,0,1,823.45,198Z" transform="translate(-609.93 -119.29)"/><path class="cls-5" d="M828.81,198a1.58,1.58,0,1,1-1.58-1.68A1.63,1.63,0,0,1,828.81,198Z" transform="translate(-609.93 -119.29)"/><path class="cls-5" d="M834.18,198a1.58,1.58,0,1,1-1.58-1.68A1.63,1.63,0,0,1,834.18,198Z" transform="translate(-609.93 -119.29)"/><path class="cls-5" d="M839.54,198a1.58,1.58,0,1,1-1.58-1.68A1.63,1.63,0,0,1,839.54,198Z" transform="translate(-609.93 -119.29)"/><path class="cls-5" d="M844.9,198a1.58,1.58,0,1,1-1.58-1.68A1.63,1.63,0,0,1,844.9,198Z" transform="translate(-609.93 -119.29)"/><path class="cls-5" d="M850.26,198a1.58,1.58,0,1,1-1.57-1.68A1.62,1.62,0,0,1,850.26,198Z" transform="translate(-609.93 -119.29)"/><path class="cls-5" d="M855.63,198a1.58,1.58,0,1,1-1.58-1.68A1.63,1.63,0,0,1,855.63,198Z" transform="translate(-609.93 -119.29)"/><path class="cls-5" d="M861,198a1.58,1.58,0,1,1-1.58-1.68A1.63,1.63,0,0,1,861,198Z" transform="translate(-609.93 -119.29)"/><path class="cls-5" d="M866.35,198a1.58,1.58,0,1,1-1.58-1.68A1.63,1.63,0,0,1,866.35,198Z" transform="translate(-609.93 -119.29)"/><path class="cls-5" d="M871.72,198a1.58,1.58,0,1,1-1.58-1.68A1.63,1.63,0,0,1,871.72,198Z" transform="translate(-609.93 -119.29)"/><path class="cls-5" d="M877.08,198a1.58,1.58,0,1,1-1.58-1.68A1.63,1.63,0,0,1,877.08,198Z" transform="translate(-609.93 -119.29)"/><path class="cls-5" d="M882.44,198a1.58,1.58,0,1,1-1.58-1.68A1.63,1.63,0,0,1,882.44,198Z" transform="translate(-609.93 -119.29)"/><path class="cls-5" d="M887.81,198a1.58,1.58,0,1,1-1.58-1.68A1.63,1.63,0,0,1,887.81,198Z" transform="translate(-609.93 -119.29)"/><path class="cls-5" d="M893.17,198a1.58,1.58,0,1,1-1.58-1.68A1.63,1.63,0,0,1,893.17,198Z" transform="translate(-609.93 -119.29)"/><path class="cls-5" d="M898.53,198a1.58,1.58,0,1,1-1.58-1.68A1.63,1.63,0,0,1,898.53,198Z" transform="translate(-609.93 -119.29)"/><path class="cls-5" d="M903.89,198a1.58,1.58,0,1,1-1.57-1.68A1.62,1.62,0,0,1,903.89,198Z" transform="translate(-609.93 -119.29)"/><path class="cls-5" d="M909.25,198a1.58,1.58,0,1,1-1.57-1.68A1.62,1.62,0,0,1,909.25,198Z" transform="translate(-609.93 -119.29)"/><path class="cls-5" d="M914.62,198a1.58,1.58,0,1,1-1.58-1.68A1.63,1.63,0,0,1,914.62,198Z" transform="translate(-609.93 -119.29)"/><path class="cls-5" d="M920,198a1.58,1.58,0,1,1-1.58-1.68A1.63,1.63,0,0,1,920,198Z" transform="translate(-609.93 -119.29)"/><path class="cls-5" d="M925.34,198a1.58,1.58,0,1,1-1.57-1.68A1.62,1.62,0,0,1,925.34,198Z" transform="translate(-609.93 -119.29)"/><path class="cls-5" d="M930.71,198a1.58,1.58,0,1,1-1.58-1.68A1.63,1.63,0,0,1,930.71,198Z" transform="translate(-609.93 -119.29)"/><path class="cls-5" d="M936.07,198a1.58,1.58,0,1,1-1.57-1.68A1.62,1.62,0,0,1,936.07,198Z" transform="translate(-609.93 -119.29)"/><path class="cls-5" d="M941.43,198a1.58,1.58,0,1,1-1.57-1.68A1.62,1.62,0,0,1,941.43,198Z" transform="translate(-609.93 -119.29)"/><path class="cls-5" d="M1002.91,255.92a1.58,1.58,0,1,1-1.58-1.68A1.63,1.63,0,0,1,1002.91,255.92Z" transform="translate(-609.93 -119.29)"/><path class="cls-5" d="M1008.27,255.92a1.58,1.58,0,1,1-1.58-1.68A1.62,1.62,0,0,1,1008.27,255.92Z" transform="translate(-609.93 -119.29)"/><path class="cls-5" d="M1013.64,255.92a1.58,1.58,0,1,1-1.58-1.68A1.63,1.63,0,0,1,1013.64,255.92Z" transform="translate(-609.93 -119.29)"/><path class="cls-5" d="M1019,255.92a1.58,1.58,0,1,1-1.58-1.68A1.63,1.63,0,0,1,1019,255.92Z" transform="translate(-609.93 -119.29)"/><path class="cls-5" d="M1024.36,255.92a1.58,1.58,0,1,1-1.58-1.68A1.62,1.62,0,0,1,1024.36,255.92Z" transform="translate(-609.93 -119.29)"/><path class="cls-5" d="M1029.72,255.92a1.58,1.58,0,1,1-1.57-1.68A1.63,1.63,0,0,1,1029.72,255.92Z" transform="translate(-609.93 -119.29)"/><path class="cls-5" d="M1035.08,255.92a1.58,1.58,0,1,1-1.57-1.68A1.62,1.62,0,0,1,1035.08,255.92Z" transform="translate(-609.93 -119.29)"/><path class="cls-5" d="M1040.45,255.92a1.58,1.58,0,1,1-1.58-1.68A1.63,1.63,0,0,1,1040.45,255.92Z" transform="translate(-609.93 -119.29)"/><path class="cls-5" d="M1045.81,255.92a1.58,1.58,0,1,1-1.58-1.68A1.63,1.63,0,0,1,1045.81,255.92Z" transform="translate(-609.93 -119.29)"/><path class="cls-5" d="M1051.17,255.92a1.58,1.58,0,1,1-1.57-1.68A1.62,1.62,0,0,1,1051.17,255.92Z" transform="translate(-609.93 -119.29)"/><path class="cls-5" d="M1056.54,255.92a1.58,1.58,0,1,1-1.58-1.68A1.63,1.63,0,0,1,1056.54,255.92Z" transform="translate(-609.93 -119.29)"/><path class="cls-5" d="M1061.9,255.92a1.58,1.58,0,1,1-1.58-1.68A1.62,1.62,0,0,1,1061.9,255.92Z" transform="translate(-609.93 -119.29)"/><path class="cls-5" d="M1067.26,255.92a1.58,1.58,0,1,1-1.57-1.68A1.62,1.62,0,0,1,1067.26,255.92Z" transform="translate(-609.93 -119.29)"/><path class="cls-5" d="M1072.63,255.92a1.58,1.58,0,1,1-1.58-1.68A1.63,1.63,0,0,1,1072.63,255.92Z" transform="translate(-609.93 -119.29)"/><path class="cls-5" d="M1078,255.92a1.58,1.58,0,1,1-1.57-1.68A1.62,1.62,0,0,1,1078,255.92Z" transform="translate(-609.93 -119.29)"/><path class="cls-5" d="M946.8,198a1.58,1.58,0,1,1-1.58-1.68A1.63,1.63,0,0,1,946.8,198Z" transform="translate(-609.93 -119.29)"/><path class="cls-5" d="M952.16,198a1.58,1.58,0,1,1-1.57-1.68A1.62,1.62,0,0,1,952.16,198Z" transform="translate(-609.93 -119.29)"/><path class="cls-5" d="M957.53,198a1.58,1.58,0,1,1-1.58-1.68A1.63,1.63,0,0,1,957.53,198Z" transform="translate(-609.93 -119.29)"/><path class="cls-5" d="M962.89,198a1.58,1.58,0,1,1-1.58-1.68A1.63,1.63,0,0,1,962.89,198Z" transform="translate(-609.93 -119.29)"/><path class="cls-5" d="M968.25,198a1.58,1.58,0,1,1-1.58-1.68A1.63,1.63,0,0,1,968.25,198Z" transform="translate(-609.93 -119.29)"/><path class="cls-5" d="M973.56,198.67a1.67,1.67,0,0,1-1.82,1.28,1.76,1.76,0,0,1-1.28-1.87,1.53,1.53,0,0,1,1.84-1.43A1.61,1.61,0,0,1,973.56,198.67Z" transform="translate(-609.93 -119.29)"/><path class="cls-5" d="M978.37,201.13a1.59,1.59,0,0,1-2.11.55,1.81,1.81,0,0,1-.63-2.21,1.49,1.49,0,0,1,2.19-.7A1.68,1.68,0,0,1,978.37,201.13Z" transform="translate(-609.93 -119.29)"/><path class="cls-5" d="M982.15,205.13a1.6,1.6,0,0,1-2.17-.21,1.84,1.84,0,0,1,.1-2.31,1.46,1.46,0,0,1,2.28.1A1.68,1.68,0,0,1,982.15,205.13Z" transform="translate(-609.93 -119.29)"/><path class="cls-5" d="M984.47,210.24a1.64,1.64,0,0,1-2-1,1.8,1.8,0,0,1,.81-2.14,1.49,1.49,0,0,1,2.12.9A1.64,1.64,0,0,1,984.47,210.24Z" transform="translate(-609.93 -119.29)"/><path class="cls-5" d="M985.1,215.87a1.67,1.67,0,0,1-1.6-1.6,1.72,1.72,0,0,1,1.43-1.74,1.56,1.56,0,0,1,1.73,1.59A1.61,1.61,0,0,1,985.1,215.87Z" transform="translate(-609.93 -119.29)"/><path class="cls-5" d="M985.1,221.57a1.68,1.68,0,1,1,1.58-1.68A1.63,1.63,0,0,1,985.1,221.57Z" transform="translate(-609.93 -119.29)"/><path class="cls-5" d="M985.1,227.26a1.68,1.68,0,1,1,1.58-1.67A1.63,1.63,0,0,1,985.1,227.26Z" transform="translate(-609.93 -119.29)"/><path class="cls-5" d="M986,244.61a1.52,1.52,0,0,1-2-1.22,1.61,1.61,0,0,1,1.24-2,1.65,1.65,0,0,1,1.83,1.25A1.78,1.78,0,0,1,986,244.61Z" transform="translate(-609.93 -119.29)"/><path class="cls-5" d="M988.61,249.58a1.46,1.46,0,0,1-2.24-.45,1.67,1.67,0,0,1,.52-2.37,1.61,1.61,0,0,1,2.12.54A1.83,1.83,0,0,1,988.61,249.58Z" transform="translate(-609.93 -119.29)"/><path class="cls-5" d="M992.62,253.36a1.48,1.48,0,0,1-2.27.36,1.68,1.68,0,0,1-.23-2.41,1.57,1.57,0,0,1,2.16-.24A1.85,1.85,0,0,1,992.62,253.36Z" transform="translate(-609.93 -119.29)"/><path class="cls-5" d="M997.57,255.51a1.51,1.51,0,0,1-2,1.14,1.67,1.67,0,0,1,1-3.18A1.78,1.78,0,0,1,997.57,255.51Z" transform="translate(-609.93 -119.29)"/><path class="cls-5" d="M985.12,233a1.68,1.68,0,1,1,1.57-1.67A1.62,1.62,0,0,1,985.12,233Z" transform="translate(-609.93 -119.29)"/><path class="cls-5" d="M985.12,238.67a1.68,1.68,0,1,1,1.57-1.68A1.63,1.63,0,0,1,985.12,238.67Z" transform="translate(-609.93 -119.29)"/></g><g class="cls-21"><path class="cls-5" d="M788.88,434.73a1.58,1.58,0,1,0,1.58-1.68A1.63,1.63,0,0,0,788.88,434.73Z" transform="translate(-609.93 -119.29)"/><path class="cls-5" d="M783.5,434.73a1.58,1.58,0,1,0,1.58-1.68A1.63,1.63,0,0,0,783.5,434.73Z" transform="translate(-609.93 -119.29)"/><path class="cls-5" d="M778.13,434.73a1.58,1.58,0,1,0,1.58-1.68A1.63,1.63,0,0,0,778.13,434.73Z" transform="translate(-609.93 -119.29)"/><path class="cls-5" d="M772.75,434.73a1.58,1.58,0,1,0,1.58-1.68A1.63,1.63,0,0,0,772.75,434.73Z" transform="translate(-609.93 -119.29)"/><path class="cls-5" d="M767.37,434.73a1.58,1.58,0,1,0,1.58-1.68A1.63,1.63,0,0,0,767.37,434.73Z" transform="translate(-609.93 -119.29)"/><path class="cls-5" d="M762,434.73a1.58,1.58,0,1,0,1.58-1.68A1.63,1.63,0,0,0,762,434.73Z" transform="translate(-609.93 -119.29)"/><path class="cls-5" d="M756.62,434.73a1.58,1.58,0,1,0,1.58-1.68A1.63,1.63,0,0,0,756.62,434.73Z" transform="translate(-609.93 -119.29)"/><path class="cls-5" d="M751.24,434.73a1.59,1.59,0,1,0,1.58-1.68A1.63,1.63,0,0,0,751.24,434.73Z" transform="translate(-609.93 -119.29)"/><path class="cls-5" d="M745.86,434.73a1.59,1.59,0,1,0,1.59-1.68A1.63,1.63,0,0,0,745.86,434.73Z" transform="translate(-609.93 -119.29)"/><path class="cls-5" d="M740.49,434.73a1.58,1.58,0,1,0,1.58-1.68A1.63,1.63,0,0,0,740.49,434.73Z" transform="translate(-609.93 -119.29)"/><path class="cls-5" d="M735.11,434.73a1.59,1.59,0,1,0,1.58-1.68A1.63,1.63,0,0,0,735.11,434.73Z" transform="translate(-609.93 -119.29)"/><path class="cls-5" d="M729.74,434.73a1.58,1.58,0,1,0,1.58-1.68A1.63,1.63,0,0,0,729.74,434.73Z" transform="translate(-609.93 -119.29)"/><path class="cls-5" d="M724.36,434.73a1.58,1.58,0,1,0,1.58-1.68A1.63,1.63,0,0,0,724.36,434.73Z" transform="translate(-609.93 -119.29)"/><path class="cls-5" d="M719,434.3a1.61,1.61,0,0,0,1.38,1.91,1.56,1.56,0,0,0,1.75-1.51,1.7,1.7,0,0,0-1.38-1.82A1.65,1.65,0,0,0,719,434.3Z" transform="translate(-609.93 -119.29)"/><path class="cls-5" d="M713.87,432.66a1.67,1.67,0,0,0,1,2.19,1.53,1.53,0,0,0,2-1.08,1.76,1.76,0,0,0-1-2.09A1.61,1.61,0,0,0,713.87,432.66Z" transform="translate(-609.93 -119.29)"/><path class="cls-5" d="M709.19,429.86a1.71,1.71,0,0,0,.48,2.36,1.49,1.49,0,0,0,2.2-.58,1.77,1.77,0,0,0-.53-2.26A1.56,1.56,0,0,0,709.19,429.86Z" transform="translate(-609.93 -119.29)"/><path class="cls-5" d="M705.2,426.05a1.7,1.7,0,0,0,0,2.41,1.48,1.48,0,0,0,2.27-.06,1.8,1.8,0,0,0-.06-2.33A1.57,1.57,0,0,0,705.2,426.05Z" transform="translate(-609.93 -119.29)"/><path class="cls-5" d="M702.09,421.41a1.69,1.69,0,0,0-.51,2.35,1.49,1.49,0,0,0,2.23.47,1.8,1.8,0,0,0,.43-2.29A1.57,1.57,0,0,0,702.09,421.41Z" transform="translate(-609.93 -119.29)"/><path class="cls-5" d="M700,416.15a1.67,1.67,0,0,0-1,2.18,1.53,1.53,0,0,0,2.08,1,1.78,1.78,0,0,0,.88-2.14A1.6,1.6,0,0,0,700,416.15Z" transform="translate(-609.93 -119.29)"/><path class="cls-5" d="M699.07,410.54a1.61,1.61,0,0,0-1.4,1.89,1.54,1.54,0,0,0,1.81,1.44,1.71,1.71,0,0,0,1.31-1.87A1.66,1.66,0,0,0,699.07,410.54Z" transform="translate(-609.93 -119.29)"/><path class="cls-5" d="M699,404.83a1.68,1.68,0,1,0,1.58,1.68A1.64,1.64,0,0,0,699,404.83Z" transform="translate(-609.93 -119.29)"/><path class="cls-5" d="M699,399.12a1.68,1.68,0,1,0,1.58,1.68A1.64,1.64,0,0,0,699,399.12Z" transform="translate(-609.93 -119.29)"/><path class="cls-5" d="M699,393.41a1.68,1.68,0,1,0,1.58,1.68A1.63,1.63,0,0,0,699,393.41Z" transform="translate(-609.93 -119.29)"/><path class="cls-5" d="M699,387.7a1.68,1.68,0,1,0,1.58,1.68A1.63,1.63,0,0,0,699,387.7Z" transform="translate(-609.93 -119.29)"/><path class="cls-5" d="M699,382a1.68,1.68,0,1,0,1.58,1.68A1.63,1.63,0,0,0,699,382Z" transform="translate(-609.93 -119.29)"/><path class="cls-5" d="M699,376.27a1.68,1.68,0,1,0,1.58,1.69A1.64,1.64,0,0,0,699,376.27Z" transform="translate(-609.93 -119.29)"/><path class="cls-5" d="M699,370.56a1.68,1.68,0,1,0,1.58,1.68A1.64,1.64,0,0,0,699,370.56Z" transform="translate(-609.93 -119.29)"/><path class="cls-5" d="M699,364.85a1.68,1.68,0,1,0,1.58,1.68A1.63,1.63,0,0,0,699,364.85Z" transform="translate(-609.93 -119.29)"/><path class="cls-5" d="M797.39,434.73a1.58,1.58,0,1,0-1.58,1.68A1.63,1.63,0,0,0,797.39,434.73Z" transform="translate(-609.93 -119.29)"/><path class="cls-5" d="M802.75,434.73a1.58,1.58,0,1,0-1.58,1.68A1.63,1.63,0,0,0,802.75,434.73Z" transform="translate(-609.93 -119.29)"/></g><g class="cls-21"><path class="cls-5" d="M967.67,430.24a1.6,1.6,0,1,0-1.6,1.67A1.64,1.64,0,0,0,967.67,430.24Z" transform="translate(-609.93 -119.29)"/><path class="cls-5" d="M973.1,430.24a1.6,1.6,0,1,0-1.6,1.67A1.64,1.64,0,0,0,973.1,430.24Z" transform="translate(-609.93 -119.29)"/><path class="cls-5" d="M978.53,430.24a1.6,1.6,0,1,0-1.6,1.67A1.64,1.64,0,0,0,978.53,430.24Z" transform="translate(-609.93 -119.29)"/><path class="cls-5" d="M984,430.24a1.6,1.6,0,1,0-1.6,1.67A1.64,1.64,0,0,0,984,430.24Z" transform="translate(-609.93 -119.29)"/><path class="cls-5" d="M989.38,430.24a1.6,1.6,0,1,0-1.6,1.67A1.64,1.64,0,0,0,989.38,430.24Z" transform="translate(-609.93 -119.29)"/><path class="cls-5" d="M994.81,430.24a1.6,1.6,0,1,0-1.6,1.67A1.64,1.64,0,0,0,994.81,430.24Z" transform="translate(-609.93 -119.29)"/><path class="cls-5" d="M1000.23,430.24a1.6,1.6,0,1,0-1.59,1.67A1.63,1.63,0,0,0,1000.23,430.24Z" transform="translate(-609.93 -119.29)"/><path class="cls-5" d="M1005.66,430.24a1.6,1.6,0,1,0-1.59,1.67A1.63,1.63,0,0,0,1005.66,430.24Z" transform="translate(-609.93 -119.29)"/><path class="cls-5" d="M1011.09,430.24a1.6,1.6,0,1,0-1.6,1.67A1.64,1.64,0,0,0,1011.09,430.24Z" transform="translate(-609.93 -119.29)"/><path class="cls-5" d="M1016.52,430.24a1.6,1.6,0,1,0-1.6,1.67A1.64,1.64,0,0,0,1016.52,430.24Z" transform="translate(-609.93 -119.29)"/><path class="cls-5" d="M1021.94,430.24a1.6,1.6,0,1,0-1.59,1.67A1.63,1.63,0,0,0,1021.94,430.24Z" transform="translate(-609.93 -119.29)"/><path class="cls-5" d="M1027.37,430.17c-.2-.89-.66-1.6-1.6-1.61a1.68,1.68,0,0,0,0,3.35A1.59,1.59,0,0,0,1027.37,430.17Z" transform="translate(-609.93 -119.29)"/><path class="cls-5" d="M1031.7,427.05a1.79,1.79,0,0,0-2.08.16,2.08,2.08,0,0,0-.15,2.21,1.43,1.43,0,0,0,2.39.17A1.63,1.63,0,0,0,1031.7,427.05Z" transform="translate(-609.93 -119.29)"/><path class="cls-5" d="M1032.47,421.43a1.64,1.64,0,0,0-1.58,1.69,1.73,1.73,0,0,0,1.52,1.7c.87.21,1.66-.81,1.63-1.7A1.63,1.63,0,0,0,1032.47,421.43Z" transform="translate(-609.93 -119.29)"/><path class="cls-5" d="M1032.47,415.66a1.7,1.7,0,1,0,1.57,1.7A1.64,1.64,0,0,0,1032.47,415.66Z" transform="translate(-609.93 -119.29)"/><path class="cls-5" d="M1032.47,409.9a1.7,1.7,0,1,0,1.57,1.69A1.64,1.64,0,0,0,1032.47,409.9Z" transform="translate(-609.93 -119.29)"/><path class="cls-5" d="M1032.47,404.13a1.7,1.7,0,1,0,1.57,1.7A1.64,1.64,0,0,0,1032.47,404.13Z" transform="translate(-609.93 -119.29)"/><path class="cls-5" d="M1032.47,398.37a1.7,1.7,0,1,0,1.57,1.69A1.64,1.64,0,0,0,1032.47,398.37Z" transform="translate(-609.93 -119.29)"/><path class="cls-5" d="M1032.47,392.6a1.7,1.7,0,1,0,1.57,1.7A1.64,1.64,0,0,0,1032.47,392.6Z" transform="translate(-609.93 -119.29)"/><path class="cls-5" d="M1032.47,386.84a1.7,1.7,0,1,0,1.57,1.69A1.63,1.63,0,0,0,1032.47,386.84Z" transform="translate(-609.93 -119.29)"/><path class="cls-5" d="M1032.47,381.07a1.7,1.7,0,1,0,1.57,1.7A1.64,1.64,0,0,0,1032.47,381.07Z" transform="translate(-609.93 -119.29)"/><path class="cls-5" d="M1032.47,375.31A1.7,1.7,0,1,0,1034,377,1.64,1.64,0,0,0,1032.47,375.31Z" transform="translate(-609.93 -119.29)"/><path class="cls-5" d="M1032.47,369.54a1.7,1.7,0,1,0,1.57,1.7A1.64,1.64,0,0,0,1032.47,369.54Z" transform="translate(-609.93 -119.29)"/><path class="cls-5" d="M1032.47,363.78a1.7,1.7,0,1,0,1.57,1.69A1.64,1.64,0,0,0,1032.47,363.78Z" transform="translate(-609.93 -119.29)"/><path class="cls-5" d="M1032.47,358a1.7,1.7,0,1,0,1.57,1.7A1.64,1.64,0,0,0,1032.47,358Z" transform="translate(-609.93 -119.29)"/></g><g class="cls-21"><path class="cls-5" d="M1065.27,274.27c0-.37,0-1.79,0-2.11,0-2.17-4.94-3.93-11-3.93-.56,0-1.1,0-1.63,0-5.33.28-9.42,1.91-9.42,3.89s4.09,3.6,9.42,3.88c.53,0,1.07,0,1.63,0,1.81,0,5-.65,5.15,1C1060.12,287,1064.83,287.55,1065.27,274.27Z" transform="translate(-609.93 -119.29)"/><path class="cls-5" d="M1050.15,288.27a27.76,27.76,0,0,1-6.25,6.06v3.25a43.55,43.55,0,0,0,18.74,0V287.43a45.22,45.22,0,0,1-9.37.95C1052.21,288.38,1051.17,288.34,1050.15,288.27Z" transform="translate(-609.93 -119.29)"/><path class="cls-5" d="M1043.9,287.43v3.67A26.41,26.41,0,0,0,1047,288C1046,287.81,1044.92,287.64,1043.9,287.43Z" transform="translate(-609.93 -119.29)"/><path class="cls-5" d="M1067.05,270.63c-1.3-2.23-7-3.9-13.78-3.9s-12.48,1.67-13.78,3.9a2,2,0,0,0-.28,1V292a2.39,2.39,0,0,0,.4.52l.15.12a1,1,0,0,0,.37.15V273.33c1.47,1.35,4.6,2.4,8.52,2.87-2.51-.5-4.64-1.37-5.57-2.61a3.85,3.85,0,0,1-1.17-1,1.67,1.67,0,0,1-.35-1,1.7,1.7,0,0,1,.35-1c1.26-1.77,5.86-3.09,11.36-3.09.65,0,1.29,0,1.91,0,5.35.17,10.7,1.76,10.7,4.57v.42c0,.34,0,.8,0,1.17a4.45,4.45,0,0,0,.53-.42v25c-1.45,1.93-6.31,3.82-13.15,3.82s-11.69-1.89-13.14-3.82V295.5a4.73,4.73,0,0,1-.92-.21v3.31c1.59,2.57,7.28,4.48,14.06,4.48s12.48-1.91,14.06-4.48v-27A2,2,0,0,0,1067.05,270.63Z" transform="translate(-609.93 -119.29)"/><path class="cls-5" d="M1040.49,294.87c2.33,0,6-2.32,11.8-10.49l.65-.95c.16-.22.31-.44.46-.67a1,1,0,0,0-.13-2,1,1,0,0,0-1,1,1.21,1.21,0,0,0,0,.19l-.45.67c-.22.33-.44.64-.66.95-7.77,11-11,10.15-11.78,9.59-.08-.05-.15-.12-.23-.18-1.63-1.48-1.74-6.05-.61-10.71v-4.34c-2.53,6.3-3,14.23.13,16.4a2.82,2.82,0,0,0,.48.27A3.21,3.21,0,0,0,1040.49,294.87Z" transform="translate(-609.93 -119.29)"/><path class="cls-5" d="M1051.39,282.23l.28-.41a1.69,1.69,0,0,1,1.6-1.72,1.61,1.61,0,0,1,1.57,1.66,1.66,1.66,0,0,1-1.07,1.57l-.33.49-.51.73c.11,0,.22,0,.34,0a2.83,2.83,0,0,0,2.74-2.9v-5l-.45,0a27.41,27.41,0,0,1-3,0c-.68,0-1.36-.1-2-.18v5.17a2.92,2.92,0,0,0,.32,1.32C1051,282.75,1051.21,282.5,1051.39,282.23Z" transform="translate(-609.93 -119.29)"/></g><path class="cls-22" d="M943.46,156.66l-4.37-7.38h-2.91v-8.72h-2.71v-7.17H917.22v7.17h-2.71v8.72H911.6l-4.37,7.38v11.78h6.57l-3.48,5.16h4.32l-.4,1.37-1,3.54h24.23l-1.4-4.91h4.31l-3.48-5.16h6.57ZM913.37,161h-4.21v-2.27h4.21Zm4.77-20.4v-6.19h14.41v13.94H918.14Zm-.26,10.16h14.93l2.37,4H915.51Zm-2.72,8h20.37v7.72H934l-.31-1.09H934V163H916.7v2.37H917l-.31,1.09h-1.54Zm21.07,18.84H914.46l1.13-3.93,1.48-5.16.59-2,.31-1.09.07-.26h14.61l.07.26.31,1.09.59,2,1.48,5.16Z" transform="translate(-609.93 -119.29)"/><g class="cls-21"><path class="cls-5" d="M728.44,169.17,712.27,152l-2.91,3.09-2.91,3.09,16.17,17.17,2.91-3.09Zm-11.91-4.57a1.25,1.25,0,0,1-1.18-1.31,1.73,1.73,0,0,1,.28-.84c.4-.64.9-1.33.9-1.33s.51.73.91,1.33a1.61,1.61,0,0,1,.28.84A1.25,1.25,0,0,1,716.53,164.6Zm2.78,4.89a1.68,1.68,0,0,1-1.59-1.77,2.23,2.23,0,0,1,.38-1.12c.54-.87,1.21-1.79,1.21-1.79s.68,1,1.21,1.78a2.17,2.17,0,0,1,.38,1.13A1.68,1.68,0,0,1,719.31,169.49Z" transform="translate(-609.93 -119.29)"/><path class="cls-5" d="M706.31,154.59a1,1,0,0,1,1.2-.39,3.77,3.77,0,0,0-.49,2.47l3.83-4.08a3.21,3.21,0,0,0-2.41.6,1.78,1.78,0,0,0-2.57,0l-3.11,3.3a2.89,2.89,0,0,0-.64,2.19l2.71,15.94a2.9,2.9,0,0,1-.65,2.19l-.71.76a1.93,1.93,0,0,0-2.37.38l-10.53,11.18a2.26,2.26,0,0,0,0,3.05,2,2,0,0,0,2.88,0L704,181a2.24,2.24,0,0,0,.36-2.52l1.16-1.23a2.88,2.88,0,0,0,.65-2.19l-2.71-15.95a2.88,2.88,0,0,1,.65-2.19Zm-12.65,36.18a1.14,1.14,0,0,1-1.69,0,1.33,1.33,0,0,1,0-1.8,1.15,1.15,0,0,1,1.7,0A1.33,1.33,0,0,1,693.66,190.77Z" transform="translate(-609.93 -119.29)"/><path class="cls-5" d="M724.05,174.75a3.2,3.2,0,0,0,2.88-1,3.71,3.71,0,0,0,1-3.06Z" transform="translate(-609.93 -119.29)"/><path class="cls-5" d="M719.69,179.43s-.85,1.16-1.53,2.25a2.93,2.93,0,0,0-.47,1.41,2,2,0,1,0,4,0,2.79,2.79,0,0,0-.48-1.42C720.54,180.67,719.69,179.43,719.69,179.43Z" transform="translate(-609.93 -119.29)"/><path class="cls-5" d="M717.52,175.49c-.82-1.23-1.86-2.75-1.86-2.75s-1,1.43-1.87,2.76a3.47,3.47,0,0,0-.58,1.73,2.46,2.46,0,1,0,4.9,0A3.31,3.31,0,0,0,717.52,175.49Z" transform="translate(-609.93 -119.29)"/></g><g class="cls-21"><polygon class="cls-5" points="422 228.24 423.74 228.24 430.02 228.24 430.02 225.82 422 225.82 413.98 225.82 413.98 228.24 420.26 228.24 422 228.24"/><path class="cls-5" d="M1049.61,315.73h-35.36a2.4,2.4,0,0,0-2.32,2.47V342a2.4,2.4,0,0,0,2.32,2.47h35.36a2.4,2.4,0,0,0,2.32-2.47V318.2A2.4,2.4,0,0,0,1049.61,315.73Zm-17.68,28.18a.59.59,0,1,1,.55-.59A.57.57,0,0,1,1031.93,343.91Zm17.88-1.66h-35.76V318h35.76Z" transform="translate(-609.93 -119.29)"/><polygon class="cls-5" points="423.74 228.99 422 228.99 420.26 228.99 420.26 230.49 408.77 230.49 408.77 233.11 422 233.11 435.23 233.11 435.23 230.49 423.74 230.49 423.74 228.99"/><polygon class="cls-5" points="408.54 201.14 408.54 203.01 422 203.01 435.46 203.01 435.46 201.14 422 201.14 408.54 201.14"/><path class="cls-5" d="M1018.47,323.32v3.59h26.92v-3.59h-26.92Zm5.74,2.88h-4.53V324h4.53Zm6.66,0h-4.53V324h4.53Zm8.78-2.18h4.53v2.18h-4.53Zm-6.66,0h4.53v2.18H1033Z" transform="translate(-609.93 -119.29)"/><path class="cls-5" d="M1018.47,328v11.77h26.92V328h-26.92Zm5.74,10.29h-4.53v-9.52h4.53Zm6.66,0h-4.53V336.1h4.53Zm0-3.67h-4.53v-2.18h4.53Zm0-3.67h-4.53v-2.18h4.53Zm8.78-2.18h4.53v2.18h-4.53Zm0,3.67h4.53v2.18h-4.53Zm0,3.67h4.53v2.18h-4.53Zm-6.66-7.34h4.53v2.18H1033Zm0,3.67h4.53v2.18H1033Zm0,3.67h4.53v2.18H1033Z" transform="translate(-609.93 -119.29)"/></g><g class="cls-21"><polygon class="cls-5" points="52.09 196.62 46.7 190.89 45.29 192.4 43.87 193.9 49.26 199.63 50.68 198.12 52.09 196.62"/><path class="cls-5" d="M654.75,311.19l1.41-1.5.4-.42-3.78-4a12.19,12.19,0,0,1-1.59,2.15c-.18.19-.37.36-.56.54a11.52,11.52,0,0,1-1.47,1.16,10.8,10.8,0,0,1-14-1.7,11.23,11.23,0,0,1-1.23-1.56,12.36,12.36,0,0,1-1.87-4.6,12.51,12.51,0,0,1,3.1-10.83,11.06,11.06,0,0,1,4.62-3c.27-.09.53-.16.8-.23a10.84,10.84,0,0,1,10.56,3.19,12.55,12.55,0,0,1,2.39,13.24,11.16,11.16,0,0,0,4.11-8.75c0-6.05-4.62-11-10.32-11a10,10,0,0,0-7,2.95,10,10,0,0,0-7-2.95c-5.7,0-10.32,4.91-10.32,11a10.92,10.92,0,0,0,7.29,10.49,11.25,11.25,0,0,0,4.9,12,10,10,0,0,0,14.1-4,11.44,11.44,0,0,0,1.11-3l2.57,2.74.39-.42Z" transform="translate(-609.93 -119.29)"/><polygon class="cls-5" points="52.97 196.71 52.58 197.13 51.16 198.63 49.74 200.14 49.35 200.56 52.53 203.93 54.34 202.01 56.15 200.09 52.97 196.71"/><path class="cls-5" d="M649.64,292.06a8.92,8.92,0,0,0-12.9,0,10.15,10.15,0,0,0-.35,13.3c.12.14.23.28.35.41a8.75,8.75,0,0,0,12.9,0l-.13-.14.13.14c.07-.07.12-.14.18-.21s.31-.35.45-.53A10.15,10.15,0,0,0,649.64,292.06Zm-12.26,13a13.76,13.76,0,0,0,3-2.17,10.85,10.85,0,0,1-2.15-3c.16,1.37.69,2.44.37,2.78s-.72-.05-.72-.05a5.56,5.56,0,0,1-1.61-3.47,4.33,4.33,0,0,1,.19-1.44,10.69,10.69,0,0,0-1.41.77,8.92,8.92,0,0,1,2.22-5.55,11.64,11.64,0,0,0-.18,2,10,10,0,0,0,.1,1.46c.56-.68,1.22-.94,1.41-.73s.06.74-.12,1.46a9.56,9.56,0,0,1,4.91.28,11.76,11.76,0,0,0,.27-2.47,11.24,11.24,0,0,0-1-4.69,7.93,7.93,0,0,1,6.4,2.52,9.15,9.15,0,0,1,.93,11.16,10.72,10.72,0,0,0-4.45-5.54,10.27,10.27,0,0,0-2.14-1,11.15,11.15,0,0,1-3,5.54,9.94,9.94,0,0,0,7,3,7.5,7.5,0,0,0,.82,0A7.87,7.87,0,0,1,637.38,305.09Z" transform="translate(-609.93 -119.29)"/></g><g class="cls-21"><path class="cls-5" d="M713.35,342.28V327.51l-5.93-6.3H684.67V357.8h28.68Zm-5-18.72,3.72,3.95h-4.63v-4.93Zm-22.74-1.38H706.5v6.3h5.93V341.3H685.59ZM689.33,356h-3.51v-4h3.51Zm0-5.28h-3.51v-4h3.51ZM693.9,356h-3.51v-4h3.51Zm0-5.28h-3.51v-4h3.51Zm4.58,5.28H695v-4h3.51Zm0-5.28H695v-4h3.51Zm4.57,5.28h-3.51v-4h3.51Zm0-5.28h-3.51v-4h3.51Zm4.58,5.28h-3.52v-4h3.52Zm0-5.28h-3.52v-4h3.52ZM712.2,356h-3.51v-4h3.51Zm0-5.28h-3.51v-4h3.51Z" transform="translate(-609.93 -119.29)"/><path class="cls-5" d="M692.45,332.54a1.18,1.18,0,0,1,1,.52l.52-.62a1.92,1.92,0,0,0-1.54-.75,1.87,1.87,0,0,0-1.39.59,2.06,2.06,0,0,0-.57,1.48,2,2,0,0,0,.56,1.46,1.9,1.9,0,0,0,1.42.58,1.94,1.94,0,0,0,1.5-.76l-.54-.59a1.19,1.19,0,0,1-1,.52,1,1,0,0,1-.77-.34,1.22,1.22,0,0,1-.31-.89,1.2,1.2,0,0,1,.33-.88A1.15,1.15,0,0,1,692.45,332.54Z" transform="translate(-609.93 -119.29)"/><polygon class="cls-5" points="86.75 214.67 85.78 212.49 84.66 212.49 84.66 216.46 85.49 216.46 85.49 213.96 86.49 216.13 86.99 216.13 88 213.96 88 216.46 88.84 216.46 88.84 212.49 87.71 212.49 86.75 214.67"/><polygon class="cls-5" points="90.95 213.97 90.14 212.49 89.24 212.49 90.53 214.89 90.53 216.46 91.36 216.46 91.36 214.89 92.66 212.49 91.75 212.49 90.95 213.97"/><path class="cls-5" d="M705.23,331.78l-1.41,1.63v-1.63H703v4h.83v-1.12l.38-.44,1.09,1.56h1l-.78-1.15-.71-1.06,1.49-1.76Z" transform="translate(-609.93 -119.29)"/></g><g class="cls-21"><path class="cls-5" d="M1121.93,240.26v-7.77h-18v6.56l-13.59,6.12,7.86,19.68,14.24-6.41-.26.84,16.93,6.27,6.63-20.19Zm0,12.25.11-.14-.11-.12v-.43l1.55-1.26.36-.46-1.91-1.61v-.38l1-1,1.69,2.34c.05,0,1.78-2.31,1.78-2.31l1.15,1.24-2.21,1.8c0,.05,2.18,1.89,2.18,1.89l-1.17,1.22-1-1.42.1,4-.74-.28L1123,255l-2.1-.78-.27-.1.18-.22h1.08Zm.2-6.39a.44.44,0,0,1,0-.16.49.49,0,0,1,.63-.32.6.6,0,0,1,.11.06.63.63,0,0,1,.77-.28.7.7,0,0,1,.44.72.58.58,0,0,1,.38.73A18.38,18.38,0,0,1,1122.13,246.12Zm6.29,3.84a.56.56,0,0,1,.17.09,1,1,0,0,1,1.14-.42,1,1,0,0,1,.66,1.07.87.87,0,0,1,.57,1.09.8.8,0,0,1-.08.16l-3.43-1.27a.67.67,0,0,1,0-.24A.73.73,0,0,1,1128.42,250Zm-23.92-16.82h16.82v20.08h-8.21l-1.42-3.54-1.16-2.91h3.28v2.91h6.33V234.31h-14.46v3.93l-1.18.53Zm9.32,20.72-.2.64-.26-.64Zm.29-7.47v-2.08l.2-.26h3.32l2.2,2.8v2.5h-5.72v-2.59h.88v-.29Zm.4-2.67.13-.17h.35v-.3h-.16l1.14-1.8,1.49,2.28Zm.48-3.38h-1.18v2.81l-2.14-.19-2.14.19v-2.81h-1.18v-.23a4.89,4.89,0,0,0,3.32-1.51,4.83,4.83,0,0,0,3.21,1.51C1115,240.11,1115,240.34,1115,240.34Zm-5.46,3.21h4.28v2.81l-1.6-.14-.54-.05-1.22.11c-.11,0-.23-.29-.23-.29l-.69-1.73Zm-11,20.46-7.39-18.5,12.79-5.76.61-.28,1.18-.53.9-.4.28.69,1.6,4,.12.31.3.74.4,1,.25.62.17.42,0,.13.11.28.31.76.38,1,.48,1.2,1.6,4,.7,1.75.36.9.28.7-.57.26-.75.33Zm30.21.71-15.8-5.85.24-.77,1.63-.73-.79-2,.47-1.54h1.25l-.66,2,13.65,5.06,1.14-3.48,3.61-11-11.51-4.27V241l13,4.81Z" transform="translate(-609.93 -119.29)"/><path class="cls-5" d="M1124.45,250.59a.57.57,0,0,0,.22,0c.09,0,1.68,2.19,1.68,2.19l.68-.71-2-1.72a.56.56,0,0,0,0-.24c0-.1,2.06-1.78,2.06-1.78l-.67-.72-1.62,2.17a.51.51,0,0,0-.23,0c-.09,0-1.67-2.18-1.67-2.18l-.68.7,2,1.73a.55.55,0,0,0,0,.24c0,.09-2.06,1.78-2.06,1.78l.67.72Z" transform="translate(-609.93 -119.29)"/><path class="cls-5" d="M1110.43,241.06c-.19,0-.35.26-.35.59v.58h.71v-.58C1110.79,241.32,1110.63,241.06,1110.43,241.06Z" transform="translate(-609.93 -119.29)"/><path class="cls-5" d="M1112.9,241.06c-.19,0-.35.26-.35.59v.58h.71v-.58C1113.26,241.32,1113.1,241.06,1112.9,241.06Z" transform="translate(-609.93 -119.29)"/><path class="cls-5" d="M1111.67,241.06c-.2,0-.36.26-.36.59v.58h.71v-.58C1112,241.32,1111.86,241.06,1111.67,241.06Z" transform="translate(-609.93 -119.29)"/><path class="cls-5" d="M1110.79,244.77c0-.32-.16-.58-.36-.58s-.35.26-.35.58v.58h.71Z" transform="translate(-609.93 -119.29)"/><path class="cls-5" d="M1112.89,245.35h.37v-.47c0-.43-.16-.69-.36-.69s-.35.26-.35.58v.58Z" transform="translate(-609.93 -119.29)"/><path class="cls-5" d="M1111.67,245.35h.35v-.58c0-.32-.15-.58-.35-.58s-.36.26-.36.58v.58Z" transform="translate(-609.93 -119.29)"/><path class="cls-5" d="M1112.9,247.31c-.19,0-.35.26-.35.58v.58h.71v-.58C1113.26,247.57,1113.1,247.31,1112.9,247.31Z" transform="translate(-609.93 -119.29)"/><path class="cls-5" d="M1111.67,247.31c-.2,0-.36.26-.36.58v.58h.71v-.58C1112,247.57,1111.86,247.31,1111.67,247.31Z" transform="translate(-609.93 -119.29)"/><path class="cls-5" d="M1109.75,249.67l-.22-.54-1-2.37-.12-.3-.46-1.16-.09-.22-1.9-4.77-.08-.2-.25.11-1.79.81-11.27,5.08,4.72,11.83.93,2.3,13.3-6-.92-2.31Zm-3.7,4.34a2.42,2.42,0,0,0-2.63-.43,2.7,2.7,0,0,0-1.54,2.31l-.76.34a13.54,13.54,0,0,0,.19-3.76,28.52,28.52,0,0,0-1.92-8l.68-.31a28.18,28.18,0,0,0,3.39,6.15,13.79,13.79,0,0,0,3.35,3.33Z" transform="translate(-609.93 -119.29)"/><path class="cls-5" d="M1102.38,250.1l-.6.27a12.12,12.12,0,0,1,.3,1.75c0,.11,0,.23,0,.33l1.44-.64a10.6,10.6,0,0,1-.82-1.15C1102.62,250.48,1102.5,250.3,1102.38,250.1Z" transform="translate(-609.93 -119.29)"/></g><g class="cls-21"><path class="cls-5" d="M863.78,224.58l-6.08-1a4.93,4.93,0,0,1,.11,1,4.48,4.48,0,1,1-8.95,0,4.93,4.93,0,0,1,.1-1l-6.08,1,1,7.61,1.32,10.95-.84,8.82h17.92l-.8-8.82Zm-10.45,5.31a2.83,2.83,0,1,1-2.66,2.83A2.75,2.75,0,0,1,853.33,229.89Zm-6.89,7.62a2.67,2.67,0,1,1,2.66,2.83A2.74,2.74,0,0,1,846.44,237.51Zm6.89,7.62A2.83,2.83,0,1,1,856,242.3,2.75,2.75,0,0,1,853.33,245.13Zm4.24-4.79a2.83,2.83,0,1,1,2.66-2.83A2.75,2.75,0,0,1,857.57,240.34Z" transform="translate(-609.93 -119.29)"/><path class="cls-5" d="M849.28,236.6a.91.91,0,0,1,.75.39l.39-.47a1.46,1.46,0,0,0-1.16-.56,1.41,1.41,0,0,0-1.06.45,1.56,1.56,0,0,0-.43,1.11,1.53,1.53,0,0,0,.43,1.1,1.4,1.4,0,0,0,1.07.44,1.43,1.43,0,0,0,1.13-.57l-.4-.44a.93.93,0,0,1-.76.38.76.76,0,0,1-.58-.25.93.93,0,0,1-.24-.67.87.87,0,0,1,.26-.66A.8.8,0,0,1,849.28,236.6Z" transform="translate(-609.93 -119.29)"/><polygon class="cls-5" points="247.64 117.83 247.03 116.72 246.35 116.72 247.32 118.53 247.33 119.72 247.96 119.72 247.96 118.53 248.93 116.72 248.25 116.72 247.64 117.83"/><path class="cls-5" d="M853.79,240.81,852.73,242v-1.23h-.63v3h.64V243l.28-.33.83,1.18h.73l-.58-.87-.54-.8,1.12-1.32Z" transform="translate(-609.93 -119.29)"/><polygon class="cls-5" points="253.41 112.9 258.37 116 261.77 110.62 254.39 105.43 253.41 112.9"/><polygon class="cls-5" points="225.09 110.62 228.49 116 233.45 112.9 232.47 105.45 225.09 110.62"/><path class="cls-5" d="M853.33,228.23a3.55,3.55,0,0,0,3.44-3.65,3.7,3.7,0,0,0-.2-1.21c-.42.68-1.71,1.18-3.24,1.18s-2.82-.5-3.24-1.18a4,4,0,0,0-.2,1.21A3.55,3.55,0,0,0,853.33,228.23Z" transform="translate(-609.93 -119.29)"/><polygon class="cls-5" points="243.4 113.57 242.68 111.93 241.83 111.93 241.83 114.92 242.46 114.92 242.46 113.03 243.21 114.67 243.59 114.67 244.35 113.03 244.35 114.92 244.97 114.92 244.97 111.93 244.13 111.93 243.4 113.57"/></g><g class="cls-21"><path class="cls-5" d="M811.83,439.16a2.46,2.46,0,0,1-.13-1.75l.33-1-2.06.7-.91-3,4.1-1.4.42-1.38L808.72,433l-.9-3,6.15-2.11.33,1.1.66-2.13-3.54-11.67a1.71,1.71,0,0,0-2.16-1.18l-5.25,1.8a1.85,1.85,0,0,0-1.1,2.29l7,22.94a1.69,1.69,0,0,0,2.15,1.17l3.3-1.13-2.24-.78A2.15,2.15,0,0,1,811.83,439.16Zm-7.74-21.46,6.15-2.11.9,3L805,420.68Zm1.24,4.1,6.16-2.11.9,3-6.16,2.11Zm1.24,4.1,6.16-2.11.9,3-6.15,2.11Z" transform="translate(-609.93 -119.29)"/><path class="cls-5" d="M814.75,437.27a2.32,2.32,0,0,1,.86-1.49l.84-.64-2.06-.72.92-3,4.09,1.42,1.11-.85-4.86-1.69.92-3,6.15,2.14-.34,1.09,1.71-1.31,3.59-11.65a1.83,1.83,0,0,0-1.09-2.29l-5.25-1.83a1.69,1.69,0,0,0-2.15,1.16l-7.07,22.9a1.86,1.86,0,0,0,1.1,2.3l3.29,1.14-1.38-2A2.36,2.36,0,0,1,814.75,437.27Zm5.61-22.2,6.15,2.14-.92,3-6.15-2.13Zm-1.26,4.09,6.14,2.14-.91,3-6.15-2.14Zm-1.27,4.1L824,425.4l-.92,3-6.14-2.14Z" transform="translate(-609.93 -119.29)"/><path class="cls-5" d="M842.37,437.42l-22.69-.06a1.77,1.77,0,0,0-1.71,1.82l0,5.86a1.77,1.77,0,0,0,1.71,1.82l22.68.06a1.77,1.77,0,0,0,1.72-1.81v-5.86A1.77,1.77,0,0,0,842.37,437.42Zm-16.24,8.14h-3v-6.87h2.95Zm4,0h-2.95l0-6.87h3Zm4.06,0h-3v-6.87h3Zm4,0h-2.95l0-6.87h2.95Zm4.06,0h-3v-6.87h3Z" transform="translate(-609.93 -119.29)"/><path class="cls-5" d="M819.68,436.9h1L819.44,435l2.39-1.83,2.53,3.71h1.37l-3-4.4,2.39-1.83,3.79,5.57-.88.67h2.11l9.35-7.18a1.9,1.9,0,0,0,.39-2.54l-3.23-4.75a1.65,1.65,0,0,0-2.39-.41l-18.39,14.12a1.89,1.89,0,0,0-.38,2.54l2,3v-2.51A2.21,2.21,0,0,1,819.68,436.9ZM835,423.11l3.79,5.56-2.39,1.84-3.79-5.57Zm-3.29,2.52,3.79,5.57L833.09,433l-3.79-5.56Zm-3.28,2.52,3.79,5.57-2.39,1.84L826,430Z" transform="translate(-609.93 -119.29)"/></g><g class="cls-21"><path class="cls-5" d="M933,416.81l6.3,11.58V411.62a17.27,17.27,0,0,0-7.9,2.25Z" transform="translate(-609.93 -119.29)"/><path class="cls-5" d="M937.58,431.46H921.79a20.17,20.17,0,0,0,2.12,8.38l7.12-4.37Z" transform="translate(-609.93 -119.29)"/><path class="cls-5" d="M923.91,421.78a20.17,20.17,0,0,0-2.12,8.38h15.79Z" transform="translate(-609.93 -119.29)"/><path class="cls-5" d="M938.19,429,933,419.48l-2.7-5a18.68,18.68,0,0,0-5.78,6.14l1.13.69Z" transform="translate(-609.93 -119.29)"/><path class="cls-5" d="M955.19,420.66a18.66,18.66,0,0,0-5.77-6.14L941.53,429Zm-5.41-4.5a17.86,17.86,0,0,1,3.87,4.12l-9.16,5.61Z" transform="translate(-609.93 -119.29)"/><path class="cls-5" d="M957.92,430.16a20.16,20.16,0,0,0-2.11-8.38l-13.68,8.38ZM956.76,429H946.18l9.16-5.62A18.66,18.66,0,0,1,956.76,429Z" transform="translate(-609.93 -119.29)"/><path class="cls-5" d="M955.81,439.84a20.16,20.16,0,0,0,2.11-8.38H942.13Zm-.47-1.61-9.16-5.62h10.58A18.66,18.66,0,0,1,955.34,438.23Z" transform="translate(-609.93 -119.29)"/><path class="cls-5" d="M940.47,411.62v16.77l7.89-14.52A17.23,17.23,0,0,0,940.47,411.62Zm1.08,1.23a16.36,16.36,0,0,1,5.29,1.51l-5.29,9.73Z" transform="translate(-609.93 -119.29)"/><path class="cls-5" d="M938.59,434.44l-.29.54-.19.34-.13.25-.11.19-.61,1.13-.11.19-.1.19-.18.34-.33.6-.1.2-.62,1.12-.2.37-.52,1-.1.19-.44.8-.28.52-.61,1.13-.11.2-.24.44-.19.34-.18.34-.11.2-.61,1.13-.11.19-.23.43-.38.7-.11.19a1.16,1.16,0,0,0,.49.37l.18.1c.35.18.7.35,1.06.5l.19.07a2,2,0,0,0,.22.09l.5.19.34.12.18.06c.35.11.71.22,1.06.31l.19,0c.35.09.7.17,1.06.23l.18,0c.35.06.71.11,1.06.15l.19,0c.31,0,.63.05,1,.06V433.23l-.55,1Zm-5.46,12.93-.26-.11.26-.48Zm1.25.51-.57-.22h.57Zm0-.41h-1a8.87,8.87,0,0,1,0-1c0-.11,1.06-.11,1.06-.11Zm0-1.32h-.9l.61-1.13h.29Zm0-1.33h-.18l.18-.33Zm1.24,3.46c-.35-.1-.71-.22-1.06-.34v-.28h1.06Zm0-.81h-1.06v-1.13h1.06Zm0-1.32h-1.06V445h1.06Zm0-1.33h-1.06v-.66l.25-.46h.81Zm0-1.32h-.7l.61-1.13A4.79,4.79,0,0,1,935.62,443.5Zm1.25,5.07c-.36-.07-.71-.15-1.06-.25v-.66h1.06Zm0-1.1h-1.06v-1.13h1.06Zm0-1.32h-1.06V445h1.06Zm0-1.33h-1.06V443.7h1.06Zm0-1.32h-1.06v-1.13h1.06Zm0-1.32h-1.06v-.31l.44-.82h.62Zm0-1.32h-.52l.52-.95Zm1.24,7.9c-.35,0-.71-.09-1.06-.16v-.94h1.06Zm0-1.29h-1.06v-1.13h1.06Zm0-1.32h-1.06V445h1.06Zm0-1.33h-1.06V443.7h1.06Zm0-1.32h-1.06v-1.13h1.06Zm0-1.32h-1.06v-1.13h1.06Zm0-1.32h-1.06v-1.13h1.06Zm0-1.33h-1l.62-1.12h.42Zm0-1.32h-.32l.32-.59Z" transform="translate(-609.93 -119.29)"/><path class="cls-5" d="M931.54,444.82l.35-.64.18-.34.08-.14.11-.2.61-1.13.11-.19.15-.29c.06-.11.13-.22.19-.34l.27-.5.1-.19.62-1.13.25-.47.47-.85c0-.07.07-.13.1-.2.17-.3.33-.6.49-.9l.23-.42.61-1.13.11-.19.3-.55.18-.34c.05-.08.09-.16.13-.24l.11-.19c.21-.4.42-.78.61-1.13l.11-.2.1-.19a1.09,1.09,0,0,0,.08-.15l-.55.34-.32.2-.27.16-.18.11-1.06.65-.19.12-.14.09-.32.19-.6.37-.18.11-1.06.65-.31.19-.94.58-.18.11-.72.44-.32.19-.21.13-1.06.65-.18.11-.39.24-.32.2-.35.21-.19.12-1.06.65-.18.11-.37.23-.69.42-.19.11-1,.6-.18.1.08.13c.22.37.46.73.71,1.09l.13.19.22.32.19.23c.15.2.3.39.46.58l.16.2.44.49.18.2c.14.15.29.29.43.43l.19.2.44.41.19.16c.21.19.44.37.66.56l.24.19.16.12.18.14.72.5.34-.63.19-.34c.09-.18.2-.36.31-.57l.29-.54Zm3-8.68.62-.38s-.58,1.13-.58,1.13A4.71,4.71,0,0,1,934.56,436.14Zm-.18.11v.64h-1Zm-1.06.83h1.06v.22l-.5.91h-.56Zm0,1.33h.45l-.45.84Zm-1.25-.75.95-.58c.11,0,.11,1.13.11,1.13h-1.06Zm0,.75h1.06v1.12h-1.06Zm0,1.32h1l-.62,1.13h-.37Zm0,1.32h.27l-.27.49Zm-5.16,1.43a1,1,0,0,1-.08-.11S926.91,442.37,926.91,442.48Zm0-.3h-.23c-.2-.27-.42-.55-.61-.83l.48-.3h.36Zm0-1.32h0S926.91,440.83,926.91,440.86Zm1.24,3c0-.06-.11-.11-.17-.17h.17Zm0-.37h-.36c-.24-.26-.47-.53-.7-.8v-.33h1.06Zm0-1.32h-1.06v-1.13h1.06Zm0-1.32h-1.06v-.14l1.06-.65Zm1.25,4h-.22c-.29-.25-.57-.5-.84-.77v-.35h1.06Zm0-1.32h-1.06v-1.13h1.06Zm0-1.32h-1.06v-1.13h1.06Zm0-1.32h-1.06V440l.37-.23h.69Zm0-1.33H929l.38-.23Zm.54,5.93-.36-.3V445h.6Zm.7-1.29-.35.65h-.71V443.7h1.06Zm0-.67h-1.06v-1.13h1.06Zm0-1.32h-1.06v-1.13h1.06Zm0-1.32h-1.06v-1.13h1.06Zm0-1.33h-1.06v-.34l1.06-.65Zm1.25-1.75v.43h-.71Zm-1.06.65s1.06,0,1.06,0v1.12h-1.06Zm0,1.3h1.06v1.13h-1.06Zm0,1.32h1.06v.82l-.17.31h-.89Zm0,2.78v-.13C930.9,443.7,930.83,443.83,930.83,443.83Zm.18-.33h-.18v-1.13h.79Z" transform="translate(-609.93 -119.29)"/><path class="cls-5" d="M948.21,447.47l-.38-.7-.18-.33-.16-.29-.61-1.13-.11-.2-.19-.34-.18-.34-.24-.44-.11-.2-.61-1.13-.28-.52-.44-.8-.1-.19-.52-1-.2-.37-.62-1.12-.1-.2-.33-.6-.18-.34-.11-.19-.1-.19-.61-1.13-.11-.19-.14-.25-.18-.34-.29-.54-.11-.19-.55-1V450c.32,0,.64,0,.95-.06l.18,0c.36,0,.71-.09,1.07-.15l.18,0c.36-.06.71-.14,1.06-.23l.19,0c.35-.09.71-.2,1.06-.31l.18-.06.34-.12.5-.19a2,2,0,0,0,.22-.09l.18-.07c.36-.15.72-.32,1.07-.5l.18-.1c.18-.09.36-.18.53-.28Zm-6.61-9.85.33.59h-.33Zm0,.79H942l.62,1.12h-1Zm1.07,10.19c-.36.07-.71.12-1.07.16v-1.1h1.07Zm0-1.13H941.6v-1.13h1.07Zm0-1.32H941.6V445h1.07Zm0-1.33H941.6V443.7h1.07Zm0-1.32H941.6v-1.13h1.07Zm0-1.32H941.6v-1.13h1.07Zm0-1.32H941.6v-1.13h1.07Zm.18-.95.51.95h-.51Zm1.06,8.41c-.35.1-.7.18-1.06.25v-.91h1.06Zm0-.85h-1.06v-1.13h1.06Zm0-1.32h-1.06V445h1.06Zm0-1.33h-1.06V443.7h1.06Zm0-1.32h-1.06v-1.13h1.06Zm0-1.32h-1.06v-1.13h.62l.44.82Zm.19.19a7.71,7.71,0,0,1,.7,1.13h-.7Zm1.06,5.57c-.36.12-.71.24-1.06.34v-.62h1.06Zm0-.47H944.1v-1.13h1.06Zm0-1.32H944.1V445h1.06Zm0-1.33H944.1V443.7h.81l.25.46Zm.18-.33.18.33h-.18Zm0,.53h.29l.61,1.13h-.9Zm0,2.86v-.22h.57Zm1.06-.43s-1.06,0-1.06,0v-1.13h1A7.6,7.6,0,0,1,946.4,447.45Zm.18-.08v-.59l.26.48Z" transform="translate(-609.93 -119.29)"/><path class="cls-5" d="M954.05,440.26l-.18-.11-.69-.42-.32-.2-.23-.14-1.07-.65-.18-.12-.36-.21-.31-.2-.39-.24-.18-.11-1.07-.65-.18-.11-.34-.21-.72-.44-.18-.11-.94-.58-.31-.19-1.06-.65-.18-.11-.6-.37-.32-.19-.14-.09-.19-.12-1.06-.65-.18-.11-.27-.16-.32-.2-.48-.29c-.05,0,0,.05,0,.1l.11.19.11.2.61,1.13.11.19c0,.08.08.16.13.24l.18.34.3.55.1.19.62,1.13c.07.14.15.28.23.42.16.3.32.6.49.9,0,.07.07.13.1.2l.47.85.25.47.61,1.13.11.19.27.5.18.34a2.69,2.69,0,0,1,.16.29l.11.19.59,1.1.09.16.12.21.18.34.35.64.1.2.3.54.31.57a3.79,3.79,0,0,1,.18.34c.14.24.25.46.35.63l.72-.5.18-.14.15-.12.25-.19.66-.56.18-.16L952,445l.2-.2c.14-.14.29-.28.43-.43l.18-.2.44-.49.16-.2c.16-.19.31-.38.46-.58l.18-.23.22-.32.14-.19c.25-.36.48-.72.71-1.09l.08-.13-.18-.1Zm-8.89-3.37s-.66-1.13-.66-1.13.66.38.66.38Zm.18-.64,1,.64h-1Zm1.06,3-.46-.84h.46Zm0-1h-.56l-.5-.91v-.22h1.06Zm1.25,3.33-.27-.49h.27Zm0-.68h-.37l-.62-1.13h1Zm0-1.33h-1.07v-1.12h1.07Zm0-1.32h-1.07v-1.13a8.61,8.61,0,0,1,1.07.58Zm.18-.43.71.43h-.71Zm1.06,6.05-.07-.13C948.89,443.7,948.89,443.83,948.89,443.83Zm0-.33h-.18l-.61-1.13h.79Zm0-1.32H948l-.17-.31v-.82h1.06Zm0-1.32h-1.06v-1.13h1.06Zm0-1.33h-1.06v-1.12h1S948.89,439.53,948.89,439.53Zm1.25,5.63-.36.3-.24-.44h.6Zm0-.34h-.71l-.36-.65v-.47h1.07Zm0-1.32h-1.07v-1.13h1.07Zm0-1.32h-1.07v-1.13h1.07Zm0-1.32h-1.07v-1.13h1.07Zm0-1.33h-1.07v-1l1.07.65Zm.18-.23.37.23h-.37Zm1.06,4.75c-.27.27-.55.52-.84.77h-.22V443.7h1.06Zm0-.55h-1.06v-1.13h1.06Zm0-1.32h-1.06v-1.13h1.06Zm0-1.32h-1.06v-1.13H951l.37.23Zm.18,3v-.17h.18Zm1.07-1.17c-.23.27-.46.54-.7.8h-.37v-1.13h1.07Zm0-.52h-1.07v-1.13h1.07Zm0-1.32h-1.07v-.79l1.07.65Zm.18,0,0,0S952.81,440.86,952.81,440.83Zm.22,1.35h-.22v-1.13h.36l.48.3C953.46,441.63,953.24,441.91,953,442.18Z" transform="translate(-609.93 -119.29)"/></g></svg>