<svg id="Billboard" xmlns="http://www.w3.org/2000/svg" xmlns:xlink="http://www.w3.org/1999/xlink" viewBox="0 0 420 399.83"><defs><style>.cls-1{fill:none;}.cls-2{fill:#666;}.cls-3{fill:#424242;}.cls-4{fill:#2b2b2b;}.cls-5{fill:#353431;}.cls-6{fill:#474747;}.cls-7{fill:#d9d9d9;}.cls-8{fill:url(#linear-gradient);}.cls-9{fill:#1e1e1e;}.cls-10{fill:url(#linear-gradient-2);}.cls-11{fill:#545454;}.cls-12{fill:#b9b9b9;}.cls-13{fill:#c6c6c6;}.cls-14{fill:#494949;}.cls-15{fill:#eaeaea;}.cls-16{fill:#ccc;}.cls-17{fill:url(#linear-gradient-3);}.cls-18{fill:#fff;}.cls-19{fill:#0077b3;}.cls-20{fill:#0af;}.cls-21{fill:#ff9100;}.cls-22{clip-path:url(#clip-path);}.cls-23{fill:#6bceff;}</style><linearGradient id="linear-gradient" x1="270.31" y1="357.77" x2="324.99" y2="357.77" gradientTransform="matrix(-1, 0, 0, 1, 510.53, -50.17)" gradientUnits="userSpaceOnUse"><stop offset="0" stop-color="#acacac"/><stop offset="0.24" stop-color="#c9c9c9"/><stop offset="0.5" stop-color="#d7d7d7"/><stop offset="0.6" stop-color="#d1d1d1"/><stop offset="0.68" stop-color="#c7c7c7"/><stop offset="0.76" stop-color="#bbb"/><stop offset="1" stop-color="#7f7f7f"/></linearGradient><linearGradient id="linear-gradient-2" x1="297.4" y1="369.15" x2="297.4" y2="265.54" gradientTransform="matrix(-1, 0, 0, 1, 559.21, 0)" gradientUnits="userSpaceOnUse"><stop offset="0" stop-color="#515151"/><stop offset="1" stop-color="#777"/></linearGradient><linearGradient id="linear-gradient-3" x1="300.73" y1="419.01" x2="285.21" y2="364.95" gradientTransform="matrix(-1, 0, 0, 1, 559.21, 0)" gradientUnits="userSpaceOnUse"><stop offset="0" stop-color="#515151"/><stop offset="0.51" stop-color="#777"/></linearGradient><clipPath id="clip-path" transform="translate(-48.68 -50.17)"><polygon class="cls-1" points="447.77 218.46 432.48 60.11 86.7 181.26 75.32 306.31 447.77 218.46"/></clipPath></defs><polygon class="cls-2" points="186.31 278.9 186.31 276.8 296.58 222.81 304.5 221 186.31 278.9"/><polygon class="cls-3" points="288.7 226.67 186.31 276.8 186.31 246.26 283.29 225.53 288.7 226.67"/><polygon class="cls-4" points="168.79 250.01 168.79 277.45 91.7 266.61 168.79 250.01"/><polygon class="cls-4" points="169.09 237.19 169.07 239.52 65.63 263.05 60.29 262.31 169.09 237.19"/><polygon class="cls-3" points="351.21 195.15 340.23 200.59 186.31 235.6 186.31 233.22 351.21 195.15"/><polygon class="cls-5" points="138.53 244.25 168.79 249.58 168.79 243.85 151.94 241.15 151.92 241.15 138.53 244.25"/><polygon class="cls-5" points="186.31 242.09 186.31 247.33 196.77 241.15 196.88 235.74 196.77 235.74 186.31 242.09"/><polygon class="cls-6" points="168.79 249.58 168.79 288.97 181.73 290.92 181.73 234.27 168.79 237.26 168.79 243.85 168.79 249.58"/><polygon class="cls-7" points="181.73 234.27 181.73 290.92 186.31 288.6 186.31 247.33 186.31 242.09 186.31 233.22 181.73 234.27"/><polygon class="cls-5" points="245.79 267.08 245.81 267.08 420 179.27 387.58 186.76 245.64 258.59 195.96 283.74 186.31 288.6 181.73 290.92 168.79 288.97 33.33 268.53 22.02 273.17 182.4 299.03 195.79 292.3 245.79 267.08"/><polygon class="cls-8" points="187.71 287.99 185.55 399.83 240.22 399.83 237.71 262.77 237.56 254.28 236.85 215.37 188.89 226.44 188.8 231.43 188.69 236.84 187.88 279.42 187.71 287.99"/><polygon class="cls-7" points="419.94 178.74 402.65 11.2 398.78 8.6 415.98 175.27 419.94 178.74"/><polygon class="cls-5" points="138.53 244.25 151.92 241.15 151.94 241.15 168.79 237.26 181.73 234.27 186.31 233.22 196.97 230.75 244.93 219.69 244.93 219.68 387.58 186.76 420 179.27 419.94 178.74 415.98 175.27 410.72 176.28 410.68 176.28 410.72 176.67 26.65 267.19 26.64 267.19 22.79 266.35 22.71 271 138.53 244.25"/><polygon class="cls-9" points="394.62 9.92 410.68 176.28 410.72 176.28 415.98 175.27 398.78 8.6 394.62 9.92"/><path class="cls-10" d="M287.42,369.15c-19.1-39.51-46.21-41.87-51.21-21.83l1.36-70.71,47.95-11.07Z" transform="translate(-48.68 -50.17)"/><polygon class="cls-11" points="15.95 282.81 409.04 198.77 383.04 192.7 0.1 279.23 15.95 282.81"/><polygon class="cls-9" points="401.01 195.02 399.54 179.25 394.8 180.34 396.04 193.87 401.01 195.02"/><polygon class="cls-7" points="402.47 195.36 400.91 178.93 399.54 179.25 401.01 195.02 402.47 195.36"/><polygon class="cls-9" points="296.13 210.62 295.42 203.24 290.67 204.33 291.32 211.71 296.13 210.62"/><polygon class="cls-7" points="297.51 210.3 296.78 202.92 295.42 203.24 296.13 210.62 297.51 210.3"/><polygon class="cls-9" points="198 233.13 198.04 225.85 193.2 226.96 193.1 234.25 198 233.13"/><polygon class="cls-7" points="199.41 232.81 199.44 225.53 198.04 225.85 198 233.13 199.41 232.81"/><polygon class="cls-9" points="107.17 253.98 107.31 246.96 102.44 248.09 102.24 255.1 107.17 253.98"/><polygon class="cls-7" points="108.59 253.66 108.71 246.64 107.31 246.96 107.17 253.98 108.59 253.66"/><polygon class="cls-9" points="27.89 266.9 27.38 271.8 32.42 270.66 32.88 265.69 27.89 266.9"/><polygon class="cls-7" points="33.88 270.33 34.36 265.37 32.88 265.69 32.42 270.66 33.88 270.33"/><polygon class="cls-7" points="409.04 198.77 409.04 196.89 383.04 190.85 383.04 192.7 409.04 198.77"/><polygon class="cls-12" points="0.1 279.23 383.04 192.72 383.04 190.85 0.1 277.42 0.1 279.23"/><polygon class="cls-3" points="403.2 203.02 396.44 204.17 366.01 197.74 372.41 196.51 403.2 203.02"/><polygon class="cls-7" points="372.41 193.58 372.41 196.51 403.2 203.02 402.94 200.02 372.41 193.58"/><polygon class="cls-13" points="372.41 193.58 372.41 196.51 366.01 197.74 366.01 195.05 372.41 193.58"/><polygon class="cls-3" points="292.03 227.37 263.59 221.37 269.98 220.14 298.56 226.18 292.03 227.37"/><polygon class="cls-7" points="298.58 223.24 269.98 217.21 269.98 220.14 298.56 226.18 298.58 223.24"/><polygon class="cls-13" points="269.98 217.21 269.98 220.14 263.59 221.37 263.59 218.67 269.98 217.21"/><polygon class="cls-3" points="194.58 247.74 170.05 242.56 176.45 241.33 200.22 246.36 194.58 247.74"/><polygon class="cls-7" points="200.22 243.41 176.45 238.4 176.45 241.33 200.22 246.31 200.22 243.41"/><polygon class="cls-13" points="176.45 238.4 176.45 241.33 170.05 242.56 170.05 239.87 176.45 238.4"/><polygon class="cls-3" points="27.36 283.29 7.33 279.06 13.73 277.83 33.25 281.96 27.36 283.29"/><polygon class="cls-7" points="33.47 279.06 13.73 274.9 13.73 277.83 33.25 281.96 33.47 279.06"/><polygon class="cls-13" points="13.73 274.9 13.73 277.83 7.33 279.06 7.33 276.37 13.73 274.9"/><polygon class="cls-2" points="348.7 198.66 359.82 193.16 351.21 195.15 340.1 200.62 348.7 198.66"/><polygon class="cls-14" points="65.63 263.05 60.29 262.31 54.78 263.58 60.02 264.33 65.63 263.05"/><polygon class="cls-14" points="168.79 279.9 168.79 277.45 91.7 266.61 86.75 267.67 168.79 279.9"/><rect class="cls-15" x="455.61" y="58.33" width="0.9" height="167.56" transform="translate(-60.87 -2.5) rotate(-5.9)"/><polygon class="cls-15" points="0.2 277.85 383.14 191.28 383.14 190.24 0 276.98 0.2 277.85"/><polygon class="cls-3" points="104.28 266.91 83.1 262.44 89.5 261.21 109.96 265.54 104.28 266.91"/><polygon class="cls-7" points="110.23 262.65 89.5 258.28 89.5 261.21 109.96 265.54 110.23 262.65"/><polygon class="cls-13" points="89.5 258.28 89.5 261.21 83.1 262.44 83.1 259.75 89.5 258.28"/><polygon class="cls-7" points="394.62 9.92 394.02 3.71 390.09 0.43 406.84 173.88 410.72 176.67 410.68 176.28 394.62 9.92"/><polygon class="cls-6" points="406.84 173.88 18.43 265.4 22.79 266.34 22.79 266.35 26.64 267.19 26.65 267.19 410.72 176.67 406.84 173.88"/><polygon class="cls-12" points="31.38 125.67 18.43 265.4 406.84 173.88 390.09 0.43 31.38 125.67"/><path class="cls-11" d="M72.83,306.9c-.56.67-1.09,1.35-1.6,2.05s-1,1.43-1.48,2.14-.94,1.45-1.38,2.19-.87,1.5-1.27,2.27l0,0,5.74-8.65Z" transform="translate(-48.68 -50.17)"/><path class="cls-11" d="M84.5,179.4c-1.46-1.2-2.94-2.4-4.43-3.58l0,0a9.89,9.89,0,0,0,1,1c.34.33.71.63,1.07.94s.75.58,1.14.85a14.08,14.08,0,0,0,1.24.75Z" transform="translate(-48.68 -50.17)"/><path class="cls-11" d="M432.27,57.69l6.51-7.08,0,0c-.61.52-1.2,1.07-1.77,1.64s-1.11,1.15-1.67,1.73-1.07,1.19-1.59,1.81-1,1.25-1.48,1.9Z" transform="translate(-48.68 -50.17)"/><path class="cls-11" d="M447.76,218.47l7.75,5.59,0,0c-.6-.54-1.2-1.06-1.83-1.56s-1.27-1-1.9-1.44-1.3-.92-2-1.35-1.35-.85-2.05-1.24Z" transform="translate(-48.68 -50.17)"/><rect class="cls-15" x="446.7" y="50.19" width="0.9" height="174.26" transform="translate(-59.67 -7.21) rotate(-5.43)"/><polygon class="cls-16" points="18.53 265.83 406.94 174.32 406.74 173.45 18.33 264.96 18.53 265.83"/><polygon class="cls-16" points="18.88 265.44 31.83 125.72 30.94 125.62 17.98 265.35 18.88 265.44"/><polygon class="cls-16" points="31.51 126.1 390.22 0.86 389.97 0 31.26 125.23 31.51 126.1"/><path class="cls-17" d="M288,399.1c-8.45-21.53-46.6-60.59-52.25-23.12l-.44,23.12s12.59-35.89,53.39,38.28Z" transform="translate(-48.68 -50.17)"/><polygon class="cls-6" points="399.09 168.29 383.58 7.51 35.82 129.25 24.17 256.74 399.09 168.29"/><polygon class="cls-18" points="399.09 168.29 383.8 9.94 38.02 131.09 26.64 256.14 399.09 168.29"/><polygon class="cls-15" points="383.14 190.24 409.04 196.38 409.04 197.21 383.14 191.28 383.14 190.24"/><path class="cls-19" d="M258.19,242.71c1.16-.31,2,.72,2,2.4v.17c0,1.69-.78,3.16-1.94,3.45l-1.48.38,0,2.86-2,.49-.1-8.83Zm-1.45,2.5,0,1.83.81-.22c.42-.1.62-.49.62-1v-.11c0-.53-.21-.81-.64-.7Z" transform="translate(-48.68 -50.17)"/><path class="cls-19" d="M261.32,250.85l-.11-8.95,2-.54.08,6.68,3.23-.82,0,2.31Z" transform="translate(-48.68 -50.17)"/><path class="cls-19" d="M273.94,247.68l-2.21.56-.29-1.22-2.25.57-.26,1.35-2.1.52,2.23-9.66,2.4-.65Zm-3.7-5.65-.65,3.42,1.4-.36-.72-3.07Z" transform="translate(-48.68 -50.17)"/><path class="cls-19" d="M280.85,240.47l-2.05.53c0-1.06-.43-1.63-1.19-1.43s-1.24,1.19-1.23,2.45l0,.86c0,1.26.39,2,1.25,1.81s1.25-.95,1.24-2l2-.51c0,2.55-1.13,4.22-3.16,4.73-2.26.56-3.44-.76-3.47-3.89s1.1-5.06,3.35-5.66C279.53,236.83,280.82,237.88,280.85,240.47Z" transform="translate(-48.68 -50.17)"/><path class="cls-19" d="M282.08,245.64l-.11-9.3,5.88-1.58,0,2.26-3.71,1v1.29l3.18-.83,0,2.16-3.17.81v1.43l3.79-1,0,2.26Z" transform="translate(-48.68 -50.17)"/><path class="cls-19" d="M296.94,238.2l.05,3.71-2.28.56,0-3.69-2.85-5.08,2.59-.69,1.39,2.81h0l1.33-3.54,2.5-.67Z" transform="translate(-48.68 -50.17)"/><path class="cls-19" d="M307.52,234.38c0,3.33-1.41,5.41-3.91,6s-3.91-.71-3.95-4,1.36-5.35,3.84-6S307.48,231.05,307.52,234.38Zm-5.5,1v.89c0,1.32.53,2.1,1.56,1.84s1.54-1.31,1.52-2.63v-.91c0-1.32-.55-2.1-1.58-1.83S302,234,302,235.36Z" transform="translate(-48.68 -50.17)"/><path class="cls-19" d="M316.3,233.07c0,2.73-1.34,4.51-3.71,5.1s-3.74-.47-3.77-3.17l-.07-5.84,2.39-.64.07,5.82c0,1,.46,1.7,1.34,1.47a2,2,0,0,0,1.31-2.15l-.07-5.85,2.44-.65Z" transform="translate(-48.68 -50.17)"/><path class="cls-19" d="M323.79,231l1.8,3.76-2.83.71-1.42-3.3-.92.24,0,3.63-2.47.62-.11-9.92,4.72-1.27c1.74-.46,2.65.74,2.67,2.38A3.83,3.83,0,0,1,323.79,231ZM322,227.9l-1.63.43,0,1.84,1.63-.43a1.12,1.12,0,0,0,.69-1.11C322.71,228.09,322.39,227.8,322,227.9Z" transform="translate(-48.68 -50.17)"/><path class="cls-19" d="M334,222.4c2.78-.75,4.29.48,4.33,4s-1.43,5.51-4.21,6.21l-3.49.87-.12-10.14Zm-.88,2.68.06,5.3.86-.22c1.15-.29,1.63-1.23,1.62-2.63v-.89c0-1.4-.53-2.09-1.67-1.78Z" transform="translate(-48.68 -50.17)"/><path class="cls-19" d="M339.83,231.17l-.12-10.3,7.22-1.94,0,2.5-4.56,1.21,0,1.42,3.9-1,0,2.39-3.89,1,0,1.58,4.64-1.18,0,2.49Z" transform="translate(-48.68 -50.17)"/><path class="cls-19" d="M356,219.6v.19l-2.61.68v-.06c0-.55-.32-1-1.12-.77s-1.13.61-1.13,1c0,1.57,5-1,5.15,2.92a4.52,4.52,0,0,1-3.77,4.65c-2.41.6-4.23.31-4.27-2.67l2.59-.66c0,1.13.55,1.19,1.4,1,.5-.12,1.21-.35,1.21-1,0-1.52-5.06,1-5.11-3.08,0-2.43,1.77-3.83,3.8-4.37S355.89,217.35,356,219.6Z" transform="translate(-48.68 -50.17)"/><path class="cls-19" d="M360.63,226l-2.82.71-.13-10.61,2.83-.75Z" transform="translate(-48.68 -50.17)"/><path class="cls-19" d="M371.72,216.23l-2.8.73c0-.92-.8-1.29-1.72-1.05a2.76,2.76,0,0,0-2,3v1c0,1.56.72,2.31,2.1,2A2.11,2.11,0,0,0,369,220l-2,.52,0-2.19,4.85-1.26.07,6.05-1.51.38-.31-1a5.66,5.66,0,0,1-3.22,2.07c-3,.75-4.48-.76-4.53-4.41s1.71-6,4.82-6.84C369.59,212.67,371.69,213.5,371.72,216.23Z" transform="translate(-48.68 -50.17)"/><path class="cls-19" d="M383,220.36l-2.66.67-4-4.32.07,5.3-2.73.68-.13-10.88,2.59-.69,4,4.36-.06-5.41,2.79-.75Z" transform="translate(-48.68 -50.17)"/><path class="cls-19" d="M399.44,216.23l-3.19.79-.05-4.27-3.47.89,0,4.26-3.13.78-.13-11.16,3.13-.83,0,4.08,3.48-.9-.05-4.12,3.19-.85Z" transform="translate(-48.68 -50.17)"/><path class="cls-19" d="M401.6,215.69l-.13-11.37,8.8-2.36,0,2.77-5.56,1.46v1.58l4.75-1.24,0,2.64-4.75,1.22,0,1.74,5.66-1.44,0,2.76Z" transform="translate(-48.68 -50.17)"/><path class="cls-19" d="M420.2,206.12l2.43,4.3-3.83,1-1.92-3.77-1.26.31.05,4.24-3.35.84-.13-11.55,6.4-1.72c2.37-.63,3.61.73,3.63,2.64A4.48,4.48,0,0,1,420.2,206.12Zm-2.42-3.5-2.21.58,0,2.14,2.22-.57a1.39,1.39,0,0,0,.94-1.34A.75.75,0,0,0,417.78,202.62Z" transform="translate(-48.68 -50.17)"/><path class="cls-19" d="M424.27,210l-.14-11.75,9.43-2.53,0,2.86-5.95,1.57,0,1.64,5.08-1.33,0,2.73-5.09,1.31,0,1.8,6.07-1.54,0,2.85Z" transform="translate(-48.68 -50.17)"/><path class="cls-19" d="M404.48,103l.94-.28.31,9.52,1.49-.42,0,1-2.43.68Z" transform="translate(-48.68 -50.17)"/><path class="cls-19" d="M407.64,105a5.2,5.2,0,0,1,.42-2.63,1.88,1.88,0,0,1,1.13-.87,1,1,0,0,1,1.44.75,7.52,7.52,0,0,1,.24,1.8l.15,4.69a6.53,6.53,0,0,1-.28,2.53,1.77,1.77,0,0,1-1.22,1.11,1,1,0,0,1-1.28-.41,5.25,5.25,0,0,1-.45-2.3Zm2.26-.74a5.38,5.38,0,0,0-.17-1.41.38.38,0,0,0-.52-.28.79.79,0,0,0-.51.59,5,5,0,0,0-.1,1.48l.15,4.76a6.33,6.33,0,0,0,.19,1.62.39.39,0,0,0,.53.28.7.7,0,0,0,.51-.59,6.81,6.81,0,0,0,.08-1.68Z" transform="translate(-48.68 -50.17)"/><path class="cls-19" d="M412,100.75l1.73-.52a1.1,1.1,0,0,1,1.08.08,1.88,1.88,0,0,1,.44,1.23q0,.38.06,1.2a5.31,5.31,0,0,1-.12,1.44,1.45,1.45,0,0,1-.57.9.49.49,0,0,1,.49.28,3.36,3.36,0,0,1,.26,1.07c.06.51.11,1.27.14,2.29a10.18,10.18,0,0,0,.14,1.77l-1,.28c-.05-.12-.12-1.31-.19-3.59,0-.77-.1-1.2-.22-1.29a.59.59,0,0,0-.53,0l-.58.12.17,5.17-1,.27Zm2.34,2a2.88,2.88,0,0,0-.22-1.38.54.54,0,0,0-.51,0l-.61.18.12,3.61.62-.18a.68.68,0,0,0,.41-.26,1.26,1.26,0,0,0,.17-.59,9.42,9.42,0,0,0,0-1.26Z" transform="translate(-48.68 -50.17)"/><path class="cls-19" d="M416.52,99.4l2.51-.75,0,1-1.53.46.12,3.68,1.45-.42,0,1.06-1.44.42.13,3.93,1.54-.44,0,1.06-2.52.71Z" transform="translate(-48.68 -50.17)"/><path class="cls-19" d="M423.84,97.21l1.26-.38.36,10.91-.9.26-.14-4.38-.05-4.1-.89,8.76-.91.26-1.48-8.05.21,4,.15,4.35-.89.25-.35-10.83,1.25-.37,1.51,8.57Z" transform="translate(-48.68 -50.17)"/><polygon class="cls-20" points="369.04 42.28 374.58 40.55 365.06 25.35 357.11 45.99 362.37 44.35 365.42 35.91 369.04 42.28"/><polygon class="cls-19" points="362.37 44.35 360.76 48.82 370.99 45.71 369.04 42.28 362.37 44.35"/><polygon class="cls-21" points="365.42 35.91 362.37 44.35 369.04 42.28 365.42 35.91"/><g class="cls-22"><polygon class="cls-19" points="46.96 249.8 50.01 258.85 65.38 253.63 46.96 249.8"/><polygon class="cls-20" points="25.61 257.9 50.01 258.85 46.96 249.8 25.61 257.9"/><polygon class="cls-19" points="120 226.13 126.27 245.58 101.48 249.44 120 226.13"/><polygon class="cls-23" points="65.81 232.46 82.38 247.83 65.38 253.63 65.81 232.46"/><polygon class="cls-20" points="46.96 249.8 65.38 253.63 65.81 232.46 46.96 249.8"/><polygon class="cls-19" points="121.94 202.72 133.93 209.19 120 226.13 121.94 202.72"/><polygon class="cls-23" points="152.21 207.06 150.74 196.65 133.93 209.19 152.21 207.06"/><polygon class="cls-20" points="98.05 222.44 101.48 249.44 120 226.13 98.05 222.44"/><polygon class="cls-19" points="84.4 231.19 98.03 222.44 101.48 249.44 84.4 231.19"/><polygon class="cls-19" points="81.06 213.67 105.04 212.34 98.03 222.44 81.06 213.67"/><polygon class="cls-20" points="82.38 247.83 84.4 231.19 101.48 249.44 82.38 247.83"/><polygon class="cls-20" points="68.46 199.41 81.07 213.67 63.77 211.87 68.46 199.41"/><polygon class="cls-19" points="109.99 183.96 94.6 198.94 121.94 202.72 109.99 183.96"/><polygon class="cls-20" points="93.1 153.87 72.77 177.37 88.59 177.25 93.1 153.87"/><polygon class="cls-20" points="70.43 185.44 52.22 188.6 68.46 199.41 70.43 185.44"/><polygon class="cls-19" points="88.59 177.25 82.99 190.5 72.77 177.37 88.59 177.25"/><polygon class="cls-19" points="82.99 190.5 68.46 199.41 81.07 213.67 82.99 190.5"/><polygon class="cls-20" points="88.59 177.25 109.99 183.96 94.6 198.94 88.59 177.25"/><polygon class="cls-23" points="82.99 190.5 94.6 198.94 88.59 177.25 82.99 190.5"/><polygon class="cls-19" points="52.22 188.6 52.52 217.42 63.77 211.87 52.22 188.6"/><polygon class="cls-20" points="82.99 190.5 94.6 198.94 81.07 213.67 82.99 190.5"/><polygon class="cls-20" points="52.52 217.42 35.86 217.37 65.81 232.46 52.52 217.42"/><polygon class="cls-21" points="63.77 211.87 52.52 217.42 65.81 232.46 63.77 211.87"/><polygon class="cls-19" points="81.07 213.67 63.77 211.87 65.81 232.46 81.07 213.67"/><polygon class="cls-20" points="121.94 202.72 94.6 198.94 105.05 212.34 121.94 202.72"/><polygon class="cls-23" points="81.07 213.67 94.6 198.94 105.05 212.34 81.07 213.67"/><polygon class="cls-23" points="120 226.13 135.27 216.82 141.43 228.39 120 226.13"/><polygon class="cls-20" points="65.81 232.46 81.07 213.67 84.4 231.19 65.81 232.46"/><polygon class="cls-20" points="84.4 231.19 81.07 213.67 98.05 222.44 84.4 231.19"/><polygon class="cls-23" points="121.94 202.72 105.05 212.34 120 226.13 121.94 202.72"/><polygon class="cls-21" points="98.05 222.44 105.05 212.34 120 226.13 98.05 222.44"/><polygon class="cls-19" points="65.81 232.46 84.4 231.19 82.38 247.83 65.81 232.46"/><polygon class="cls-23" points="29.62 237.66 46.96 249.8 25.79 257.89 29.62 237.66"/><polygon class="cls-19" points="106.39 161.52 127.59 157.11 109.99 183.96 106.39 161.52"/><polygon class="cls-21" points="90.15 134.95 102.7 141.91 91.17 144.14 90.15 134.95"/><polygon class="cls-20" points="121.94 202.72 126.17 178.67 109.99 183.96 121.94 202.72"/><polygon class="cls-19" points="65.81 232.46 46.96 249.8 29.62 237.66 65.81 232.46"/><polygon class="cls-19" points="150.2 174.77 152.32 165.26 156.77 172.97 150.2 174.77"/><polygon class="cls-19" points="36.98 185.54 46.25 184.7 36.15 176.86 36.98 185.54"/><polygon class="cls-20" points="133.9 156.64 149.75 157.99 144.94 151.48 133.9 156.64"/><polygon class="cls-20" points="110.68 140.07 117.46 146.66 117.06 136.68 110.68 140.07"/><polygon class="cls-19" points="95.22 205 102.01 211.59 101.6 201.61 95.22 205"/><polygon class="cls-20" points="33.11 203.93 40.28 202.26 37.92 210.44 33.11 203.93"/><polygon class="cls-19" points="91.04 185.96 99.1 189.29 101.22 179.79 91.04 185.96"/><polygon class="cls-20" points="63.44 180.92 59.79 170.04 70.62 171.91 63.44 180.92"/><polygon class="cls-23" points="146.09 133.23 146.09 125.89 138.91 134.9 146.09 133.23"/><polygon class="cls-19" points="118.91 191.99 130.76 183.2 125.07 180.21 118.91 191.99"/><polygon class="cls-20" points="135.32 173.6 135.32 166.25 145.5 167.43 135.32 173.6"/><polygon class="cls-20" points="52.7 138.81 57.69 145.73 58.44 136.26 52.7 138.81"/><polygon class="cls-23" points="136.81 192.94 142.5 195.93 144.73 185.9 136.81 192.94"/><polygon class="cls-20" points="132.19 214.71 136.65 222.42 147.01 214.93 132.19 214.71"/><polygon class="cls-19" points="38.62 225.97 47.92 231.93 44.46 221.74 38.62 225.97"/><polygon class="cls-23" points="116.36 203.7 106.19 202.52 108.6 194.17 116.36 203.7"/><polygon class="cls-23" points="85.87 146.35 73.5 145.68 77.55 139.32 85.87 146.35"/><polygon class="cls-20" points="135.67 131.5 131.62 137.85 130.15 128.18 135.67 131.5"/><polygon class="cls-19" points="111.96 148.4 121.03 152.5 122.24 142.16 111.96 148.4"/><polygon class="cls-20" points="47.54 242.28 41.25 242.42 42.46 232.07 47.54 242.28"/><polygon class="cls-23" points="102.35 175.44 94.03 168.42 103.73 163.96 102.35 175.44"/><polygon class="cls-20" points="158.76 228.35 158.57 217.52 168.29 223.85 158.76 228.35"/><polygon class="cls-19" points="86.63 165.93 78.43 158.47 94.85 157.69 86.63 165.93"/><polygon class="cls-23" points="77.73 217.51 66.5 222.99 73.56 228.1 77.73 217.51"/><polygon class="cls-23" points="88.25 224.09 101.09 226.68 101.28 237.52 88.25 224.09"/><polygon class="cls-21" points="58.31 179.53 46.18 167.63 39.39 180.56 58.31 179.53"/><polygon class="cls-21" points="92.03 239.24 69.44 242.92 77.78 252.3 92.03 239.24"/><polygon class="cls-21" points="146.39 178.54 138.05 169.16 130.89 182.8 146.39 178.54"/><polygon class="cls-21" points="140.15 143.35 143.99 149.55 136.72 148.41 140.15 143.35"/><polygon class="cls-20" points="162.11 138.13 167.1 145.05 167.85 135.58 162.11 138.13"/><polygon class="cls-21" points="88.82 202.96 77.09 203.65 81.58 198.23 88.82 202.96"/></g></svg>